o model_6
v -0.13581 1.51356 3.52814
v -0.13581 1.5183 3.52914
v -0.13852 1.5183 3.52914
v -0.13852 1.52298 3.52904
v -0.13852 1.51356 3.52814
v -0.13581 1.50917 3.52609
v -0.13852 1.50917 3.52609
v -0.13581 1.50547 3.52319
v -0.13852 1.50547 3.52319
v -0.13581 1.50257 3.5196
v -0.13852 1.50257 3.5196
v -0.13581 1.50051 3.51549
v -0.13852 1.50051 3.51549
v -0.13581 1.4994 3.511
v -0.13852 1.4994 3.511
v -0.13581 1.4993 3.50632
v -0.13852 1.4993 3.50632
v -0.13581 1.5003 3.50158
v -0.13852 1.5003 3.50158
v -0.13581 1.50234 3.49719
v -0.13852 1.50234 3.49719
v -0.13581 1.50525 3.49349
v -0.13852 1.50525 3.49349
v -0.13581 1.50884 3.49059
v -0.13852 1.50884 3.49059
v -0.13581 1.51295 3.48853
v -0.13852 1.51295 3.48853
v -0.13581 1.51744 3.48742
v -0.13852 1.51744 3.48742
v -0.13581 1.52212 3.48732
v -0.13852 1.52212 3.48732
v -0.13581 1.52686 3.48832
v -0.13852 1.52686 3.48832
v -0.13581 1.53125 3.49037
v -0.13852 1.53125 3.49037
v -0.13581 1.53495 3.49327
v -0.13852 1.53495 3.49327
v -0.13581 1.53785 3.49686
v -0.13852 1.53785 3.49686
v -0.13581 1.53991 3.50097
v -0.13852 1.53991 3.50097
v -0.13581 1.54102 3.50546
v -0.13852 1.54102 3.50546
v -0.13581 1.54112 3.51014
v -0.13852 1.54112 3.51014
v -0.13581 1.54012 3.51488
v -0.13852 1.54012 3.51488
v -0.13581 1.53807 3.51927
v -0.13852 1.53807 3.51927
v -0.13581 1.53517 3.52297
v -0.13852 1.53517 3.52297
v -0.13581 1.53158 3.52587
v -0.13852 1.53158 3.52587
v -0.13581 1.52747 3.52793
v -0.13852 1.52747 3.52793
v -0.13581 1.52298 3.52904
v -0.13581 1.50525 3.49349
v -0.13581 1.50234 3.49719
v -0.13581 1.50884 3.49059
v -0.13581 1.51295 3.48853
v -0.13581 1.51744 3.48742
v -0.13581 1.52212 3.48732
v -0.13581 1.52686 3.48832
v -0.13581 1.53125 3.49037
v -0.13581 1.53495 3.49327
v -0.13581 1.53785 3.49686
v -0.13581 1.53991 3.50097
v -0.13581 1.54102 3.50546
v -0.13581 1.54112 3.51014
v -0.13581 1.54012 3.51488
v -0.13581 1.53807 3.51927
v -0.13581 1.53517 3.52297
v -0.13581 1.53158 3.52587
v -0.13581 1.52747 3.52793
v -0.13581 1.52298 3.52904
v -0.13581 1.5183 3.52914
v -0.13581 1.51356 3.52814
v -0.13581 1.50917 3.52609
v -0.13581 1.50547 3.52319
v -0.13581 1.50257 3.5196
v -0.13581 1.50051 3.51549
v -0.13581 1.4994 3.511
v -0.13581 1.4993 3.50632
v -0.13581 1.5003 3.50158
v -0.13852 1.5003 3.50158
v -0.13852 1.50234 3.49719
v -0.13852 1.4993 3.50632
v -0.13852 1.4994 3.511
v -0.13852 1.50051 3.51549
v -0.13852 1.50257 3.5196
v -0.13852 1.50547 3.52319
v -0.13852 1.50917 3.52609
v -0.13852 1.51356 3.52814
v -0.13852 1.5183 3.52914
v -0.13852 1.52298 3.52904
v -0.13852 1.52747 3.52793
v -0.13852 1.53158 3.52587
v -0.13852 1.53517 3.52297
v -0.13852 1.53807 3.51927
v -0.13852 1.54012 3.51488
v -0.13852 1.54112 3.51014
v -0.13852 1.54102 3.50546
v -0.13852 1.53991 3.50097
v -0.13852 1.53785 3.49686
v -0.13852 1.53495 3.49327
v -0.13852 1.53125 3.49037
v -0.13852 1.52686 3.48832
v -0.13852 1.52212 3.48732
v -0.13852 1.51744 3.48742
v -0.13852 1.51295 3.48853
v -0.13852 1.50884 3.49059
v -0.13852 1.50525 3.49349
v -0.13799 1.50527 3.49841
v -0.14463 1.50386 3.49882
v -0.13799 1.50386 3.49882
v -0.14463 1.50257 3.49976
v -0.14463 1.50527 3.49841
v -0.13799 1.5067 3.4986
v -0.14463 1.5067 3.4986
v -0.13799 1.53681 3.50867
v -0.14463 1.53681 3.50867
v -0.13799 1.53803 3.50938
v -0.14463 1.53803 3.50938
v -0.13799 1.53893 3.51055
v -0.14463 1.53893 3.51055
v -0.13799 1.5394 3.51208
v -0.14463 1.5394 3.51208
v -0.13799 1.53936 3.51374
v -0.14463 1.53936 3.51374
v -0.13799 1.53883 3.51533
v -0.14463 1.53883 3.51533
v -0.13799 1.53785 3.5167
v -0.14463 1.53785 3.5167
v -0.13799 1.53656 3.51764
v -0.14463 1.53656 3.51764
v -0.13799 1.53515 3.51805
v -0.14463 1.53515 3.51805
v -0.13799 1.53372 3.51786
v -0.14463 1.53372 3.51786
v -0.13799 1.50361 3.50779
v -0.14463 1.50361 3.50779
v -0.13799 1.50239 3.50708
v -0.14463 1.50239 3.50708
v -0.13799 1.50149 3.50591
v -0.14463 1.50149 3.50591
v -0.13799 1.50102 3.50438
v -0.14463 1.50102 3.50438
v -0.13799 1.50106 3.50272
v -0.14463 1.50106 3.50272
v -0.13799 1.50159 3.50113
v -0.14463 1.50159 3.50113
v -0.13799 1.50257 3.49976
v -0.14539 1.53742 3.51611
v -0.14539 1.53636 3.51688
v -0.14539 1.53822 3.51498
v -0.14539 1.53865 3.51367
v -0.14539 1.53869 3.51228
v -0.14539 1.53832 3.51102
v -0.14539 1.53756 3.51006
v -0.14539 1.53648 3.50945
v -0.14539 1.50647 3.49941
v -0.14539 1.50525 3.49925
v -0.14539 1.50406 3.49958
v -0.14539 1.503 3.50035
v -0.14539 1.5022 3.50148
v -0.14539 1.50177 3.50279
v -0.14539 1.50173 3.50417
v -0.14539 1.5021 3.50544
v -0.14539 1.50286 3.5064
v -0.14539 1.50394 3.50701
v -0.14539 1.53395 3.51704
v -0.14539 1.53517 3.51721
v -0.14463 1.50527 3.49841
v -0.14539 1.50406 3.49958
v -0.14463 1.50386 3.49882
v -0.14539 1.503 3.50035
v -0.14539 1.50525 3.49925
v -0.14463 1.5067 3.4986
v -0.14539 1.50647 3.49941
v -0.14463 1.53681 3.50867
v -0.14539 1.53648 3.50945
v -0.14463 1.53803 3.50938
v -0.14539 1.53756 3.51006
v -0.14463 1.53893 3.51055
v -0.14539 1.53832 3.51102
v -0.14463 1.5394 3.51208
v -0.14539 1.53869 3.51228
v -0.14463 1.53936 3.51374
v -0.14539 1.53865 3.51367
v -0.14463 1.53883 3.51533
v -0.14539 1.53822 3.51498
v -0.14463 1.53785 3.5167
v -0.14539 1.53742 3.51611
v -0.14463 1.53656 3.51764
v -0.14539 1.53636 3.51688
v -0.14463 1.53515 3.51805
v -0.14539 1.53517 3.51721
v -0.14463 1.53372 3.51786
v -0.14539 1.53395 3.51704
v -0.14463 1.50361 3.50779
v -0.14539 1.50394 3.50701
v -0.14463 1.50239 3.50708
v -0.14539 1.50286 3.5064
v -0.14463 1.50149 3.50591
v -0.14539 1.5021 3.50544
v -0.14463 1.50102 3.50438
v -0.14539 1.50173 3.50417
v -0.14463 1.50106 3.50272
v -0.14539 1.50177 3.50279
v -0.14463 1.50159 3.50113
v -0.14539 1.5022 3.50148
v -0.14463 1.50257 3.49976
vn 0.002 -0.239 0.711
vn -0.002 -0.068 0.73
vn -0.002 -0.068 0.73
vn -0.002 0.098 0.729
vn 0.002 -0.239 0.711
vn 0.002 -0.41 0.668
vn 0.002 -0.41 0.668
vn 0.002 -0.587 0.593
vn 0.002 -0.587 0.593
vn 0.002 -0.753 0.481
vn 0.002 -0.753 0.481
vn 0.002 -0.896 0.325
vn 0.002 -0.896 0.325
vn 0.002 -0.984 0.132
vn 0.002 -0.984 0.132
vn 0.002 -0.992 -0.094
vn 0.002 -0.992 -0.094
vn 0.002 -0.912 -0.3
vn 0.002 -0.912 -0.3
vn 0.002 -0.768 -0.469
vn 0.002 -0.768 -0.469
vn 0.002 -0.599 -0.586
vn 0.002 -0.599 -0.586
vn 0.002 -0.431 -0.661
vn 0.002 -0.431 -0.661
vn 0.002 -0.261 -0.707
vn 0.002 -0.261 -0.707
vn 0.002 -0.098 -0.729
vn 0.002 -0.098 -0.729
vn 0.002 0.068 -0.73
vn 0.002 0.068 -0.73
vn 0.002 0.239 -0.711
vn 0.002 0.239 -0.711
vn -0.002 0.41 -0.668
vn -0.002 0.41 -0.668
vn -0.002 0.587 -0.593
vn -0.002 0.587 -0.593
vn -0.002 0.753 -0.481
vn -0.002 0.753 -0.481
vn -0.002 0.896 -0.325
vn -0.002 0.896 -0.325
vn -0.002 0.984 -0.132
vn -0.002 0.984 -0.132
vn -0.002 0.992 0.094
vn -0.002 0.992 0.094
vn -0.002 0.912 0.3
vn -0.002 0.912 0.3
vn -0.002 0.768 0.469
vn -0.002 0.768 0.469
vn -0.002 0.599 0.586
vn -0.002 0.599 0.586
vn -0.002 0.431 0.661
vn -0.002 0.431 0.661
vn -0.002 0.261 0.707
vn -0.002 0.261 0.707
vn -0.002 0.098 0.729
vn 1 0 0
vn 1 0 0
vn 1 0 0
vn 1 0 0
vn 1 0 0
vn 1 0 0
vn 1 0 0
vn 1 0 0
vn 1 0 0
vn 1 0 0
vn 1 0 0
vn 1 0 0
vn 1 0 0
vn 1 0 0
vn 1 0 0
vn 1 0 0
vn 1 0 0
vn 1 0 0
vn 1 0 0
vn 1 0 0
vn 1 0 0
vn 1 0 0
vn 1 0 0
vn 1 0 0
vn 1 0 0
vn 1 0 0
vn 1 0 0
vn 1 0 0
vn -1 0 0
vn -1 0 0
vn -1 0 0
vn -1 0 0
vn -1 0 0
vn -1 0 0
vn -1 0 0
vn -1 0 0
vn -1 0 0
vn -1 0 0
vn -1 0 0
vn -1 0 0
vn -1 0 0
vn -1 0 0
vn -1 0 0
vn -1 0 0
vn -1 0 0
vn -1 0 0
vn -1 0 0
vn -1 0 0
vn -1 0 0
vn -1 0 0
vn -1 0 0
vn -1 0 0
vn -1 0 0
vn -1 0 0
vn -1 0 0
vn -1 0 0
vn 0.002 -0.053 -0.731
vn 0.002 -0.34 -0.688
vn 0.002 -0.34 -0.688
vn 0.002 -0.599 -0.586
vn 0.002 -0.053 -0.731
vn 0.002 0.165 -0.722
vn 0.002 0.165 -0.722
vn -0.002 0.312 -0.696
vn -0.002 0.312 -0.696
vn -0.002 0.549 -0.612
vn -0.002 0.549 -0.612
vn -0.002 0.827 -0.411
vn -0.002 0.827 -0.411
vn -0.002 0.984 -0.132
vn -0.002 0.984 -0.132
vn -0.002 0.973 0.17
vn -0.002 0.973 0.17
vn -0.002 0.827 0.411
vn -0.002 0.827 0.411
vn -0.002 0.599 0.586
vn -0.002 0.599 0.586
vn -0.002 0.34 0.688
vn -0.002 0.34 0.688
vn -0.002 0.053 0.731
vn -0.002 0.053 0.731
vn -0.002 -0.165 0.722
vn -0.002 -0.165 0.722
vn 0.002 -0.312 0.696
vn 0.002 -0.312 0.696
vn 0.002 -0.549 0.612
vn 0.002 -0.549 0.612
vn 0.002 -0.827 0.411
vn 0.002 -0.827 0.411
vn 0.002 -0.984 0.132
vn 0.002 -0.984 0.132
vn 0.002 -0.973 -0.17
vn 0.002 -0.973 -0.17
vn 0.002 -0.827 -0.411
vn 0.002 -0.827 -0.411
vn 0.002 -0.599 -0.586
vn -1 0 0
vn -1 0 0
vn -1 0 0
vn -1 0 0
vn -1 0 0
vn -1 0 0
vn -1 0 0
vn -1 0 0
vn -1 0 0
vn -1 0 0
vn -1 0 0
vn -1 0 0
vn -1 0 0
vn -1 0 0
vn -1 0 0
vn -1 0 0
vn -1 0 0
vn -1 0 0
vn -1 0 0
vn -1 0 0
vn -0.618 -0.041 -0.575
vn -0.615 -0.27 -0.543
vn -0.615 -0.27 -0.543
vn -0.625 -0.465 -0.459
vn -0.618 -0.049 -0.574
vn -0.625 0.135 -0.563
vn -0.625 0.128 -0.564
vn -0.639 0.241 -0.535
vn -0.635 0.237 -0.538
vn -0.662 0.416 -0.457
vn -0.658 0.404 -0.465
vn -0.681 0.607 -0.299
vn -0.681 0.599 -0.308
vn -0.688 0.714 -0.097
vn -0.688 0.715 -0.092
vn -0.672 0.724 0.116
vn -0.672 0.719 0.133
vn -0.649 0.633 0.31
vn -0.645 0.624 0.322
vn -0.625 0.477 0.452
vn -0.625 0.465 0.459
vn -0.615 0.266 0.544
vn -0.615 0.266 0.544
vn -0.618 0.038 0.575
vn -0.618 0.045 0.574
vn -0.625 -0.135 0.563
vn -0.625 -0.128 0.564
vn -0.639 -0.245 0.534
vn -0.635 -0.237 0.538
vn -0.662 -0.419 0.455
vn -0.658 -0.401 0.466
vn -0.681 -0.607 0.299
vn -0.681 -0.599 0.308
vn -0.688 -0.715 0.095
vn -0.688 -0.715 0.095
vn -0.672 -0.723 -0.119
vn -0.672 -0.719 -0.13
vn -0.649 -0.633 -0.31
vn -0.645 -0.622 -0.324
vn -0.625 -0.477 -0.452
f 1//1 2//2 3//3
f 2//2 4//4 3//3
f 3//3 5//5 1//1
f 1//1 5//5 6//6
f 5//5 7//7 6//6
f 6//6 7//7 8//8
f 7//7 9//9 8//8
f 8//8 9//9 10//10
f 9//9 11//11 10//10
f 10//10 11//11 12//12
f 11//11 13//13 12//12
f 12//12 13//13 14//14
f 13//13 15//15 14//14
f 14//14 15//15 16//16
f 15//15 17//17 16//16
f 16//16 17//17 18//18
f 17//17 19//19 18//18
f 18//18 19//19 20//20
f 19//19 21//21 20//20
f 20//20 21//21 22//22
f 21//21 23//23 22//22
f 22//22 23//23 24//24
f 23//23 25//25 24//24
f 24//24 25//25 26//26
f 25//25 27//27 26//26
f 26//26 27//27 28//28
f 27//27 29//29 28//28
f 28//28 29//29 30//30
f 29//29 31//31 30//30
f 30//30 31//31 32//32
f 31//31 33//33 32//32
f 32//32 33//33 34//34
f 33//33 35//35 34//34
f 34//34 35//35 36//36
f 35//35 37//37 36//36
f 36//36 37//37 38//38
f 37//37 39//39 38//38
f 38//38 39//39 40//40
f 39//39 41//41 40//40
f 40//40 41//41 42//42
f 41//41 43//43 42//42
f 42//42 43//43 44//44
f 43//43 45//45 44//44
f 44//44 45//45 46//46
f 45//45 47//47 46//46
f 46//46 47//47 48//48
f 47//47 49//49 48//48
f 48//48 49//49 50//50
f 49//49 51//51 50//50
f 50//50 51//51 52//52
f 51//51 53//53 52//52
f 52//52 53//53 54//54
f 53//53 55//55 54//54
f 54//54 55//55 56//56
f 55//55 4//4 56//56
f 56//56 4//4 2//2
f 57//57 59//59 58//58
f 59//59 60//60 58//58
f 60//60 61//61 58//58
f 61//61 62//62 58//58
f 62//62 63//63 58//58
f 63//63 64//64 58//58
f 64//64 65//65 58//58
f 65//65 66//66 58//58
f 66//66 67//67 58//58
f 67//67 68//68 58//58
f 68//68 69//69 58//58
f 69//69 70//70 58//58
f 70//70 71//71 58//58
f 71//71 72//72 58//58
f 72//72 73//73 58//58
f 73//73 74//74 58//58
f 74//74 75//75 58//58
f 75//75 76//76 58//58
f 76//76 77//77 58//58
f 77//77 78//78 58//58
f 78//78 79//79 58//58
f 79//79 80//80 58//58
f 80//80 81//81 58//58
f 81//81 82//82 58//58
f 82//82 83//83 58//58
f 58//58 83//83 84//84
f 85//85 87//87 86//86
f 87//87 88//88 86//86
f 88//88 89//89 86//86
f 89//89 90//90 86//86
f 90//90 91//91 86//86
f 91//91 92//92 86//86
f 92//92 93//93 86//86
f 93//93 94//94 86//86
f 94//94 95//95 86//86
f 95//95 96//96 86//86
f 96//96 97//97 86//86
f 97//97 98//98 86//86
f 98//98 99//99 86//86
f 99//99 100//100 86//86
f 100//100 101//101 86//86
f 101//101 102//102 86//86
f 102//102 103//103 86//86
f 103//103 104//104 86//86
f 104//104 105//105 86//86
f 105//105 106//106 86//86
f 106//106 107//107 86//86
f 107//107 108//108 86//86
f 108//108 109//109 86//86
f 109//109 110//110 86//86
f 110//110 111//111 86//86
f 86//86 111//111 112//112
f 113//113 115//115 114//114
f 114//114 115//115 116//116
f 114//114 117//117 113//113
f 113//113 117//117 118//118
f 117//117 119//119 118//118
f 118//118 119//119 120//120
f 119//119 121//121 120//120
f 120//120 121//121 122//122
f 121//121 123//123 122//122
f 122//122 123//123 124//124
f 123//123 125//125 124//124
f 124//124 125//125 126//126
f 125//125 127//127 126//126
f 126//126 127//127 128//128
f 127//127 129//129 128//128
f 128//128 129//129 130//130
f 129//129 131//131 130//130
f 130//130 131//131 132//132
f 131//131 133//133 132//132
f 132//132 133//133 134//134
f 133//133 135//135 134//134
f 134//134 135//135 136//136
f 135//135 137//137 136//136
f 136//136 137//137 138//138
f 137//137 139//139 138//138
f 138//138 139//139 140//140
f 139//139 141//141 140//140
f 140//140 141//141 142//142
f 141//141 143//143 142//142
f 142//142 143//143 144//144
f 143//143 145//145 144//144
f 144//144 145//145 146//146
f 145//145 147//147 146//146
f 146//146 147//147 148//148
f 147//147 149//149 148//148
f 148//148 149//149 150//150
f 149//149 151//151 150//150
f 150//150 151//151 152//152
f 151//151 116//116 152//152
f 152//152 116//116 115//115
f 153//153 155//155 154//154
f 155//155 156//156 154//154
f 156//156 157//157 154//154
f 157//157 158//158 154//154
f 158//158 159//159 154//154
f 159//159 160//160 154//154
f 160//160 161//161 154//154
f 161//161 162//162 154//154
f 162//162 163//163 154//154
f 163//163 164//164 154//154
f 164//164 165//165 154//154
f 165//165 166//166 154//154
f 166//166 167//167 154//154
f 167//167 168//168 154//154
f 168//168 169//169 154//154
f 169//169 170//170 154//154
f 170//170 171//171 154//154
f 154//154 171//171 172//172
f 173//173 175//175 174//174
f 174//174 175//175 176//176
f 174//174 177//177 173//173
f 173//173 177//177 178//178
f 177//177 179//179 178//178
f 178//178 179//179 180//180
f 179//179 181//181 180//180
f 180//180 181//181 182//182
f 181//181 183//183 182//182
f 182//182 183//183 184//184
f 183//183 185//185 184//184
f 184//184 185//185 186//186
f 185//185 187//187 186//186
f 186//186 187//187 188//188
f 187//187 189//189 188//188
f 188//188 189//189 190//190
f 189//189 191//191 190//190
f 190//190 191//191 192//192
f 191//191 193//193 192//192
f 192//192 193//193 194//194
f 193//193 195//195 194//194
f 194//194 195//195 196//196
f 195//195 197//197 196//196
f 196//196 197//197 198//198
f 197//197 199//199 198//198
f 198//198 199//199 200//200
f 199//199 201//201 200//200
f 200//200 201//201 202//202
f 201//201 203//203 202//202
f 202//202 203//203 204//204
f 203//203 205//205 204//204
f 204//204 205//205 206//206
f 205//205 207//207 206//206
f 206//206 207//207 208//208
f 207//207 209//209 208//208
f 208//208 209//209 210//210
f 209//209 211//211 210//210
f 210//210 211//211 212//212
f 211//211 176//176 212//212
f 212//212 176//176 175//175
