o model_8
v -0.10154 1.5588 4.25869
v -0.06932 1.5588 4.25869
v -0.10154 1.55912 4.25814
v -0.06932 1.55912 4.25814
v -0.10154 1.55922 4.25741
v -0.06932 1.55922 4.25741
v -0.10154 1.55922 4.14687
v -0.06932 1.55922 4.14687
v -0.10154 1.55912 4.14614
v -0.06875 1.5588 4.25864
v -0.06899 1.55912 4.25808
v -0.06834 1.5588 4.25836
v -0.06875 1.55912 4.25797
v -0.06809 1.5588 4.25797
v -0.06861 1.55912 4.25775
v -0.06801 1.5588 4.25741
v -0.06856 1.55912 4.25741
v -0.06801 1.5588 4.14687
v -0.06856 1.55912 4.14687
v -0.06801 1.55869 4.14631
v -0.06856 1.55901 4.1462
v -0.06801 1.55844 4.14592
v -0.06856 1.55869 4.14564
v -0.06932 1.55912 4.14614
v -0.06932 1.5588 4.14558
v -0.10154 1.5588 4.14558
v -0.10154 1.5588 4.14558
v -0.06932 1.5588 4.14558
v -0.10154 1.55823 4.14525
v -0.06932 1.55823 4.14525
v -0.10154 1.55748 4.14514
v -0.06932 1.55748 4.14514
v -0.10154 1.48826 4.14514
v -0.06932 1.48826 4.14514
v -0.10154 1.48751 4.14525
v -0.06801 1.55844 4.14592
v -0.06856 1.55869 4.14564
v -0.06801 1.55805 4.14564
v -0.06856 1.55819 4.14536
v -0.06801 1.55748 4.14558
v -0.06856 1.55748 4.14525
v -0.06856 1.48826 4.14525
v -0.06856 1.48755 4.14536
v -0.06801 1.48769 4.14564
v -0.06801 1.4873 4.14592
v -0.06856 1.48705 4.14564
v -0.06932 1.48751 4.14525
v -0.06932 1.48694 4.14558
v -0.10154 1.48694 4.14558
v -0.06801 1.48826 4.14558
v -0.10154 1.48694 4.25869
v -0.10154 1.48662 4.25814
v -0.06932 1.48662 4.25814
v -0.06932 1.48652 4.25741
v -0.10154 1.48652 4.25741
v -0.06932 1.48652 4.14687
v -0.10154 1.48652 4.14687
v -0.06932 1.48694 4.25869
v -0.06861 1.48673 4.25814
v -0.06875 1.48705 4.25869
v -0.06809 1.48705 4.25814
v -0.06834 1.4873 4.25869
v -0.06801 1.48694 4.25741
v -0.06856 1.48662 4.25741
v -0.06856 1.48662 4.14687
v -0.06801 1.48694 4.14687
v -0.06856 1.48673 4.1462
v -0.06801 1.48705 4.14631
v -0.06856 1.48705 4.14564
v -0.06801 1.4873 4.14592
v -0.06932 1.48694 4.14558
v -0.06932 1.48662 4.14614
v -0.10154 1.48662 4.14614
v -0.10154 1.48694 4.14558
v -0.10154 1.48694 4.25869
v -0.06932 1.48694 4.25869
v -0.10154 1.48751 4.25903
v -0.06932 1.48751 4.25903
v -0.10154 1.48826 4.25914
v -0.06932 1.48826 4.25914
v -0.10154 1.55748 4.25914
v -0.06932 1.55748 4.25914
v -0.10154 1.55823 4.25903
v -0.06875 1.48705 4.25869
v -0.06899 1.48755 4.25903
v -0.06834 1.4873 4.25869
v -0.06875 1.48769 4.25903
v -0.06809 1.48769 4.25869
v -0.06861 1.48794 4.25903
v -0.06801 1.48826 4.25869
v -0.06856 1.48826 4.25903
v -0.06801 1.55748 4.25869
v -0.06856 1.55748 4.25903
v -0.06861 1.55823 4.25892
v -0.06809 1.55823 4.25864
v -0.06875 1.5588 4.25864
v -0.06834 1.5588 4.25836
v -0.06932 1.55823 4.25903
v -0.10154 1.5588 4.25869
v -0.06932 1.5588 4.25869
v -0.06834 1.5588 4.25836
v -0.06779 1.55823 4.25808
v -0.06809 1.5588 4.25797
v -0.06768 1.55823 4.25741
v -0.06801 1.5588 4.25741
v -0.06768 1.55823 4.14687
v -0.06801 1.5588 4.14687
v -0.06768 1.55819 4.14653
v -0.06801 1.55869 4.14631
v -0.06768 1.55805 4.14631
v -0.06801 1.55844 4.14592
v -0.06768 1.5578 4.1462
v -0.06757 1.55748 4.14687
v -0.06757 1.55748 4.25741
v -0.06801 1.55805 4.14564
v -0.06768 1.55748 4.14614
v -0.06801 1.55748 4.14558
v -0.06768 1.48826 4.14614
v -0.06801 1.48826 4.14558
v -0.06768 1.48794 4.1462
v -0.06801 1.48769 4.14564
v -0.06768 1.48769 4.14631
v -0.06801 1.4873 4.14592
v -0.06768 1.48755 4.14653
v -0.06801 1.48705 4.14631
v -0.06768 1.48751 4.14687
v -0.06801 1.48694 4.14687
v -0.06768 1.48751 4.25741
v -0.06801 1.48694 4.25741
v -0.06809 1.48705 4.25814
v -0.06779 1.48755 4.25814
v -0.06834 1.4873 4.25869
v -0.06809 1.48769 4.25869
v -0.06768 1.48826 4.25814
v -0.06801 1.48826 4.25869
v -0.06757 1.48826 4.14687
v -0.06757 1.48826 4.25741
v -0.06768 1.55748 4.25814
v -0.06801 1.55748 4.25869
v -0.06809 1.55823 4.25864
v -0.10329 1.48826 4.16263
v -0.10329 1.53496 4.16263
v -0.10329 1.48826 4.14687
v -0.10329 1.53496 4.14687
v -0.10318 1.48826 4.14614
v -0.10329 1.54725 4.14687
v -0.10329 1.55748 4.14687
v -0.10329 1.55748 4.16263
v -0.10318 1.55823 4.14687
v -0.10329 1.55748 4.20261
v -0.10329 1.54725 4.16263
v -0.10329 1.54725 4.20261
v -0.10318 1.55748 4.14614
v -0.10285 1.48826 4.14558
v -0.10308 1.48751 4.1462
v -0.10318 1.48751 4.14687
v -0.10318 1.48751 4.25741
v -0.10329 1.48826 4.20261
v -0.10329 1.53496 4.20261
v -0.10329 1.53496 4.25741
v -0.10329 1.54725 4.25741
v -0.10329 1.55748 4.25741
v -0.10318 1.55748 4.25814
v -0.10329 1.48826 4.25741
v -0.10318 1.48826 4.25814
v -0.10285 1.55748 4.25869
v -0.10308 1.55823 4.25808
v -0.10318 1.55823 4.25741
v -0.10285 1.5588 4.14687
v -0.10308 1.55819 4.14614
v -0.10285 1.55748 4.14558
v -0.10231 1.48826 4.14525
v -0.10277 1.48751 4.14564
v -0.10277 1.48694 4.14631
v -0.10285 1.48694 4.14687
v -0.10285 1.48694 4.25741
v -0.10308 1.48755 4.25814
v -0.10285 1.48826 4.25869
v -0.10231 1.55748 4.25903
v -0.10277 1.55823 4.25864
v -0.10277 1.5588 4.25797
v -0.10285 1.5588 4.25741
v -0.10231 1.55912 4.14687
v -0.10277 1.55869 4.14614
v -0.10277 1.55805 4.14558
v -0.10231 1.55748 4.14525
v -0.10231 1.55912 4.25741
v -0.10154 1.55922 4.14687
v -0.10226 1.55901 4.14614
v -0.10253 1.55844 4.14558
v -0.10226 1.5578 4.14525
v -0.10226 1.55912 4.25775
v -0.10154 1.55922 4.25741
v -0.10211 1.55912 4.25797
v -0.10188 1.55912 4.25808
v -0.10211 1.5588 4.25864
v -0.10154 1.5588 4.25869
v -0.10154 1.55823 4.25903
v -0.10154 1.55912 4.25814
v -0.10253 1.5588 4.25836
v -0.10226 1.55823 4.25892
v -0.10154 1.55748 4.25914
v -0.10231 1.48826 4.25903
v -0.10154 1.48826 4.25914
v -0.10277 1.48769 4.25869
v -0.10226 1.48794 4.25903
v -0.10211 1.48769 4.25903
v -0.10188 1.48755 4.25903
v -0.10211 1.48705 4.25869
v -0.10154 1.48694 4.25869
v -0.10154 1.48662 4.25814
v -0.10277 1.48705 4.25814
v -0.10253 1.4873 4.25869
v -0.10154 1.48751 4.25903
v -0.10231 1.48662 4.25741
v -0.10226 1.48673 4.25814
v -0.10154 1.48652 4.25741
v -0.10231 1.48662 4.14687
v -0.10226 1.48662 4.14653
v -0.10253 1.48694 4.14592
v -0.10211 1.48662 4.14631
v -0.10154 1.48652 4.14687
v -0.10188 1.48662 4.1462
v -0.10154 1.48662 4.14614
v -0.10154 1.48694 4.14558
v -0.10211 1.48694 4.14564
v -0.10226 1.48751 4.14536
v -0.10154 1.48826 4.14514
v -0.10154 1.55748 4.14514
v -0.10211 1.55805 4.14525
v -0.10188 1.55819 4.14525
v -0.10154 1.55823 4.14525
v -0.10154 1.5588 4.14558
v -0.10211 1.55869 4.14558
v -0.10154 1.55912 4.14614
v -0.10154 1.48751 4.14525
v -0.10329 1.54725 4.16263
v -0.10267 1.54601 4.16385
v -0.10329 1.54725 4.20261
v -0.10267 1.54601 4.20133
v -0.10329 1.53496 4.16263
v -0.10267 1.53617 4.16385
v -0.10329 1.54725 4.16263
v -0.10267 1.54601 4.16385
v -0.10329 1.53496 4.20261
v -0.10267 1.53617 4.20133
v -0.10329 1.53496 4.16263
v -0.10267 1.53617 4.16385
v -0.10329 1.54725 4.20261
v -0.10267 1.54601 4.20133
v -0.10329 1.53496 4.20261
v -0.10267 1.53617 4.20133
v -0.10329 1.50541 4.20595
v -0.10718 1.50449 4.2049
v -0.10329 1.50364 4.20701
v -0.10718 1.50314 4.20568
v -0.10329 1.50161 4.20735
v -0.10718 1.50161 4.20595
v -0.10329 1.49959 4.20701
v -0.10718 1.50005 4.20568
v -0.10329 1.49781 4.20595
v -0.10718 1.4987 4.2049
v -0.10718 1.50449 4.2049
v -0.10329 1.50541 4.20595
v -0.10718 1.50552 4.20373
v -0.10329 1.50673 4.20439
v -0.10718 1.50605 4.20222
v -0.10329 1.50744 4.20245
v -0.10718 1.50605 4.20066
v -0.10329 1.50744 4.20044
v -0.10718 1.50552 4.19916
v -0.10329 1.50673 4.19849
v -0.10718 1.50449 4.19799
v -0.10329 1.50541 4.19693
v -0.10718 1.50449 4.19799
v -0.10329 1.50541 4.19693
v -0.10718 1.50314 4.19721
v -0.10329 1.50364 4.19587
v -0.10718 1.50161 4.19693
v -0.10329 1.50161 4.19554
v -0.10718 1.50005 4.19721
v -0.10329 1.49959 4.19587
v -0.10718 1.4987 4.19799
v -0.10329 1.49781 4.19693
v -0.10718 1.4987 4.19799
v -0.10329 1.49781 4.19693
v -0.10718 1.4977 4.19916
v -0.10329 1.49646 4.19849
v -0.10718 1.49714 4.20066
v -0.10329 1.49579 4.20044
v -0.10718 1.49714 4.20222
v -0.10329 1.49579 4.20245
v -0.10718 1.4977 4.20373
v -0.10329 1.49646 4.20439
v -0.10718 1.4987 4.2049
v -0.10329 1.49781 4.20595
v -0.10329 1.49781 4.20595
v -0.10329 1.49646 4.20439
v -0.10329 1.49959 4.20701
v -0.10329 1.49579 4.20245
v -0.10329 1.49579 4.20044
v -0.10329 1.49646 4.19849
v -0.10329 1.49781 4.19693
v -0.10329 1.49959 4.19587
v -0.10329 1.50161 4.19554
v -0.10329 1.50364 4.19587
v -0.10329 1.50541 4.19693
v -0.10329 1.50673 4.19849
v -0.10329 1.50744 4.20044
v -0.10329 1.50744 4.20245
v -0.10329 1.50673 4.20439
v -0.10329 1.50541 4.20595
v -0.10329 1.50364 4.20701
v -0.10329 1.50161 4.20735
v -0.10556 1.50239 4.20367
v -0.10556 1.50161 4.20378
v -0.10556 1.5031 4.20328
v -0.10556 1.50364 4.20261
v -0.10556 1.50392 4.20183
v -0.10556 1.50392 4.20105
v -0.10556 1.50364 4.20027
v -0.10556 1.5031 4.19966
v -0.10556 1.50239 4.19922
v -0.10556 1.50161 4.1991
v -0.10556 1.50079 4.19922
v -0.10556 1.50008 4.19966
v -0.10556 1.49955 4.20027
v -0.10556 1.49927 4.20105
v -0.10556 1.49927 4.20183
v -0.10556 1.49955 4.20261
v -0.10556 1.50008 4.20328
v -0.10556 1.50079 4.20367
v -0.10718 1.50161 4.20595
v -0.10718 1.50253 4.20406
v -0.10718 1.50314 4.20568
v -0.10718 1.50335 4.20356
v -0.10718 1.50161 4.20417
v -0.10718 1.50005 4.20568
v -0.10718 1.50065 4.20406
v -0.10718 1.4987 4.2049
v -0.10718 1.49984 4.20356
v -0.10718 1.4977 4.20373
v -0.10718 1.4992 4.20284
v -0.10718 1.49714 4.20222
v -0.10718 1.49888 4.20194
v -0.10718 1.49714 4.20066
v -0.10718 1.49888 4.20094
v -0.10718 1.4977 4.19916
v -0.10718 1.4992 4.20005
v -0.10718 1.4987 4.19799
v -0.10718 1.49984 4.19933
v -0.10718 1.50005 4.19721
v -0.10718 1.50065 4.19888
v -0.10718 1.50161 4.19693
v -0.10718 1.50161 4.19871
v -0.10718 1.50314 4.19721
v -0.10718 1.50253 4.19888
v -0.10718 1.50449 4.19799
v -0.10718 1.50335 4.19933
v -0.10718 1.50552 4.19916
v -0.10718 1.50399 4.20005
v -0.10718 1.50605 4.20066
v -0.10718 1.50431 4.20094
v -0.10718 1.50605 4.20222
v -0.10718 1.50431 4.20194
v -0.10718 1.50552 4.20373
v -0.10718 1.50399 4.20284
v -0.10718 1.50449 4.2049
v -0.10718 1.50253 4.20406
v -0.10718 1.50161 4.20417
v -0.10556 1.50239 4.20367
v -0.10556 1.50161 4.20378
v -0.10718 1.50335 4.20356
v -0.10718 1.50253 4.20406
v -0.10556 1.5031 4.20328
v -0.10556 1.50239 4.20367
v -0.10718 1.50399 4.20284
v -0.10718 1.50335 4.20356
v -0.10556 1.50364 4.20261
v -0.10556 1.5031 4.20328
v -0.10718 1.50431 4.20194
v -0.10718 1.50399 4.20284
v -0.10556 1.50392 4.20183
v -0.10556 1.50364 4.20261
v -0.10718 1.50431 4.20094
v -0.10718 1.50431 4.20194
v -0.10556 1.50392 4.20105
v -0.10556 1.50392 4.20183
v -0.10718 1.50399 4.20005
v -0.10718 1.50431 4.20094
v -0.10556 1.50364 4.20027
v -0.10556 1.50392 4.20105
v -0.10718 1.50335 4.19933
v -0.10718 1.50399 4.20005
v -0.10556 1.5031 4.19966
v -0.10556 1.50364 4.20027
v -0.10718 1.50253 4.19888
v -0.10718 1.50335 4.19933
v -0.10556 1.50239 4.19922
v -0.10556 1.5031 4.19966
v -0.10718 1.50161 4.19871
v -0.10718 1.50253 4.19888
v -0.10556 1.50161 4.1991
v -0.10556 1.50239 4.19922
v -0.10718 1.50065 4.19888
v -0.10718 1.50161 4.19871
v -0.10556 1.50079 4.19922
v -0.10556 1.50161 4.1991
v -0.10718 1.49984 4.19933
v -0.10718 1.50065 4.19888
v -0.10556 1.50008 4.19966
v -0.10556 1.50079 4.19922
v -0.10718 1.4992 4.20005
v -0.10718 1.49984 4.19933
v -0.10556 1.49955 4.20027
v -0.10556 1.50008 4.19966
v -0.10718 1.49888 4.20094
v -0.10718 1.4992 4.20005
v -0.10556 1.49927 4.20105
v -0.10556 1.49955 4.20027
v -0.10718 1.49888 4.20194
v -0.10718 1.49888 4.20094
v -0.10556 1.49927 4.20183
v -0.10556 1.49927 4.20105
v -0.10718 1.4992 4.20284
v -0.10718 1.49888 4.20194
v -0.10556 1.49955 4.20261
v -0.10556 1.49927 4.20183
v -0.10718 1.49984 4.20356
v -0.10718 1.4992 4.20284
v -0.10556 1.50008 4.20328
v -0.10556 1.49955 4.20261
v -0.10718 1.50065 4.20406
v -0.10718 1.49984 4.20356
v -0.10556 1.50079 4.20367
v -0.10556 1.50008 4.20328
v -0.10718 1.50161 4.20417
v -0.10718 1.50065 4.20406
v -0.10556 1.50161 4.20378
v -0.10556 1.50079 4.20367
vn -0.215 3.009 3.049
vn 0.215 3.009 3.049
vn -0.103 4.032 1.46
vn 0.103 4.032 1.46
vn -0.253 4.275 0.251
vn 0.253 4.275 0.251
vn -0.309 4.267 -0.307
vn 0.309 4.267 -0.307
vn -0.29 4.039 -1.415
vn 1.012 3.013 2.881
vn 0.496 4.017 1.421
vn 2.139 3.043 2.137
vn 1.048 4.025 1.049
vn 2.88 3.011 1.019
vn 1.407 4.021 0.501
vn 3.056 3.002 0.219
vn 1.46 4.032 0.113
vn 3.003 3.056 -0.21
vn 1.425 4.036 -0.283
vn 3.003 2.884 -1.032
vn 1.443 3.802 -1.365
vn 3.03 2.144 -2.15
vn 1.46 2.858 -2.846
vn 0.309 4.027 -1.445
vn 0.328 3.03 -3.019
vn -0.215 3.044 -3.015
vn -0.215 3.044 -3.015
vn 0.328 3.03 -3.019
vn -0.103 1.46 -4.032
vn 0.309 1.429 -4.033
vn -0.253 0.243 -4.275
vn 0.309 0.291 -4.268
vn -0.309 -0.291 -4.268
vn 0.309 -0.291 -4.268
vn -0.29 -1.43 -4.034
vn 3.03 2.144 -2.15
vn 1.46 2.858 -2.846
vn 3.003 1.017 -2.889
vn 1.443 1.365 -3.802
vn 3.003 0.227 -3.054
vn 1.425 0.275 -4.037
vn 1.425 -0.275 -4.037
vn 1.443 -1.365 -3.802
vn 3.003 -1.017 -2.889
vn 3.03 -2.144 -2.15
vn 1.46 -2.858 -2.846
vn 0.309 -1.429 -4.033
vn 0.328 -3.03 -3.019
vn -0.215 -2.998 -3.061
vn 3.003 -0.227 -3.054
vn -0.215 -3.055 3.003
vn -0.29 -4.039 1.415
vn 0.29 -4.039 1.415
vn 0.309 -4.267 0.307
vn -0.309 -4.267 0.307
vn 0.309 -4.267 -0.307
vn -0.253 -4.276 -0.235
vn 0.215 -3.055 3.003
vn 1.354 -3.809 1.435
vn 1.012 -2.875 3.018
vn 2.853 -2.844 1.474
vn 2.139 -2.156 3.029
vn 3.03 -3.018 0.331
vn 1.443 -4.027 0.323
vn 1.425 -4.036 -0.283
vn 3.003 -3.056 -0.21
vn 1.443 -3.802 -1.365
vn 3.003 -2.884 -1.032
vn 1.46 -2.858 -2.846
vn 3.03 -2.144 -2.15
vn 0.328 -3.03 -3.019
vn 0.309 -4.027 -1.445
vn -0.103 -4.032 -1.46
vn -0.215 -2.998 -3.061
vn -0.215 -3.055 3.003
vn 0.215 -3.055 3.003
vn -0.103 -1.46 4.032
vn 0.103 -1.46 4.032
vn -0.253 -0.259 4.274
vn 0.253 -0.259 4.274
vn -0.309 0.291 4.268
vn 0.309 0.291 4.268
vn -0.29 1.43 4.034
vn 1.012 -2.875 3.018
vn 0.496 -1.398 4.025
vn 2.139 -2.156 3.029
vn 1.048 -1.057 4.023
vn 2.88 -1.019 3.011
vn 1.407 -0.485 4.023
vn 3.056 -0.227 3.001
vn 1.46 -0.097 4.032
vn 3.03 0.323 3.019
vn 1.443 0.323 4.027
vn 1.354 1.428 3.812
vn 2.853 1.467 2.848
vn 1.012 3.013 2.881
vn 2.139 3.043 2.137
vn 0.29 1.43 4.034
vn -0.215 3.009 3.049
vn 0.215 3.009 3.049
vn 2.139 3.043 2.137
vn 3.804 1.447 1.356
vn 2.88 3.011 1.019
vn 4.036 1.42 0.298
vn 3.056 3.002 0.219
vn 4.03 1.464 -0.121
vn 3.003 3.056 -0.21
vn 4.024 1.408 -0.478
vn 3.003 2.884 -1.032
vn 4.024 1.051 -1.051
vn 3.03 2.144 -2.15
vn 4.024 0.478 -1.408
vn 4.275 0.249 -0.254
vn 4.268 0.296 0.313
vn 3.003 1.017 -2.889
vn 4.03 0.113 -1.465
vn 3.003 0.227 -3.054
vn 4.03 -0.113 -1.465
vn 3.003 -0.227 -3.054
vn 4.024 -0.478 -1.408
vn 3.003 -1.017 -2.889
vn 4.024 -1.051 -1.051
vn 3.03 -2.144 -2.15
vn 4.024 -1.408 -0.478
vn 3.003 -2.884 -1.032
vn 4.03 -1.464 -0.121
vn 3.003 -3.056 -0.21
vn 4.03 -1.439 0.298
vn 3.03 -3.018 0.331
vn 2.853 -2.844 1.474
vn 3.804 -1.356 1.447
vn 2.139 -2.156 3.029
vn 2.88 -1.019 3.011
vn 4.036 -0.29 1.422
vn 3.056 -0.227 3.001
vn 4.275 -0.249 -0.254
vn 4.268 -0.296 0.313
vn 4.03 0.321 1.433
vn 3.03 0.323 3.019
vn 2.853 1.467 2.848
vn -4.279 -0.3 -0.008
vn -4.29 0 0
vn -4.268 -0.301 -0.307
vn -4.279 -0.016 -0.299
vn -4.03 -0.32 -1.434
vn -4.279 -0.016 -0.299
vn -4.268 0.301 -0.307
vn -4.279 0.3 -0.008
vn -4.03 1.437 -0.304
vn -4.279 0.3 -0.008
vn -4.29 0 0
vn -4.29 0 0
vn -4.036 0.272 -1.426
vn -3.03 -0.323 -3.019
vn -3.804 -1.442 -1.362
vn -4.036 -1.421 -0.296
vn -4.03 -1.437 0.304
vn -4.279 -0.3 -0.008
vn -4.29 0 0
vn -4.279 0 0.3
vn -4.279 0 0.3
vn -4.268 0.313 0.296
vn -4.03 0.32 1.434
vn -4.268 -0.313 0.296
vn -4.036 -0.288 1.423
vn -3.03 0.323 3.019
vn -3.804 1.442 1.362
vn -4.036 1.424 0.28
vn -3.03 3.021 -0.307
vn -3.804 1.374 -1.431
vn -3.056 0.21 -3.003
vn -1.443 -0.323 -4.027
vn -2.853 -1.464 -2.849
vn -2.88 -3.014 -1.01
vn -3.056 -3.002 -0.218
vn -3.03 -3.021 0.307
vn -3.804 -1.374 1.431
vn -3.056 -0.226 3.001
vn -1.443 0.323 4.027
vn -2.853 1.464 2.849
vn -2.88 3.009 1.025
vn -3.056 3.003 0.202
vn -1.443 4.027 -0.323
vn -2.853 2.857 -1.45
vn -2.88 1.033 -3.006
vn -1.46 0.113 -4.032
vn -1.46 4.031 0.121
vn -0.309 4.267 -0.307
vn -1.354 3.807 -1.441
vn -2.139 2.154 -3.031
vn -1.407 0.5 -4.021
vn -1.407 4.024 0.476
vn -0.253 4.275 0.251
vn -1.048 4.025 1.049
vn -0.496 4.017 1.421
vn -1.012 3.013 2.881
vn -0.215 3.009 3.049
vn -0.29 1.43 4.034
vn -0.103 4.032 1.46
vn -2.139 3.04 2.141
vn -1.354 1.426 3.812
vn -0.309 0.291 4.268
vn -1.46 -0.097 4.032
vn -0.253 -0.259 4.274
vn -2.88 -1.018 3.011
vn -1.407 -0.484 4.023
vn -1.048 -1.057 4.023
vn -0.496 -1.398 4.025
vn -1.012 -2.875 3.018
vn -0.215 -3.055 3.003
vn -0.29 -4.039 1.415
vn -2.853 -2.857 1.45
vn -2.139 -2.154 3.031
vn -0.103 -1.46 4.032
vn -1.443 -4.027 0.323
vn -1.354 -3.807 1.441
vn -0.309 -4.267 0.307
vn -1.46 -4.032 -0.105
vn -1.407 -4.022 -0.492
vn -2.139 -3.04 -2.141
vn -1.048 -4.029 -1.033
vn -0.253 -4.276 -0.235
vn -0.496 -4.022 -1.406
vn -0.103 -4.032 -1.46
vn -0.215 -2.998 -3.061
vn -1.012 -3.001 -2.893
vn -1.354 -1.426 -3.812
vn -0.309 -0.291 -4.268
vn -0.253 0.243 -4.275
vn -1.048 1.041 -4.027
vn -0.496 1.413 -4.02
vn -0.103 1.46 -4.032
vn -0.215 3.044 -3.015
vn -1.012 2.887 -3.007
vn -0.29 4.039 -1.415
vn -0.29 -1.43 -4.034
vn -3.838 -1.916 0.008
vn -3.838 -1.916 0.008
vn -3.838 -1.916 0.008
vn -3.838 -1.916 0.008
vn -3.838 0 1.916
vn -3.838 0 1.916
vn -3.838 0 1.916
vn -3.838 0 1.916
vn -3.838 1.916 0.008
vn -3.838 1.916 0.008
vn -3.838 1.916 0.008
vn -3.838 1.916 0.008
vn -3.838 0.016 -1.916
vn -3.838 0.016 -1.916
vn -3.838 0.016 -1.916
vn -3.838 0.016 -1.916
vn -1.443 2.594 3.097
vn -1.443 2.594 3.097
vn -1.443 1.395 3.791
vn -1.443 1.395 3.791
vn -1.443 0 4.04
vn -1.443 0 4.04
vn -1.443 -1.395 3.791
vn -1.443 -1.395 3.791
vn -1.443 -2.594 3.097
vn -1.443 -2.594 3.097
vn -1.443 2.594 3.097
vn -1.443 2.594 3.097
vn -1.443 3.504 2.01
vn -1.443 3.504 2.01
vn -1.443 3.977 0.709
vn -1.443 3.977 0.709
vn -1.443 3.977 -0.709
vn -1.443 3.977 -0.709
vn -1.443 3.504 -2.01
vn -1.443 3.504 -2.01
vn -1.443 2.594 -3.097
vn -1.443 2.594 -3.097
vn -1.443 2.594 -3.097
vn -1.443 2.594 -3.097
vn -1.443 1.395 -3.791
vn -1.443 1.395 -3.791
vn -1.443 0 -4.04
vn -1.443 0 -4.04
vn -1.443 -1.395 -3.791
vn -1.443 -1.395 -3.791
vn -1.443 -2.594 -3.097
vn -1.443 -2.594 -3.097
vn -1.443 -2.594 -3.097
vn -1.443 -2.594 -3.097
vn -1.443 -3.504 -2.01
vn -1.443 -3.504 -2.01
vn -1.443 -3.977 -0.709
vn -1.443 -3.977 -0.709
vn -1.443 -3.977 0.709
vn -1.443 -3.977 0.709
vn -1.443 -3.504 2.01
vn -1.443 -3.504 2.01
vn -1.443 -2.594 3.097
vn -1.443 -2.594 3.097
vn 4.29 0 0
vn 4.29 0 0
vn 4.29 0 0
vn 4.29 0 0
vn 4.29 0 0
vn 4.29 0 0
vn 4.29 0 0
vn 4.29 0 0
vn 4.29 0 0
vn 4.29 0 0
vn 4.29 0 0
vn 4.29 0 0
vn 4.29 0 0
vn 4.29 0 0
vn 4.29 0 0
vn 4.29 0 0
vn 4.29 0 0
vn 4.29 0 0
vn -4.29 0 0
vn -4.29 0 0
vn -4.29 0 0
vn -4.29 0 0
vn -4.29 0 0
vn -4.29 0 0
vn -4.29 0 0
vn -4.29 0 0
vn -4.29 0 0
vn -4.29 0 0
vn -4.29 0 0
vn -4.29 0 0
vn -4.29 0 0
vn -4.29 0 0
vn -4.29 0 0
vn -4.29 0 0
vn -4.29 0 0
vn -4.29 0 0
vn -4.29 0 0
vn -4.29 0 0
vn -4.29 0 0
vn -4.29 0 0
vn -4.29 0 0
vn -4.29 0 0
vn -4.29 0 0
vn -4.29 0 0
vn -4.29 0 0
vn -4.29 0 0
vn -4.29 0 0
vn -4.29 0 0
vn -4.29 0 0
vn -4.29 0 0
vn -4.29 0 0
vn -4.29 0 0
vn -4.29 0 0
vn -4.29 0 0
vn -4.29 0 0
vn -4.29 0 0
vn -4.29 0 0
vn -4.29 0 0
vn -4.29 0 0
vn -4.29 0 0
vn -4.29 0 0
vn -4.29 0 0
vn -4.29 0 0
vn -4.29 0 0
vn -4.29 0 0
vn -4.29 0 0
vn -4.29 0 0
vn -4.29 0 0
vn -4.29 0 0
vn -4.29 0 0
vn -4.29 0 0
vn -4.29 0 0
vn -0.994 -0.741 -4.107
vn -0.994 -0.741 -4.107
vn -0.994 -0.741 -4.107
vn -0.994 -0.741 -4.107
vn -0.994 -2.1 -3.606
vn -0.994 -2.1 -3.606
vn -0.994 -2.1 -3.606
vn -0.994 -2.1 -3.606
vn -0.994 -3.186 -2.695
vn -0.994 -3.186 -2.695
vn -0.994 -3.207 -2.67
vn -0.994 -3.186 -2.695
vn -0.994 -3.916 -1.442
vn -0.994 -3.916 -1.442
vn -0.994 -3.916 -1.442
vn -0.994 -3.916 -1.442
vn -0.994 -4.173 0.016
vn -0.994 -4.173 0.016
vn -0.994 -4.173 0.016
vn -0.994 -4.173 0.016
vn -0.994 -3.916 1.442
vn -0.994 -3.916 1.442
vn -0.994 -3.916 1.442
vn -0.994 -3.916 1.442
vn -0.994 -3.186 2.695
vn -0.994 -3.186 2.695
vn -0.994 -3.186 2.695
vn -0.994 -3.186 2.695
vn -0.994 -2.1 3.606
vn -0.994 -2.1 3.606
vn -0.994 -2.1 3.606
vn -0.994 -2.1 3.606
vn -0.994 -0.741 4.107
vn -0.994 -0.741 4.107
vn -0.994 -0.741 4.107
vn -0.994 -0.741 4.107
vn -0.994 0.709 4.112
vn -0.994 0.709 4.112
vn -0.994 0.709 4.112
vn -0.994 0.709 4.112
vn -0.994 2.072 3.622
vn -0.994 2.072 3.622
vn -0.994 2.072 3.622
vn -0.994 2.072 3.622
vn -0.994 3.186 2.695
vn -0.994 3.186 2.695
vn -0.994 3.186 2.695
vn -0.994 3.186 2.695
vn -0.994 3.927 1.412
vn -0.994 3.927 1.412
vn -0.994 3.927 1.412
vn -0.994 3.927 1.412
vn -0.994 4.173 0.016
vn -0.994 4.173 0.016
vn -0.994 4.173 0.016
vn -0.994 4.173 0.016
vn -0.994 3.927 -1.412
vn -0.994 3.927 -1.412
vn -0.994 3.927 -1.412
vn -0.994 3.927 -1.412
vn -0.994 3.207 -2.67
vn -0.994 3.207 -2.67
vn -0.994 3.207 -2.67
vn -0.994 3.207 -2.67
vn -0.994 2.1 -3.606
vn -0.994 2.1 -3.606
vn -0.994 2.1 -3.606
vn -0.994 2.1 -3.606
vn -0.994 0.741 -4.107
vn -0.994 0.741 -4.107
vn -0.994 0.741 -4.107
vn -0.994 0.741 -4.107
vt 0.2522 0.816
vt 0.2522 0.816
vt 0.2516 0.8156
vt 0.2516 0.8156
vt 0.2508 0.8155
vt 0.2508 0.8155
vt 0.1343 0.8155
vt 0.1343 0.8155
vt 0.1334 0.8156
vt 0.2521 0.816
vt 0.2515 0.8156
vt 0.2519 0.816
vt 0.2514 0.8156
vt 0.2514 0.816
vt 0.2511 0.8156
vt 0.2508 0.816
vt 0.2508 0.8156
vt 0.1343 0.816
vt 0.1343 0.8156
vt 0.1337 0.8161
vt 0.1335 0.8157
vt 0.1332 0.8163
vt 0.1329 0.8161
vt 0.1334 0.8156
vt 0.1329 0.816
vt 0.1329 0.816
vt 0.1324 0.816
vt 0.2464 0.816
vt 0.1324 0.8166
vt 0.2464 0.8166
vt 0.1324 0.8176
vt 0.2464 0.8176
vt 0.1324 0.9003
vt 0.2464 0.9003
vt 0.1324 0.9013
vt 0.2511 0.8163
vt 0.2491 0.8161
vt 0.2511 0.8168
vt 0.2491 0.8167
vt 0.2511 0.8176
vt 0.2491 0.8176
vt 0.2491 0.9003
vt 0.2491 0.9012
vt 0.2511 0.901
vt 0.2511 0.9015
vt 0.2491 0.9018
vt 0.2464 0.9013
vt 0.2464 0.9019
vt 0.1324 0.9019
vt 0.2511 0.9003
vt 0.2522 0.9019
vt 0.2516 0.9023
vt 0.2516 0.9023
vt 0.2508 0.9024
vt 0.2508 0.9024
vt 0.1343 0.9024
vt 0.1343 0.9024
vt 0.2522 0.9019
vt 0.2516 0.9022
vt 0.2522 0.9018
vt 0.2516 0.9018
vt 0.2522 0.9015
vt 0.2508 0.9019
vt 0.2508 0.9023
vt 0.1343 0.9023
vt 0.1343 0.9019
vt 0.1335 0.9022
vt 0.1337 0.9018
vt 0.1329 0.9018
vt 0.1332 0.9015
vt 0.1329 0.9019
vt 0.1334 0.9023
vt 0.1334 0.9023
vt 0.1329 0.9019
vt 0.1324 0.9019
vt 0.2464 0.9019
vt 0.1324 0.9013
vt 0.2464 0.9013
vt 0.1324 0.9003
vt 0.2464 0.9003
vt 0.1324 0.8176
vt 0.2464 0.8176
vt 0.1324 0.8166
vt 0.2485 0.9018
vt 0.2476 0.9012
vt 0.2499 0.9015
vt 0.2485 0.901
vt 0.2508 0.901
vt 0.249 0.9008
vt 0.2511 0.9003
vt 0.2491 0.9003
vt 0.2511 0.8176
vt 0.2491 0.8176
vt 0.249 0.8166
vt 0.2508 0.8166
vt 0.2485 0.816
vt 0.2499 0.816
vt 0.2464 0.8166
vt 0.1324 0.816
vt 0.2464 0.816
vt 0.2519 0.8173
vt 0.2515 0.816
vt 0.2514 0.8167
vt 0.2508 0.8157
vt 0.2508 0.8166
vt 0.1343 0.8157
vt 0.1343 0.8166
vt 0.1339 0.8157
vt 0.1337 0.8166
vt 0.1337 0.8157
vt 0.1332 0.8166
vt 0.1335 0.8157
vt 0.1343 0.8155
vt 0.2508 0.8155
vt 0.1329 0.8166
vt 0.1334 0.8157
vt 0.1329 0.8166
vt 0.1334 0.8157
vt 0.1329 0.8166
vt 0.1335 0.8157
vt 0.1329 0.8166
vt 0.1337 0.8157
vt 0.1332 0.8166
vt 0.1339 0.8157
vt 0.1337 0.8166
vt 0.1343 0.8157
vt 0.1343 0.8166
vt 0.2508 0.8157
vt 0.2508 0.8166
vt 0.2516 0.8167
vt 0.2516 0.816
vt 0.2522 0.8173
vt 0.2522 0.8167
vt 0.2516 0.8157
vt 0.2522 0.8166
vt 0.1343 0.8155
vt 0.2508 0.8155
vt 0.2516 0.8157
vt 0.2522 0.8166
vt 0.2521 0.8167
vt 0.1648 0.9928
vt 0.1736 0.3397
vt 0.0286 0.9928
vt 0.0286 0.3397
vt 0.022 0.9928
vt 0.0286 0.1688
vt 0.0286 0.0246
vt 0.1648 0.0246
vt 0.0286 0.014
vt 0.5113 0.0246
vt 0.1736 0.1688
vt 0.5113 0.1688
vt 0.022 0.0246
vt 0.0171 0.9928
vt 0.0223 1.0035
vt 0.0286 1.0035
vt 0.9861 1.0035
vt 0.5113 0.9928
vt 0.5113 0.3397
vt 0.9861 0.3397
vt 0.9861 0.1688
vt 0.9861 0.0246
vt 0.9928 0.0246
vt 0.9861 0.9928
vt 0.9928 0.9928
vt 0.9976 0.0246
vt 0.9924 0.014
vt 0.9861 0.014
vt 0.0286 0.0063
vt 0.022 0.0146
vt 0.0171 0.0246
vt 0.0144 0.9928
vt 0.0179 1.0035
vt 0.0235 1.0112
vt 0.0286 1.0112
vt 0.9861 1.0112
vt 0.9928 1.0029
vt 0.9976 0.9928
vt 1.0004 0.0246
vt 0.9969 0.014
vt 0.9912 0.0063
vt 0.9861 0.0063
vt 0.0286 0.0017
vt 0.022 0.0075
vt 0.0171 0.0166
vt 0.0144 0.0246
vt 0.9861 0.0017
vt 0.0286 0.0002
vt 0.022 0.0031
vt 0.0171 0.0108
vt 0.0144 0.0199
vt 0.989 0.0017
vt 0.9861 0.0002
vt 0.9912 0.0017
vt 0.9924 0.0017
vt 0.9969 0.0063
vt 0.9976 0.0063
vt 1.0004 0.014
vt 0.9928 0.0017
vt 0.9947 0.0063
vt 0.9995 0.014
vt 1.0013 0.0246
vt 1.0004 0.9928
vt 1.0013 0.9928
vt 0.9976 1.0009
vt 1.0004 0.9975
vt 1.0004 1.0009
vt 1.0004 1.0029
vt 0.9976 1.0099
vt 0.9976 1.0112
vt 0.9928 1.0158
vt 0.9928 1.0099
vt 0.9976 1.0066
vt 1.0004 1.0035
vt 0.9861 1.0158
vt 0.9928 1.0143
vt 0.9861 1.0173
vt 0.0286 1.0158
vt 0.0257 1.0158
vt 0.02 1.0112
vt 0.0235 1.0158
vt 0.0286 1.0173
vt 0.0223 1.0158
vt 0.022 1.0158
vt 0.0171 1.0112
vt 0.0179 1.0112
vt 0.0152 1.0035
vt 0.0134 0.9928
vt 0.0134 0.0246
vt 0.0144 0.0166
vt 0.0144 0.0146
vt 0.0144 0.014
vt 0.0171 0.0063
vt 0.0171 0.0075
vt 0.022 0.0017
vt 0.0144 1.0035
vt 0.1704 0.1678
vt 0.1812 0.1854
vt 0.5167 0.1678
vt 0.506 0.1854
vt 0.1704 0.3428
vt 0.1812 0.3252
vt 0.1704 0.1678
vt 0.1812 0.1854
vt 0.5167 0.3428
vt 0.506 0.3252
vt 0.1704 0.3428
vt 0.1812 0.3252
vt 0.5167 0.1678
vt 0.506 0.1854
vt 0.5167 0.3428
vt 0.506 0.3252
vt 0.364 0.7628
vt 0.216 0.775
vt 0.364 0.787
vt 0.216 0.7935
vt 0.364 0.8145
vt 0.216 0.8145
vt 0.364 0.8421
vt 0.216 0.8355
vt 0.364 0.8663
vt 0.216 0.854
vt 0.3334 0.775
vt 0.3468 0.7628
vt 0.3183 0.7613
vt 0.327 0.7448
vt 0.2999 0.754
vt 0.3029 0.7353
vt 0.2802 0.754
vt 0.2772 0.7353
vt 0.2617 0.7613
vt 0.2531 0.7448
vt 0.2468 0.775
vt 0.2334 0.7628
vt 0.216 0.775
vt 0.364 0.7628
vt 0.216 0.7935
vt 0.364 0.787
vt 0.216 0.8145
vt 0.364 0.8145
vt 0.216 0.8355
vt 0.364 0.8421
vt 0.216 0.854
vt 0.364 0.8663
vt 0.2468 0.854
vt 0.2334 0.8663
vt 0.2617 0.8678
vt 0.2531 0.8841
vt 0.2802 0.875
vt 0.2772 0.8937
vt 0.2999 0.875
vt 0.3029 0.8937
vt 0.3183 0.8678
vt 0.327 0.8841
vt 0.3334 0.854
vt 0.3468 0.8663
vt 0.3468 0.7353
vt 0.327 0.7353
vt 0.3596 0.7353
vt 0.3029 0.7353
vt 0.2772 0.7353
vt 0.2531 0.7353
vt 0.2334 0.7353
vt 0.2205 0.7353
vt 0.216 0.7353
vt 0.2205 0.7353
vt 0.2334 0.7353
vt 0.2531 0.7353
vt 0.2772 0.7353
vt 0.3029 0.7353
vt 0.327 0.7353
vt 0.3468 0.7353
vt 0.3596 0.7353
vt 0.364 0.7353
vt 0.3178 0.8276
vt 0.3196 0.8276
vt 0.3126 0.8276
vt 0.3048 0.8276
vt 0.2952 0.8276
vt 0.2849 0.8276
vt 0.2753 0.8276
vt 0.2674 0.8276
vt 0.2622 0.8276
vt 0.2605 0.8276
vt 0.2622 0.8276
vt 0.2674 0.8276
vt 0.2753 0.8276
vt 0.2849 0.8276
vt 0.2952 0.8276
vt 0.3048 0.8276
vt 0.3126 0.8276
vt 0.3178 0.8276
vt 0.3465 0.8937
vt 0.3224 0.8937
vt 0.3432 0.8937
vt 0.3164 0.8937
vt 0.3245 0.8937
vt 0.3432 0.8937
vt 0.3224 0.8937
vt 0.3334 0.8937
vt 0.3164 0.8937
vt 0.3183 0.8937
vt 0.3072 0.8937
vt 0.2999 0.8937
vt 0.296 0.8937
vt 0.2802 0.8937
vt 0.2841 0.8937
vt 0.2617 0.8937
vt 0.2728 0.8937
vt 0.2468 0.8937
vt 0.2637 0.8937
vt 0.2369 0.8937
vt 0.2576 0.8937
vt 0.2335 0.8937
vt 0.2556 0.8937
vt 0.2369 0.8937
vt 0.2576 0.8937
vt 0.2468 0.8937
vt 0.2637 0.8937
vt 0.2617 0.8937
vt 0.2728 0.8937
vt 0.2802 0.8937
vt 0.2841 0.8937
vt 0.2999 0.8937
vt 0.296 0.8937
vt 0.3183 0.8937
vt 0.3072 0.8937
vt 0.3334 0.8937
vt 0.216 0.8017
vt 0.216 0.8145
vt 0.2778 0.8036
vt 0.2778 0.8145
vt 0.216 0.7904
vt 0.216 0.8017
vt 0.2778 0.7939
vt 0.2778 0.8036
vt 0.3072 0.7821
vt 0.3164 0.7904
vt 0.3048 0.7867
vt 0.3126 0.7939
vt 0.296 0.7776
vt 0.3072 0.7821
vt 0.2952 0.7828
vt 0.3048 0.7867
vt 0.2841 0.7776
vt 0.296 0.7776
vt 0.2849 0.7828
vt 0.2952 0.7828
vt 0.2728 0.7821
vt 0.2841 0.7776
vt 0.2753 0.7867
vt 0.2849 0.7828
vt 0.2637 0.7904
vt 0.2728 0.7821
vt 0.2674 0.7939
vt 0.2753 0.7867
vt 0.216 0.8017
vt 0.216 0.7904
vt 0.2778 0.8036
vt 0.2778 0.7939
vt 0.216 0.8145
vt 0.216 0.8017
vt 0.2778 0.8145
vt 0.2778 0.8036
vt 0.216 0.8273
vt 0.216 0.8145
vt 0.2778 0.8255
vt 0.2778 0.8145
vt 0.216 0.8386
vt 0.216 0.8273
vt 0.2778 0.8351
vt 0.2778 0.8255
vt 0.2728 0.8469
vt 0.2637 0.8386
vt 0.2753 0.8423
vt 0.2674 0.8351
vt 0.2841 0.8514
vt 0.2728 0.8469
vt 0.2849 0.8462
vt 0.2753 0.8423
vt 0.296 0.8514
vt 0.2841 0.8514
vt 0.2952 0.8462
vt 0.2849 0.8462
vt 0.3072 0.8469
vt 0.296 0.8514
vt 0.3048 0.8423
vt 0.2952 0.8462
vt 0.3164 0.8386
vt 0.3072 0.8469
vt 0.3126 0.8351
vt 0.3048 0.8423
vt 0.216 0.8273
vt 0.216 0.8386
vt 0.2778 0.8255
vt 0.2778 0.8351
vt 0.216 0.8145
vt 0.216 0.8273
vt 0.2778 0.8145
vt 0.2778 0.8255
f 1/1/1 2/2/2 3/3/3
f 2/2/2 4/4/4 3/3/3
f 3/3/3 4/4/4 5/5/5
f 4/4/4 6/6/6 5/5/5
f 5/5/5 6/6/6 7/7/7
f 6/6/6 8/8/8 7/7/7
f 7/7/7 8/8/8 9/9/9
f 2/2/2 10/10/10 4/4/4
f 4/4/4 10/10/10 11/11/11
f 10/10/10 12/12/12 11/11/11
f 11/11/11 12/12/12 13/13/13
f 12/12/12 14/14/14 13/13/13
f 13/13/13 14/14/14 15/15/15
f 14/14/14 16/16/16 15/15/15
f 15/15/15 16/16/16 17/17/17
f 16/16/16 18/18/18 17/17/17
f 17/17/17 18/18/18 19/19/19
f 18/18/18 20/20/20 19/19/19
f 19/19/19 20/20/20 21/21/21
f 20/20/20 22/22/22 21/21/21
f 22/22/22 23/23/23 21/21/21
f 21/21/21 23/23/23 24/24/24
f 23/23/23 25/25/25 24/24/24
f 25/25/25 26/26/26 24/24/24
f 26/26/26 9/9/9 24/24/24
f 9/9/9 8/8/8 24/24/24
f 24/24/24 8/8/8 21/21/21
f 21/21/21 8/8/8 19/19/19
f 8/8/8 6/6/6 19/19/19
f 19/19/19 6/6/6 17/17/17
f 17/17/17 6/6/6 15/15/15
f 15/15/15 6/6/6 13/13/13
f 13/13/13 6/6/6 11/11/11
f 6/6/6 4/4/4 11/11/11
f 27/27/27 28/28/28 29/29/29
f 28/28/28 30/30/30 29/29/29
f 29/29/29 30/30/30 31/31/31
f 30/30/30 32/32/32 31/31/31
f 31/31/31 32/32/32 33/33/33
f 32/32/32 34/34/34 33/33/33
f 33/33/33 34/34/34 35/35/35
f 36/36/36 38/38/38 37/37/37
f 37/37/37 38/38/38 39/39/39
f 38/38/38 40/40/40 39/39/39
f 40/40/40 41/41/41 39/39/39
f 39/39/39 41/41/41 30/30/30
f 30/30/30 41/41/41 32/32/32
f 41/41/41 42/42/42 32/32/32
f 32/32/32 42/42/42 34/34/34
f 34/34/34 42/42/42 43/43/43
f 42/42/42 44/44/44 43/43/43
f 44/44/44 45/45/45 43/43/43
f 45/45/45 46/46/46 43/43/43
f 43/43/43 46/46/46 47/47/47
f 46/46/46 48/48/48 47/47/47
f 48/48/48 49/49/49 47/47/47
f 49/49/49 35/35/35 47/47/47
f 35/35/35 34/34/34 47/47/47
f 47/47/47 34/34/34 43/43/43
f 30/30/30 28/28/28 39/39/39
f 39/39/39 28/28/28 37/37/37
f 40/40/40 50/50/50 41/41/41
f 41/41/41 50/50/50 42/42/42
f 50/50/50 44/44/44 42/42/42
f 51/51/51 52/52/52 53/53/53
f 53/53/53 52/52/52 54/54/54
f 52/52/52 55/55/55 54/54/54
f 54/54/54 55/55/55 56/56/56
f 55/55/55 57/57/57 56/56/56
f 51/51/51 53/53/53 58/58/58
f 53/53/53 59/59/59 58/58/58
f 58/58/58 59/59/59 60/60/60
f 59/59/59 61/61/61 60/60/60
f 60/60/60 61/61/61 62/62/62
f 61/61/61 59/59/59 63/63/63
f 63/63/63 59/59/59 64/64/64
f 59/59/59 53/53/53 64/64/64
f 53/53/53 54/54/54 64/64/64
f 54/54/54 56/56/56 64/64/64
f 56/56/56 65/65/65 64/64/64
f 64/64/64 65/65/65 63/63/63
f 63/63/63 65/65/65 66/66/66
f 65/65/65 67/67/67 66/66/66
f 66/66/66 67/67/67 68/68/68
f 67/67/67 69/69/69 68/68/68
f 68/68/68 69/69/69 70/70/70
f 69/69/69 67/67/67 71/71/71
f 71/71/71 67/67/67 72/72/72
f 67/67/67 65/65/65 72/72/72
f 65/65/65 56/56/56 72/72/72
f 56/56/56 57/57/57 72/72/72
f 57/57/57 73/73/73 72/72/72
f 72/72/72 73/73/73 71/71/71
f 73/73/73 74/74/74 71/71/71
f 75/75/75 76/76/76 77/77/77
f 76/76/76 78/78/78 77/77/77
f 77/77/77 78/78/78 79/79/79
f 78/78/78 80/80/80 79/79/79
f 79/79/79 80/80/80 81/81/81
f 80/80/80 82/82/82 81/81/81
f 81/81/81 82/82/82 83/83/83
f 76/76/76 84/84/84 78/78/78
f 78/78/78 84/84/84 85/85/85
f 84/84/84 86/86/86 85/85/85
f 85/85/85 86/86/86 87/87/87
f 86/86/86 88/88/88 87/87/87
f 87/87/87 88/88/88 89/89/89
f 88/88/88 90/90/90 89/89/89
f 89/89/89 90/90/90 91/91/91
f 90/90/90 92/92/92 91/91/91
f 91/91/91 92/92/92 93/93/93
f 93/93/93 92/92/92 94/94/94
f 92/92/92 95/95/95 94/94/94
f 94/94/94 95/95/95 96/96/96
f 95/95/95 97/97/97 96/96/96
f 78/78/78 85/85/85 80/80/80
f 85/85/85 87/87/87 80/80/80
f 87/87/87 89/89/89 80/80/80
f 89/89/89 91/91/91 80/80/80
f 91/91/91 93/93/93 80/80/80
f 80/80/80 93/93/93 82/82/82
f 93/93/93 98/98/98 82/82/82
f 82/82/82 98/98/98 83/83/83
f 83/83/83 98/98/98 99/99/99
f 99/99/99 98/98/98 100/100/100
f 98/98/98 94/94/94 100/100/100
f 100/100/100 94/94/94 96/96/96
f 93/93/93 94/94/94 98/98/98
f 101/101/101 102/102/102 103/103/103
f 102/102/102 104/104/104 103/103/103
f 103/103/103 104/104/104 105/105/105
f 104/104/104 106/106/106 105/105/105
f 105/105/105 106/106/106 107/107/107
f 106/106/106 108/108/108 107/107/107
f 107/107/107 108/108/108 109/109/109
f 108/108/108 110/110/110 109/109/109
f 109/109/109 110/110/110 111/111/111
f 111/111/111 110/110/110 112/112/112
f 112/112/112 110/110/110 113/113/113
f 110/110/110 108/108/108 113/113/113
f 108/108/108 106/106/106 113/113/113
f 106/106/106 104/104/104 113/113/113
f 113/113/113 104/104/104 114/114/114
f 104/104/104 102/102/102 114/114/114
f 111/111/111 112/112/112 115/115/115
f 112/112/112 116/116/116 115/115/115
f 115/115/115 116/116/116 117/117/117
f 116/116/116 118/118/118 117/117/117
f 117/117/117 118/118/118 119/119/119
f 118/118/118 120/120/120 119/119/119
f 119/119/119 120/120/120 121/121/121
f 120/120/120 122/122/122 121/121/121
f 121/121/121 122/122/122 123/123/123
f 122/122/122 124/124/124 123/123/123
f 123/123/123 124/124/124 125/125/125
f 124/124/124 126/126/126 125/125/125
f 125/125/125 126/126/126 127/127/127
f 126/126/126 128/128/128 127/127/127
f 127/127/127 128/128/128 129/129/129
f 129/129/129 128/128/128 130/130/130
f 128/128/128 131/131/131 130/130/130
f 130/130/130 131/131/131 132/132/132
f 132/132/132 131/131/131 133/133/133
f 131/131/131 134/134/134 133/133/133
f 133/133/133 134/134/134 135/135/135
f 113/113/113 116/116/116 112/112/112
f 136/136/136 113/113/113 114/114/114
f 134/134/134 131/131/131 137/137/137
f 131/131/131 128/128/128 137/137/137
f 128/128/128 126/126/126 137/137/137
f 137/137/137 126/126/126 136/136/136
f 126/126/126 124/124/124 136/136/136
f 124/124/124 122/122/122 136/136/136
f 122/122/122 120/120/120 136/136/136
f 120/120/120 118/118/118 136/136/136
f 118/118/118 116/116/116 136/136/136
f 136/136/136 116/116/116 113/113/113
f 136/136/136 114/114/114 137/137/137
f 137/137/137 114/114/114 134/134/134
f 114/114/114 138/138/138 134/134/134
f 134/134/134 138/138/138 135/135/135
f 135/135/135 138/138/138 139/139/139
f 139/139/139 138/138/138 140/140/140
f 138/138/138 102/102/102 140/140/140
f 140/140/140 102/102/102 101/101/101
f 102/102/102 138/138/138 114/114/114
f 141/141/141 142/142/142 143/143/143
f 142/142/142 144/144/144 143/143/143
f 143/143/143 144/144/144 145/145/145
f 144/144/144 146/146/146 145/145/145
f 145/145/145 146/146/146 147/147/147
f 146/146/146 148/148/148 147/147/147
f 147/147/147 148/148/148 149/149/149
f 149/149/149 148/148/148 150/150/150
f 148/148/148 151/151/151 150/150/150
f 150/150/150 151/151/151 152/152/152
f 148/148/148 146/146/146 151/151/151
f 146/146/146 144/144/144 151/151/151
f 151/151/151 144/144/144 142/142/142
f 149/149/149 153/153/153 147/147/147
f 147/147/147 153/153/153 145/145/145
f 153/153/153 154/154/154 145/145/145
f 154/154/154 155/155/155 145/145/145
f 155/155/155 156/156/156 145/145/145
f 145/145/145 156/156/156 143/143/143
f 156/156/156 157/157/157 143/143/143
f 143/143/143 157/157/157 141/141/141
f 157/157/157 158/158/158 141/141/141
f 141/141/141 158/158/158 159/159/159
f 158/158/158 160/160/160 159/159/159
f 159/159/159 160/160/160 152/152/152
f 160/160/160 161/161/161 152/152/152
f 152/152/152 161/161/161 150/150/150
f 161/161/161 162/162/162 150/150/150
f 150/150/150 162/162/162 149/149/149
f 159/159/159 142/142/142 141/141/141
f 162/162/162 161/161/161 163/163/163
f 161/161/161 160/160/160 163/163/163
f 163/163/163 160/160/160 164/164/164
f 160/160/160 158/158/158 164/164/164
f 158/158/158 157/157/157 164/164/164
f 157/157/157 165/165/165 164/164/164
f 164/164/164 165/165/165 163/163/163
f 165/165/165 166/166/166 163/163/163
f 166/166/166 167/167/167 163/163/163
f 167/167/167 168/168/168 163/163/163
f 163/163/163 168/168/168 162/162/162
f 162/162/162 168/168/168 149/149/149
f 168/168/168 169/169/169 149/149/149
f 169/169/169 170/170/170 149/149/149
f 149/149/149 170/170/170 153/153/153
f 170/170/170 171/171/171 153/153/153
f 153/153/153 171/171/171 154/154/154
f 171/171/171 172/172/172 154/154/154
f 172/172/172 173/173/173 154/154/154
f 154/154/154 173/173/173 155/155/155
f 173/173/173 174/174/174 155/155/155
f 174/174/174 175/175/175 155/155/155
f 155/155/155 175/175/175 156/156/156
f 175/175/175 176/176/176 156/156/156
f 156/156/156 176/176/176 157/157/157
f 176/176/176 177/177/177 157/157/157
f 157/157/157 177/177/177 165/165/165
f 177/177/177 178/178/178 165/165/165
f 165/165/165 178/178/178 166/166/166
f 178/178/178 179/179/179 166/166/166
f 179/179/179 180/180/180 166/166/166
f 166/166/166 180/180/180 167/167/167
f 180/180/180 181/181/181 167/167/167
f 181/181/181 182/182/182 167/167/167
f 167/167/167 182/182/182 168/168/168
f 168/168/168 182/182/182 169/169/169
f 182/182/182 183/183/183 169/169/169
f 183/183/183 184/184/184 169/169/169
f 169/169/169 184/184/184 170/170/170
f 184/184/184 185/185/185 170/170/170
f 170/170/170 185/185/185 171/171/171
f 185/185/185 186/186/186 171/171/171
f 171/171/171 186/186/186 172/172/172
f 182/182/182 187/187/187 183/183/183
f 187/187/187 188/188/188 183/183/183
f 188/188/188 189/189/189 183/183/183
f 183/183/183 189/189/189 184/184/184
f 189/189/189 190/190/190 184/184/184
f 184/184/184 190/190/190 185/185/185
f 190/190/190 191/191/191 185/185/185
f 185/185/185 191/191/191 186/186/186
f 182/182/182 181/181/181 187/187/187
f 181/181/181 192/192/192 187/187/187
f 187/187/187 192/192/192 193/193/193
f 192/192/192 194/194/194 193/193/193
f 193/193/193 194/194/194 195/195/195
f 194/194/194 196/196/196 195/195/195
f 195/195/195 196/196/196 197/197/197
f 196/196/196 198/198/198 197/197/197
f 187/187/187 193/193/193 188/188/188
f 193/193/193 195/195/195 199/199/199
f 199/199/199 195/195/195 197/197/197
f 196/196/196 194/194/194 200/200/200
f 194/194/194 192/192/192 200/200/200
f 192/192/192 181/181/181 200/200/200
f 181/181/181 180/180/180 200/200/200
f 200/200/200 180/180/180 201/201/201
f 180/180/180 179/179/179 201/201/201
f 201/201/201 179/179/179 202/202/202
f 179/179/179 203/203/203 202/202/202
f 202/202/202 203/203/203 204/204/204
f 200/200/200 201/201/201 196/196/196
f 196/196/196 201/201/201 198/198/198
f 201/201/201 202/202/202 198/198/198
f 179/179/179 178/178/178 203/203/203
f 178/178/178 205/205/205 203/203/203
f 205/205/205 206/206/206 203/203/203
f 203/203/203 206/206/206 204/204/204
f 206/206/206 207/207/207 204/204/204
f 204/204/204 207/207/207 208/208/208
f 207/207/207 209/209/209 208/208/208
f 208/208/208 209/209/209 210/210/210
f 209/209/209 211/211/211 210/210/210
f 178/178/178 177/177/177 205/205/205
f 177/177/177 212/212/212 205/205/205
f 212/212/212 213/213/213 205/205/205
f 205/205/205 213/213/213 206/206/206
f 206/206/206 213/213/213 207/207/207
f 213/213/213 209/209/209 207/207/207
f 204/204/204 208/208/208 214/214/214
f 208/208/208 210/210/210 214/214/214
f 177/177/177 176/176/176 212/212/212
f 176/176/176 215/215/215 212/212/212
f 212/212/212 215/215/215 216/216/216
f 215/215/215 217/217/217 216/216/216
f 217/217/217 211/211/211 216/216/216
f 211/211/211 209/209/209 216/216/216
f 209/209/209 213/213/213 216/216/216
f 216/216/216 213/213/213 212/212/212
f 176/176/176 175/175/175 215/215/215
f 215/215/215 175/175/175 218/218/218
f 175/175/175 174/174/174 218/218/218
f 218/218/218 174/174/174 219/219/219
f 174/174/174 220/220/220 219/219/219
f 220/220/220 221/221/221 219/219/219
f 219/219/219 221/221/221 222/222/222
f 221/221/221 223/223/223 222/222/222
f 222/222/222 223/223/223 224/224/224
f 224/224/224 223/223/223 225/225/225
f 225/225/225 223/223/223 226/226/226
f 223/223/223 221/221/221 226/226/226
f 221/221/221 220/220/220 226/226/226
f 226/226/226 220/220/220 227/227/227
f 220/220/220 173/173/173 227/227/227
f 173/173/173 172/172/172 227/227/227
f 227/227/227 172/172/172 228/228/228
f 172/172/172 186/186/186 228/228/228
f 228/228/228 186/186/186 229/229/229
f 186/186/186 191/191/191 229/229/229
f 229/229/229 191/191/191 230/230/230
f 191/191/191 190/190/190 230/230/230
f 215/215/215 218/218/218 217/217/217
f 217/217/217 218/218/218 222/222/222
f 218/218/218 219/219/219 222/222/222
f 173/173/173 220/220/220 174/174/174
f 230/230/230 231/231/231 229/229/229
f 229/229/229 231/231/231 232/232/232
f 232/232/232 231/231/231 233/233/233
f 231/231/231 234/234/234 233/233/233
f 233/233/233 234/234/234 235/235/235
f 234/234/234 189/189/189 235/235/235
f 235/235/235 189/189/189 188/188/188
f 231/231/231 230/230/230 234/234/234
f 230/230/230 190/190/190 234/234/234
f 234/234/234 190/190/190 189/189/189
f 228/228/228 236/236/236 227/227/227
f 227/227/227 236/236/236 226/226/226
f 236/236/236 225/225/225 226/226/226
f 237/237/237 238/238/238 239/239/239
f 238/238/238 240/240/240 239/239/239
f 241/241/241 242/242/242 243/243/243
f 242/242/242 244/244/244 243/243/243
f 245/245/245 246/246/246 247/247/247
f 246/246/246 248/248/248 247/247/247
f 249/249/249 250/250/250 251/251/251
f 250/250/250 252/252/252 251/251/251
f 253/253/253 254/254/254 255/255/255
f 254/254/254 256/256/256 255/255/255
f 255/255/255 256/256/256 257/257/257
f 256/256/256 258/258/258 257/257/257
f 257/257/257 258/258/258 259/259/259
f 258/258/258 260/260/260 259/259/259
f 259/259/259 260/260/260 261/261/261
f 260/260/260 262/262/262 261/261/261
f 263/263/263 264/264/264 265/265/265
f 264/264/264 266/266/266 265/265/265
f 265/265/265 266/266/266 267/267/267
f 266/266/266 268/268/268 267/267/267
f 267/267/267 268/268/268 269/269/269
f 268/268/268 270/270/270 269/269/269
f 269/269/269 270/270/270 271/271/271
f 270/270/270 272/272/272 271/271/271
f 271/271/271 272/272/272 273/273/273
f 272/272/272 274/274/274 273/273/273
f 275/275/275 276/276/276 277/277/277
f 276/276/276 278/278/278 277/277/277
f 277/277/277 278/278/278 279/279/279
f 278/278/278 280/280/280 279/279/279
f 279/279/279 280/280/280 281/281/281
f 280/280/280 282/282/282 281/281/281
f 281/281/281 282/282/282 283/283/283
f 282/282/282 284/284/284 283/283/283
f 285/285/285 286/286/286 287/287/287
f 286/286/286 288/288/288 287/287/287
f 287/287/287 288/288/288 289/289/289
f 288/288/288 290/290/290 289/289/289
f 289/289/289 290/290/290 291/291/291
f 290/290/290 292/292/292 291/291/291
f 291/291/291 292/292/292 293/293/293
f 292/292/292 294/294/294 293/293/293
f 293/293/293 294/294/294 295/295/295
f 294/294/294 296/296/296 295/295/295
f 297/297/297 298/298/298 299/299/299
f 298/298/298 300/300/300 299/299/299
f 300/300/300 301/301/301 299/299/299
f 301/301/301 302/302/302 299/299/299
f 302/302/302 303/303/303 299/299/299
f 303/303/303 304/304/304 299/299/299
f 304/304/304 305/305/305 299/299/299
f 305/305/305 306/306/306 299/299/299
f 306/306/306 307/307/307 299/299/299
f 307/307/307 308/308/308 299/299/299
f 308/308/308 309/309/309 299/299/299
f 309/309/309 310/310/310 299/299/299
f 310/310/310 311/311/311 299/299/299
f 311/311/311 312/312/312 299/299/299
f 312/312/312 313/313/313 299/299/299
f 299/299/299 313/313/313 314/314/314
f 315/315/315 317/317/317 316/316/316
f 317/317/317 318/318/318 316/316/316
f 318/318/318 319/319/319 316/316/316
f 319/319/319 320/320/320 316/316/316
f 320/320/320 321/321/321 316/316/316
f 321/321/321 322/322/322 316/316/316
f 322/322/322 323/323/323 316/316/316
f 323/323/323 324/324/324 316/316/316
f 324/324/324 325/325/325 316/316/316
f 325/325/325 326/326/326 316/316/316
f 326/326/326 327/327/327 316/316/316
f 327/327/327 328/328/328 316/316/316
f 328/328/328 329/329/329 316/316/316
f 329/329/329 330/330/330 316/316/316
f 330/330/330 331/331/331 316/316/316
f 316/316/316 331/331/331 332/332/332
f 333/333/333 335/335/335 334/334/334
f 334/334/334 335/335/335 336/336/336
f 334/334/334 337/337/337 333/333/333
f 333/333/333 337/337/337 338/338/338
f 337/337/337 339/339/339 338/338/338
f 338/338/338 339/339/339 340/340/340
f 339/339/339 341/341/341 340/340/340
f 340/340/340 341/341/341 342/342/342
f 341/341/341 343/343/343 342/342/342
f 342/342/342 343/343/343 344/344/344
f 343/343/343 345/345/345 344/344/344
f 344/344/344 345/345/345 346/346/346
f 345/345/345 347/347/347 346/346/346
f 346/346/346 347/347/347 348/348/348
f 347/347/347 349/349/349 348/348/348
f 348/348/348 349/349/349 350/350/350
f 349/349/349 351/351/351 350/350/350
f 350/350/350 351/351/351 352/352/352
f 351/351/351 353/353/353 352/352/352
f 352/352/352 353/353/353 354/354/354
f 353/353/353 355/355/355 354/354/354
f 354/354/354 355/355/355 356/356/356
f 355/355/355 357/357/357 356/356/356
f 356/356/356 357/357/357 358/358/358
f 357/357/357 359/359/359 358/358/358
f 358/358/358 359/359/359 360/360/360
f 359/359/359 361/361/361 360/360/360
f 360/360/360 361/361/361 362/362/362
f 361/361/361 363/363/363 362/362/362
f 362/362/362 363/363/363 364/364/364
f 363/363/363 365/365/365 364/364/364
f 364/364/364 365/365/365 366/366/366
f 365/365/365 367/367/367 366/366/366
f 366/366/366 367/367/367 368/368/368
f 367/367/367 336/336/336 368/368/368
f 368/368/368 336/336/336 335/335/335
f 369/369/369 371/371/371 370/370/370
f 370/370/370 371/371/371 372/372/372
f 373/373/373 375/375/375 374/374/374
f 374/374/374 375/375/375 376/376/376
f 377/377/377 379/379/379 378/378/378
f 378/378/378 379/379/379 380/380/380
f 381/381/381 383/383/383 382/382/382
f 382/382/382 383/383/383 384/384/384
f 385/385/385 387/387/387 386/386/386
f 386/386/386 387/387/387 388/388/388
f 389/389/389 391/391/391 390/390/390
f 390/390/390 391/391/391 392/392/392
f 393/393/393 395/395/395 394/394/394
f 394/394/394 395/395/395 396/396/396
f 397/397/397 399/399/399 398/398/398
f 398/398/398 399/399/399 400/400/400
f 401/401/401 403/403/403 402/402/402
f 402/402/402 403/403/403 404/404/404
f 405/405/405 407/407/407 406/406/406
f 406/406/406 407/407/407 408/408/408
f 409/409/409 411/411/411 410/410/410
f 410/410/410 411/411/411 412/412/412
f 413/413/413 415/415/415 414/414/414
f 414/414/414 415/415/415 416/416/416
f 417/417/417 419/419/419 418/418/418
f 418/418/418 419/419/419 420/420/420
f 421/421/421 423/423/423 422/422/422
f 422/422/422 423/423/423 424/424/424
f 425/425/425 427/427/427 426/426/426
f 426/426/426 427/427/427 428/428/428
f 429/429/429 431/431/431 430/430/430
f 430/430/430 431/431/431 432/432/432
f 433/433/433 435/435/435 434/434/434
f 434/434/434 435/435/435 436/436/436
f 437/437/437 439/439/439 438/438/438
f 438/438/438 439/439/439 440/440/440
