o model_12
v -0.10198 1.44333 4.40769
v -0.10198 1.48605 4.40769
v -0.10198 1.44333 4.14507
v -0.10198 1.48605 4.14507
v -0.06808 1.44334 4.40769
v -0.10198 1.44333 4.40769
v -0.06808 1.44334 4.14507
v -0.10198 1.44333 4.14507
v -0.06808 1.48605 4.40769
v -0.10198 1.48605 4.40769
v -0.06808 1.44334 4.40769
v -0.10198 1.44333 4.40769
v -0.06808 1.48605 4.14507
v -0.10198 1.48605 4.14507
v -0.06808 1.48605 4.40769
v -0.10198 1.48605 4.40769
v -0.06808 1.44334 4.14507
v -0.10198 1.44333 4.14507
v -0.06808 1.48605 4.14507
v -0.10198 1.48605 4.14507
v -0.14923 1.34355 4.00414
v -0.14778 1.34407 4.00332
v -0.11287 1.25495 4.00414
v -0.11142 1.25564 4.00332
v -0.10553 1.23349 4.00414
v -0.10401 1.23384 4.00332
v -0.09937 1.21187 4.00414
v -0.09785 1.21222 4.00332
v -0.0968 1.20105 4.00414
v -0.09528 1.2014 4.00332
v -0.09466 1.19007 4.00414
v -0.09311 1.19042 4.00332
v -0.09295 1.17925 4.00414
v -0.0914 1.17943 4.00332
v -0.09166 1.16827 4.00414
v -0.09008 1.16827 4.00332
v -0.0914 1.16617 4.00428
v -0.08985 1.16617 4.00359
v -0.09117 1.16425 4.00469
v -0.08959 1.16425 4.004
v -0.09094 1.16234 4.0051
v -0.08936 1.16234 4.00441
v -0.09071 1.16042 4.00564
v -0.08913 1.16042 4.00496
v -0.09051 1.1585 4.00633
v -0.08893 1.1585 4.00564
v -0.09028 1.15675 4.00701
v -0.0887 1.15658 4.00633
v -0.09008 1.15501 4.00783
v -0.0885 1.15484 4.00715
v -0.08988 1.15327 4.00865
v -0.0883 1.15309 4.0081
v -0.08969 1.15152 4.00975
v -0.0881 1.15117 4.00906
v -0.08949 1.14978 4.0107
v -0.08791 1.1496 4.01016
v -0.08932 1.14803 4.01193
v -0.08771 1.14786 4.01125
v -0.08913 1.14646 4.01303
v -0.08754 1.14612 4.01248
v -0.08896 1.14489 4.01439
v -0.08735 1.14455 4.01385
v -0.0888 1.14332 4.01576
v -0.08718 1.14298 4.01521
v -0.08847 1.14019 4.01863
v -0.08685 1.13984 4.01822
v -0.08817 1.1374 4.02191
v -0.08656 1.13705 4.02137
v -0.08791 1.1346 4.02533
v -0.08626 1.13408 4.02492
v -0.08764 1.13199 4.02916
v -0.086 1.13147 4.02875
v -0.08738 1.12937 4.03312
v -0.08577 1.12885 4.03271
v -0.08718 1.12693 4.03736
v -0.08554 1.12641 4.03695
v -0.08695 1.12466 4.04174
v -0.08534 1.12414 4.04146
v -0.08675 1.12257 4.04638
v -0.08514 1.12205 4.04611
v -0.08659 1.12048 4.05117
v -0.08494 1.11995 4.0509
v -0.08629 1.11681 4.06142
v -0.08465 1.11629 4.06115
v -0.08603 1.1135 4.07222
v -0.08438 1.11298 4.07209
v -0.08583 1.11071 4.08357
v -0.08419 1.11019 4.08343
v -0.08567 1.10844 4.09547
v -0.08405 1.10792 4.09533
v -0.08557 1.1067 4.10763
v -0.08396 1.10618 4.1075
v -0.0855 1.1053 4.12007
v -0.08389 1.10478 4.11994
v -0.0855 1.10443 4.13265
v -0.08386 1.10391 4.13265
v -0.0855 1.10408 4.14537
v -0.08386 1.10356 4.14537
v -0.08554 1.10426 4.15808
v -0.08389 1.10373 4.15808
v -0.0856 1.10478 4.17066
v -0.08396 1.10426 4.17066
v -0.08567 1.10583 4.18296
v -0.08405 1.1053 4.1831
v -0.0858 1.1074 4.19499
v -0.08415 1.10687 4.19513
v -0.0859 1.10932 4.20675
v -0.08425 1.10879 4.20689
v -0.08603 1.11193 4.21796
v -0.08438 1.11123 4.2181
v -0.08616 1.1149 4.22849
v -0.08452 1.11437 4.22876
v -0.08629 1.11821 4.23847
v -0.08468 1.11769 4.23874
v -0.08636 1.12013 4.24312
v -0.08475 1.11961 4.24339
v -0.08643 1.12222 4.24763
v -0.08481 1.1217 4.2479
v -0.08649 1.12431 4.252
v -0.08488 1.12379 4.25228
v -0.08656 1.12658 4.25597
v -0.08494 1.12606 4.25638
v -0.08662 1.12902 4.2598
v -0.08501 1.1285 4.26021
v -0.08669 1.13147 4.26335
v -0.08504 1.13112 4.26376
v -0.08675 1.13426 4.26677
v -0.08511 1.13373 4.26718
v -0.08679 1.13687 4.26978
v -0.08517 1.13652 4.27019
v -0.08682 1.13844 4.27114
v -0.08521 1.13792 4.27155
v -0.08685 1.13984 4.27251
v -0.08521 1.13949 4.27292
v -0.08685 1.14141 4.27374
v -0.08524 1.14106 4.27429
v -0.08689 1.14298 4.27497
v -0.08527 1.14263 4.27552
v -0.08692 1.14455 4.27606
v -0.08527 1.1442 4.27661
v -0.08692 1.14612 4.27716
v -0.08531 1.14577 4.27757
v -0.08695 1.14769 4.27812
v -0.08531 1.14751 4.27853
v -0.08695 1.14943 4.27894
v -0.08534 1.14908 4.27948
v -0.08698 1.151 4.27976
v -0.08534 1.15082 4.2803
v -0.08698 1.15274 4.28044
v -0.08537 1.15257 4.28099
v -0.08698 1.15449 4.28099
v -0.08537 1.15431 4.28153
v -0.08702 1.15641 4.28153
v -0.08537 1.15623 4.28208
v -0.08702 1.15815 4.28194
v -0.08537 1.15815 4.28249
v -0.08702 1.16007 4.28222
v -0.0854 1.15989 4.28276
v -0.08702 1.16199 4.28249
v -0.0854 1.16181 4.28304
v -0.08702 1.16391 4.28263
v -0.0854 1.16391 4.28317
v -0.08702 1.46057 4.28263
v -0.0854 1.46057 4.28317
v -0.14959 1.34337 4.00578
v -0.14923 1.34355 4.00414
v -0.11323 1.25495 4.00578
v -0.11287 1.25495 4.00414
v -0.10589 1.23332 4.00578
v -0.10553 1.23349 4.00414
v -0.09973 1.21169 4.00578
v -0.09937 1.21187 4.00414
v -0.09719 1.20088 4.00578
v -0.0968 1.20105 4.00414
v -0.09505 1.19007 4.00578
v -0.09466 1.19007 4.00414
v -0.09331 1.17925 4.00578
v -0.09295 1.17925 4.00414
v -0.09206 1.16827 4.00578
v -0.09166 1.16827 4.00414
v -0.09183 1.16635 4.00605
v -0.0914 1.16617 4.00428
v -0.0916 1.16443 4.00633
v -0.09117 1.16425 4.00469
v -0.09136 1.16268 4.00674
v -0.09094 1.16234 4.0051
v -0.09117 1.16094 4.00728
v -0.09071 1.16042 4.00564
v -0.09097 1.15902 4.00783
v -0.09051 1.1585 4.00633
v -0.09074 1.15728 4.00865
v -0.09028 1.15675 4.00701
v -0.09054 1.15553 4.00934
v -0.09008 1.15501 4.00783
v -0.09038 1.15396 4.01016
v -0.08988 1.15327 4.00865
v -0.09018 1.15222 4.01111
v -0.08969 1.15152 4.00975
v -0.08998 1.15065 4.01221
v -0.08949 1.14978 4.0107
v -0.08982 1.14908 4.0133
v -0.08932 1.14803 4.01193
v -0.08965 1.14751 4.01439
v -0.08913 1.14646 4.01303
v -0.08949 1.14594 4.01562
v -0.08896 1.14489 4.01439
v -0.08932 1.14437 4.01699
v -0.0888 1.14332 4.01576
v -0.08899 1.14141 4.01986
v -0.08847 1.14019 4.01863
v -0.0887 1.13862 4.02301
v -0.08817 1.1374 4.02191
v -0.08843 1.13583 4.02642
v -0.08791 1.1346 4.02533
v -0.08817 1.13321 4.03012
v -0.08764 1.13199 4.02916
v -0.08794 1.13077 4.03394
v -0.08738 1.12937 4.03312
v -0.08771 1.1285 4.03818
v -0.08718 1.12693 4.03736
v -0.08751 1.12623 4.04242
v -0.08695 1.12466 4.04174
v -0.08731 1.12397 4.04707
v -0.08675 1.12257 4.04638
v -0.08715 1.12205 4.05185
v -0.08659 1.12048 4.05117
v -0.08685 1.11838 4.06197
v -0.08629 1.11681 4.06142
v -0.08659 1.11507 4.07263
v -0.08603 1.1135 4.07222
v -0.08639 1.11245 4.08398
v -0.08583 1.11071 4.08357
v -0.08626 1.11019 4.09574
v -0.08567 1.10844 4.09547
v -0.08613 1.10827 4.10777
v -0.08557 1.1067 4.10763
v -0.08606 1.10705 4.12021
v -0.0855 1.1053 4.12007
v -0.08606 1.10618 4.13279
v -0.0855 1.10443 4.13265
v -0.08606 1.10583 4.14537
v -0.0855 1.10408 4.14537
v -0.0861 1.10583 4.15794
v -0.08554 1.10426 4.15808
v -0.08616 1.10652 4.17052
v -0.0856 1.10478 4.17066
v -0.08626 1.10757 4.18283
v -0.08567 1.10583 4.18296
v -0.08636 1.10897 4.19472
v -0.0858 1.1074 4.19499
v -0.08646 1.11106 4.20634
v -0.0859 1.10932 4.20675
v -0.08659 1.1135 4.21755
v -0.08603 1.11193 4.21796
v -0.08672 1.11647 4.22808
v -0.08616 1.1149 4.22849
v -0.08685 1.11978 4.23792
v -0.08629 1.11821 4.23847
v -0.08692 1.1217 4.24257
v -0.08636 1.12013 4.24312
v -0.08698 1.12362 4.24694
v -0.08643 1.12222 4.24763
v -0.08705 1.12588 4.25118
v -0.08649 1.12431 4.252
v -0.08712 1.12798 4.25515
v -0.08656 1.12658 4.25597
v -0.08718 1.13042 4.25898
v -0.08662 1.12902 4.2598
v -0.08725 1.13286 4.26239
v -0.08669 1.13147 4.26335
v -0.08728 1.13548 4.26567
v -0.08675 1.13426 4.26677
v -0.08735 1.13809 4.26855
v -0.08679 1.13687 4.26978
v -0.08738 1.13949 4.26991
v -0.08682 1.13844 4.27114
v -0.08738 1.14088 4.27128
v -0.08685 1.13984 4.27251
v -0.08741 1.14245 4.27251
v -0.08685 1.14141 4.27374
v -0.08745 1.14385 4.2736
v -0.08689 1.14298 4.27497
v -0.08745 1.14542 4.2747
v -0.08692 1.14455 4.27606
v -0.08748 1.14699 4.27565
v -0.08692 1.14612 4.27716
v -0.08748 1.14856 4.27661
v -0.08695 1.14769 4.27812
v -0.08751 1.15013 4.27743
v -0.08695 1.14943 4.27894
v -0.08751 1.1517 4.27812
v -0.08698 1.151 4.27976
v -0.08754 1.15344 4.2788
v -0.08698 1.15274 4.28044
v -0.08754 1.15501 4.27935
v -0.08698 1.15449 4.28099
v -0.08754 1.15675 4.27989
v -0.08702 1.15641 4.28153
v -0.08754 1.1585 4.2803
v -0.08702 1.15815 4.28194
v -0.08754 1.16024 4.28058
v -0.08702 1.16007 4.28222
v -0.08758 1.16199 4.28085
v -0.08702 1.16199 4.28249
v -0.08758 1.16391 4.28099
v -0.08702 1.16391 4.28263
v -0.08758 1.46057 4.28099
v -0.08702 1.46057 4.28263
v -0.1486 1.34372 4.00715
v -0.14959 1.34337 4.00578
v -0.11221 1.25529 4.00715
v -0.11323 1.25495 4.00578
v -0.10487 1.23367 4.00715
v -0.10589 1.23332 4.00578
v -0.09868 1.21204 4.00715
v -0.09973 1.21169 4.00578
v -0.09614 1.20105 4.00715
v -0.09719 1.20088 4.00578
v -0.09397 1.19024 4.00715
v -0.09505 1.19007 4.00578
v -0.09225 1.17943 4.00715
v -0.09331 1.17925 4.00578
v -0.091 1.16844 4.00715
v -0.09206 1.16827 4.00578
v -0.09077 1.1667 4.00728
v -0.09183 1.16635 4.00605
v -0.09054 1.16495 4.00769
v -0.0916 1.16443 4.00633
v -0.09034 1.16321 4.0081
v -0.09136 1.16268 4.00674
v -0.09015 1.16146 4.00865
v -0.09117 1.16094 4.00728
v -0.08995 1.15972 4.0092
v -0.09097 1.15902 4.00783
v -0.08975 1.15798 4.00988
v -0.09074 1.15728 4.00865
v -0.08955 1.15623 4.01057
v -0.09054 1.15553 4.00934
v -0.08936 1.15466 4.01139
v -0.09038 1.15396 4.01016
v -0.08919 1.15309 4.01234
v -0.09018 1.15222 4.01111
v -0.08899 1.15152 4.0133
v -0.08998 1.15065 4.01221
v -0.08883 1.14995 4.01439
v -0.08982 1.14908 4.0133
v -0.08866 1.14838 4.01549
v -0.08965 1.14751 4.01439
v -0.0885 1.14681 4.01672
v -0.08949 1.14594 4.01562
v -0.08834 1.14542 4.01795
v -0.08932 1.14437 4.01699
v -0.08804 1.14245 4.02082
v -0.08899 1.14141 4.01986
v -0.08774 1.13966 4.02383
v -0.0887 1.13862 4.02301
v -0.08748 1.13705 4.02725
v -0.08843 1.13583 4.02642
v -0.08722 1.13443 4.0308
v -0.08817 1.13321 4.03012
v -0.08698 1.13199 4.03463
v -0.08794 1.13077 4.03394
v -0.08679 1.12972 4.03873
v -0.08771 1.1285 4.03818
v -0.08656 1.12745 4.0431
v -0.08751 1.12623 4.04242
v -0.08639 1.12536 4.04762
v -0.08731 1.12397 4.04707
v -0.08619 1.12344 4.05226
v -0.08715 1.12205 4.05185
v -0.0859 1.11978 4.06238
v -0.08685 1.11838 4.06197
v -0.08567 1.11647 4.07304
v -0.08659 1.11507 4.07263
v -0.08547 1.11385 4.08425
v -0.08639 1.11245 4.08398
v -0.08531 1.11158 4.09588
v -0.08626 1.11019 4.09574
v -0.08521 1.10984 4.10804
v -0.08613 1.10827 4.10777
v -0.08514 1.10844 4.12035
v -0.08606 1.10705 4.12021
v -0.08514 1.10757 4.13279
v -0.08606 1.10618 4.13279
v -0.08514 1.10722 4.14537
v -0.08606 1.10583 4.14537
v -0.08517 1.1074 4.15794
v -0.0861 1.10583 4.15794
v -0.08524 1.10792 4.17038
v -0.08616 1.10652 4.17052
v -0.08531 1.10897 4.18269
v -0.08626 1.10757 4.18283
v -0.0854 1.11054 4.19458
v -0.08636 1.10897 4.19472
v -0.08554 1.11245 4.20607
v -0.08646 1.11106 4.20634
v -0.08567 1.1149 4.21714
v -0.08659 1.1135 4.21755
v -0.0858 1.11786 4.22767
v -0.08672 1.11647 4.22808
v -0.08593 1.12118 4.23737
v -0.08685 1.11978 4.23792
v -0.086 1.12309 4.24202
v -0.08692 1.1217 4.24257
v -0.08606 1.12501 4.2464
v -0.08698 1.12362 4.24694
v -0.08613 1.12711 4.2505
v -0.08705 1.12588 4.25118
v -0.08619 1.12937 4.25446
v -0.08712 1.12798 4.25515
v -0.08626 1.13164 4.25815
v -0.08718 1.13042 4.25898
v -0.08629 1.13408 4.26157
v -0.08725 1.13286 4.26239
v -0.08636 1.13652 4.26472
v -0.08728 1.13548 4.26567
v -0.08639 1.13914 4.26759
v -0.08735 1.13809 4.26855
v -0.08643 1.14053 4.26896
v -0.08738 1.13949 4.26991
v -0.08646 1.14193 4.27019
v -0.08738 1.14088 4.27128
v -0.08646 1.14332 4.27142
v -0.08741 1.14245 4.27251
v -0.08649 1.14472 4.27251
v -0.08745 1.14385 4.2736
v -0.08652 1.14629 4.27347
v -0.08745 1.14542 4.2747
v -0.08652 1.14769 4.27442
v -0.08748 1.14699 4.27565
v -0.08656 1.14925 4.27538
v -0.08748 1.14856 4.27661
v -0.08656 1.15065 4.27606
v -0.08751 1.15013 4.27743
v -0.08656 1.15222 4.27688
v -0.08751 1.1517 4.27812
v -0.08659 1.15379 4.27743
v -0.08754 1.15344 4.2788
v -0.08659 1.15553 4.27798
v -0.08754 1.15501 4.27935
v -0.08659 1.1571 4.27853
v -0.08754 1.15675 4.27989
v -0.08662 1.15885 4.2788
v -0.08754 1.1585 4.2803
v -0.08662 1.16042 4.27921
v -0.08754 1.16024 4.28058
v -0.08662 1.16216 4.27935
v -0.08758 1.16199 4.28085
v -0.08662 1.16391 4.27948
v -0.08758 1.16391 4.28099
v -0.08662 1.46057 4.27948
v -0.08758 1.46057 4.28099
v -0.14699 1.34442 4.00715
v -0.1486 1.34372 4.00715
v -0.1106 1.25582 4.00715
v -0.11221 1.25529 4.00715
v -0.10319 1.23419 4.00715
v -0.10487 1.23367 4.00715
v -0.097 1.21239 4.00715
v -0.09868 1.21204 4.00715
v -0.09443 1.20158 4.00715
v -0.09614 1.20105 4.00715
v -0.09225 1.19059 4.00715
v -0.09397 1.19024 4.00715
v -0.09051 1.1796 4.00715
v -0.09225 1.17943 4.00715
v -0.08926 1.16861 4.00715
v -0.091 1.16844 4.00715
v -0.08906 1.16687 4.00728
v -0.09077 1.1667 4.00728
v -0.08883 1.16513 4.00769
v -0.09054 1.16495 4.00769
v -0.08863 1.16338 4.0081
v -0.09034 1.16321 4.0081
v -0.0884 1.16164 4.00865
v -0.09015 1.16146 4.00865
v -0.0882 1.15989 4.0092
v -0.08995 1.15972 4.0092
v -0.08801 1.15815 4.00988
v -0.08975 1.15798 4.00988
v -0.08784 1.15658 4.01057
v -0.08955 1.15623 4.01057
v -0.08764 1.15484 4.01139
v -0.08936 1.15466 4.01139
v -0.08745 1.15327 4.01234
v -0.08919 1.15309 4.01234
v -0.08728 1.1517 4.0133
v -0.08899 1.15152 4.0133
v -0.08712 1.15013 4.01439
v -0.08883 1.14995 4.01439
v -0.08695 1.14856 4.01549
v -0.08866 1.14838 4.01549
v -0.08679 1.14716 4.01672
v -0.0885 1.14681 4.01672
v -0.08662 1.14559 4.01795
v -0.08834 1.14542 4.01795
v -0.08633 1.14263 4.02082
v -0.08804 1.14245 4.02082
v -0.08603 1.14001 4.02383
v -0.08774 1.13966 4.02383
v -0.08577 1.13722 4.02725
v -0.08748 1.13705 4.02725
v -0.0855 1.13478 4.0308
v -0.08722 1.13443 4.0308
v -0.08527 1.13216 4.03476
v -0.08698 1.13199 4.03463
v -0.08504 1.1299 4.03873
v -0.08679 1.12972 4.03873
v -0.08484 1.12763 4.0431
v -0.08656 1.12745 4.0431
v -0.08465 1.12554 4.04762
v -0.08639 1.12536 4.04762
v -0.08448 1.12362 4.0524
v -0.08619 1.12344 4.05226
v -0.08419 1.11995 4.06238
v -0.0859 1.11978 4.06238
v -0.08392 1.11664 4.07304
v -0.08567 1.11647 4.07304
v -0.08372 1.11402 4.08425
v -0.08547 1.11385 4.08425
v -0.08359 1.11176 4.09588
v -0.08531 1.11158 4.09588
v -0.08349 1.11001 4.10804
v -0.08521 1.10984 4.10804
v -0.08343 1.10862 4.12035
v -0.08514 1.10844 4.12035
v -0.0834 1.10775 4.13279
v -0.08514 1.10757 4.13279
v -0.0834 1.1074 4.14537
v -0.08514 1.10722 4.14537
v -0.08343 1.10757 4.15794
v -0.08517 1.1074 4.15794
v -0.08349 1.10809 4.17038
v -0.08524 1.10792 4.17038
v -0.08359 1.10914 4.18269
v -0.08531 1.10897 4.18269
v -0.08369 1.11071 4.19458
v -0.0854 1.11054 4.19458
v -0.08382 1.11263 4.20607
v -0.08554 1.11245 4.20607
v -0.08392 1.11507 4.21714
v -0.08567 1.1149 4.21714
v -0.08405 1.11804 4.22753
v -0.0858 1.11786 4.22767
v -0.08419 1.12135 4.23737
v -0.08593 1.12118 4.23737
v -0.08425 1.12327 4.24189
v -0.086 1.12309 4.24202
v -0.08432 1.12519 4.24626
v -0.08606 1.12501 4.2464
v -0.08438 1.12728 4.2505
v -0.08613 1.12711 4.2505
v -0.08445 1.12955 4.25433
v -0.08619 1.12937 4.25446
v -0.08452 1.13181 4.25802
v -0.08626 1.13164 4.25815
v -0.08458 1.13426 4.26144
v -0.08629 1.13408 4.26157
v -0.08461 1.1367 4.26458
v -0.08636 1.13652 4.26472
v -0.08468 1.13931 4.26745
v -0.08639 1.13914 4.26759
v -0.08471 1.14071 4.26882
v -0.08643 1.14053 4.26896
v -0.08471 1.1421 4.27005
v -0.08646 1.14193 4.27019
v -0.08475 1.1435 4.27128
v -0.08646 1.14332 4.27142
v -0.08478 1.14489 4.27237
v -0.08649 1.14472 4.27251
v -0.08478 1.14629 4.27333
v -0.08652 1.14629 4.27347
v -0.08481 1.14786 4.27429
v -0.08652 1.14769 4.27442
v -0.08481 1.14925 4.27524
v -0.08656 1.14925 4.27538
v -0.08484 1.15082 4.27593
v -0.08656 1.15065 4.27606
v -0.08484 1.15239 4.27675
v -0.08656 1.15222 4.27688
v -0.08484 1.15396 4.27729
v -0.08659 1.15379 4.27743
v -0.08488 1.15553 4.27784
v -0.08659 1.15553 4.27798
v -0.08488 1.1571 4.27839
v -0.08659 1.1571 4.27853
v -0.08488 1.15885 4.27866
v -0.08662 1.15885 4.2788
v -0.08488 1.16059 4.27894
v -0.08662 1.16042 4.27921
v -0.08488 1.16216 4.27921
v -0.08662 1.16216 4.27935
v -0.08488 1.16391 4.27935
v -0.08662 1.16391 4.27948
v -0.08488 1.46057 4.27935
v -0.08662 1.46057 4.27948
v -0.14596 1.34477 4.00578
v -0.14699 1.34442 4.00715
v -0.10958 1.25617 4.00578
v -0.1106 1.25582 4.00715
v -0.10217 1.23454 4.00578
v -0.10319 1.23419 4.00715
v -0.09594 1.21274 4.00578
v -0.097 1.21239 4.00715
v -0.09337 1.20175 4.00578
v -0.09443 1.20158 4.00715
v -0.0912 1.19076 4.00578
v -0.09225 1.19059 4.00715
v -0.08945 1.17978 4.00578
v -0.09051 1.1796 4.00715
v -0.08817 1.16879 4.00578
v -0.08926 1.16861 4.00715
v -0.08794 1.16687 4.00605
v -0.08906 1.16687 4.00728
v -0.08771 1.16495 4.00633
v -0.08883 1.16513 4.00769
v -0.08751 1.16321 4.00674
v -0.08863 1.16338 4.0081
v -0.08728 1.16129 4.00728
v -0.0884 1.16164 4.00865
v -0.08708 1.15954 4.00797
v -0.0882 1.15989 4.0092
v -0.08689 1.1578 4.00865
v -0.08801 1.15815 4.00988
v -0.08669 1.15606 4.00934
v -0.08784 1.15658 4.01057
v -0.08649 1.15431 4.01016
v -0.08764 1.15484 4.01139
v -0.08629 1.15274 4.01111
v -0.08745 1.15327 4.01234
v -0.08613 1.151 4.01221
v -0.08728 1.1517 4.0133
v -0.08593 1.14943 4.0133
v -0.08712 1.15013 4.01439
v -0.08577 1.14786 4.01439
v -0.08695 1.14856 4.01549
v -0.0856 1.14629 4.01576
v -0.08679 1.14716 4.01672
v -0.08544 1.14489 4.01699
v -0.08662 1.14559 4.01795
v -0.08514 1.14193 4.01986
v -0.08633 1.14263 4.02082
v -0.08484 1.13896 4.02301
v -0.08603 1.14001 4.02383
v -0.08455 1.13635 4.02642
v -0.08577 1.13722 4.02725
v -0.08432 1.13373 4.03012
v -0.0855 1.13478 4.0308
v -0.08405 1.13129 4.03394
v -0.08527 1.13216 4.03476
v -0.08386 1.12885 4.03818
v -0.08504 1.1299 4.03873
v -0.08363 1.12658 4.04256
v -0.08484 1.12763 4.0431
v -0.08343 1.12449 4.04707
v -0.08465 1.12554 4.04762
v -0.08326 1.1224 4.05185
v -0.08448 1.12362 4.0524
v -0.08297 1.11873 4.06197
v -0.08419 1.11995 4.06238
v -0.0827 1.11559 4.07263
v -0.08392 1.11664 4.07304
v -0.08251 1.1128 4.08398
v -0.08372 1.11402 4.08425
v -0.08237 1.11054 4.09574
v -0.08359 1.11176 4.09588
v -0.08228 1.10879 4.10777
v -0.08349 1.11001 4.10804
v -0.08221 1.1074 4.12021
v -0.08343 1.10862 4.12035
v -0.08218 1.10652 4.13279
v -0.0834 1.10775 4.13279
v -0.08218 1.10618 4.14537
v -0.0834 1.1074 4.14537
v -0.08221 1.10635 4.15794
v -0.08343 1.10757 4.15794
v -0.08228 1.10687 4.17052
v -0.08349 1.10809 4.17038
v -0.08237 1.10792 4.18283
v -0.08359 1.10914 4.18269
v -0.08247 1.10949 4.19472
v -0.08369 1.11071 4.19458
v -0.08261 1.11141 4.20634
v -0.08382 1.11263 4.20607
v -0.0827 1.11385 4.21741
v -0.08392 1.11507 4.21714
v -0.08284 1.11681 4.22794
v -0.08405 1.11804 4.22753
v -0.08297 1.12013 4.23778
v -0.08419 1.12135 4.23737
v -0.08307 1.12205 4.24243
v -0.08425 1.12327 4.24189
v -0.08313 1.12414 4.24681
v -0.08432 1.12519 4.24626
v -0.08316 1.12623 4.25105
v -0.08438 1.12728 4.2505
v -0.08323 1.12833 4.25501
v -0.08445 1.12955 4.25433
v -0.0833 1.13077 4.2587
v -0.08452 1.13181 4.25802
v -0.08336 1.13321 4.26226
v -0.08458 1.13426 4.26144
v -0.08343 1.13583 4.2654
v -0.08461 1.1367 4.26458
v -0.08346 1.13844 4.26841
v -0.08468 1.13931 4.26745
v -0.08349 1.13984 4.26978
v -0.08471 1.14071 4.26882
v -0.08353 1.14123 4.27101
v -0.08471 1.1421 4.27005
v -0.08353 1.14263 4.27224
v -0.08475 1.1435 4.27128
v -0.08356 1.1442 4.27333
v -0.08478 1.14489 4.27237
v -0.08356 1.14559 4.27442
v -0.08478 1.14629 4.27333
v -0.08359 1.14716 4.27538
v -0.08481 1.14786 4.27429
v -0.08359 1.14873 4.27634
v -0.08481 1.14925 4.27524
v -0.08363 1.1503 4.27716
v -0.08484 1.15082 4.27593
v -0.08363 1.15187 4.27784
v -0.08484 1.15239 4.27675
v -0.08366 1.15344 4.27853
v -0.08484 1.15396 4.27729
v -0.08366 1.15518 4.27907
v -0.08488 1.15553 4.27784
v -0.08366 1.15693 4.27948
v -0.08488 1.1571 4.27839
v -0.08366 1.1585 4.27989
v -0.08488 1.15885 4.27866
v -0.08369 1.16042 4.28017
v -0.08488 1.16059 4.27894
v -0.08369 1.16216 4.28044
v -0.08488 1.16216 4.27921
v -0.08369 1.16391 4.28058
v -0.08488 1.16391 4.27935
v -0.08369 1.46057 4.28058
v -0.08488 1.46057 4.27935
v -0.14633 1.34477 4.00414
v -0.14596 1.34477 4.00578
v -0.10994 1.25617 4.00414
v -0.10958 1.25617 4.00578
v -0.10253 1.23437 4.00414
v -0.10217 1.23454 4.00578
v -0.09634 1.21256 4.00414
v -0.09594 1.21274 4.00578
v -0.09377 1.20158 4.00414
v -0.09337 1.20175 4.00578
v -0.09156 1.19076 4.00414
v -0.0912 1.19076 4.00578
v -0.08985 1.1796 4.00414
v -0.08945 1.17978 4.00578
v -0.08853 1.16861 4.00414
v -0.08817 1.16879 4.00578
v -0.0883 1.16652 4.00428
v -0.08794 1.16687 4.00605
v -0.08807 1.1646 4.00469
v -0.08771 1.16495 4.00633
v -0.08784 1.16268 4.0051
v -0.08751 1.16321 4.00674
v -0.08761 1.16077 4.00564
v -0.08728 1.16129 4.00728
v -0.08741 1.15885 4.00633
v -0.08708 1.15954 4.00797
v -0.08718 1.1571 4.00701
v -0.08689 1.1578 4.00865
v -0.08698 1.15536 4.00783
v -0.08669 1.15606 4.00934
v -0.08679 1.15362 4.00879
v -0.08649 1.15431 4.01016
v -0.08659 1.15187 4.00975
v -0.08629 1.15274 4.01111
v -0.08639 1.15013 4.0107
v -0.08613 1.151 4.01221
v -0.08623 1.14838 4.01193
v -0.08593 1.14943 4.0133
v -0.08603 1.14681 4.01316
v -0.08577 1.14786 4.01439
v -0.08587 1.14524 4.01439
v -0.0856 1.14629 4.01576
v -0.0857 1.14367 4.01576
v -0.08544 1.14489 4.01699
v -0.08537 1.14053 4.01863
v -0.08514 1.14193 4.01986
v -0.08507 1.13774 4.02191
v -0.08484 1.13896 4.02301
v -0.08478 1.13495 4.02547
v -0.08455 1.13635 4.02642
v -0.08451 1.13234 4.02916
v -0.08432 1.13373 4.03012
v -0.08428 1.12972 4.03312
v -0.08405 1.13129 4.03394
v -0.08405 1.12728 4.03736
v -0.08386 1.12885 4.03818
v -0.08386 1.12501 4.04174
v -0.08363 1.12658 4.04256
v -0.08366 1.12292 4.04638
v -0.08343 1.12449 4.04707
v -0.08349 1.12083 4.05117
v -0.08326 1.1224 4.05185
v -0.08316 1.11716 4.06142
v -0.08297 1.11873 4.06197
v -0.08293 1.11385 4.07222
v -0.0827 1.11559 4.07263
v -0.0827 1.11106 4.08357
v -0.08251 1.1128 4.08398
v -0.08257 1.10879 4.09547
v -0.08237 1.11054 4.09574
v -0.08247 1.10705 4.10763
v -0.08228 1.10879 4.10777
v -0.08241 1.10565 4.12007
v -0.08221 1.1074 4.12021
v -0.08237 1.10478 4.13265
v -0.08218 1.10652 4.13279
v -0.08237 1.10443 4.14537
v -0.08218 1.10618 4.14537
v -0.08244 1.10461 4.15808
v -0.08221 1.10635 4.15794
v -0.08247 1.10513 4.17066
v -0.08228 1.10687 4.17052
v -0.08257 1.10618 4.18296
v -0.08237 1.10792 4.18283
v -0.08267 1.10775 4.19499
v -0.08247 1.10949 4.19472
v -0.0828 1.10966 4.20661
v -0.08261 1.11141 4.20634
v -0.08293 1.11228 4.21782
v -0.0827 1.11385 4.21741
v -0.08307 1.11525 4.22849
v -0.08284 1.11681 4.22794
v -0.0832 1.11856 4.23833
v -0.08297 1.12013 4.23778
v -0.08326 1.12048 4.24312
v -0.08307 1.12205 4.24243
v -0.08333 1.12257 4.24763
v -0.08313 1.12414 4.24681
v -0.0834 1.12466 4.25187
v -0.08316 1.12623 4.25105
v -0.08346 1.12693 4.25583
v -0.08323 1.12833 4.25501
v -0.08353 1.12937 4.25966
v -0.0833 1.13077 4.2587
v -0.08359 1.13181 4.26321
v -0.08336 1.13321 4.26226
v -0.08363 1.13443 4.26649
v -0.08343 1.13583 4.2654
v -0.08369 1.13722 4.2695
v -0.08346 1.13844 4.26841
v -0.08372 1.13862 4.27101
v -0.08349 1.13984 4.26978
v -0.08372 1.14001 4.27224
v -0.08353 1.14123 4.27101
v -0.08376 1.14158 4.2736
v -0.08353 1.14263 4.27224
v -0.08379 1.14315 4.2747
v -0.08356 1.1442 4.27333
v -0.08379 1.14472 4.27579
v -0.08356 1.14559 4.27442
v -0.08382 1.14629 4.27688
v -0.08359 1.14716 4.27538
v -0.08382 1.14786 4.27784
v -0.08359 1.14873 4.27634
v -0.08386 1.1496 4.27866
v -0.08363 1.1503 4.27716
v -0.08386 1.15117 4.27948
v -0.08363 1.15187 4.27784
v -0.08389 1.15292 4.28017
v -0.08366 1.15344 4.27853
v -0.08389 1.15466 4.28071
v -0.08366 1.15518 4.27907
v -0.08389 1.15641 4.28126
v -0.08366 1.15693 4.27948
v -0.08389 1.15832 4.28167
v -0.08366 1.1585 4.27989
v -0.08389 1.16007 4.28194
v -0.08369 1.16042 4.28017
v -0.08392 1.16199 4.28222
v -0.08369 1.16216 4.28044
v -0.08392 1.16391 4.28222
v -0.08369 1.16391 4.28058
v -0.08392 1.46057 4.28222
v -0.08369 1.46057 4.28058
v -0.14778 1.34407 4.00332
v -0.14633 1.34477 4.00414
v -0.11142 1.25564 4.00332
v -0.10994 1.25617 4.00414
v -0.10401 1.23384 4.00332
v -0.10253 1.23437 4.00414
v -0.09785 1.21222 4.00332
v -0.09634 1.21256 4.00414
v -0.09528 1.2014 4.00332
v -0.09377 1.20158 4.00414
v -0.09311 1.19042 4.00332
v -0.09156 1.19076 4.00414
v -0.0914 1.17943 4.00332
v -0.08985 1.1796 4.00414
v -0.09008 1.16827 4.00332
v -0.08853 1.16861 4.00414
v -0.08985 1.16617 4.00359
v -0.0883 1.16652 4.00428
v -0.08959 1.16425 4.004
v -0.08807 1.1646 4.00469
v -0.08936 1.16234 4.00441
v -0.08784 1.16268 4.0051
v -0.08913 1.16042 4.00496
v -0.08761 1.16077 4.00564
v -0.08893 1.1585 4.00564
v -0.08741 1.15885 4.00633
v -0.0887 1.15658 4.00633
v -0.08718 1.1571 4.00701
v -0.0885 1.15484 4.00715
v -0.08698 1.15536 4.00783
v -0.0883 1.15309 4.0081
v -0.08679 1.15362 4.00879
v -0.0881 1.15117 4.00906
v -0.08659 1.15187 4.00975
v -0.08791 1.1496 4.01016
v -0.08639 1.15013 4.0107
v -0.08771 1.14786 4.01125
v -0.08623 1.14838 4.01193
v -0.08754 1.14612 4.01248
v -0.08603 1.14681 4.01316
v -0.08735 1.14455 4.01385
v -0.08587 1.14524 4.01439
v -0.08718 1.14298 4.01521
v -0.0857 1.14367 4.01576
v -0.08685 1.13984 4.01822
v -0.08537 1.14053 4.01863
v -0.08656 1.13705 4.02137
v -0.08507 1.13774 4.02191
v -0.08626 1.13408 4.02492
v -0.08478 1.13495 4.02547
v -0.086 1.13147 4.02875
v -0.08451 1.13234 4.02916
v -0.08577 1.12885 4.03271
v -0.08428 1.12972 4.03312
v -0.08554 1.12641 4.03695
v -0.08405 1.12728 4.03736
v -0.08534 1.12414 4.04146
v -0.08386 1.12501 4.04174
v -0.08514 1.12205 4.04611
v -0.08366 1.12292 4.04638
v -0.08494 1.11995 4.0509
v -0.08349 1.12083 4.05117
v -0.08465 1.11629 4.06115
v -0.08316 1.11716 4.06142
v -0.08438 1.11298 4.07209
v -0.08293 1.11385 4.07222
v -0.08419 1.11019 4.08343
v -0.0827 1.11106 4.08357
v -0.08405 1.10792 4.09533
v -0.08257 1.10879 4.09547
v -0.08396 1.10618 4.1075
v -0.08247 1.10705 4.10763
v -0.08389 1.10478 4.11994
v -0.08241 1.10565 4.12007
v -0.08386 1.10391 4.13265
v -0.08237 1.10478 4.13265
v -0.08386 1.10356 4.14537
v -0.08237 1.10443 4.14537
v -0.08389 1.10373 4.15808
v -0.08244 1.10461 4.15808
v -0.08396 1.10426 4.17066
v -0.08247 1.10513 4.17066
v -0.08405 1.1053 4.1831
v -0.08257 1.10618 4.18296
v -0.08415 1.10687 4.19513
v -0.08267 1.10775 4.19499
v -0.08425 1.10879 4.20689
v -0.0828 1.10966 4.20661
v -0.08438 1.11123 4.2181
v -0.08293 1.11228 4.21782
v -0.08452 1.11437 4.22876
v -0.08307 1.11525 4.22849
v -0.08468 1.11769 4.23874
v -0.0832 1.11856 4.23833
v -0.08475 1.11961 4.24339
v -0.08326 1.12048 4.24312
v -0.08481 1.1217 4.2479
v -0.08333 1.12257 4.24763
v -0.08488 1.12379 4.25228
v -0.0834 1.12466 4.25187
v -0.08494 1.12606 4.25638
v -0.08346 1.12693 4.25583
v -0.08501 1.1285 4.26021
v -0.08353 1.12937 4.25966
v -0.08504 1.13112 4.26376
v -0.08359 1.13181 4.26321
v -0.08511 1.13373 4.26718
v -0.08363 1.13443 4.26649
v -0.08517 1.13652 4.27019
v -0.08369 1.13722 4.2695
v -0.08521 1.13792 4.27155
v -0.08372 1.13862 4.27101
v -0.08521 1.13949 4.27292
v -0.08372 1.14001 4.27224
v -0.08524 1.14106 4.27429
v -0.08376 1.14158 4.2736
v -0.08527 1.14263 4.27552
v -0.08379 1.14315 4.2747
v -0.08527 1.1442 4.27661
v -0.08379 1.14472 4.27579
v -0.08531 1.14577 4.27757
v -0.08382 1.14629 4.27688
v -0.08531 1.14751 4.27853
v -0.08382 1.14786 4.27784
v -0.08534 1.14908 4.27948
v -0.08386 1.1496 4.27866
v -0.08534 1.15082 4.2803
v -0.08386 1.15117 4.27948
v -0.08537 1.15257 4.28099
v -0.08389 1.15292 4.28017
v -0.08537 1.15431 4.28153
v -0.08389 1.15466 4.28071
v -0.08537 1.15623 4.28208
v -0.08389 1.15641 4.28126
v -0.08537 1.15815 4.28249
v -0.08389 1.15832 4.28167
v -0.0854 1.15989 4.28276
v -0.08389 1.16007 4.28194
v -0.0854 1.16181 4.28304
v -0.08392 1.16199 4.28222
v -0.0854 1.16391 4.28317
v -0.08392 1.16391 4.28222
v -0.0854 1.46057 4.28317
v -0.08392 1.46057 4.28222
v -0.14959 1.34337 4.00578
v -0.1486 1.34372 4.00715
v -0.14923 1.34355 4.00414
v -0.14699 1.34442 4.00715
v -0.14596 1.34477 4.00578
v -0.14633 1.34477 4.00414
v -0.14778 1.34407 4.00332
v -0.08702 1.46057 4.28263
v -0.08758 1.46057 4.28099
v -0.0854 1.46057 4.28317
v -0.08662 1.46057 4.27948
v -0.08369 1.46057 4.28058
v -0.08488 1.46057 4.27935
v -0.08392 1.46057 4.28222
vn -1 0 0
vn -1 0 0
vn -1 0 0
vn -1 0 0
vn 0.002 -1 0
vn 0.002 -1 0
vn 0.002 -1 0
vn 0.002 -1 0
vn -0.002 0 1
vn -0.002 0 1
vn -0.002 0 1
vn -0.002 0 1
vn -0.002 1 0
vn -0.002 1 0
vn -0.002 1 0
vn -0.002 1 0
vn 0.002 0 -1
vn 0.002 0 -1
vn 0.002 0 -1
vn 0.002 0 -1
vn -0.416 -0.173 -0.936
vn -0.416 -0.173 -0.936
vn -0.421 -0.161 -0.936
vn -0.421 -0.154 -0.938
vn -0.432 -0.139 -0.937
vn -0.432 -0.132 -0.938
vn -0.438 -0.113 -0.939
vn -0.438 -0.113 -0.939
vn -0.444 -0.094 -0.94
vn -0.444 -0.094 -0.94
vn -0.444 -0.079 -0.941
vn -0.444 -0.079 -0.941
vn -0.449 -0.064 -0.941
vn -0.449 -0.064 -0.941
vn -0.444 -0.109 -0.938
vn -0.444 -0.117 -0.937
vn -0.432 -0.198 -0.926
vn -0.432 -0.198 -0.926
vn -0.427 -0.239 -0.918
vn -0.427 -0.239 -0.918
vn -0.421 -0.286 -0.906
vn -0.421 -0.286 -0.906
vn -0.416 -0.325 -0.894
vn -0.416 -0.325 -0.894
vn -0.41 -0.371 -0.878
vn -0.41 -0.371 -0.878
vn -0.404 -0.409 -0.862
vn -0.404 -0.409 -0.862
vn -0.399 -0.449 -0.843
vn -0.399 -0.449 -0.843
vn -0.393 -0.485 -0.825
vn -0.393 -0.485 -0.825
vn -0.393 -0.518 -0.805
vn -0.387 -0.521 -0.804
vn -0.387 -0.552 -0.783
vn -0.387 -0.552 -0.783
vn -0.382 -0.586 -0.76
vn -0.382 -0.586 -0.76
vn -0.382 -0.609 -0.741
vn -0.382 -0.615 -0.736
vn -0.376 -0.641 -0.716
vn -0.376 -0.641 -0.716
vn -0.37 -0.671 -0.689
vn -0.37 -0.671 -0.689
vn -0.37 -0.708 -0.651
vn -0.37 -0.708 -0.651
vn -0.365 -0.75 -0.604
vn -0.365 -0.75 -0.604
vn -0.359 -0.785 -0.56
vn -0.359 -0.785 -0.56
vn -0.359 -0.81 -0.523
vn -0.359 -0.81 -0.523
vn -0.353 -0.836 -0.483
vn -0.353 -0.836 -0.483
vn -0.353 -0.854 -0.45
vn -0.353 -0.854 -0.45
vn -0.353 -0.871 -0.416
vn -0.353 -0.871 -0.416
vn -0.348 -0.889 -0.38
vn -0.348 -0.889 -0.38
vn -0.348 -0.903 -0.345
vn -0.348 -0.903 -0.345
vn -0.348 -0.92 -0.295
vn -0.348 -0.92 -0.295
vn -0.348 -0.935 -0.244
vn -0.348 -0.935 -0.244
vn -0.342 -0.946 -0.201
vn -0.342 -0.946 -0.201
vn -0.342 -0.955 -0.156
vn -0.342 -0.955 -0.156
vn -0.342 -0.96 -0.119
vn -0.342 -0.96 -0.119
vn -0.342 -0.964 -0.081
vn -0.342 -0.964 -0.081
vn -0.342 -0.967 -0.043
vn -0.342 -0.967 -0.043
vn -0.342 -0.967 -0.013
vn -0.342 -0.967 -0.013
vn -0.342 -0.967 0.025
vn -0.342 -0.967 0.025
vn -0.342 -0.966 0.062
vn -0.342 -0.966 0.062
vn -0.342 -0.962 0.1
vn -0.342 -0.962 0.1
vn -0.342 -0.958 0.137
vn -0.342 -0.958 0.137
vn -0.342 -0.95 0.182
vn -0.342 -0.95 0.182
vn -0.348 -0.938 0.233
vn -0.348 -0.938 0.233
vn -0.348 -0.924 0.284
vn -0.348 -0.924 0.284
vn -0.348 -0.907 0.334
vn -0.348 -0.907 0.334
vn -0.348 -0.89 0.376
vn -0.348 -0.89 0.376
vn -0.348 -0.875 0.411
vn -0.348 -0.875 0.411
vn -0.348 -0.855 0.451
vn -0.348 -0.855 0.451
vn -0.348 -0.832 0.491
vn -0.348 -0.832 0.491
vn -0.348 -0.809 0.529
vn -0.348 -0.809 0.529
vn -0.353 -0.774 0.577
vn -0.353 -0.774 0.577
vn -0.353 -0.736 0.624
vn -0.353 -0.736 0.624
vn -0.353 -0.696 0.669
vn -0.353 -0.696 0.669
vn -0.353 -0.669 0.696
vn -0.353 -0.669 0.696
vn -0.353 -0.641 0.721
vn -0.353 -0.641 0.721
vn -0.353 -0.607 0.751
vn -0.353 -0.607 0.751
vn -0.353 -0.577 0.774
vn -0.353 -0.577 0.774
vn -0.353 -0.54 0.8
vn -0.353 -0.54 0.8
vn -0.353 -0.509 0.82
vn -0.353 -0.509 0.82
vn -0.353 -0.47 0.843
vn -0.353 -0.47 0.843
vn -0.353 -0.423 0.868
vn -0.353 -0.423 0.868
vn -0.359 -0.382 0.885
vn -0.359 -0.382 0.885
vn -0.359 -0.333 0.905
vn -0.359 -0.333 0.905
vn -0.359 -0.29 0.92
vn -0.359 -0.29 0.92
vn -0.359 -0.239 0.934
vn -0.359 -0.239 0.934
vn -0.359 -0.187 0.946
vn -0.359 -0.187 0.946
vn -0.359 -0.143 0.953
vn -0.359 -0.143 0.953
vn -0.359 -0.09 0.96
vn -0.359 -0.09 0.96
vn -0.359 -0.03 0.964
vn -0.359 -0.03 0.964
vn -0.359 0 0.964
vn -0.359 0 0.964
vn -1.133 -0.467 -0.281
vn -1.133 -0.467 -0.281
vn -1.155 -0.435 -0.283
vn -1.159 -0.432 -0.281
vn -1.193 -0.372 -0.287
vn -1.193 -0.372 -0.287
vn -1.22 -0.32 -0.288
vn -1.223 -0.317 -0.286
vn -1.242 -0.267 -0.291
vn -1.242 -0.267 -0.291
vn -1.258 -0.226 -0.289
vn -1.258 -0.221 -0.293
vn -1.27 -0.172 -0.296
vn -1.27 -0.172 -0.296
vn -1.272 -0.169 -0.293
vn -1.272 -0.169 -0.293
vn -1.266 -0.201 -0.287
vn -1.266 -0.201 -0.287
vn -1.264 -0.211 -0.285
vn -1.264 -0.211 -0.285
vn -1.262 -0.223 -0.281
vn -1.26 -0.226 -0.284
vn -1.258 -0.238 -0.279
vn -1.258 -0.238 -0.279
vn -1.256 -0.247 -0.277
vn -1.256 -0.247 -0.277
vn -1.253 -0.256 -0.274
vn -1.253 -0.262 -0.269
vn -1.251 -0.273 -0.263
vn -1.251 -0.273 -0.263
vn -1.249 -0.281 -0.26
vn -1.249 -0.281 -0.26
vn -1.247 -0.29 -0.257
vn -1.247 -0.29 -0.257
vn -1.247 -0.3 -0.245
vn -1.247 -0.3 -0.245
vn -1.244 -0.31 -0.239
vn -1.244 -0.31 -0.239
vn -1.242 -0.318 -0.235
vn -1.242 -0.318 -0.235
vn -1.242 -0.322 -0.229
vn -1.242 -0.322 -0.229
vn -1.24 -0.334 -0.219
vn -1.24 -0.334 -0.219
vn -1.237 -0.347 -0.206
vn -1.237 -0.347 -0.206
vn -1.235 -0.358 -0.195
vn -1.235 -0.358 -0.195
vn -1.233 -0.368 -0.184
vn -1.233 -0.368 -0.184
vn -1.233 -0.375 -0.17
vn -1.233 -0.375 -0.17
vn -1.23 -0.382 -0.163
vn -1.23 -0.382 -0.163
vn -1.23 -0.388 -0.149
vn -1.23 -0.388 -0.149
vn -1.23 -0.393 -0.135
vn -1.23 -0.393 -0.135
vn -1.228 -0.399 -0.13
vn -1.228 -0.399 -0.13
vn -1.228 -0.403 -0.115
vn -1.228 -0.403 -0.115
vn -1.228 -0.407 -0.101
vn -1.228 -0.407 -0.101
vn -1.225 -0.414 -0.088
vn -1.225 -0.414 -0.088
vn -1.225 -0.417 -0.073
vn -1.225 -0.417 -0.073
vn -1.225 -0.419 -0.058
vn -1.225 -0.419 -0.058
vn -1.225 -0.421 -0.043
vn -1.225 -0.421 -0.043
vn -1.225 -0.422 -0.036
vn -1.225 -0.422 -0.036
vn -1.225 -0.423 -0.021
vn -1.225 -0.423 -0.021
vn -1.225 -0.423 -0.006
vn -1.225 -0.423 -0.006
vn -1.225 -0.423 0.009
vn -1.225 -0.423 0.009
vn -1.225 -0.423 0.017
vn -1.225 -0.423 0.017
vn -1.225 -0.422 0.032
vn -1.225 -0.422 0.032
vn -1.225 -0.42 0.054
vn -1.225 -0.42 0.054
vn -1.225 -0.417 0.069
vn -1.225 -0.417 0.069
vn -1.228 -0.41 0.086
vn -1.228 -0.41 0.086
vn -1.228 -0.405 0.108
vn -1.228 -0.405 0.108
vn -1.228 -0.399 0.13
vn -1.228 -0.399 0.13
vn -1.228 -0.391 0.151
vn -1.228 -0.391 0.151
vn -1.228 -0.385 0.165
vn -1.228 -0.385 0.165
vn -1.228 -0.379 0.178
vn -1.228 -0.379 0.178
vn -1.23 -0.364 0.2
vn -1.23 -0.364 0.2
vn -1.23 -0.356 0.213
vn -1.23 -0.356 0.213
vn -1.23 -0.34 0.238
vn -1.23 -0.34 0.238
vn -1.23 -0.327 0.256
vn -1.23 -0.327 0.256
vn -1.233 -0.307 0.274
vn -1.233 -0.307 0.274
vn -1.233 -0.291 0.29
vn -1.233 -0.291 0.29
vn -1.233 -0.281 0.301
vn -1.233 -0.281 0.301
vn -1.233 -0.269 0.311
vn -1.233 -0.269 0.311
vn -1.233 -0.258 0.32
vn -1.233 -0.258 0.32
vn -1.233 -0.24 0.334
vn -1.233 -0.24 0.334
vn -1.233 -0.221 0.347
vn -1.233 -0.221 0.347
vn -1.233 -0.208 0.355
vn -1.233 -0.208 0.355
vn -1.235 -0.188 0.361
vn -1.235 -0.188 0.361
vn -1.235 -0.168 0.371
vn -1.235 -0.168 0.371
vn -1.235 -0.147 0.38
vn -1.235 -0.147 0.38
vn -1.235 -0.126 0.387
vn -1.235 -0.126 0.387
vn -1.235 -0.104 0.394
vn -1.235 -0.104 0.394
vn -1.235 -0.082 0.399
vn -1.235 -0.082 0.399
vn -1.235 -0.06 0.403
vn -1.235 -0.06 0.403
vn -1.235 -0.038 0.406
vn -1.235 -0.038 0.406
vn -1.235 -0.015 0.407
vn -1.235 -0.015 0.407
vn -1.235 0 0.407
vn -1.235 0 0.407
vn -0.826 -0.343 0.713
vn -0.826 -0.343 0.713
vn -0.84 -0.315 0.717
vn -0.84 -0.315 0.717
vn -0.863 -0.266 0.722
vn -0.863 -0.273 0.72
vn -0.881 -0.23 0.723
vn -0.877 -0.23 0.726
vn -0.89 -0.194 0.727
vn -0.89 -0.194 0.727
vn -0.899 -0.157 0.73
vn -0.899 -0.165 0.728
vn -0.908 -0.12 0.731
vn -0.908 -0.128 0.73
vn -0.921 -0.06 0.73
vn -0.921 -0.06 0.73
vn -0.93 0 0.726
vn -0.93 0 0.726
vn -0.934 0.038 0.722
vn -0.934 0.038 0.722
vn -0.942 0.075 0.713
vn -0.942 0.075 0.713
vn -0.947 0.113 0.705
vn -0.947 0.105 0.706
vn -0.955 0.142 0.693
vn -0.951 0.142 0.697
vn -0.959 0.179 0.682
vn -0.959 0.179 0.682
vn -0.963 0.208 0.67
vn -0.963 0.208 0.67
vn -0.968 0.244 0.655
vn -0.968 0.237 0.657
vn -0.972 0.271 0.64
vn -0.972 0.271 0.64
vn -0.976 0.299 0.624
vn -0.976 0.299 0.624
vn -0.98 0.326 0.607
vn -0.98 0.326 0.607
vn -0.984 0.352 0.589
vn -0.984 0.352 0.589
vn -0.988 0.371 0.573
vn -0.988 0.371 0.573
vn -0.992 0.402 0.548
vn -0.992 0.396 0.552
vn -1 0.431 0.517
vn -1 0.431 0.517
vn -1.004 0.464 0.483
vn -1.004 0.464 0.483
vn -1.008 0.495 0.447
vn -1.008 0.495 0.447
vn -1.012 0.519 0.414
vn -1.012 0.519 0.414
vn -1.012 0.541 0.383
vn -1.012 0.541 0.383
vn -1.016 0.557 0.354
vn -1.016 0.557 0.354
vn -1.02 0.572 0.323
vn -1.02 0.572 0.323
vn -1.02 0.583 0.303
vn -1.02 0.583 0.303
vn -1.02 0.599 0.269
vn -1.02 0.599 0.269
vn -1.023 0.612 0.23
vn -1.023 0.612 0.23
vn -1.023 0.626 0.188
vn -1.023 0.626 0.188
vn -1.023 0.636 0.151
vn -1.023 0.636 0.151
vn -1.027 0.64 0.116
vn -1.027 0.64 0.116
vn -1.027 0.644 0.086
vn -1.027 0.644 0.086
vn -1.027 0.648 0.056
vn -1.027 0.648 0.056
vn -1.027 0.649 0.034
vn -1.027 0.649 0.034
vn -1.027 0.65 0.004
vn -1.027 0.65 0.004
vn -1.027 0.65 -0.019
vn -1.027 0.65 -0.019
vn -1.027 0.648 -0.049
vn -1.027 0.648 -0.049
vn -1.027 0.645 -0.079
vn -1.027 0.645 -0.079
vn -1.027 0.641 -0.109
vn -1.027 0.641 -0.109
vn -1.023 0.638 -0.14
vn -1.023 0.638 -0.14
vn -1.023 0.631 -0.169
vn -1.023 0.631 -0.169
vn -1.023 0.62 -0.206
vn -1.023 0.62 -0.206
vn -1.023 0.607 -0.241
vn -1.023 0.607 -0.241
vn -1.023 0.596 -0.269
vn -1.023 0.596 -0.269
vn -1.023 0.583 -0.296
vn -1.023 0.583 -0.296
vn -1.02 0.574 -0.32
vn -1.02 0.574 -0.32
vn -1.02 0.558 -0.346
vn -1.02 0.558 -0.346
vn -1.02 0.538 -0.377
vn -1.02 0.538 -0.377
vn -1.02 0.515 -0.407
vn -1.02 0.515 -0.407
vn -1.02 0.491 -0.436
vn -1.02 0.491 -0.436
vn -1.02 0.465 -0.464
vn -1.02 0.465 -0.464
vn -1.016 0.446 -0.486
vn -1.016 0.446 -0.486
vn -1.016 0.424 -0.506
vn -1.016 0.424 -0.506
vn -1.016 0.406 -0.52
vn -1.016 0.406 -0.52
vn -1.016 0.382 -0.538
vn -1.016 0.382 -0.538
vn -1.016 0.363 -0.551
vn -1.016 0.363 -0.551
vn -1.016 0.338 -0.567
vn -1.016 0.338 -0.567
vn -1.016 0.311 -0.582
vn -1.016 0.311 -0.582
vn -1.016 0.284 -0.596
vn -1.016 0.284 -0.596
vn -1.016 0.25 -0.611
vn -1.016 0.25 -0.611
vn -1.016 0.222 -0.622
vn -1.016 0.222 -0.622
vn -1.012 0.19 -0.636
vn -1.012 0.19 -0.636
vn -1.012 0.16 -0.644
vn -1.012 0.16 -0.644
vn -1.012 0.124 -0.652
vn -1.012 0.124 -0.652
vn -1.012 0.094 -0.657
vn -1.012 0.094 -0.657
vn -1.012 0.056 -0.661
vn -1.012 0.056 -0.661
vn -1.012 0.019 -0.663
vn -1.012 0.019 -0.663
vn -1.012 0.004 -0.663
vn -1.012 0.004 -0.663
vn 0.003 0 1
vn 0.003 0 1
vn 0.003 0 1
vn 0.003 0 1
vn -0.003 0 1
vn -0.003 0 1
vn -0.003 0 1
vn -0.003 0 1
vn -0.003 0 1
vn -0.003 0 1
vn -0.003 0 1
vn -0.003 0 1
vn -0.003 0 1
vn -0.003 0 1
vn -0.009 0.068 0.998
vn -0.009 0.06 0.998
vn -0.021 0.15 0.988
vn -0.021 0.15 0.988
vn -0.027 0.202 0.979
vn -0.027 0.202 0.979
vn -0.032 0.247 0.969
vn -0.032 0.247 0.969
vn -0.038 0.297 0.954
vn -0.038 0.29 0.957
vn -0.038 0.34 0.94
vn -0.038 0.34 0.94
vn -0.044 0.382 0.923
vn -0.044 0.382 0.923
vn -0.05 0.424 0.905
vn -0.05 0.424 0.905
vn -0.056 0.464 0.885
vn -0.056 0.464 0.885
vn -0.062 0.504 0.862
vn -0.062 0.504 0.862
vn -0.062 0.543 0.839
vn -0.062 0.537 0.843
vn -0.068 0.574 0.817
vn -0.068 0.574 0.817
vn -0.074 0.604 0.795
vn -0.074 0.604 0.795
vn -0.074 0.634 0.771
vn -0.074 0.634 0.771
vn -0.08 0.674 0.737
vn -0.08 0.668 0.742
vn -0.08 0.717 0.694
vn -0.08 0.712 0.7
vn -0.086 0.758 0.65
vn -0.086 0.758 0.65
vn -0.092 0.796 0.602
vn -0.092 0.791 0.608
vn -0.092 0.827 0.559
vn -0.092 0.827 0.559
vn -0.097 0.851 0.52
vn -0.097 0.851 0.52
vn -0.097 0.874 0.481
vn -0.097 0.874 0.481
vn -0.097 0.895 0.441
vn -0.097 0.895 0.441
vn -0.103 0.91 0.407
vn -0.103 0.91 0.407
vn -0.103 0.928 0.365
vn -0.103 0.925 0.372
vn -0.103 0.946 0.315
vn -0.103 0.946 0.315
vn -0.103 0.961 0.265
vn -0.103 0.961 0.265
vn -0.109 0.974 0.213
vn -0.109 0.974 0.213
vn -0.109 0.982 0.169
vn -0.109 0.982 0.169
vn -0.109 0.989 0.124
vn -0.109 0.989 0.124
vn -0.109 0.993 0.087
vn -0.109 0.993 0.087
vn -0.109 0.996 0.049
vn -0.109 0.996 0.049
vn -0.109 0.997 0.011
vn -0.109 0.997 0.011
vn -0.109 0.996 -0.026
vn -0.109 0.996 -0.026
vn -0.109 0.995 -0.064
vn -0.109 0.995 -0.064
vn -0.109 0.991 -0.109
vn -0.109 0.991 -0.109
vn -0.109 0.986 -0.147
vn -0.109 0.986 -0.147
vn -0.109 0.978 -0.191
vn -0.109 0.978 -0.191
vn -0.103 0.967 -0.243
vn -0.103 0.967 -0.243
vn -0.103 0.951 -0.301
vn -0.103 0.951 -0.301
vn -0.103 0.933 -0.351
vn -0.103 0.933 -0.351
vn -0.103 0.916 -0.393
vn -0.103 0.916 -0.393
vn -0.103 0.901 -0.427
vn -0.103 0.901 -0.427
vn -0.103 0.881 -0.468
vn -0.103 0.881 -0.468
vn -0.103 0.858 -0.507
vn -0.103 0.858 -0.507
vn -0.103 0.83 -0.552
vn -0.103 0.83 -0.552
vn -0.103 0.795 -0.601
vn -0.103 0.795 -0.601
vn -0.097 0.758 -0.648
vn -0.097 0.758 -0.648
vn -0.097 0.717 -0.693
vn -0.097 0.717 -0.693
vn -0.097 0.685 -0.725
vn -0.097 0.685 -0.725
vn -0.097 0.657 -0.75
vn -0.097 0.657 -0.75
vn -0.097 0.628 -0.775
vn -0.097 0.628 -0.775
vn -0.097 0.592 -0.802
vn -0.097 0.592 -0.802
vn -0.097 0.555 -0.829
vn -0.097 0.555 -0.829
vn -0.097 0.517 -0.853
vn -0.097 0.517 -0.853
vn -0.097 0.478 -0.875
vn -0.097 0.478 -0.875
vn -0.097 0.438 -0.896
vn -0.097 0.438 -0.896
vn -0.097 0.39 -0.918
vn -0.097 0.39 -0.918
vn -0.097 0.347 -0.935
vn -0.097 0.347 -0.935
vn -0.097 0.297 -0.952
vn -0.097 0.297 -0.952
vn -0.092 0.247 -0.967
vn -0.092 0.247 -0.967
vn -0.092 0.195 -0.978
vn -0.092 0.195 -0.978
vn -0.092 0.143 -0.987
vn -0.092 0.143 -0.987
vn -0.092 0.091 -0.994
vn -0.092 0.091 -0.994
vn -0.092 0.03 -0.997
vn -0.092 0.03 -0.997
vn -0.092 0 -0.998
vn -0.092 0 -0.998
vn 0.826 0.343 0.713
vn 0.826 0.343 0.713
vn 0.84 0.315 0.717
vn 0.84 0.315 0.717
vn 0.863 0.266 0.722
vn 0.863 0.273 0.719
vn 0.881 0.23 0.723
vn 0.877 0.231 0.725
vn 0.89 0.194 0.727
vn 0.89 0.194 0.727
vn 0.899 0.157 0.73
vn 0.899 0.165 0.728
vn 0.908 0.12 0.731
vn 0.908 0.128 0.73
vn 0.904 0.157 0.727
vn 0.904 0.15 0.729
vn 0.89 0.223 0.719
vn 0.89 0.223 0.719
vn 0.886 0.252 0.712
vn 0.886 0.252 0.712
vn 0.881 0.287 0.702
vn 0.881 0.287 0.702
vn 0.877 0.322 0.69
vn 0.877 0.315 0.693
vn 0.872 0.349 0.679
vn 0.872 0.349 0.679
vn 0.868 0.382 0.665
vn 0.868 0.382 0.665
vn 0.863 0.409 0.652
vn 0.863 0.409 0.652
vn 0.859 0.434 0.639
vn 0.859 0.434 0.639
vn 0.854 0.465 0.62
vn 0.854 0.465 0.62
vn 0.85 0.489 0.605
vn 0.85 0.489 0.605
vn 0.845 0.513 0.589
vn 0.845 0.513 0.589
vn 0.84 0.535 0.572
vn 0.84 0.535 0.572
vn 0.84 0.557 0.551
vn 0.84 0.551 0.557
vn 0.836 0.578 0.533
vn 0.836 0.578 0.533
vn 0.831 0.609 0.502
vn 0.831 0.609 0.502
vn 0.826 0.637 0.469
vn 0.826 0.637 0.469
vn 0.826 0.659 0.439
vn 0.826 0.659 0.439
vn 0.822 0.684 0.404
vn 0.822 0.684 0.404
vn 0.817 0.703 0.375
vn 0.817 0.703 0.375
vn 0.817 0.717 0.348
vn 0.817 0.717 0.348
vn 0.817 0.729 0.321
vn 0.817 0.729 0.321
vn 0.812 0.742 0.297
vn 0.812 0.742 0.297
vn 0.812 0.753 0.268
vn 0.812 0.753 0.268
vn 0.812 0.765 0.233
vn 0.812 0.765 0.233
vn 0.812 0.775 0.196
vn 0.812 0.775 0.196
vn 0.808 0.787 0.156
vn 0.808 0.787 0.156
vn 0.808 0.792 0.126
vn 0.808 0.792 0.126
vn 0.808 0.796 0.096
vn 0.808 0.796 0.096
vn 0.808 0.799 0.066
vn 0.808 0.799 0.066
vn 0.808 0.801 0.036
vn 0.808 0.801 0.036
vn 0.808 0.802 0.013
vn 0.808 0.802 0.013
vn 0.808 0.802 -0.017
vn 0.808 0.802 -0.017
vn 0.808 0.801 -0.047
vn 0.808 0.801 -0.047
vn 0.808 0.798 -0.077
vn 0.808 0.798 -0.077
vn 0.808 0.795 -0.107
vn 0.808 0.795 -0.107
vn 0.808 0.789 -0.145
vn 0.808 0.789 -0.145
vn 0.812 0.778 -0.185
vn 0.812 0.778 -0.185
vn 0.812 0.766 -0.229
vn 0.812 0.766 -0.229
vn 0.812 0.752 -0.272
vn 0.812 0.752 -0.272
vn 0.812 0.738 -0.307
vn 0.812 0.738 -0.307
vn 0.812 0.726 -0.335
vn 0.812 0.726 -0.335
vn 0.812 0.713 -0.362
vn 0.812 0.713 -0.362
vn 0.812 0.695 -0.395
vn 0.812 0.695 -0.395
vn 0.817 0.67 -0.431
vn 0.817 0.67 -0.431
vn 0.817 0.645 -0.468
vn 0.817 0.645 -0.468
vn 0.817 0.612 -0.51
vn 0.817 0.612 -0.51
vn 0.817 0.582 -0.544
vn 0.817 0.582 -0.544
vn 0.817 0.556 -0.571
vn 0.817 0.556 -0.571
vn 0.817 0.534 -0.591
vn 0.817 0.534 -0.591
vn 0.817 0.505 -0.616
vn 0.817 0.505 -0.616
vn 0.822 0.479 -0.633
vn 0.822 0.479 -0.633
vn 0.822 0.448 -0.656
vn 0.822 0.448 -0.656
vn 0.822 0.423 -0.672
vn 0.822 0.423 -0.672
vn 0.822 0.39 -0.691
vn 0.822 0.39 -0.691
vn 0.822 0.357 -0.709
vn 0.822 0.35 -0.713
vn 0.822 0.316 -0.729
vn 0.822 0.316 -0.729
vn 0.822 0.281 -0.743
vn 0.822 0.281 -0.743
vn 0.822 0.238 -0.758
vn 0.822 0.238 -0.758
vn 0.822 0.202 -0.768
vn 0.822 0.202 -0.768
vn 0.822 0.158 -0.778
vn 0.822 0.158 -0.778
vn 0.822 0.113 -0.786
vn 0.822 0.113 -0.786
vn 0.822 0.075 -0.791
vn 0.822 0.075 -0.791
vn 0.822 0.023 -0.794
vn 0.822 0.023 -0.794
vn 0.822 0 -0.794
vn 0.822 0 -0.794
vn 1.133 0.468 -0.279
vn 1.133 0.468 -0.279
vn 1.155 0.434 -0.285
vn 1.159 0.431 -0.284
vn 1.193 0.375 -0.283
vn 1.193 0.375 -0.283
vn 1.22 0.322 -0.287
vn 1.223 0.318 -0.285
vn 1.242 0.269 -0.29
vn 1.242 0.269 -0.29
vn 1.258 0.222 -0.292
vn 1.258 0.222 -0.292
vn 1.27 0.176 -0.294
vn 1.272 0.17 -0.293
vn 1.28 0.136 -0.292
vn 1.28 0.136 -0.292
vn 1.286 0.107 -0.29
vn 1.286 0.107 -0.29
vn 1.289 0.097 -0.285
vn 1.289 0.097 -0.285
vn 1.291 0.078 -0.286
vn 1.291 0.078 -0.286
vn 1.295 0.067 -0.281
vn 1.295 0.067 -0.281
vn 1.298 0.049 -0.276
vn 1.298 0.049 -0.276
vn 1.301 0.038 -0.269
vn 1.301 0.038 -0.269
vn 1.303 0.023 -0.267
vn 1.303 0.023 -0.267
vn 1.306 0.011 -0.259
vn 1.306 0.011 -0.259
vn 1.309 0 -0.251
vn 1.309 0 -0.251
vn 1.31 -0.011 -0.246
vn 1.31 -0.011 -0.246
vn 1.313 -0.023 -0.237
vn 1.313 -0.023 -0.237
vn 1.315 -0.038 -0.231
vn 1.315 -0.038 -0.231
vn 1.317 -0.041 -0.221
vn 1.317 -0.041 -0.221
vn 1.319 -0.056 -0.214
vn 1.319 -0.056 -0.214
vn 1.321 -0.067 -0.202
vn 1.321 -0.067 -0.202
vn 1.324 -0.085 -0.186
vn 1.324 -0.085 -0.186
vn 1.326 -0.094 -0.171
vn 1.326 -0.094 -0.171
vn 1.328 -0.104 -0.155
vn 1.328 -0.104 -0.155
vn 1.329 -0.11 -0.146
vn 1.329 -0.11 -0.146
vn 1.331 -0.118 -0.134
vn 1.331 -0.118 -0.134
vn 1.332 -0.123 -0.123
vn 1.332 -0.123 -0.123
vn 1.333 -0.13 -0.109
vn 1.333 -0.13 -0.109
vn 1.333 -0.139 -0.098
vn 1.333 -0.139 -0.098
vn 1.334 -0.142 -0.085
vn 1.334 -0.142 -0.085
vn 1.335 -0.147 -0.065
vn 1.335 -0.147 -0.065
vn 1.335 -0.149 -0.048
vn 1.335 -0.149 -0.048
vn 1.335 -0.151 -0.041
vn 1.335 -0.151 -0.041
vn 1.335 -0.154 -0.026
vn 1.335 -0.154 -0.026
vn 1.335 -0.156 -0.019
vn 1.335 -0.156 -0.019
vn 1.335 -0.156 -0.011
vn 1.335 -0.156 -0.011
vn 1.335 -0.157 0.004
vn 1.335 -0.157 0.004
vn 1.335 -0.156 0.011
vn 1.335 -0.156 0.011
vn 1.335 -0.156 0.019
vn 1.335 -0.156 0.019
vn 1.335 -0.154 0.026
vn 1.335 -0.154 0.026
vn 1.335 -0.153 0.034
vn 1.335 -0.153 0.034
vn 1.335 -0.151 0.041
vn 1.335 -0.151 0.041
vn 1.335 -0.152 0.054
vn 1.335 -0.152 0.054
vn 1.335 -0.149 0.061
vn 1.335 -0.149 0.061
vn 1.335 -0.142 0.075
vn 1.335 -0.142 0.075
vn 1.335 -0.139 0.082
vn 1.335 -0.139 0.082
vn 1.335 -0.135 0.088
vn 1.335 -0.135 0.088
vn 1.334 -0.136 0.094
vn 1.334 -0.136 0.094
vn 1.334 -0.131 0.1
vn 1.334 -0.131 0.1
vn 1.334 -0.126 0.106
vn 1.334 -0.126 0.106
vn 1.334 -0.121 0.112
vn 1.334 -0.121 0.112
vn 1.333 -0.117 0.123
vn 1.333 -0.117 0.123
vn 1.333 -0.111 0.128
vn 1.333 -0.111 0.128
vn 1.333 -0.105 0.133
vn 1.333 -0.105 0.133
vn 1.333 -0.099 0.138
vn 1.333 -0.099 0.138
vn 1.333 -0.093 0.142
vn 1.333 -0.093 0.142
vn 1.333 -0.086 0.146
vn 1.333 -0.086 0.146
vn 1.333 -0.086 0.146
vn 1.333 -0.086 0.146
vn 1.332 -0.08 0.154
vn 1.332 -0.08 0.154
vn 1.332 -0.073 0.158
vn 1.332 -0.073 0.158
vn 1.332 -0.067 0.161
vn 1.332 -0.067 0.161
vn 1.332 -0.059 0.163
vn 1.332 -0.059 0.163
vn 1.332 -0.052 0.166
vn 1.332 -0.052 0.166
vn 1.332 -0.045 0.168
vn 1.332 -0.045 0.168
vn 1.332 -0.038 0.17
vn 1.332 -0.038 0.17
vn 1.332 -0.03 0.171
vn 1.332 -0.03 0.171
vn 1.332 -0.023 0.172
vn 1.332 -0.023 0.172
vn 1.332 -0.015 0.173
vn 1.332 -0.015 0.173
vn 1.332 -0.008 0.174
vn 1.332 -0.008 0.174
vn 1.332 0 0.174
vn 1.332 0 0.174
vn 0.416 0.173 -0.936
vn 0.416 0.173 -0.936
vn 0.421 0.161 -0.936
vn 0.421 0.154 -0.938
vn 0.432 0.136 -0.938
vn 0.432 0.136 -0.938
vn 0.438 0.117 -0.939
vn 0.438 0.109 -0.94
vn 0.444 0.098 -0.94
vn 0.444 0.098 -0.94
vn 0.444 0.083 -0.941
vn 0.444 0.075 -0.942
vn 0.449 0.064 -0.941
vn 0.449 0.064 -0.941
vn 0.46 -0.008 -0.94
vn 0.46 -0.008 -0.94
vn 0.471 -0.09 -0.933
vn 0.471 -0.09 -0.933
vn 0.477 -0.136 -0.926
vn 0.477 -0.136 -0.926
vn 0.482 -0.176 -0.917
vn 0.482 -0.184 -0.916
vn 0.488 -0.224 -0.905
vn 0.488 -0.224 -0.905
vn 0.493 -0.272 -0.891
vn 0.493 -0.272 -0.891
vn 0.499 -0.308 -0.877
vn 0.499 -0.315 -0.875
vn 0.504 -0.353 -0.858
vn 0.504 -0.353 -0.858
vn 0.51 -0.391 -0.84
vn 0.51 -0.391 -0.84
vn 0.515 -0.425 -0.821
vn 0.515 -0.425 -0.821
vn 0.515 -0.465 -0.799
vn 0.515 -0.465 -0.799
vn 0.521 -0.494 -0.78
vn 0.521 -0.5 -0.776
vn 0.526 -0.525 -0.757
vn 0.526 -0.525 -0.757
vn 0.526 -0.556 -0.734
vn 0.526 -0.556 -0.734
vn 0.532 -0.588 -0.707
vn 0.532 -0.588 -0.707
vn 0.537 -0.633 -0.664
vn 0.537 -0.633 -0.664
vn 0.543 -0.673 -0.622
vn 0.543 -0.673 -0.622
vn 0.548 -0.709 -0.577
vn 0.548 -0.709 -0.577
vn 0.548 -0.741 -0.535
vn 0.548 -0.741 -0.535
vn 0.553 -0.767 -0.495
vn 0.553 -0.767 -0.495
vn 0.553 -0.79 -0.456
vn 0.553 -0.79 -0.456
vn 0.559 -0.806 -0.424
vn 0.559 -0.806 -0.424
vn 0.559 -0.823 -0.391
vn 0.559 -0.823 -0.391
vn 0.559 -0.841 -0.349
vn 0.559 -0.841 -0.349
vn 0.564 -0.859 -0.297
vn 0.564 -0.859 -0.297
vn 0.564 -0.875 -0.246
vn 0.564 -0.875 -0.246
vn 0.564 -0.886 -0.202
vn 0.564 -0.886 -0.202
vn 0.564 -0.895 -0.158
vn 0.564 -0.895 -0.158
vn 0.564 -0.901 -0.12
vn 0.564 -0.901 -0.12
vn 0.564 -0.905 -0.083
vn 0.564 -0.905 -0.083
vn 0.564 -0.908 -0.045
vn 0.564 -0.908 -0.045
vn 0.564 -0.909 -0.008
vn 0.564 -0.909 -0.008
vn 0.564 -0.908 0.03
vn 0.564 -0.908 0.03
vn 0.564 -0.907 0.06
vn 0.564 -0.907 0.06
vn 0.564 -0.904 0.098
vn 0.564 -0.904 0.098
vn 0.564 -0.899 0.135
vn 0.564 -0.899 0.135
vn 0.564 -0.891 0.18
vn 0.564 -0.891 0.18
vn 0.564 -0.881 0.224
vn 0.564 -0.881 0.224
vn 0.564 -0.866 0.275
vn 0.564 -0.866 0.275
vn 0.564 -0.849 0.325
vn 0.564 -0.849 0.325
vn 0.559 -0.835 0.363
vn 0.559 -0.835 0.363
vn 0.559 -0.819 0.398
vn 0.559 -0.819 0.398
vn 0.559 -0.802 0.431
vn 0.559 -0.802 0.431
vn 0.559 -0.78 0.47
vn 0.559 -0.78 0.47
vn 0.559 -0.755 0.509
vn 0.559 -0.755 0.509
vn 0.559 -0.725 0.552
vn 0.559 -0.725 0.552
vn 0.559 -0.686 0.598
vn 0.559 -0.686 0.598
vn 0.559 -0.651 0.637
vn 0.559 -0.651 0.637
vn 0.553 -0.624 0.666
vn 0.553 -0.624 0.666
vn 0.553 -0.596 0.691
vn 0.553 -0.596 0.691
vn 0.553 -0.567 0.715
vn 0.553 -0.567 0.715
vn 0.553 -0.537 0.738
vn 0.553 -0.537 0.738
vn 0.553 -0.506 0.759
vn 0.553 -0.506 0.759
vn 0.553 -0.474 0.78
vn 0.553 -0.474 0.78
vn 0.553 -0.435 0.802
vn 0.553 -0.435 0.802
vn 0.553 -0.394 0.823
vn 0.553 -0.394 0.823
vn 0.553 -0.353 0.841
vn 0.553 -0.353 0.841
vn 0.553 -0.311 0.858
vn 0.553 -0.311 0.858
vn 0.553 -0.268 0.872
vn 0.553 -0.268 0.872
vn 0.553 -0.224 0.884
vn 0.553 -0.224 0.884
vn 0.553 -0.18 0.894
vn 0.553 -0.18 0.894
vn 0.553 -0.128 0.903
vn 0.553 -0.128 0.903
vn 0.553 -0.083 0.909
vn 0.553 -0.083 0.909
vn 0.553 -0.03 0.912
vn 0.553 -0.03 0.912
vn 0.553 0 0.912
vn 0.553 0 0.912
vn -0.393 0.957 0.002
vn -0.393 0.957 0.002
vn -0.393 0.957 0.002
vn -0.393 0.957 0.002
vn -0.393 0.957 0.002
vn -0.393 0.957 0.002
vn -0.393 0.957 0.002
vn -0.003 1 0
vn -0.003 1 0
vn 0.003 1 0
vn -0.003 1 0
vn 0.003 1 0
vn -0.003 1 0
vn 0.003 1 0
f 1//1 2//2 3//3
f 2//2 4//4 3//3
f 5//5 6//6 7//7
f 6//6 8//8 7//7
f 9//9 10//10 11//11
f 10//10 12//12 11//11
f 13//13 14//14 15//15
f 14//14 16//16 15//15
f 17//17 18//18 19//19
f 18//18 20//20 19//19
f 21//21 22//22 23//23
f 22//22 24//24 23//23
f 23//23 24//24 25//25
f 24//24 26//26 25//25
f 25//25 26//26 27//27
f 26//26 28//28 27//27
f 27//27 28//28 29//29
f 28//28 30//30 29//29
f 29//29 30//30 31//31
f 30//30 32//32 31//31
f 31//31 32//32 33//33
f 32//32 34//34 33//33
f 33//33 34//34 35//35
f 34//34 36//36 35//35
f 35//35 36//36 37//37
f 36//36 38//38 37//37
f 37//37 38//38 39//39
f 38//38 40//40 39//39
f 39//39 40//40 41//41
f 40//40 42//42 41//41
f 41//41 42//42 43//43
f 42//42 44//44 43//43
f 43//43 44//44 45//45
f 44//44 46//46 45//45
f 45//45 46//46 47//47
f 46//46 48//48 47//47
f 47//47 48//48 49//49
f 48//48 50//50 49//49
f 49//49 50//50 51//51
f 50//50 52//52 51//51
f 51//51 52//52 53//53
f 52//52 54//54 53//53
f 53//53 54//54 55//55
f 54//54 56//56 55//55
f 55//55 56//56 57//57
f 56//56 58//58 57//57
f 57//57 58//58 59//59
f 58//58 60//60 59//59
f 59//59 60//60 61//61
f 60//60 62//62 61//61
f 61//61 62//62 63//63
f 62//62 64//64 63//63
f 63//63 64//64 65//65
f 64//64 66//66 65//65
f 65//65 66//66 67//67
f 66//66 68//68 67//67
f 67//67 68//68 69//69
f 68//68 70//70 69//69
f 69//69 70//70 71//71
f 70//70 72//72 71//71
f 71//71 72//72 73//73
f 72//72 74//74 73//73
f 73//73 74//74 75//75
f 74//74 76//76 75//75
f 75//75 76//76 77//77
f 76//76 78//78 77//77
f 77//77 78//78 79//79
f 78//78 80//80 79//79
f 79//79 80//80 81//81
f 80//80 82//82 81//81
f 81//81 82//82 83//83
f 82//82 84//84 83//83
f 83//83 84//84 85//85
f 84//84 86//86 85//85
f 85//85 86//86 87//87
f 86//86 88//88 87//87
f 87//87 88//88 89//89
f 88//88 90//90 89//89
f 89//89 90//90 91//91
f 90//90 92//92 91//91
f 91//91 92//92 93//93
f 92//92 94//94 93//93
f 93//93 94//94 95//95
f 94//94 96//96 95//95
f 95//95 96//96 97//97
f 96//96 98//98 97//97
f 97//97 98//98 99//99
f 98//98 100//100 99//99
f 99//99 100//100 101//101
f 100//100 102//102 101//101
f 101//101 102//102 103//103
f 102//102 104//104 103//103
f 103//103 104//104 105//105
f 104//104 106//106 105//105
f 105//105 106//106 107//107
f 106//106 108//108 107//107
f 107//107 108//108 109//109
f 108//108 110//110 109//109
f 109//109 110//110 111//111
f 110//110 112//112 111//111
f 111//111 112//112 113//113
f 112//112 114//114 113//113
f 113//113 114//114 115//115
f 114//114 116//116 115//115
f 115//115 116//116 117//117
f 116//116 118//118 117//117
f 117//117 118//118 119//119
f 118//118 120//120 119//119
f 119//119 120//120 121//121
f 120//120 122//122 121//121
f 121//121 122//122 123//123
f 122//122 124//124 123//123
f 123//123 124//124 125//125
f 124//124 126//126 125//125
f 125//125 126//126 127//127
f 126//126 128//128 127//127
f 127//127 128//128 129//129
f 128//128 130//130 129//129
f 129//129 130//130 131//131
f 130//130 132//132 131//131
f 131//131 132//132 133//133
f 132//132 134//134 133//133
f 133//133 134//134 135//135
f 134//134 136//136 135//135
f 135//135 136//136 137//137
f 136//136 138//138 137//137
f 137//137 138//138 139//139
f 138//138 140//140 139//139
f 139//139 140//140 141//141
f 140//140 142//142 141//141
f 141//141 142//142 143//143
f 142//142 144//144 143//143
f 143//143 144//144 145//145
f 144//144 146//146 145//145
f 145//145 146//146 147//147
f 146//146 148//148 147//147
f 147//147 148//148 149//149
f 148//148 150//150 149//149
f 149//149 150//150 151//151
f 150//150 152//152 151//151
f 151//151 152//152 153//153
f 152//152 154//154 153//153
f 153//153 154//154 155//155
f 154//154 156//156 155//155
f 155//155 156//156 157//157
f 156//156 158//158 157//157
f 157//157 158//158 159//159
f 158//158 160//160 159//159
f 159//159 160//160 161//161
f 160//160 162//162 161//161
f 161//161 162//162 163//163
f 162//162 164//164 163//163
f 165//165 166//166 167//167
f 166//166 168//168 167//167
f 167//167 168//168 169//169
f 168//168 170//170 169//169
f 169//169 170//170 171//171
f 170//170 172//172 171//171
f 171//171 172//172 173//173
f 172//172 174//174 173//173
f 173//173 174//174 175//175
f 174//174 176//176 175//175
f 175//175 176//176 177//177
f 176//176 178//178 177//177
f 177//177 178//178 179//179
f 178//178 180//180 179//179
f 179//179 180//180 181//181
f 180//180 182//182 181//181
f 181//181 182//182 183//183
f 182//182 184//184 183//183
f 183//183 184//184 185//185
f 184//184 186//186 185//185
f 185//185 186//186 187//187
f 186//186 188//188 187//187
f 187//187 188//188 189//189
f 188//188 190//190 189//189
f 189//189 190//190 191//191
f 190//190 192//192 191//191
f 191//191 192//192 193//193
f 192//192 194//194 193//193
f 193//193 194//194 195//195
f 194//194 196//196 195//195
f 195//195 196//196 197//197
f 196//196 198//198 197//197
f 197//197 198//198 199//199
f 198//198 200//200 199//199
f 199//199 200//200 201//201
f 200//200 202//202 201//201
f 201//201 202//202 203//203
f 202//202 204//204 203//203
f 203//203 204//204 205//205
f 204//204 206//206 205//205
f 205//205 206//206 207//207
f 206//206 208//208 207//207
f 207//207 208//208 209//209
f 208//208 210//210 209//209
f 209//209 210//210 211//211
f 210//210 212//212 211//211
f 211//211 212//212 213//213
f 212//212 214//214 213//213
f 213//213 214//214 215//215
f 214//214 216//216 215//215
f 215//215 216//216 217//217
f 216//216 218//218 217//217
f 217//217 218//218 219//219
f 218//218 220//220 219//219
f 219//219 220//220 221//221
f 220//220 222//222 221//221
f 221//221 222//222 223//223
f 222//222 224//224 223//223
f 223//223 224//224 225//225
f 224//224 226//226 225//225
f 225//225 226//226 227//227
f 226//226 228//228 227//227
f 227//227 228//228 229//229
f 228//228 230//230 229//229
f 229//229 230//230 231//231
f 230//230 232//232 231//231
f 231//231 232//232 233//233
f 232//232 234//234 233//233
f 233//233 234//234 235//235
f 234//234 236//236 235//235
f 235//235 236//236 237//237
f 236//236 238//238 237//237
f 237//237 238//238 239//239
f 238//238 240//240 239//239
f 239//239 240//240 241//241
f 240//240 242//242 241//241
f 241//241 242//242 243//243
f 242//242 244//244 243//243
f 243//243 244//244 245//245
f 244//244 246//246 245//245
f 245//245 246//246 247//247
f 246//246 248//248 247//247
f 247//247 248//248 249//249
f 248//248 250//250 249//249
f 249//249 250//250 251//251
f 250//250 252//252 251//251
f 251//251 252//252 253//253
f 252//252 254//254 253//253
f 253//253 254//254 255//255
f 254//254 256//256 255//255
f 255//255 256//256 257//257
f 256//256 258//258 257//257
f 257//257 258//258 259//259
f 258//258 260//260 259//259
f 259//259 260//260 261//261
f 260//260 262//262 261//261
f 261//261 262//262 263//263
f 262//262 264//264 263//263
f 263//263 264//264 265//265
f 264//264 266//266 265//265
f 265//265 266//266 267//267
f 266//266 268//268 267//267
f 267//267 268//268 269//269
f 268//268 270//270 269//269
f 269//269 270//270 271//271
f 270//270 272//272 271//271
f 271//271 272//272 273//273
f 272//272 274//274 273//273
f 273//273 274//274 275//275
f 274//274 276//276 275//275
f 275//275 276//276 277//277
f 276//276 278//278 277//277
f 277//277 278//278 279//279
f 278//278 280//280 279//279
f 279//279 280//280 281//281
f 280//280 282//282 281//281
f 281//281 282//282 283//283
f 282//282 284//284 283//283
f 283//283 284//284 285//285
f 284//284 286//286 285//285
f 285//285 286//286 287//287
f 286//286 288//288 287//287
f 287//287 288//288 289//289
f 288//288 290//290 289//289
f 289//289 290//290 291//291
f 290//290 292//292 291//291
f 291//291 292//292 293//293
f 292//292 294//294 293//293
f 293//293 294//294 295//295
f 294//294 296//296 295//295
f 295//295 296//296 297//297
f 296//296 298//298 297//297
f 297//297 298//298 299//299
f 298//298 300//300 299//299
f 299//299 300//300 301//301
f 300//300 302//302 301//301
f 301//301 302//302 303//303
f 302//302 304//304 303//303
f 303//303 304//304 305//305
f 304//304 306//306 305//305
f 305//305 306//306 307//307
f 306//306 308//308 307//307
f 309//309 310//310 311//311
f 310//310 312//312 311//311
f 311//311 312//312 313//313
f 312//312 314//314 313//313
f 313//313 314//314 315//315
f 314//314 316//316 315//315
f 315//315 316//316 317//317
f 316//316 318//318 317//317
f 317//317 318//318 319//319
f 318//318 320//320 319//319
f 319//319 320//320 321//321
f 320//320 322//322 321//321
f 321//321 322//322 323//323
f 322//322 324//324 323//323
f 323//323 324//324 325//325
f 324//324 326//326 325//325
f 325//325 326//326 327//327
f 326//326 328//328 327//327
f 327//327 328//328 329//329
f 328//328 330//330 329//329
f 329//329 330//330 331//331
f 330//330 332//332 331//331
f 331//331 332//332 333//333
f 332//332 334//334 333//333
f 333//333 334//334 335//335
f 334//334 336//336 335//335
f 335//335 336//336 337//337
f 336//336 338//338 337//337
f 337//337 338//338 339//339
f 338//338 340//340 339//339
f 339//339 340//340 341//341
f 340//340 342//342 341//341
f 341//341 342//342 343//343
f 342//342 344//344 343//343
f 343//343 344//344 345//345
f 344//344 346//346 345//345
f 345//345 346//346 347//347
f 346//346 348//348 347//347
f 347//347 348//348 349//349
f 348//348 350//350 349//349
f 349//349 350//350 351//351
f 350//350 352//352 351//351
f 351//351 352//352 353//353
f 352//352 354//354 353//353
f 353//353 354//354 355//355
f 354//354 356//356 355//355
f 355//355 356//356 357//357
f 356//356 358//358 357//357
f 357//357 358//358 359//359
f 358//358 360//360 359//359
f 359//359 360//360 361//361
f 360//360 362//362 361//361
f 361//361 362//362 363//363
f 362//362 364//364 363//363
f 363//363 364//364 365//365
f 364//364 366//366 365//365
f 365//365 366//366 367//367
f 366//366 368//368 367//367
f 367//367 368//368 369//369
f 368//368 370//370 369//369
f 369//369 370//370 371//371
f 370//370 372//372 371//371
f 371//371 372//372 373//373
f 372//372 374//374 373//373
f 373//373 374//374 375//375
f 374//374 376//376 375//375
f 375//375 376//376 377//377
f 376//376 378//378 377//377
f 377//377 378//378 379//379
f 378//378 380//380 379//379
f 379//379 380//380 381//381
f 380//380 382//382 381//381
f 381//381 382//382 383//383
f 382//382 384//384 383//383
f 383//383 384//384 385//385
f 384//384 386//386 385//385
f 385//385 386//386 387//387
f 386//386 388//388 387//387
f 387//387 388//388 389//389
f 388//388 390//390 389//389
f 389//389 390//390 391//391
f 390//390 392//392 391//391
f 391//391 392//392 393//393
f 392//392 394//394 393//393
f 393//393 394//394 395//395
f 394//394 396//396 395//395
f 395//395 396//396 397//397
f 396//396 398//398 397//397
f 397//397 398//398 399//399
f 398//398 400//400 399//399
f 399//399 400//400 401//401
f 400//400 402//402 401//401
f 401//401 402//402 403//403
f 402//402 404//404 403//403
f 403//403 404//404 405//405
f 404//404 406//406 405//405
f 405//405 406//406 407//407
f 406//406 408//408 407//407
f 407//407 408//408 409//409
f 408//408 410//410 409//409
f 409//409 410//410 411//411
f 410//410 412//412 411//411
f 411//411 412//412 413//413
f 412//412 414//414 413//413
f 413//413 414//414 415//415
f 414//414 416//416 415//415
f 415//415 416//416 417//417
f 416//416 418//418 417//417
f 417//417 418//418 419//419
f 418//418 420//420 419//419
f 419//419 420//420 421//421
f 420//420 422//422 421//421
f 421//421 422//422 423//423
f 422//422 424//424 423//423
f 423//423 424//424 425//425
f 424//424 426//426 425//425
f 425//425 426//426 427//427
f 426//426 428//428 427//427
f 427//427 428//428 429//429
f 428//428 430//430 429//429
f 429//429 430//430 431//431
f 430//430 432//432 431//431
f 431//431 432//432 433//433
f 432//432 434//434 433//433
f 433//433 434//434 435//435
f 434//434 436//436 435//435
f 435//435 436//436 437//437
f 436//436 438//438 437//437
f 437//437 438//438 439//439
f 438//438 440//440 439//439
f 439//439 440//440 441//441
f 440//440 442//442 441//441
f 441//441 442//442 443//443
f 442//442 444//444 443//443
f 443//443 444//444 445//445
f 444//444 446//446 445//445
f 445//445 446//446 447//447
f 446//446 448//448 447//447
f 447//447 448//448 449//449
f 448//448 450//450 449//449
f 449//449 450//450 451//451
f 450//450 452//452 451//451
f 453//453 454//454 455//455
f 454//454 456//456 455//455
f 455//455 456//456 457//457
f 456//456 458//458 457//457
f 457//457 458//458 459//459
f 458//458 460//460 459//459
f 459//459 460//460 461//461
f 460//460 462//462 461//461
f 461//461 462//462 463//463
f 462//462 464//464 463//463
f 463//463 464//464 465//465
f 464//464 466//466 465//465
f 465//465 466//466 467//467
f 466//466 468//468 467//467
f 467//467 468//468 469//469
f 468//468 470//470 469//469
f 469//469 470//470 471//471
f 470//470 472//472 471//471
f 471//471 472//472 473//473
f 472//472 474//474 473//473
f 473//473 474//474 475//475
f 474//474 476//476 475//475
f 475//475 476//476 477//477
f 476//476 478//478 477//477
f 477//477 478//478 479//479
f 478//478 480//480 479//479
f 479//479 480//480 481//481
f 480//480 482//482 481//481
f 481//481 482//482 483//483
f 482//482 484//484 483//483
f 483//483 484//484 485//485
f 484//484 486//486 485//485
f 485//485 486//486 487//487
f 486//486 488//488 487//487
f 487//487 488//488 489//489
f 488//488 490//490 489//489
f 489//489 490//490 491//491
f 490//490 492//492 491//491
f 491//491 492//492 493//493
f 492//492 494//494 493//493
f 493//493 494//494 495//495
f 494//494 496//496 495//495
f 495//495 496//496 497//497
f 496//496 498//498 497//497
f 497//497 498//498 499//499
f 498//498 500//500 499//499
f 499//499 500//500 501//501
f 500//500 502//502 501//501
f 501//501 502//502 503//503
f 502//502 504//504 503//503
f 503//503 504//504 505//505
f 504//504 506//506 505//505
f 505//505 506//506 507//507
f 506//506 508//508 507//507
f 507//507 508//508 509//509
f 508//508 510//510 509//509
f 509//509 510//510 511//511
f 510//510 512//512 511//511
f 511//511 512//512 513//513
f 512//512 514//514 513//513
f 513//513 514//514 515//515
f 514//514 516//516 515//515
f 515//515 516//516 517//517
f 516//516 518//518 517//517
f 517//517 518//518 519//519
f 518//518 520//520 519//519
f 519//519 520//520 521//521
f 520//520 522//522 521//521
f 521//521 522//522 523//523
f 522//522 524//524 523//523
f 523//523 524//524 525//525
f 524//524 526//526 525//525
f 525//525 526//526 527//527
f 526//526 528//528 527//527
f 527//527 528//528 529//529
f 528//528 530//530 529//529
f 529//529 530//530 531//531
f 530//530 532//532 531//531
f 531//531 532//532 533//533
f 532//532 534//534 533//533
f 533//533 534//534 535//535
f 534//534 536//536 535//535
f 535//535 536//536 537//537
f 536//536 538//538 537//537
f 537//537 538//538 539//539
f 538//538 540//540 539//539
f 539//539 540//540 541//541
f 540//540 542//542 541//541
f 541//541 542//542 543//543
f 542//542 544//544 543//543
f 543//543 544//544 545//545
f 544//544 546//546 545//545
f 545//545 546//546 547//547
f 546//546 548//548 547//547
f 547//547 548//548 549//549
f 548//548 550//550 549//549
f 549//549 550//550 551//551
f 550//550 552//552 551//551
f 551//551 552//552 553//553
f 552//552 554//554 553//553
f 553//553 554//554 555//555
f 554//554 556//556 555//555
f 555//555 556//556 557//557
f 556//556 558//558 557//557
f 557//557 558//558 559//559
f 558//558 560//560 559//559
f 559//559 560//560 561//561
f 560//560 562//562 561//561
f 561//561 562//562 563//563
f 562//562 564//564 563//563
f 563//563 564//564 565//565
f 564//564 566//566 565//565
f 565//565 566//566 567//567
f 566//566 568//568 567//567
f 567//567 568//568 569//569
f 568//568 570//570 569//569
f 569//569 570//570 571//571
f 570//570 572//572 571//571
f 571//571 572//572 573//573
f 572//572 574//574 573//573
f 573//573 574//574 575//575
f 574//574 576//576 575//575
f 575//575 576//576 577//577
f 576//576 578//578 577//577
f 577//577 578//578 579//579
f 578//578 580//580 579//579
f 579//579 580//580 581//581
f 580//580 582//582 581//581
f 581//581 582//582 583//583
f 582//582 584//584 583//583
f 583//583 584//584 585//585
f 584//584 586//586 585//585
f 585//585 586//586 587//587
f 586//586 588//588 587//587
f 587//587 588//588 589//589
f 588//588 590//590 589//589
f 589//589 590//590 591//591
f 590//590 592//592 591//591
f 591//591 592//592 593//593
f 592//592 594//594 593//593
f 593//593 594//594 595//595
f 594//594 596//596 595//595
f 597//597 598//598 599//599
f 598//598 600//600 599//599
f 599//599 600//600 601//601
f 600//600 602//602 601//601
f 601//601 602//602 603//603
f 602//602 604//604 603//603
f 603//603 604//604 605//605
f 604//604 606//606 605//605
f 605//605 606//606 607//607
f 606//606 608//608 607//607
f 607//607 608//608 609//609
f 608//608 610//610 609//609
f 609//609 610//610 611//611
f 610//610 612//612 611//611
f 611//611 612//612 613//613
f 612//612 614//614 613//613
f 613//613 614//614 615//615
f 614//614 616//616 615//615
f 615//615 616//616 617//617
f 616//616 618//618 617//617
f 617//617 618//618 619//619
f 618//618 620//620 619//619
f 619//619 620//620 621//621
f 620//620 622//622 621//621
f 621//621 622//622 623//623
f 622//622 624//624 623//623
f 623//623 624//624 625//625
f 624//624 626//626 625//625
f 625//625 626//626 627//627
f 626//626 628//628 627//627
f 627//627 628//628 629//629
f 628//628 630//630 629//629
f 629//629 630//630 631//631
f 630//630 632//632 631//631
f 631//631 632//632 633//633
f 632//632 634//634 633//633
f 633//633 634//634 635//635
f 634//634 636//636 635//635
f 635//635 636//636 637//637
f 636//636 638//638 637//637
f 637//637 638//638 639//639
f 638//638 640//640 639//639
f 639//639 640//640 641//641
f 640//640 642//642 641//641
f 641//641 642//642 643//643
f 642//642 644//644 643//643
f 643//643 644//644 645//645
f 644//644 646//646 645//645
f 645//645 646//646 647//647
f 646//646 648//648 647//647
f 647//647 648//648 649//649
f 648//648 650//650 649//649
f 649//649 650//650 651//651
f 650//650 652//652 651//651
f 651//651 652//652 653//653
f 652//652 654//654 653//653
f 653//653 654//654 655//655
f 654//654 656//656 655//655
f 655//655 656//656 657//657
f 656//656 658//658 657//657
f 657//657 658//658 659//659
f 658//658 660//660 659//659
f 659//659 660//660 661//661
f 660//660 662//662 661//661
f 661//661 662//662 663//663
f 662//662 664//664 663//663
f 663//663 664//664 665//665
f 664//664 666//666 665//665
f 665//665 666//666 667//667
f 666//666 668//668 667//667
f 667//667 668//668 669//669
f 668//668 670//670 669//669
f 669//669 670//670 671//671
f 670//670 672//672 671//671
f 671//671 672//672 673//673
f 672//672 674//674 673//673
f 673//673 674//674 675//675
f 674//674 676//676 675//675
f 675//675 676//676 677//677
f 676//676 678//678 677//677
f 677//677 678//678 679//679
f 678//678 680//680 679//679
f 679//679 680//680 681//681
f 680//680 682//682 681//681
f 681//681 682//682 683//683
f 682//682 684//684 683//683
f 683//683 684//684 685//685
f 684//684 686//686 685//685
f 685//685 686//686 687//687
f 686//686 688//688 687//687
f 687//687 688//688 689//689
f 688//688 690//690 689//689
f 689//689 690//690 691//691
f 690//690 692//692 691//691
f 691//691 692//692 693//693
f 692//692 694//694 693//693
f 693//693 694//694 695//695
f 694//694 696//696 695//695
f 695//695 696//696 697//697
f 696//696 698//698 697//697
f 697//697 698//698 699//699
f 698//698 700//700 699//699
f 699//699 700//700 701//701
f 700//700 702//702 701//701
f 701//701 702//702 703//703
f 702//702 704//704 703//703
f 703//703 704//704 705//705
f 704//704 706//706 705//705
f 705//705 706//706 707//707
f 706//706 708//708 707//707
f 707//707 708//708 709//709
f 708//708 710//710 709//709
f 709//709 710//710 711//711
f 710//710 712//712 711//711
f 711//711 712//712 713//713
f 712//712 714//714 713//713
f 713//713 714//714 715//715
f 714//714 716//716 715//715
f 715//715 716//716 717//717
f 716//716 718//718 717//717
f 717//717 718//718 719//719
f 718//718 720//720 719//719
f 719//719 720//720 721//721
f 720//720 722//722 721//721
f 721//721 722//722 723//723
f 722//722 724//724 723//723
f 723//723 724//724 725//725
f 724//724 726//726 725//725
f 725//725 726//726 727//727
f 726//726 728//728 727//727
f 727//727 728//728 729//729
f 728//728 730//730 729//729
f 729//729 730//730 731//731
f 730//730 732//732 731//731
f 731//731 732//732 733//733
f 732//732 734//734 733//733
f 733//733 734//734 735//735
f 734//734 736//736 735//735
f 735//735 736//736 737//737
f 736//736 738//738 737//737
f 737//737 738//738 739//739
f 738//738 740//740 739//739
f 741//741 742//742 743//743
f 742//742 744//744 743//743
f 743//743 744//744 745//745
f 744//744 746//746 745//745
f 745//745 746//746 747//747
f 746//746 748//748 747//747
f 747//747 748//748 749//749
f 748//748 750//750 749//749
f 749//749 750//750 751//751
f 750//750 752//752 751//751
f 751//751 752//752 753//753
f 752//752 754//754 753//753
f 753//753 754//754 755//755
f 754//754 756//756 755//755
f 755//755 756//756 757//757
f 756//756 758//758 757//757
f 757//757 758//758 759//759
f 758//758 760//760 759//759
f 759//759 760//760 761//761
f 760//760 762//762 761//761
f 761//761 762//762 763//763
f 762//762 764//764 763//763
f 763//763 764//764 765//765
f 764//764 766//766 765//765
f 765//765 766//766 767//767
f 766//766 768//768 767//767
f 767//767 768//768 769//769
f 768//768 770//770 769//769
f 769//769 770//770 771//771
f 770//770 772//772 771//771
f 771//771 772//772 773//773
f 772//772 774//774 773//773
f 773//773 774//774 775//775
f 774//774 776//776 775//775
f 775//775 776//776 777//777
f 776//776 778//778 777//777
f 777//777 778//778 779//779
f 778//778 780//780 779//779
f 779//779 780//780 781//781
f 780//780 782//782 781//781
f 781//781 782//782 783//783
f 782//782 784//784 783//783
f 783//783 784//784 785//785
f 784//784 786//786 785//785
f 785//785 786//786 787//787
f 786//786 788//788 787//787
f 787//787 788//788 789//789
f 788//788 790//790 789//789
f 789//789 790//790 791//791
f 790//790 792//792 791//791
f 791//791 792//792 793//793
f 792//792 794//794 793//793
f 793//793 794//794 795//795
f 794//794 796//796 795//795
f 795//795 796//796 797//797
f 796//796 798//798 797//797
f 797//797 798//798 799//799
f 798//798 800//800 799//799
f 799//799 800//800 801//801
f 800//800 802//802 801//801
f 801//801 802//802 803//803
f 802//802 804//804 803//803
f 803//803 804//804 805//805
f 804//804 806//806 805//805
f 805//805 806//806 807//807
f 806//806 808//808 807//807
f 807//807 808//808 809//809
f 808//808 810//810 809//809
f 809//809 810//810 811//811
f 810//810 812//812 811//811
f 811//811 812//812 813//813
f 812//812 814//814 813//813
f 813//813 814//814 815//815
f 814//814 816//816 815//815
f 815//815 816//816 817//817
f 816//816 818//818 817//817
f 817//817 818//818 819//819
f 818//818 820//820 819//819
f 819//819 820//820 821//821
f 820//820 822//822 821//821
f 821//821 822//822 823//823
f 822//822 824//824 823//823
f 823//823 824//824 825//825
f 824//824 826//826 825//825
f 825//825 826//826 827//827
f 826//826 828//828 827//827
f 827//827 828//828 829//829
f 828//828 830//830 829//829
f 829//829 830//830 831//831
f 830//830 832//832 831//831
f 831//831 832//832 833//833
f 832//832 834//834 833//833
f 833//833 834//834 835//835
f 834//834 836//836 835//835
f 835//835 836//836 837//837
f 836//836 838//838 837//837
f 837//837 838//838 839//839
f 838//838 840//840 839//839
f 839//839 840//840 841//841
f 840//840 842//842 841//841
f 841//841 842//842 843//843
f 842//842 844//844 843//843
f 843//843 844//844 845//845
f 844//844 846//846 845//845
f 845//845 846//846 847//847
f 846//846 848//848 847//847
f 847//847 848//848 849//849
f 848//848 850//850 849//849
f 849//849 850//850 851//851
f 850//850 852//852 851//851
f 851//851 852//852 853//853
f 852//852 854//854 853//853
f 853//853 854//854 855//855
f 854//854 856//856 855//855
f 855//855 856//856 857//857
f 856//856 858//858 857//857
f 857//857 858//858 859//859
f 858//858 860//860 859//859
f 859//859 860//860 861//861
f 860//860 862//862 861//861
f 861//861 862//862 863//863
f 862//862 864//864 863//863
f 863//863 864//864 865//865
f 864//864 866//866 865//865
f 865//865 866//866 867//867
f 866//866 868//868 867//867
f 867//867 868//868 869//869
f 868//868 870//870 869//869
f 869//869 870//870 871//871
f 870//870 872//872 871//871
f 871//871 872//872 873//873
f 872//872 874//874 873//873
f 873//873 874//874 875//875
f 874//874 876//876 875//875
f 875//875 876//876 877//877
f 876//876 878//878 877//877
f 877//877 878//878 879//879
f 878//878 880//880 879//879
f 879//879 880//880 881//881
f 880//880 882//882 881//881
f 881//881 882//882 883//883
f 882//882 884//884 883//883
f 885//885 886//886 887//887
f 886//886 888//888 887//887
f 887//887 888//888 889//889
f 888//888 890//890 889//889
f 889//889 890//890 891//891
f 890//890 892//892 891//891
f 891//891 892//892 893//893
f 892//892 894//894 893//893
f 893//893 894//894 895//895
f 894//894 896//896 895//895
f 895//895 896//896 897//897
f 896//896 898//898 897//897
f 897//897 898//898 899//899
f 898//898 900//900 899//899
f 899//899 900//900 901//901
f 900//900 902//902 901//901
f 901//901 902//902 903//903
f 902//902 904//904 903//903
f 903//903 904//904 905//905
f 904//904 906//906 905//905
f 905//905 906//906 907//907
f 906//906 908//908 907//907
f 907//907 908//908 909//909
f 908//908 910//910 909//909
f 909//909 910//910 911//911
f 910//910 912//912 911//911
f 911//911 912//912 913//913
f 912//912 914//914 913//913
f 913//913 914//914 915//915
f 914//914 916//916 915//915
f 915//915 916//916 917//917
f 916//916 918//918 917//917
f 917//917 918//918 919//919
f 918//918 920//920 919//919
f 919//919 920//920 921//921
f 920//920 922//922 921//921
f 921//921 922//922 923//923
f 922//922 924//924 923//923
f 923//923 924//924 925//925
f 924//924 926//926 925//925
f 925//925 926//926 927//927
f 926//926 928//928 927//927
f 927//927 928//928 929//929
f 928//928 930//930 929//929
f 929//929 930//930 931//931
f 930//930 932//932 931//931
f 931//931 932//932 933//933
f 932//932 934//934 933//933
f 933//933 934//934 935//935
f 934//934 936//936 935//935
f 935//935 936//936 937//937
f 936//936 938//938 937//937
f 937//937 938//938 939//939
f 938//938 940//940 939//939
f 939//939 940//940 941//941
f 940//940 942//942 941//941
f 941//941 942//942 943//943
f 942//942 944//944 943//943
f 943//943 944//944 945//945
f 944//944 946//946 945//945
f 945//945 946//946 947//947
f 946//946 948//948 947//947
f 947//947 948//948 949//949
f 948//948 950//950 949//949
f 949//949 950//950 951//951
f 950//950 952//952 951//951
f 951//951 952//952 953//953
f 952//952 954//954 953//953
f 953//953 954//954 955//955
f 954//954 956//956 955//955
f 955//955 956//956 957//957
f 956//956 958//958 957//957
f 957//957 958//958 959//959
f 958//958 960//960 959//959
f 959//959 960//960 961//961
f 960//960 962//962 961//961
f 961//961 962//962 963//963
f 962//962 964//964 963//963
f 963//963 964//964 965//965
f 964//964 966//966 965//965
f 965//965 966//966 967//967
f 966//966 968//968 967//967
f 967//967 968//968 969//969
f 968//968 970//970 969//969
f 969//969 970//970 971//971
f 970//970 972//972 971//971
f 971//971 972//972 973//973
f 972//972 974//974 973//973
f 973//973 974//974 975//975
f 974//974 976//976 975//975
f 975//975 976//976 977//977
f 976//976 978//978 977//977
f 977//977 978//978 979//979
f 978//978 980//980 979//979
f 979//979 980//980 981//981
f 980//980 982//982 981//981
f 981//981 982//982 983//983
f 982//982 984//984 983//983
f 983//983 984//984 985//985
f 984//984 986//986 985//985
f 985//985 986//986 987//987
f 986//986 988//988 987//987
f 987//987 988//988 989//989
f 988//988 990//990 989//989
f 989//989 990//990 991//991
f 990//990 992//992 991//991
f 991//991 992//992 993//993
f 992//992 994//994 993//993
f 993//993 994//994 995//995
f 994//994 996//996 995//995
f 995//995 996//996 997//997
f 996//996 998//998 997//997
f 997//997 998//998 999//999
f 998//998 1000//1000 999//999
f 999//999 1000//1000 1001//1001
f 1000//1000 1002//1002 1001//1001
f 1001//1001 1002//1002 1003//1003
f 1002//1002 1004//1004 1003//1003
f 1003//1003 1004//1004 1005//1005
f 1004//1004 1006//1006 1005//1005
f 1005//1005 1006//1006 1007//1007
f 1006//1006 1008//1008 1007//1007
f 1007//1007 1008//1008 1009//1009
f 1008//1008 1010//1010 1009//1009
f 1009//1009 1010//1010 1011//1011
f 1010//1010 1012//1012 1011//1011
f 1011//1011 1012//1012 1013//1013
f 1012//1012 1014//1014 1013//1013
f 1013//1013 1014//1014 1015//1015
f 1014//1014 1016//1016 1015//1015
f 1015//1015 1016//1016 1017//1017
f 1016//1016 1018//1018 1017//1017
f 1017//1017 1018//1018 1019//1019
f 1018//1018 1020//1020 1019//1019
f 1019//1019 1020//1020 1021//1021
f 1020//1020 1022//1022 1021//1021
f 1021//1021 1022//1022 1023//1023
f 1022//1022 1024//1024 1023//1023
f 1023//1023 1024//1024 1025//1025
f 1024//1024 1026//1026 1025//1025
f 1025//1025 1026//1026 1027//1027
f 1026//1026 1028//1028 1027//1027
f 1029//1029 1030//1030 1031//1031
f 1030//1030 1032//1032 1031//1031
f 1032//1032 1033//1033 1031//1031
f 1033//1033 1034//1034 1031//1031
f 1031//1031 1034//1034 1035//1035
f 1036//1036 1038//1038 1037//1037
f 1037//1037 1038//1038 1039//1039
f 1038//1038 1040//1040 1039//1039
f 1039//1039 1040//1040 1041//1041
f 1042//1042 1040//1040 1038//1038
