o model_5
v -0.08671 1.43349 3.55102
v -0.08349 1.43349 3.55043
v -0.08349 1.45494 3.55043
v -0.08071 1.45494 3.5488
v -0.08685 1.45494 3.55102
v -0.09007 1.43349 3.55043
v -0.09007 1.45494 3.55043
v -0.09285 1.43349 3.5488
v -0.09285 1.45494 3.5488
v -0.0949 1.43349 3.54627
v -0.0949 1.45494 3.54627
v -0.09607 1.43349 3.5433
v -0.09607 1.45494 3.5433
v -0.09607 1.43349 3.53989
v -0.09607 1.45494 3.53989
v -0.0949 1.43349 3.53692
v -0.0949 1.45494 3.53692
v -0.09285 1.43349 3.53439
v -0.09285 1.45494 3.53439
v -0.09007 1.43349 3.53276
v -0.09007 1.45494 3.53276
v -0.08671 1.43349 3.53217
v -0.08671 1.45494 3.53217
v -0.08349 1.43349 3.53276
v -0.08349 1.45494 3.53276
v -0.08071 1.43349 3.53439
v -0.08071 1.45494 3.53439
v -0.07867 1.43349 3.53692
v -0.07867 1.45494 3.53692
v -0.0775 1.43349 3.53989
v -0.0775 1.45494 3.53989
v -0.0775 1.43349 3.5433
v -0.0775 1.45494 3.5433
v -0.07867 1.43349 3.54627
v -0.07867 1.45494 3.54627
v -0.08071 1.43349 3.5488
v -0.09007 1.43349 3.55043
v -0.08671 1.43349 3.55102
v -0.09285 1.43349 3.5488
v -0.0949 1.43349 3.54627
v -0.09607 1.43349 3.5433
v -0.09607 1.43349 3.53989
v -0.0949 1.43349 3.53692
v -0.09285 1.43349 3.53439
v -0.09007 1.43349 3.53276
v -0.08671 1.43349 3.53217
v -0.08349 1.43349 3.53276
v -0.08071 1.43349 3.53439
v -0.07867 1.43349 3.53692
v -0.0775 1.43349 3.53989
v -0.0775 1.43349 3.5433
v -0.07867 1.43349 3.54627
v -0.08071 1.43349 3.5488
v -0.08349 1.43349 3.55043
vn 0.002 0 0.732
vn 0.261 0 0.707
vn 0.261 0 0.707
vn 0.529 0 0.621
vn 0.002 0 0.732
vn -0.261 0 0.707
vn -0.261 0 0.707
vn -0.529 0 0.621
vn -0.529 0 0.621
vn -0.793 0 0.446
vn -0.793 0 0.446
vn -0.973 0 0.168
vn -0.973 0 0.168
vn -0.973 0 -0.168
vn -0.973 0 -0.168
vn -0.793 0 -0.446
vn -0.793 0 -0.446
vn -0.529 -0.004 -0.621
vn -0.529 -0.004 -0.621
vn -0.261 0 -0.707
vn -0.261 0 -0.707
vn 0.002 0 -0.732
vn 0.002 0 -0.732
vn 0.261 0.004 -0.707
vn 0.261 0.004 -0.707
vn 0.529 0 -0.621
vn 0.529 0 -0.621
vn 0.793 0.004 -0.446
vn 0.793 0.004 -0.446
vn 0.973 0.004 -0.168
vn 0.973 0.004 -0.168
vn 0.973 0 0.168
vn 0.973 0 0.168
vn 0.793 0 0.446
vn 0.793 0 0.446
vn 0.529 0 0.621
vn -0.002 -1 0
vn -0.002 -1 0
vn -0.002 -1 0
vn -0.002 -1 0
vn -0.002 -1 0
vn -0.002 -1 0
vn -0.002 -1 0
vn -0.002 -1 0
vn -0.002 -1 0
vn -0.002 -1 0
vn -0.002 -1 0
vn -0.002 -1 0
vn -0.002 -1 0
vn -0.002 -1 0
vn -0.002 -1 0
vn -0.002 -1 0
vn -0.002 -1 0
vn -0.002 -1 0
f 1//1 2//2 3//3
f 2//2 4//4 3//3
f 3//3 5//5 1//1
f 1//1 5//5 6//6
f 5//5 7//7 6//6
f 6//6 7//7 8//8
f 7//7 9//9 8//8
f 8//8 9//9 10//10
f 9//9 11//11 10//10
f 10//10 11//11 12//12
f 11//11 13//13 12//12
f 12//12 13//13 14//14
f 13//13 15//15 14//14
f 14//14 15//15 16//16
f 15//15 17//17 16//16
f 16//16 17//17 18//18
f 17//17 19//19 18//18
f 18//18 19//19 20//20
f 19//19 21//21 20//20
f 20//20 21//21 22//22
f 21//21 23//23 22//22
f 22//22 23//23 24//24
f 23//23 25//25 24//24
f 24//24 25//25 26//26
f 25//25 27//27 26//26
f 26//26 27//27 28//28
f 27//27 29//29 28//28
f 28//28 29//29 30//30
f 29//29 31//31 30//30
f 30//30 31//31 32//32
f 31//31 33//33 32//32
f 32//32 33//33 34//34
f 33//33 35//35 34//34
f 34//34 35//35 36//36
f 35//35 4//4 36//36
f 36//36 4//4 2//2
f 37//37 39//39 38//38
f 39//39 40//40 38//38
f 40//40 41//41 38//38
f 41//41 42//42 38//38
f 42//42 43//43 38//38
f 43//43 44//44 38//38
f 44//44 45//45 38//38
f 45//45 46//46 38//38
f 46//46 47//47 38//38
f 47//47 48//48 38//38
f 48//48 49//49 38//38
f 49//49 50//50 38//38
f 50//50 51//51 38//38
f 51//51 52//52 38//38
f 52//52 53//53 38//38
f 38//38 53//53 54//54
