o model_4
v -0.06601 1.58746 3.44905
v -0.06601 1.58746 3.56741
v -0.06601 1.45293 3.44905
v -0.06601 1.45293 3.56741
v -0.13041 1.46059 3.45385
v -0.13041 1.45696 3.45385
v -0.13041 1.46059 3.46894
v -0.13041 1.45696 3.46894
v -0.13041 1.46059 3.48045
v -0.13041 1.45696 3.48045
v -0.13041 1.46059 3.53601
v -0.13041 1.45696 3.53601
v -0.13041 1.46059 3.54879
v -0.13041 1.45696 3.54879
v -0.13041 1.46059 3.56261
v -0.13041 1.45696 3.56261
v -0.06601 1.45293 3.56741
v -0.10864 1.45293 3.56741
v -0.06601 1.45293 3.44905
v -0.10864 1.45293 3.44905
v -0.06601 1.58746 3.56741
v -0.10864 1.58746 3.56741
v -0.06601 1.45293 3.56741
v -0.10864 1.45293 3.56741
v -0.06601 1.58746 3.44905
v -0.10864 1.58746 3.44905
v -0.06601 1.58746 3.56741
v -0.10864 1.58746 3.56741
v -0.06601 1.45293 3.44905
v -0.10864 1.45293 3.44905
v -0.06601 1.58746 3.44905
v -0.10864 1.58746 3.44905
v -0.13041 1.55388 3.56261
v -0.13041 1.55388 3.55579
v -0.13041 1.54723 3.56261
v -0.13041 1.54723 3.55579
v -0.13041 1.49316 3.56261
v -0.13041 1.54723 3.53601
v -0.13041 1.55388 3.53601
v -0.13041 1.55388 3.48045
v -0.13041 1.54723 3.48045
v -0.13041 1.54723 3.4594
v -0.13041 1.49316 3.48045
v -0.13041 1.54723 3.45385
v -0.13041 1.49316 3.45385
v -0.13041 1.55388 3.4594
v -0.13041 1.55388 3.45385
v -0.13041 1.49316 3.46894
v -0.13041 1.48369 3.45385
v -0.13041 1.48369 3.46894
v -0.13041 1.48369 3.48045
v -0.13041 1.48369 3.53601
v -0.13041 1.49316 3.53601
v -0.13041 1.49316 3.54879
v -0.13041 1.48369 3.54879
v -0.13041 1.48369 3.56261
v -0.13041 1.58343 3.45385
v -0.13041 1.58028 3.45385
v -0.13041 1.58343 3.4594
v -0.13041 1.58028 3.4594
v -0.13041 1.58343 3.48045
v -0.13041 1.58028 3.48045
v -0.13041 1.58343 3.53601
v -0.13041 1.58028 3.53601
v -0.13041 1.58343 3.55579
v -0.13041 1.58028 3.55579
v -0.13041 1.58028 3.56261
v -0.13041 1.58343 3.56261
v -0.13041 1.54723 3.48045
v -0.13041 1.54723 3.53601
v -0.13705 1.54542 3.48293
v -0.13705 1.54542 3.53353
v -0.13041 1.49316 3.48045
v -0.13041 1.54723 3.48045
v -0.13705 1.49504 3.48293
v -0.13705 1.54542 3.48293
v -0.13041 1.49316 3.53601
v -0.13041 1.49316 3.48045
v -0.13705 1.49504 3.53353
v -0.13705 1.49504 3.48293
v -0.13041 1.54723 3.53601
v -0.13041 1.49316 3.53601
v -0.13705 1.54542 3.53353
v -0.13705 1.49504 3.53353
v -0.11115 1.45421 3.56631
v -0.10864 1.45293 3.56741
v -0.11115 1.45421 3.45015
v -0.10864 1.45293 3.44905
v -0.11115 1.58619 3.56631
v -0.10864 1.58746 3.56741
v -0.11115 1.45421 3.56631
v -0.10864 1.45293 3.56741
v -0.11115 1.58619 3.45015
v -0.10864 1.58746 3.44905
v -0.11115 1.58619 3.56631
v -0.10864 1.58746 3.56741
v -0.11115 1.45421 3.45015
v -0.10864 1.45293 3.44905
v -0.11115 1.58619 3.45015
v -0.10864 1.58746 3.44905
v -0.12938 1.45582 3.56417
v -0.11115 1.45421 3.56631
v -0.12937 1.45582 3.53601
v -0.12937 1.45582 3.48045
v -0.12938 1.45582 3.45229
v -0.11115 1.45421 3.45015
v -0.12938 1.58457 3.56417
v -0.11115 1.58619 3.56631
v -0.12937 1.54723 3.56417
v -0.12937 1.49316 3.56417
v -0.12938 1.45582 3.56417
v -0.11115 1.45421 3.56631
v -0.12938 1.58457 3.45229
v -0.11115 1.58619 3.45015
v -0.12937 1.58457 3.48045
v -0.12937 1.58457 3.53601
v -0.12938 1.58457 3.56417
v -0.11115 1.58619 3.56631
v -0.12938 1.45582 3.45229
v -0.11115 1.45421 3.45015
v -0.12937 1.49316 3.45229
v -0.12937 1.54723 3.45229
v -0.12938 1.58457 3.45229
v -0.11115 1.58619 3.45015
v -0.09959 1.57665 3.48114
v -0.09629 1.58968 3.48507
v -0.09629 1.57665 3.48507
v -0.09184 1.58968 3.48762
v -0.09184 1.57665 3.48762
v -0.08678 1.58968 3.48854
v -0.08678 1.57665 3.48854
v -0.08172 1.58968 3.48762
v -0.08172 1.57665 3.48762
v -0.07727 1.58968 3.48507
v -0.07727 1.57665 3.48507
v -0.07397 1.58968 3.48114
v -0.07397 1.57665 3.48114
v -0.09959 1.58968 3.48114
v -0.07397 1.58968 3.48114
v -0.07222 1.58968 3.47628
v -0.07397 1.57665 3.48114
v -0.07222 1.57665 3.47628
v -0.07222 1.58968 3.47119
v -0.07222 1.57665 3.47119
v -0.07397 1.58968 3.46634
v -0.07397 1.57665 3.46634
v -0.07397 1.58968 3.46634
v -0.07397 1.57665 3.46634
v -0.07727 1.58968 3.46241
v -0.07727 1.57665 3.46241
v -0.08172 1.58968 3.45986
v -0.08172 1.57665 3.45986
v -0.08678 1.58968 3.45894
v -0.08678 1.57665 3.45894
v -0.09184 1.58968 3.45986
v -0.09184 1.57665 3.45986
v -0.09629 1.58968 3.46241
v -0.09629 1.57665 3.46241
v -0.09959 1.58968 3.46634
v -0.09959 1.57665 3.46634
v -0.09959 1.58968 3.46634
v -0.09959 1.57665 3.46634
v -0.10135 1.58968 3.47119
v -0.10135 1.57665 3.47119
v -0.10135 1.58968 3.47628
v -0.10135 1.57665 3.47628
v -0.09959 1.58968 3.48114
v -0.09959 1.57665 3.48114
v -0.08214 1.59042 3.48652
v -0.07805 1.59042 3.48415
v -0.08678 1.59042 3.48733
v -0.07502 1.59042 3.48056
v -0.0734 1.59042 3.47611
v -0.0734 1.59042 3.47137
v -0.07502 1.59042 3.46697
v -0.07805 1.59042 3.46333
v -0.08214 1.59042 3.46096
v -0.08678 1.59042 3.46015
v -0.09143 1.59042 3.46096
v -0.09551 1.59042 3.46333
v -0.09855 1.59042 3.46697
v -0.10016 1.59042 3.47137
v -0.10016 1.59042 3.47611
v -0.09855 1.59042 3.48056
v -0.09551 1.59042 3.48415
v -0.09143 1.59042 3.48652
v -0.08678 1.59042 3.48733
v -0.08214 1.59042 3.48652
v -0.08172 1.58968 3.48762
v -0.07727 1.58968 3.48507
v -0.08678 1.58968 3.48854
v -0.09143 1.59042 3.48652
v -0.09184 1.58968 3.48762
v -0.09551 1.59042 3.48415
v -0.09629 1.58968 3.48507
v -0.09855 1.59042 3.48056
v -0.09959 1.58968 3.48114
v -0.10016 1.59042 3.47611
v -0.10135 1.58968 3.47628
v -0.10016 1.59042 3.47137
v -0.10135 1.58968 3.47119
v -0.09855 1.59042 3.46697
v -0.09959 1.58968 3.46634
v -0.09551 1.59042 3.46333
v -0.09629 1.58968 3.46241
v -0.09143 1.59042 3.46096
v -0.09184 1.58968 3.45986
v -0.08678 1.59042 3.46015
v -0.08678 1.58968 3.45894
v -0.08214 1.59042 3.46096
v -0.08172 1.58968 3.45986
v -0.07805 1.59042 3.46333
v -0.07727 1.58968 3.46241
v -0.07502 1.59042 3.46697
v -0.07397 1.58968 3.46634
v -0.0734 1.59042 3.47137
v -0.07222 1.58968 3.47119
v -0.0734 1.59042 3.47611
v -0.07222 1.58968 3.47628
v -0.07502 1.59042 3.48056
v -0.07397 1.58968 3.48114
v -0.07805 1.59042 3.48415
v -0.09959 1.57665 3.5156
v -0.09629 1.57665 3.51953
v -0.09629 1.58968 3.51953
v -0.09184 1.58968 3.52214
v -0.09184 1.57665 3.52214
v -0.08678 1.58968 3.523
v -0.08678 1.57665 3.523
v -0.08172 1.58968 3.52214
v -0.08172 1.57665 3.52214
v -0.07727 1.58968 3.51953
v -0.07727 1.57665 3.51953
v -0.07397 1.58968 3.5156
v -0.07397 1.57665 3.5156
v -0.09959 1.58968 3.5156
v -0.07397 1.58968 3.5156
v -0.07222 1.58968 3.5108
v -0.07397 1.57665 3.5156
v -0.07222 1.57665 3.5108
v -0.07222 1.58968 3.50566
v -0.07222 1.57665 3.50566
v -0.07397 1.58968 3.50086
v -0.07397 1.57665 3.50086
v -0.07397 1.58968 3.50086
v -0.07397 1.57665 3.50086
v -0.07727 1.58968 3.49693
v -0.07727 1.57665 3.49693
v -0.08172 1.58968 3.49432
v -0.08172 1.57665 3.49432
v -0.08678 1.58968 3.49346
v -0.08678 1.57665 3.49346
v -0.09184 1.58968 3.49432
v -0.09184 1.57665 3.49432
v -0.09629 1.58968 3.49693
v -0.09629 1.57665 3.49693
v -0.09959 1.58968 3.50086
v -0.09959 1.57665 3.50086
v -0.09959 1.58968 3.50086
v -0.09959 1.57665 3.50086
v -0.10135 1.58968 3.50566
v -0.10135 1.57665 3.50566
v -0.10135 1.58968 3.5108
v -0.10135 1.57665 3.5108
v -0.09959 1.58968 3.5156
v -0.09959 1.57665 3.5156
v -0.08214 1.59042 3.52098
v -0.07805 1.59042 3.51867
v -0.08678 1.59042 3.52179
v -0.07502 1.59042 3.51502
v -0.0734 1.59042 3.51057
v -0.0734 1.59042 3.50589
v -0.07502 1.59042 3.50144
v -0.07805 1.59042 3.49785
v -0.08214 1.59042 3.49548
v -0.08678 1.59042 3.49467
v -0.09143 1.59042 3.49548
v -0.09551 1.59042 3.49785
v -0.09855 1.59042 3.50144
v -0.10016 1.59042 3.50589
v -0.10016 1.59042 3.51057
v -0.09855 1.59042 3.51502
v -0.09551 1.59042 3.51867
v -0.09143 1.59042 3.52098
v -0.08678 1.59042 3.52179
v -0.08214 1.59042 3.52098
v -0.08172 1.58968 3.52214
v -0.07727 1.58968 3.51953
v -0.08678 1.58968 3.523
v -0.09143 1.59042 3.52098
v -0.09184 1.58968 3.52214
v -0.09551 1.59042 3.51867
v -0.09629 1.58968 3.51953
v -0.09855 1.59042 3.51502
v -0.09959 1.58968 3.5156
v -0.10016 1.59042 3.51057
v -0.10135 1.58968 3.5108
v -0.10016 1.59042 3.50589
v -0.10135 1.58968 3.50566
v -0.09855 1.59042 3.50144
v -0.09959 1.58968 3.50086
v -0.09551 1.59042 3.49785
v -0.09629 1.58968 3.49693
v -0.09143 1.59042 3.49548
v -0.09184 1.58968 3.49432
v -0.08678 1.59042 3.49467
v -0.08678 1.58968 3.49346
v -0.08214 1.59042 3.49548
v -0.08172 1.58968 3.49432
v -0.07805 1.59042 3.49785
v -0.07727 1.58968 3.49693
v -0.07502 1.59042 3.50144
v -0.07397 1.58968 3.50086
v -0.0734 1.59042 3.50589
v -0.07222 1.58968 3.50566
v -0.0734 1.59042 3.51057
v -0.07222 1.58968 3.5108
v -0.07502 1.59042 3.51502
v -0.07397 1.58968 3.5156
v -0.07805 1.59042 3.51867
v -0.09959 1.57665 3.54896
v -0.09629 1.57665 3.5529
v -0.09629 1.58968 3.5529
v -0.09184 1.58968 3.5555
v -0.09184 1.57665 3.5555
v -0.08678 1.58968 3.55637
v -0.08678 1.57665 3.55637
v -0.08172 1.58968 3.5555
v -0.08172 1.57665 3.5555
v -0.07727 1.58968 3.5529
v -0.07727 1.57665 3.5529
v -0.07397 1.58968 3.54896
v -0.07397 1.57665 3.54896
v -0.09959 1.58968 3.54896
v -0.07397 1.58968 3.54896
v -0.07222 1.58968 3.54417
v -0.07397 1.57665 3.54896
v -0.07222 1.57665 3.54417
v -0.07222 1.58968 3.53902
v -0.07222 1.57665 3.53902
v -0.07397 1.58968 3.53422
v -0.07397 1.57665 3.53422
v -0.07397 1.58968 3.53422
v -0.07397 1.57665 3.53422
v -0.07727 1.58968 3.53029
v -0.07727 1.57665 3.53029
v -0.08172 1.58968 3.52769
v -0.08172 1.57665 3.52769
v -0.08678 1.58968 3.52682
v -0.08678 1.57665 3.52682
v -0.09184 1.58968 3.52769
v -0.09184 1.57665 3.52769
v -0.09629 1.58968 3.53029
v -0.09629 1.57665 3.53029
v -0.09959 1.58968 3.53422
v -0.09959 1.57665 3.53422
v -0.09959 1.58968 3.53422
v -0.09959 1.57665 3.53422
v -0.10135 1.58968 3.53902
v -0.10135 1.57665 3.53902
v -0.10135 1.58968 3.54417
v -0.10135 1.57665 3.54417
v -0.09959 1.58968 3.54896
v -0.09959 1.57665 3.54896
v -0.08214 1.59042 3.55434
v -0.07805 1.59042 3.55203
v -0.08678 1.59042 3.55521
v -0.07502 1.59042 3.54839
v -0.0734 1.59042 3.54393
v -0.0734 1.59042 3.53925
v -0.07502 1.59042 3.5348
v -0.07805 1.59042 3.53121
v -0.08214 1.59042 3.52884
v -0.08678 1.59042 3.52803
v -0.09143 1.59042 3.52884
v -0.09551 1.59042 3.53121
v -0.09855 1.59042 3.5348
v -0.10016 1.59042 3.53925
v -0.10016 1.59042 3.54393
v -0.09855 1.59042 3.54839
v -0.09551 1.59042 3.55203
v -0.09143 1.59042 3.55434
v -0.08678 1.59042 3.55521
v -0.08214 1.59042 3.55434
v -0.08172 1.58968 3.5555
v -0.07727 1.58968 3.5529
v -0.08678 1.58968 3.55637
v -0.09143 1.59042 3.55434
v -0.09184 1.58968 3.5555
v -0.09551 1.59042 3.55203
v -0.09629 1.58968 3.5529
v -0.09855 1.59042 3.54839
v -0.09959 1.58968 3.54896
v -0.10016 1.59042 3.54393
v -0.10135 1.58968 3.54417
v -0.10016 1.59042 3.53925
v -0.10135 1.58968 3.53902
v -0.09855 1.59042 3.5348
v -0.09959 1.58968 3.53422
v -0.09551 1.59042 3.53121
v -0.09629 1.58968 3.53029
v -0.09143 1.59042 3.52884
v -0.09184 1.58968 3.52769
v -0.08678 1.59042 3.52803
v -0.08678 1.58968 3.52682
v -0.08214 1.59042 3.52884
v -0.08172 1.58968 3.52769
v -0.07805 1.59042 3.53121
v -0.07727 1.58968 3.53029
v -0.07502 1.59042 3.5348
v -0.07397 1.58968 3.53422
v -0.0734 1.59042 3.53925
v -0.07222 1.58968 3.53902
v -0.0734 1.59042 3.54393
v -0.07222 1.58968 3.54417
v -0.07502 1.59042 3.54839
v -0.07397 1.58968 3.54896
v -0.07805 1.59042 3.55203
v -0.12938 1.45582 3.45229
v -0.12937 1.45582 3.48045
v -0.13041 1.45696 3.45385
v -0.13041 1.45696 3.48045
v -0.12938 1.45582 3.56417
v -0.12937 1.49316 3.56417
v -0.13041 1.45696 3.56261
v -0.13041 1.48369 3.56261
v -0.13041 1.46059 3.56261
v -0.13041 1.49316 3.56261
v -0.12938 1.58457 3.56417
v -0.12937 1.58457 3.53601
v -0.13041 1.58343 3.56261
v -0.13041 1.58343 3.53601
v -0.12938 1.58457 3.45229
v -0.12937 1.54723 3.45229
v -0.13041 1.58343 3.45385
v -0.13041 1.55388 3.45385
v -0.13041 1.58028 3.45385
v -0.13041 1.54723 3.45385
v -0.12937 1.54723 3.56417
v -0.12938 1.58457 3.56417
v -0.13041 1.54723 3.56261
v -0.13041 1.58028 3.56261
v -0.13041 1.55388 3.56261
v -0.13041 1.58343 3.56261
v -0.12937 1.49316 3.45229
v -0.12938 1.45582 3.45229
v -0.13041 1.49316 3.45385
v -0.13041 1.46059 3.45385
v -0.13041 1.48369 3.45385
v -0.13041 1.45696 3.45385
v -0.12937 1.45582 3.53601
v -0.12938 1.45582 3.56417
v -0.13041 1.45696 3.53601
v -0.13041 1.45696 3.56261
v -0.12937 1.58457 3.48045
v -0.12938 1.58457 3.45229
v -0.13041 1.58343 3.48045
v -0.13041 1.58343 3.45385
v -0.12937 1.49316 3.56417
v -0.12937 1.54723 3.56417
v -0.13041 1.49316 3.56261
v -0.13041 1.54723 3.56261
v -0.12937 1.54723 3.45229
v -0.12937 1.49316 3.45229
v -0.13041 1.54723 3.45385
v -0.13041 1.49316 3.45385
v -0.12937 1.45582 3.48045
v -0.12937 1.45582 3.53601
v -0.13041 1.45696 3.48045
v -0.13041 1.45696 3.53601
v -0.12937 1.58457 3.53601
v -0.12937 1.58457 3.48045
v -0.13041 1.58343 3.53601
v -0.13041 1.58343 3.48045
v -0.13705 1.54542 3.53353
v -0.13705 1.54542 3.48293
v -0.13705 1.54475 3.48386
v -0.13705 1.49572 3.48386
v -0.13705 1.49504 3.48293
v -0.13705 1.49572 3.5326
v -0.13705 1.49504 3.53353
v -0.13705 1.54475 3.5326
v -0.13041 1.58028 3.56261
v -0.13041 1.55388 3.56261
v -0.13041 1.58028 3.55579
v -0.13041 1.55388 3.55579
v -0.13041 1.55388 3.45385
v -0.13041 1.58028 3.45385
v -0.13041 1.55388 3.4594
v -0.13041 1.58028 3.4594
v -0.13041 1.55388 3.48045
v -0.13041 1.58028 3.48045
v -0.13041 1.55388 3.53601
v -0.13041 1.58028 3.53601
v -0.13041 1.58028 3.53601
v -0.13041 1.58028 3.55579
v -0.13041 1.55388 3.53601
v -0.13041 1.55388 3.55579
v -0.13041 1.55388 3.48045
v -0.13041 1.55388 3.4594
v -0.13041 1.58028 3.48045
v -0.13041 1.58028 3.4594
v -0.13041 1.48369 3.48045
v -0.13041 1.46059 3.48045
v -0.13041 1.48369 3.46894
v -0.13041 1.46059 3.46894
v -0.13041 1.48369 3.56261
v -0.13041 1.46059 3.56261
v -0.13041 1.48369 3.54879
v -0.13041 1.46059 3.54879
v -0.13041 1.48369 3.53601
v -0.13041 1.46059 3.53601
v -0.13041 1.48369 3.48045
v -0.13041 1.46059 3.48045
v -0.13041 1.48369 3.53601
v -0.13041 1.48369 3.54879
v -0.13041 1.46059 3.53601
v -0.13041 1.46059 3.54879
v -0.13041 1.48369 3.45385
v -0.13041 1.48369 3.46894
v -0.13041 1.46059 3.45385
v -0.13041 1.46059 3.46894
v -0.13041 1.45696 3.46894
v -0.13041 1.58343 3.55579
v -0.13041 1.45696 3.54879
v -0.13041 1.58343 3.4594
vn 1 0 0
vn 1 0 0
vn 1 0 0
vn 1 0 0
vn -1 0 0
vn -1 0 0
vn -1 0 0
vn -1 0 0
vn -1 0 0
vn -1 0 0
vn -1 0 0
vn -1 0 0
vn -1 0 0
vn -1 0 0
vn -1 0 0
vn -1 0 0
vn -0.002 -1 0
vn -0.002 -1 0
vn -0.002 -1 0
vn -0.002 -1 0
vn -0.002 0 0.732
vn -0.002 0 0.732
vn -0.002 0 0.732
vn -0.002 0 0.732
vn -0.002 1 0
vn -0.002 1 0
vn -0.002 1 0
vn -0.002 1 0
vn -0.002 0 -0.732
vn -0.002 0 -0.732
vn -0.002 0 -0.732
vn -0.002 0 -0.732
vn -1 0 0
vn -1 0 0
vn -1 0 0
vn -1 0 0
vn -1 0 0
vn -1 0 0
vn -1 0 0
vn -1 0 0
vn -1 0 0
vn -1 0 0
vn -1 0 0
vn -1 0 0
vn -1 0 0
vn -1 0 0
vn -1 0 0
vn -1 0 0
vn -1 0 0
vn -1 0 0
vn -1 0 0
vn -1 0 0
vn -1 0 0
vn -1 0 0
vn -1 0 0
vn -1 0 0
vn -1 0 0
vn -1 0 0
vn -1 0 0
vn -1 0 0
vn -1 0 0
vn -1 0 0
vn -1 0 0
vn -1 0 0
vn -1 0 0
vn -1 0 0
vn -1 0 0
vn -1 0 0
vn -0.27 0.963 0.003
vn -0.27 0.963 0.003
vn -0.27 0.963 0.003
vn -0.27 0.963 0.003
vn -0.265 0.004 -0.706
vn -0.265 0.004 -0.706
vn -0.265 0.004 -0.706
vn -0.265 0.004 -0.706
vn -0.27 -0.963 0.003
vn -0.27 -0.963 0.003
vn -0.27 -0.963 0.003
vn -0.27 -0.963 0.003
vn -0.265 0 0.706
vn -0.265 0 0.706
vn -0.265 0 0.706
vn -0.265 0 0.706
vn -0.453 -0.892 -0.001
vn -0.453 -0.892 -0.001
vn -0.453 -0.892 -0.001
vn -0.453 -0.892 -0.001
vn -0.312 0 0.696
vn -0.312 0 0.696
vn -0.312 0 0.696
vn -0.312 0 0.696
vn -0.453 0.892 -0.001
vn -0.453 0.892 -0.001
vn -0.453 0.892 -0.001
vn -0.453 0.892 -0.001
vn -0.312 0.004 -0.696
vn -0.312 0.004 -0.696
vn -0.312 0.004 -0.696
vn -0.312 0.004 -0.696
vn -0.089 -0.996 0.001
vn -0.089 -0.996 0.001
vn -0.089 -0.996 0.001
vn -0.089 -0.996 0.001
vn -0.089 -0.996 0.001
vn -0.089 -0.996 0.001
vn -0.085 0 0.729
vn -0.085 0 0.729
vn -0.085 0 0.729
vn -0.085 0 0.729
vn -0.085 0 0.729
vn -0.085 0 0.729
vn -0.089 0.996 0.001
vn -0.089 0.996 0.001
vn -0.089 0.996 0.001
vn -0.089 0.996 0.001
vn -0.089 0.996 0.001
vn -0.089 0.996 0.001
vn -0.085 0.004 -0.729
vn -0.085 0.004 -0.729
vn -0.085 0.004 -0.729
vn -0.085 0.004 -0.729
vn -0.085 0.004 -0.729
vn -0.085 0.004 -0.729
vn -0.793 0 0.446
vn -0.529 0 0.621
vn -0.529 0 0.621
vn -0.261 0 0.707
vn -0.261 0 0.707
vn -0.002 0 0.732
vn -0.002 0 0.732
vn 0.261 0 0.707
vn 0.261 0 0.707
vn 0.529 0 0.621
vn 0.529 0 0.621
vn 0.793 0 0.446
vn 0.793 0 0.446
vn -0.793 0 0.446
vn 0.793 0 0.446
vn 0.973 0 0.168
vn 0.793 0 0.446
vn 0.973 0 0.168
vn 0.973 -0.004 -0.168
vn 0.973 -0.004 -0.168
vn 0.793 -0.004 -0.446
vn 0.793 -0.004 -0.446
vn 0.793 -0.004 -0.446
vn 0.793 -0.004 -0.446
vn 0.529 0 -0.621
vn 0.529 0 -0.621
vn 0.261 -0.004 -0.707
vn 0.261 -0.004 -0.707
vn 0.002 0 -0.732
vn -0.002 0 -0.732
vn -0.261 0 -0.707
vn -0.261 0 -0.707
vn -0.529 0.004 -0.621
vn -0.529 0.004 -0.621
vn -0.793 0 -0.446
vn -0.793 0 -0.446
vn -0.793 0 -0.446
vn -0.793 0 -0.446
vn -0.973 0 -0.168
vn -0.973 0 -0.168
vn -0.973 0 0.168
vn -0.973 0 0.168
vn -0.793 0 0.446
vn -0.793 0 0.446
vn -0.002 1 0
vn -0.002 1 0
vn -0.002 1 0
vn -0.002 1 0
vn -0.002 1 0
vn -0.002 1 0
vn -0.002 1 0
vn -0.002 1 0
vn -0.002 1 0
vn -0.002 1 0
vn -0.002 1 0
vn -0.002 1 0
vn -0.002 1 0
vn -0.002 1 0
vn -0.002 1 0
vn -0.002 1 0
vn -0.002 1 0
vn -0.002 1 0
vn -0.002 0.778 0.46
vn 0.154 0.784 0.44
vn 0.167 0.789 0.433
vn 0.32 0.812 0.358
vn -0.002 0.778 0.46
vn -0.154 0.784 0.44
vn -0.167 0.788 0.434
vn -0.299 0.806 0.374
vn -0.32 0.811 0.359
vn -0.425 0.835 0.255
vn -0.437 0.841 0.234
vn -0.499 0.858 0.091
vn -0.503 0.857 0.083
vn -0.499 0.858 -0.091
vn -0.503 0.857 -0.083
vn -0.425 0.835 -0.255
vn -0.437 0.84 -0.236
vn -0.299 0.806 -0.374
vn -0.32 0.809 -0.361
vn -0.154 0.784 -0.44
vn -0.167 0.786 -0.436
vn -0.002 0.778 -0.46
vn 0.002 0.778 -0.46
vn 0.154 0.784 -0.44
vn 0.167 0.789 -0.433
vn 0.299 0.806 -0.374
vn 0.32 0.812 -0.358
vn 0.425 0.834 -0.257
vn 0.437 0.839 -0.238
vn 0.499 0.858 -0.092
vn 0.503 0.857 -0.084
vn 0.499 0.858 0.09
vn 0.503 0.857 0.081
vn 0.425 0.836 0.255
vn 0.437 0.839 0.238
vn 0.299 0.806 0.374
vn -0.793 0 0.446
vn -0.529 0 0.621
vn -0.529 0 0.621
vn -0.261 0 0.707
vn -0.261 0 0.707
vn -0.002 0 0.732
vn -0.002 0 0.732
vn 0.261 0 0.707
vn 0.261 0 0.707
vn 0.529 0 0.621
vn 0.529 0 0.621
vn 0.793 0 0.446
vn 0.793 0 0.446
vn -0.793 0 0.446
vn 0.793 0 0.446
vn 0.973 0 0.168
vn 0.793 0 0.446
vn 0.973 0 0.168
vn 0.973 -0.004 -0.168
vn 0.973 -0.004 -0.168
vn 0.793 -0.004 -0.446
vn 0.793 -0.004 -0.446
vn 0.793 -0.004 -0.446
vn 0.793 -0.004 -0.446
vn 0.529 0 -0.621
vn 0.529 0 -0.621
vn 0.261 -0.004 -0.707
vn 0.261 -0.004 -0.707
vn 0.002 0 -0.732
vn 0.002 0 -0.732
vn -0.261 0 -0.707
vn -0.261 0 -0.707
vn -0.529 0.004 -0.621
vn -0.529 0.004 -0.621
vn -0.793 0 -0.446
vn -0.793 0 -0.446
vn -0.793 0 -0.446
vn -0.793 0 -0.446
vn -0.973 0 -0.168
vn -0.973 0 -0.168
vn -0.973 0 0.168
vn -0.973 0 0.168
vn -0.793 0 0.446
vn -0.793 0 0.446
vn -0.002 1 0
vn -0.002 1 0
vn -0.002 1 0
vn -0.002 1 0
vn -0.002 1 0
vn -0.002 1 0
vn -0.002 1 0
vn -0.002 1 0
vn -0.002 1 0
vn -0.002 1 0
vn -0.002 1 0
vn -0.002 1 0
vn -0.002 1 0
vn -0.002 1 0
vn -0.002 1 0
vn -0.002 1 0
vn -0.002 1 0
vn -0.002 1 0
vn -0.002 0.778 0.46
vn 0.154 0.784 0.44
vn 0.167 0.789 0.433
vn 0.32 0.812 0.358
vn -0.002 0.778 0.46
vn -0.154 0.784 0.44
vn -0.167 0.788 0.434
vn -0.299 0.806 0.374
vn -0.32 0.811 0.359
vn -0.425 0.835 0.255
vn -0.437 0.841 0.234
vn -0.499 0.858 0.091
vn -0.503 0.857 0.083
vn -0.499 0.858 -0.091
vn -0.503 0.857 -0.083
vn -0.425 0.835 -0.255
vn -0.437 0.84 -0.236
vn -0.299 0.806 -0.374
vn -0.32 0.809 -0.361
vn -0.154 0.784 -0.44
vn -0.167 0.786 -0.436
vn -0.002 0.778 -0.46
vn 0.002 0.778 -0.46
vn 0.154 0.784 -0.44
vn 0.167 0.789 -0.433
vn 0.299 0.806 -0.374
vn 0.32 0.812 -0.358
vn 0.425 0.834 -0.257
vn 0.437 0.839 -0.238
vn 0.499 0.858 -0.092
vn 0.503 0.857 -0.084
vn 0.499 0.858 0.09
vn 0.503 0.857 0.081
vn 0.425 0.836 0.255
vn 0.437 0.839 0.238
vn 0.299 0.806 0.374
vn -0.793 0 0.446
vn -0.529 0 0.621
vn -0.529 0 0.621
vn -0.261 0 0.707
vn -0.261 0 0.707
vn -0.002 0 0.732
vn -0.002 0 0.732
vn 0.261 0 0.707
vn 0.261 0 0.707
vn 0.529 0 0.621
vn 0.529 0 0.621
vn 0.793 0 0.446
vn 0.793 0 0.446
vn -0.793 0 0.446
vn 0.793 0 0.446
vn 0.973 0 0.168
vn 0.793 0 0.446
vn 0.973 0 0.168
vn 0.973 -0.004 -0.168
vn 0.973 -0.004 -0.168
vn 0.793 -0.004 -0.446
vn 0.793 -0.004 -0.446
vn 0.793 -0.004 -0.446
vn 0.793 -0.004 -0.446
vn 0.529 0 -0.621
vn 0.529 0 -0.621
vn 0.261 -0.004 -0.707
vn 0.261 -0.004 -0.707
vn 0.002 0 -0.732
vn 0.002 0 -0.732
vn -0.261 0 -0.707
vn -0.261 0 -0.707
vn -0.529 0.004 -0.621
vn -0.529 0.004 -0.621
vn -0.793 0 -0.446
vn -0.793 0 -0.446
vn -0.793 0 -0.446
vn -0.793 0 -0.446
vn -0.973 0 -0.168
vn -0.973 0 -0.168
vn -0.973 0 0.168
vn -0.973 0 0.168
vn -0.793 0 0.446
vn -0.793 0 0.446
vn -0.002 1 0
vn -0.002 1 0
vn -0.002 1 0
vn -0.002 1 0
vn -0.002 1 0
vn -0.002 1 0
vn -0.002 1 0
vn -0.002 1 0
vn -0.002 1 0
vn -0.002 1 0
vn -0.002 1 0
vn -0.002 1 0
vn -0.002 1 0
vn -0.002 1 0
vn -0.002 1 0
vn -0.002 1 0
vn -0.002 1 0
vn -0.002 1 0
vn -0.002 0.778 0.46
vn 0.154 0.784 0.44
vn 0.167 0.789 0.433
vn 0.32 0.812 0.358
vn -0.002 0.778 0.46
vn -0.154 0.784 0.44
vn -0.167 0.788 0.434
vn -0.299 0.806 0.374
vn -0.32 0.811 0.359
vn -0.425 0.835 0.255
vn -0.437 0.841 0.234
vn -0.499 0.858 0.091
vn -0.503 0.857 0.083
vn -0.499 0.858 -0.091
vn -0.503 0.857 -0.083
vn -0.425 0.835 -0.255
vn -0.437 0.84 -0.236
vn -0.299 0.806 -0.374
vn -0.32 0.809 -0.361
vn -0.154 0.784 -0.44
vn -0.167 0.786 -0.436
vn -0.002 0.778 -0.46
vn 0.002 0.778 -0.46
vn 0.154 0.784 -0.44
vn 0.167 0.789 -0.433
vn 0.299 0.806 -0.374
vn 0.32 0.812 -0.358
vn 0.425 0.834 -0.257
vn 0.437 0.839 -0.238
vn 0.499 0.858 -0.092
vn 0.503 0.857 -0.084
vn 0.499 0.858 0.09
vn 0.503 0.857 0.081
vn 0.425 0.836 0.255
vn 0.437 0.839 0.238
vn 0.299 0.806 0.374
vn -0.74 -0.673 0.001
vn -0.74 -0.673 0.001
vn -0.74 -0.673 0.001
vn -0.74 -0.673 0.001
vn -0.737 0 0.495
vn -0.737 0 0.495
vn -0.737 0 0.495
vn -0.737 0 0.495
vn -0.737 0 0.495
vn -0.737 0 0.495
vn -0.74 0.673 0.001
vn -0.74 0.673 0.001
vn -0.74 0.673 0.001
vn -0.74 0.673 0.001
vn -0.737 0 -0.495
vn -0.737 0 -0.495
vn -0.737 0 -0.495
vn -0.737 0 -0.495
vn -0.737 0 -0.495
vn -0.737 0 -0.495
vn -0.737 0 0.495
vn -0.737 0 0.495
vn -0.737 0 0.495
vn -0.737 0 0.495
vn -0.737 0 0.495
vn -0.737 0 0.495
vn -0.737 0 -0.495
vn -0.737 0 -0.495
vn -0.737 0 -0.495
vn -0.737 0 -0.495
vn -0.737 0 -0.495
vn -0.737 0 -0.495
vn -0.74 -0.673 0.001
vn -0.74 -0.673 0.001
vn -0.74 -0.673 0.001
vn -0.74 -0.673 0.001
vn -0.74 0.673 0.001
vn -0.74 0.673 0.001
vn -0.74 0.673 0.001
vn -0.74 0.673 0.001
vn -0.737 0 0.495
vn -0.737 0 0.495
vn -0.737 0 0.495
vn -0.737 0 0.495
vn -0.737 0 -0.495
vn -0.737 0 -0.495
vn -0.737 0 -0.495
vn -0.737 0 -0.495
vn -0.737 -0.676 0
vn -0.737 -0.676 0
vn -0.737 -0.676 0
vn -0.737 -0.676 0
vn -0.737 0.676 0
vn -0.737 0.676 0
vn -0.737 0.676 0
vn -0.737 0.676 0
vn -1 0 0
vn -1 0 0
vn -1 0 0
vn -1 0 0
vn -1 0 0
vn -1 0 0
vn -1 0 0
vn -1 0 0
vn -1 0 0
vn -1 0 0
vn -1 0 0
vn -1 0 0
vn -1 0 0
vn -1 0 0
vn -1 0 0
vn -1 0 0
vn -1 0 0
vn -1 0 0
vn -1 0 0
vn -1 0 0
vn -1 0 0
vn -1 0 0
vn -1 0 0
vn -1 0 0
vn -1 0 0
vn -1 0 0
vn -1 0 0
vn -1 0 0
vn -1 0 0
vn -1 0 0
vn -1 0 0
vn -1 0 0
vn -1 0 0
vn -1 0 0
vn -1 0 0
vn -1 0 0
vn -1 0 0
vn -1 0 0
vn -1 0 0
vn -1 0 0
vn -1 0 0
vn -1 0 0
vn -1 0 0
vn -1 0 0
vn -1 0 0
vn -1 0 0
vn -1 0 0
vn -1 0 0
vn -0.74 -0.673 0.001
vn -0.74 0.673 0.001
vn -0.74 -0.673 0.001
vn -0.74 0.673 0.001
vt -0.0673 0.0355
vt 0.0572 0.0355
vt -0.0673 0.0355
vt 0.0572 0.0355
vt -0.0623 0.1451
vt -0.0623 0.1451
vt -0.0464 0.1451
vt -0.0464 0.1451
vt -0.0342 0.1451
vt -0.0342 0.1451
vt 0.0242 0.1451
vt 0.0242 0.1451
vt 0.0376 0.1451
vt 0.0376 0.1451
vt 0.0523 0.1451
vt 0.0523 0.1451
vt 0.0572 0.1564
vt 0.0572 0.1564
vt -0.0673 0.1564
vt -0.0673 0.1564
vt 0.0572 0.0382
vt -0.0175 0.0382
vt 0.0572 0.1564
vt -0.0175 0.1564
vt -0.0673 0.0382
vt -0.0673 0.0382
vt 0.0572 0.0382
vt 0.0572 0.0382
vt 0.0572 0.1564
vt -0.0175 0.1564
vt 0.0572 0.0382
vt -0.0175 0.0382
vt 0.0523 0.1451
vt 0.045 0.1451
vt 0.0523 0.1451
vt 0.045 0.1451
vt 0.0523 0.1451
vt 0.0242 0.1451
vt 0.0242 0.1451
vt -0.0342 0.1451
vt -0.0342 0.1451
vt -0.0564 0.1451
vt -0.0342 0.1451
vt -0.0623 0.1451
vt -0.0623 0.1451
vt -0.0564 0.1451
vt -0.0623 0.1451
vt -0.0464 0.1451
vt -0.0623 0.1451
vt -0.0464 0.1451
vt -0.0342 0.1451
vt 0.0242 0.1451
vt 0.0242 0.1451
vt 0.0376 0.1451
vt 0.0376 0.1451
vt 0.0523 0.1451
vt -0.0623 0.1451
vt -0.0623 0.1451
vt -0.0564 0.1451
vt -0.0564 0.1451
vt -0.0342 0.1451
vt -0.0342 0.1451
vt 0.0242 0.1451
vt 0.0242 0.1451
vt 0.045 0.1451
vt 0.045 0.1451
vt 0.0523 0.1451
vt 0.0523 0.1451
vt -0.0342 0.0735
vt 0.0242 0.0735
vt -0.0316 0.0751
vt 0.0216 0.0751
vt -0.0557 0.121
vt -0.0557 0.0735
vt -0.0673 0.1193
vt -0.0673 0.0751
vt 0.0242 0.121
vt -0.0342 0.121
vt 0.0216 0.1193
vt -0.0316 0.1193
vt -0.0557 0.0735
vt -0.0557 0.121
vt -0.0673 0.0751
vt -0.0673 0.1193
vt 0.056 0.1552
vt 0.0572 0.1564
vt -0.0662 0.1552
vt -0.0673 0.1564
vt -0.0219 0.0392
vt -0.0175 0.0382
vt -0.0219 0.1552
vt -0.0175 0.1564
vt -0.0662 0.0392
vt -0.0673 0.0382
vt 0.056 0.0392
vt 0.0572 0.0382
vt -0.0219 0.1552
vt -0.0175 0.1564
vt -0.0219 0.0392
vt -0.0175 0.0382
vt 0.0538 0.1538
vt 0.056 0.1552
vt 0.0242 0.1538
vt -0.0342 0.1538
vt -0.064 0.1538
vt -0.0662 0.1552
vt -0.0538 0.0406
vt -0.0219 0.0392
vt -0.0538 0.0735
vt -0.0538 0.121
vt -0.0538 0.1538
vt -0.0219 0.1552
vt -0.064 0.0406
vt -0.0662 0.0392
vt -0.0342 0.0406
vt 0.0242 0.0406
vt 0.0538 0.0406
vt 0.056 0.0392
vt -0.0538 0.1538
vt -0.0219 0.1552
vt -0.0538 0.121
vt -0.0538 0.0735
vt -0.0538 0.0406
vt -0.0219 0.0392
vt -0.0016 0.0476
vt 0.0042 0.0362
vt 0.0042 0.0476
vt 0.012 0.0362
vt 0.012 0.0476
vt 0.0208 0.0362
vt 0.0208 0.0476
vt 0.0297 0.0362
vt 0.0297 0.0476
vt 0.0374 0.0362
vt 0.0374 0.0476
vt 0.0433 0.0362
vt 0.0433 0.0476
vt -0.0016 0.0362
vt -0.0336 0.0491
vt -0.0386 0.0461
vt -0.0336 0.0491
vt -0.0386 0.0461
vt -0.0441 0.0461
vt -0.0441 0.0461
vt -0.0492 0.0491
vt -0.0492 0.0491
vt 0.0433 0.0362
vt 0.0433 0.0476
vt 0.0374 0.0362
vt 0.0374 0.0476
vt 0.0297 0.0362
vt 0.0297 0.0476
vt 0.0208 0.0362
vt 0.0208 0.0476
vt 0.012 0.0362
vt 0.012 0.0476
vt 0.0042 0.0362
vt 0.0042 0.0476
vt -0.0016 0.0362
vt -0.0016 0.0476
vt -0.0492 0.0926
vt -0.0492 0.0926
vt -0.0441 0.0957
vt -0.0441 0.0957
vt -0.0386 0.0957
vt -0.0386 0.0957
vt -0.0336 0.0926
vt -0.0336 0.0926
vt -0.0279 0.0355
vt -0.0303 0.0355
vt -0.0271 0.0355
vt -0.0342 0.0355
vt -0.0389 0.0355
vt -0.0438 0.0355
vt -0.0485 0.0355
vt -0.0523 0.0355
vt -0.0547 0.0355
vt -0.0557 0.0355
vt -0.0547 0.0355
vt -0.0523 0.0355
vt -0.0485 0.0355
vt -0.0438 0.0355
vt -0.0389 0.0355
vt -0.0342 0.0355
vt -0.0303 0.0355
vt -0.0279 0.0355
vt -0.0271 0.0355
vt -0.0279 0.0355
vt -0.0267 0.0362
vt -0.0294 0.0362
vt -0.0258 0.0362
vt -0.0279 0.0355
vt -0.0267 0.0362
vt -0.0303 0.0355
vt -0.0294 0.0362
vt -0.0342 0.0355
vt -0.0336 0.0362
vt -0.0389 0.0355
vt -0.0386 0.0362
vt -0.0438 0.0355
vt -0.0441 0.0362
vt -0.0485 0.0355
vt -0.0492 0.0362
vt -0.0523 0.0355
vt -0.0533 0.0362
vt -0.0547 0.0355
vt -0.0559 0.0362
vt -0.0557 0.0355
vt -0.057 0.0362
vt -0.0547 0.0355
vt -0.0559 0.0362
vt -0.0523 0.0355
vt -0.0533 0.0362
vt -0.0485 0.0355
vt -0.0492 0.0362
vt -0.0438 0.0355
vt -0.0441 0.0362
vt -0.0389 0.0355
vt -0.0386 0.0362
vt -0.0342 0.0355
vt -0.0336 0.0362
vt -0.0303 0.0355
vt -0.0016 0.0476
vt 0.0042 0.0476
vt 0.0042 0.0362
vt 0.012 0.0362
vt 0.012 0.0476
vt 0.0208 0.0362
vt 0.0208 0.0476
vt 0.0297 0.0362
vt 0.0297 0.0476
vt 0.0374 0.0362
vt 0.0374 0.0476
vt 0.0433 0.0362
vt 0.0433 0.0476
vt -0.0016 0.0362
vt 0.0028 0.0491
vt -0.0023 0.0461
vt 0.0028 0.0491
vt -0.0023 0.0461
vt -0.0077 0.0461
vt -0.0077 0.0461
vt -0.0128 0.0491
vt -0.0128 0.0491
vt 0.0433 0.0362
vt 0.0433 0.0476
vt 0.0374 0.0362
vt 0.0374 0.0476
vt 0.0297 0.0362
vt 0.0297 0.0476
vt 0.0208 0.0362
vt 0.0208 0.0476
vt 0.012 0.0362
vt 0.012 0.0476
vt 0.0042 0.0362
vt 0.0042 0.0476
vt -0.0016 0.0362
vt -0.0016 0.0476
vt -0.0128 0.0926
vt -0.0128 0.0926
vt -0.0077 0.0957
vt -0.0077 0.0957
vt -0.0023 0.0957
vt -0.0023 0.0957
vt 0.0028 0.0926
vt 0.0028 0.0926
vt 0.0084 0.0355
vt 0.0059 0.0355
vt 0.0093 0.0355
vt 0.0021 0.0355
vt -0.0025 0.0355
vt -0.0075 0.0355
vt -0.0122 0.0355
vt -0.016 0.0355
vt -0.0185 0.0355
vt -0.0193 0.0355
vt -0.0185 0.0355
vt -0.016 0.0355
vt -0.0122 0.0355
vt -0.0075 0.0355
vt -0.0025 0.0355
vt 0.0021 0.0355
vt 0.0059 0.0355
vt 0.0084 0.0355
vt 0.0093 0.0355
vt 0.0084 0.0355
vt 0.0095 0.0362
vt 0.0069 0.0362
vt 0.0106 0.0362
vt 0.0084 0.0355
vt 0.0095 0.0362
vt 0.0059 0.0355
vt 0.0069 0.0362
vt 0.0021 0.0355
vt 0.0028 0.0362
vt -0.0025 0.0355
vt -0.0023 0.0362
vt -0.0075 0.0355
vt -0.0077 0.0362
vt -0.0122 0.0355
vt -0.0128 0.0362
vt -0.016 0.0355
vt -0.017 0.0362
vt -0.0185 0.0355
vt -0.0197 0.0362
vt -0.0193 0.0355
vt -0.0206 0.0362
vt -0.0185 0.0355
vt -0.0197 0.0362
vt -0.016 0.0355
vt -0.017 0.0362
vt -0.0122 0.0355
vt -0.0128 0.0362
vt -0.0075 0.0355
vt -0.0077 0.0362
vt -0.0025 0.0355
vt -0.0023 0.0362
vt 0.0021 0.0355
vt 0.0028 0.0362
vt 0.0059 0.0355
vt -0.0016 0.0476
vt 0.0042 0.0476
vt 0.0042 0.0362
vt 0.012 0.0362
vt 0.012 0.0476
vt 0.0208 0.0362
vt 0.0208 0.0476
vt 0.0297 0.0362
vt 0.0297 0.0476
vt 0.0374 0.0362
vt 0.0374 0.0476
vt 0.0433 0.0362
vt 0.0433 0.0476
vt -0.0016 0.0362
vt 0.0378 0.0491
vt 0.0328 0.0461
vt 0.0378 0.0491
vt 0.0328 0.0461
vt 0.0273 0.0461
vt 0.0273 0.0461
vt 0.0223 0.0491
vt 0.0223 0.0491
vt 0.0433 0.0362
vt 0.0433 0.0476
vt 0.0374 0.0362
vt 0.0374 0.0476
vt 0.0297 0.0362
vt 0.0297 0.0476
vt 0.0208 0.0362
vt 0.0208 0.0476
vt 0.012 0.0362
vt 0.012 0.0476
vt 0.0042 0.0362
vt 0.0042 0.0476
vt -0.0016 0.0362
vt -0.0016 0.0476
vt 0.0223 0.0926
vt 0.0223 0.0926
vt 0.0273 0.0957
vt 0.0273 0.0957
vt 0.0328 0.0957
vt 0.0328 0.0957
vt 0.0378 0.0926
vt 0.0378 0.0926
vt 0.0436 0.0355
vt 0.0411 0.0355
vt 0.0443 0.0355
vt 0.0372 0.0355
vt 0.0325 0.0355
vt 0.0276 0.0355
vt 0.0229 0.0355
vt 0.0191 0.0355
vt 0.0167 0.0355
vt 0.0158 0.0355
vt 0.0167 0.0355
vt 0.0191 0.0355
vt 0.0229 0.0355
vt 0.0276 0.0355
vt 0.0325 0.0355
vt 0.0372 0.0355
vt 0.0411 0.0355
vt 0.0436 0.0355
vt 0.0443 0.0355
vt 0.0436 0.0355
vt 0.0447 0.0362
vt 0.042 0.0362
vt 0.0456 0.0362
vt 0.0436 0.0355
vt 0.0447 0.0362
vt 0.0411 0.0355
vt 0.042 0.0362
vt 0.0372 0.0355
vt 0.0378 0.0362
vt 0.0325 0.0355
vt 0.0328 0.0362
vt 0.0276 0.0355
vt 0.0273 0.0362
vt 0.0229 0.0355
vt 0.0223 0.0362
vt 0.0191 0.0355
vt 0.0181 0.0362
vt 0.0167 0.0355
vt 0.0155 0.0362
vt 0.0158 0.0355
vt 0.0145 0.0362
vt 0.0167 0.0355
vt 0.0155 0.0362
vt 0.0191 0.0355
vt 0.0181 0.0362
vt 0.0229 0.0355
vt 0.0223 0.0362
vt 0.0276 0.0355
vt 0.0273 0.0362
vt 0.0325 0.0355
vt 0.0328 0.0362
vt 0.0372 0.0355
vt 0.0378 0.0362
vt 0.0411 0.0355
vt -0.064 0.1433
vt -0.0342 0.1433
vt -0.0623 0.1451
vt -0.0342 0.1451
vt 0.0538 0.1433
vt 0.0538 0.1433
vt 0.0523 0.1451
vt 0.0523 0.1451
vt 0.0523 0.1451
vt 0.0523 0.1451
vt 0.0538 0.1433
vt 0.0242 0.1433
vt 0.0523 0.1451
vt 0.0242 0.1451
vt -0.064 0.1433
vt -0.064 0.1433
vt -0.0623 0.1451
vt -0.0623 0.1451
vt -0.0623 0.1451
vt -0.0623 0.1451
vt 0.0538 0.1433
vt 0.0538 0.1433
vt 0.0523 0.1451
vt 0.0523 0.1451
vt 0.0523 0.1451
vt 0.0523 0.1451
vt -0.064 0.1433
vt -0.064 0.1433
vt -0.0623 0.1451
vt -0.0623 0.1451
vt -0.0623 0.1451
vt -0.0623 0.1451
vt 0.0242 0.1433
vt 0.0538 0.1433
vt 0.0242 0.1451
vt 0.0523 0.1451
vt -0.0342 0.1433
vt -0.064 0.1433
vt -0.0342 0.1451
vt -0.0623 0.1451
vt 0.0538 0.1433
vt 0.0538 0.1433
vt 0.0523 0.1451
vt 0.0523 0.1451
vt -0.064 0.1433
vt -0.064 0.1433
vt -0.0623 0.1451
vt -0.0623 0.1451
vt -0.0342 0.1433
vt 0.0242 0.1433
vt -0.0342 0.1451
vt 0.0242 0.1451
vt 0.0242 0.1433
vt -0.0342 0.1433
vt 0.0242 0.1451
vt -0.0342 0.1451
vt 0.0216 0.1564
vt -0.0316 0.1564
vt -0.0307 0.1564
vt -0.0307 0.1564
vt -0.0316 0.1564
vt 0.0206 0.1564
vt 0.0216 0.1564
vt 0.0206 0.1564
vt 0.0523 0.1451
vt 0.0523 0.1451
vt 0.045 0.1451
vt 0.045 0.1451
vt -0.0623 0.1451
vt -0.0623 0.1451
vt -0.0564 0.1451
vt -0.0564 0.1451
vt 0.1926 0.4349
vt 0.1926 0.032
vt 0.7355 0.4349
vt 0.7355 0.032
vt 0.7355 0.032
vt 0.9289 0.032
vt 0.7355 0.4349
vt 0.9289 0.4349
vt 0.1926 0.4349
vt -0.0131 0.4349
vt 0.1926 0.032
vt -0.0131 0.032
vt 0.1629 0.5722
vt 0.1629 0.9871
vt 0.0224 0.5722
vt 0.0224 0.9871
vt 0.0523 0.1451
vt 0.0523 0.1451
vt 0.0376 0.1451
vt 0.0376 0.1451
vt 0.8404 0.5722
vt 0.8404 0.9871
vt 0.1629 0.5722
vt 0.1629 0.9871
vt 0.8404 0.5722
vt 0.9963 0.5722
vt 0.8404 0.9871
vt 0.9963 0.9871
vt -0.0623 0.1451
vt -0.0464 0.1451
vt -0.0623 0.1451
vt -0.0464 0.1451
vt -0.0464 0.1451
vt 0.045 0.1451
vt 0.0376 0.1451
vt -0.0564 0.1451
f 1/1/1 2/2/2 3/3/3
f 2/2/2 4/4/4 3/3/3
f 5/5/5 6/6/6 7/7/7
f 6/6/6 8/8/8 7/7/7
f 7/7/7 8/8/8 9/9/9
f 8/8/8 10/10/10 9/9/9
f 9/9/9 10/10/10 11/11/11
f 10/10/10 12/12/12 11/11/11
f 11/11/11 12/12/12 13/13/13
f 12/12/12 14/14/14 13/13/13
f 13/13/13 14/14/14 15/15/15
f 14/14/14 16/16/16 15/15/15
f 17/17/17 18/18/18 19/19/19
f 18/18/18 20/20/20 19/19/19
f 21/21/21 22/22/22 23/23/23
f 22/22/22 24/24/24 23/23/23
f 25/25/25 26/26/26 27/27/27
f 26/26/26 28/28/28 27/27/27
f 29/29/29 30/30/30 31/31/31
f 30/30/30 32/32/32 31/31/31
f 33/33/33 34/34/34 35/35/35
f 34/34/34 36/36/36 35/35/35
f 35/35/35 36/36/36 37/37/37
f 37/37/37 36/36/36 38/38/38
f 36/36/36 34/34/34 38/38/38
f 34/34/34 39/39/39 38/38/38
f 39/39/39 40/40/40 38/38/38
f 38/38/38 40/40/40 41/41/41
f 40/40/40 42/42/42 41/41/41
f 41/41/41 42/42/42 43/43/43
f 42/42/42 44/44/44 43/43/43
f 43/43/43 44/44/44 45/45/45
f 40/40/40 46/46/46 42/42/42
f 46/46/46 47/47/47 42/42/42
f 42/42/42 47/47/47 44/44/44
f 45/45/45 49/49/49 48/48/48
f 49/49/49 50/50/50 48/48/48
f 50/50/50 51/51/51 48/48/48
f 48/48/48 51/51/51 43/43/43
f 51/51/51 52/52/52 43/43/43
f 43/43/43 52/52/52 53/53/53
f 53/53/53 52/52/52 54/54/54
f 52/52/52 55/55/55 54/54/54
f 55/55/55 56/56/56 54/54/54
f 54/54/54 56/56/56 37/37/37
f 37/37/37 38/38/38 53/53/53
f 57/57/57 58/58/58 59/59/59
f 58/58/58 60/60/60 59/59/59
f 59/59/59 60/60/60 61/61/61
f 60/60/60 62/62/62 61/61/61
f 61/61/61 62/62/62 63/63/63
f 62/62/62 64/64/64 63/63/63
f 63/63/63 64/64/64 65/65/65
f 64/64/64 66/66/66 65/65/65
f 66/66/66 67/67/67 65/65/65
f 65/65/65 67/67/67 68/68/68
f 69/69/69 71/71/71 70/70/70
f 70/70/70 71/71/71 72/72/72
f 73/73/73 75/75/75 74/74/74
f 74/74/74 75/75/75 76/76/76
f 77/77/77 79/79/79 78/78/78
f 78/78/78 79/79/79 80/80/80
f 81/81/81 83/83/83 82/82/82
f 82/82/82 83/83/83 84/84/84
f 85/85/85 87/87/87 86/86/86
f 86/86/86 87/87/87 88/88/88
f 89/89/89 91/91/91 90/90/90
f 90/90/90 91/91/91 92/92/92
f 93/93/93 95/95/95 94/94/94
f 94/94/94 95/95/95 96/96/96
f 97/97/97 99/99/99 98/98/98
f 98/98/98 99/99/99 100/100/100
f 101/101/101 103/103/103 102/102/102
f 103/103/103 104/104/104 102/102/102
f 104/104/104 105/105/105 102/102/102
f 102/102/102 105/105/105 106/106/106
f 107/107/107 109/109/109 108/108/108
f 109/109/109 110/110/110 108/108/108
f 110/110/110 111/111/111 108/108/108
f 108/108/108 111/111/111 112/112/112
f 113/113/113 115/115/115 114/114/114
f 115/115/115 116/116/116 114/114/114
f 116/116/116 117/117/117 114/114/114
f 114/114/114 117/117/117 118/118/118
f 119/119/119 121/121/121 120/120/120
f 121/121/121 122/122/122 120/120/120
f 122/122/122 123/123/123 120/120/120
f 120/120/120 123/123/123 124/124/124
f 125/125/125 127/127/127 126/126/126
f 126/126/126 127/127/127 128/128/128
f 127/127/127 129/129/129 128/128/128
f 128/128/128 129/129/129 130/130/130
f 129/129/129 131/131/131 130/130/130
f 130/130/130 131/131/131 132/132/132
f 131/131/131 133/133/133 132/132/132
f 132/132/132 133/133/133 134/134/134
f 133/133/133 135/135/135 134/134/134
f 134/134/134 135/135/135 136/136/136
f 135/135/135 137/137/137 136/136/136
f 126/126/126 138/138/138 125/125/125
f 139/139/139 141/141/141 140/140/140
f 141/141/141 142/142/142 140/140/140
f 140/140/140 142/142/142 143/143/143
f 142/142/142 144/144/144 143/143/143
f 143/143/143 144/144/144 145/145/145
f 144/144/144 146/146/146 145/145/145
f 147/147/147 148/148/148 149/149/149
f 148/148/148 150/150/150 149/149/149
f 149/149/149 150/150/150 151/151/151
f 150/150/150 152/152/152 151/151/151
f 151/151/151 152/152/152 153/153/153
f 152/152/152 154/154/154 153/153/153
f 153/153/153 154/154/154 155/155/155
f 154/154/154 156/156/156 155/155/155
f 155/155/155 156/156/156 157/157/157
f 156/156/156 158/158/158 157/157/157
f 157/157/157 158/158/158 159/159/159
f 158/158/158 160/160/160 159/159/159
f 161/161/161 162/162/162 163/163/163
f 162/162/162 164/164/164 163/163/163
f 163/163/163 164/164/164 165/165/165
f 164/164/164 166/166/166 165/165/165
f 165/165/165 166/166/166 167/167/167
f 166/166/166 168/168/168 167/167/167
f 169/169/169 170/170/170 171/171/171
f 170/170/170 172/172/172 171/171/171
f 172/172/172 173/173/173 171/171/171
f 173/173/173 174/174/174 171/171/171
f 174/174/174 175/175/175 171/171/171
f 175/175/175 176/176/176 171/171/171
f 176/176/176 177/177/177 171/171/171
f 177/177/177 178/178/178 171/171/171
f 178/178/178 179/179/179 171/171/171
f 179/179/179 180/180/180 171/171/171
f 180/180/180 181/181/181 171/171/171
f 181/181/181 182/182/182 171/171/171
f 182/182/182 183/183/183 171/171/171
f 183/183/183 184/184/184 171/171/171
f 184/184/184 185/185/185 171/171/171
f 171/171/171 185/185/185 186/186/186
f 187/187/187 189/189/189 188/188/188
f 188/188/188 189/189/189 190/190/190
f 189/189/189 187/187/187 191/191/191
f 187/187/187 192/192/192 191/191/191
f 191/191/191 192/192/192 193/193/193
f 192/192/192 194/194/194 193/193/193
f 193/193/193 194/194/194 195/195/195
f 194/194/194 196/196/196 195/195/195
f 195/195/195 196/196/196 197/197/197
f 196/196/196 198/198/198 197/197/197
f 197/197/197 198/198/198 199/199/199
f 198/198/198 200/200/200 199/199/199
f 199/199/199 200/200/200 201/201/201
f 200/200/200 202/202/202 201/201/201
f 201/201/201 202/202/202 203/203/203
f 202/202/202 204/204/204 203/203/203
f 203/203/203 204/204/204 205/205/205
f 204/204/204 206/206/206 205/205/205
f 205/205/205 206/206/206 207/207/207
f 206/206/206 208/208/208 207/207/207
f 207/207/207 208/208/208 209/209/209
f 208/208/208 210/210/210 209/209/209
f 209/209/209 210/210/210 211/211/211
f 210/210/210 212/212/212 211/211/211
f 211/211/211 212/212/212 213/213/213
f 212/212/212 214/214/214 213/213/213
f 213/213/213 214/214/214 215/215/215
f 214/214/214 216/216/216 215/215/215
f 215/215/215 216/216/216 217/217/217
f 216/216/216 218/218/218 217/217/217
f 217/217/217 218/218/218 219/219/219
f 218/218/218 220/220/220 219/219/219
f 219/219/219 220/220/220 221/221/221
f 220/220/220 222/222/222 221/221/221
f 221/221/221 222/222/222 190/190/190
f 222/222/222 188/188/188 190/190/190
f 223/223/223 224/224/224 225/225/225
f 225/225/225 224/224/224 226/226/226
f 224/224/224 227/227/227 226/226/226
f 226/226/226 227/227/227 228/228/228
f 227/227/227 229/229/229 228/228/228
f 228/228/228 229/229/229 230/230/230
f 229/229/229 231/231/231 230/230/230
f 230/230/230 231/231/231 232/232/232
f 231/231/231 233/233/233 232/232/232
f 232/232/232 233/233/233 234/234/234
f 233/233/233 235/235/235 234/234/234
f 225/225/225 236/236/236 223/223/223
f 237/237/237 239/239/239 238/238/238
f 239/239/239 240/240/240 238/238/238
f 238/238/238 240/240/240 241/241/241
f 240/240/240 242/242/242 241/241/241
f 241/241/241 242/242/242 243/243/243
f 242/242/242 244/244/244 243/243/243
f 245/245/245 246/246/246 247/247/247
f 246/246/246 248/248/248 247/247/247
f 247/247/247 248/248/248 249/249/249
f 248/248/248 250/250/250 249/249/249
f 249/249/249 250/250/250 251/251/251
f 250/250/250 252/252/252 251/251/251
f 251/251/251 252/252/252 253/253/253
f 252/252/252 254/254/254 253/253/253
f 253/253/253 254/254/254 255/255/255
f 254/254/254 256/256/256 255/255/255
f 255/255/255 256/256/256 257/257/257
f 256/256/256 258/258/258 257/257/257
f 259/259/259 260/260/260 261/261/261
f 260/260/260 262/262/262 261/261/261
f 261/261/261 262/262/262 263/263/263
f 262/262/262 264/264/264 263/263/263
f 263/263/263 264/264/264 265/265/265
f 264/264/264 266/266/266 265/265/265
f 267/267/267 268/268/268 269/269/269
f 268/268/268 270/270/270 269/269/269
f 270/270/270 271/271/271 269/269/269
f 271/271/271 272/272/272 269/269/269
f 272/272/272 273/273/273 269/269/269
f 273/273/273 274/274/274 269/269/269
f 274/274/274 275/275/275 269/269/269
f 275/275/275 276/276/276 269/269/269
f 276/276/276 277/277/277 269/269/269
f 277/277/277 278/278/278 269/269/269
f 278/278/278 279/279/279 269/269/269
f 279/279/279 280/280/280 269/269/269
f 280/280/280 281/281/281 269/269/269
f 281/281/281 282/282/282 269/269/269
f 282/282/282 283/283/283 269/269/269
f 269/269/269 283/283/283 284/284/284
f 285/285/285 287/287/287 286/286/286
f 286/286/286 287/287/287 288/288/288
f 287/287/287 285/285/285 289/289/289
f 285/285/285 290/290/290 289/289/289
f 289/289/289 290/290/290 291/291/291
f 290/290/290 292/292/292 291/291/291
f 291/291/291 292/292/292 293/293/293
f 292/292/292 294/294/294 293/293/293
f 293/293/293 294/294/294 295/295/295
f 294/294/294 296/296/296 295/295/295
f 295/295/295 296/296/296 297/297/297
f 296/296/296 298/298/298 297/297/297
f 297/297/297 298/298/298 299/299/299
f 298/298/298 300/300/300 299/299/299
f 299/299/299 300/300/300 301/301/301
f 300/300/300 302/302/302 301/301/301
f 301/301/301 302/302/302 303/303/303
f 302/302/302 304/304/304 303/303/303
f 303/303/303 304/304/304 305/305/305
f 304/304/304 306/306/306 305/305/305
f 305/305/305 306/306/306 307/307/307
f 306/306/306 308/308/308 307/307/307
f 307/307/307 308/308/308 309/309/309
f 308/308/308 310/310/310 309/309/309
f 309/309/309 310/310/310 311/311/311
f 310/310/310 312/312/312 311/311/311
f 311/311/311 312/312/312 313/313/313
f 312/312/312 314/314/314 313/313/313
f 313/313/313 314/314/314 315/315/315
f 314/314/314 316/316/316 315/315/315
f 315/315/315 316/316/316 317/317/317
f 316/316/316 318/318/318 317/317/317
f 317/317/317 318/318/318 319/319/319
f 318/318/318 320/320/320 319/319/319
f 319/319/319 320/320/320 288/288/288
f 320/320/320 286/286/286 288/288/288
f 321/321/321 322/322/322 323/323/323
f 323/323/323 322/322/322 324/324/324
f 322/322/322 325/325/325 324/324/324
f 324/324/324 325/325/325 326/326/326
f 325/325/325 327/327/327 326/326/326
f 326/326/326 327/327/327 328/328/328
f 327/327/327 329/329/329 328/328/328
f 328/328/328 329/329/329 330/330/330
f 329/329/329 331/331/331 330/330/330
f 330/330/330 331/331/331 332/332/332
f 331/331/331 333/333/333 332/332/332
f 323/323/323 334/334/334 321/321/321
f 335/335/335 337/337/337 336/336/336
f 337/337/337 338/338/338 336/336/336
f 336/336/336 338/338/338 339/339/339
f 338/338/338 340/340/340 339/339/339
f 339/339/339 340/340/340 341/341/341
f 340/340/340 342/342/342 341/341/341
f 343/343/343 344/344/344 345/345/345
f 344/344/344 346/346/346 345/345/345
f 345/345/345 346/346/346 347/347/347
f 346/346/346 348/348/348 347/347/347
f 347/347/347 348/348/348 349/349/349
f 348/348/348 350/350/350 349/349/349
f 349/349/349 350/350/350 351/351/351
f 350/350/350 352/352/352 351/351/351
f 351/351/351 352/352/352 353/353/353
f 352/352/352 354/354/354 353/353/353
f 353/353/353 354/354/354 355/355/355
f 354/354/354 356/356/356 355/355/355
f 357/357/357 358/358/358 359/359/359
f 358/358/358 360/360/360 359/359/359
f 359/359/359 360/360/360 361/361/361
f 360/360/360 362/362/362 361/361/361
f 361/361/361 362/362/362 363/363/363
f 362/362/362 364/364/364 363/363/363
f 365/365/365 366/366/366 367/367/367
f 366/366/366 368/368/368 367/367/367
f 368/368/368 369/369/369 367/367/367
f 369/369/369 370/370/370 367/367/367
f 370/370/370 371/371/371 367/367/367
f 371/371/371 372/372/372 367/367/367
f 372/372/372 373/373/373 367/367/367
f 373/373/373 374/374/374 367/367/367
f 374/374/374 375/375/375 367/367/367
f 375/375/375 376/376/376 367/367/367
f 376/376/376 377/377/377 367/367/367
f 377/377/377 378/378/378 367/367/367
f 378/378/378 379/379/379 367/367/367
f 379/379/379 380/380/380 367/367/367
f 380/380/380 381/381/381 367/367/367
f 367/367/367 381/381/381 382/382/382
f 383/383/383 385/385/385 384/384/384
f 384/384/384 385/385/385 386/386/386
f 385/385/385 383/383/383 387/387/387
f 383/383/383 388/388/388 387/387/387
f 387/387/387 388/388/388 389/389/389
f 388/388/388 390/390/390 389/389/389
f 389/389/389 390/390/390 391/391/391
f 390/390/390 392/392/392 391/391/391
f 391/391/391 392/392/392 393/393/393
f 392/392/392 394/394/394 393/393/393
f 393/393/393 394/394/394 395/395/395
f 394/394/394 396/396/396 395/395/395
f 395/395/395 396/396/396 397/397/397
f 396/396/396 398/398/398 397/397/397
f 397/397/397 398/398/398 399/399/399
f 398/398/398 400/400/400 399/399/399
f 399/399/399 400/400/400 401/401/401
f 400/400/400 402/402/402 401/401/401
f 401/401/401 402/402/402 403/403/403
f 402/402/402 404/404/404 403/403/403
f 403/403/403 404/404/404 405/405/405
f 404/404/404 406/406/406 405/405/405
f 405/405/405 406/406/406 407/407/407
f 406/406/406 408/408/408 407/407/407
f 407/407/407 408/408/408 409/409/409
f 408/408/408 410/410/410 409/409/409
f 409/409/409 410/410/410 411/411/411
f 410/410/410 412/412/412 411/411/411
f 411/411/411 412/412/412 413/413/413
f 412/412/412 414/414/414 413/413/413
f 413/413/413 414/414/414 415/415/415
f 414/414/414 416/416/416 415/415/415
f 415/415/415 416/416/416 417/417/417
f 416/416/416 418/418/418 417/417/417
f 417/417/417 418/418/418 386/386/386
f 418/418/418 384/384/384 386/386/386
f 419/419/419 420/420/420 421/421/421
f 420/420/420 422/422/422 421/421/421
f 423/423/423 424/424/424 425/425/425
f 424/424/424 426/426/426 425/425/425
f 425/425/425 426/426/426 427/427/427
f 424/424/424 428/428/428 426/426/426
f 429/429/429 430/430/430 431/431/431
f 430/430/430 432/432/432 431/431/431
f 433/433/433 434/434/434 435/435/435
f 434/434/434 436/436/436 435/435/435
f 435/435/435 436/436/436 437/437/437
f 434/434/434 438/438/438 436/436/436
f 439/439/439 440/440/440 441/441/441
f 440/440/440 442/442/442 441/441/441
f 441/441/441 442/442/442 443/443/443
f 440/440/440 444/444/444 442/442/442
f 445/445/445 446/446/446 447/447/447
f 446/446/446 448/448/448 447/447/447
f 447/447/447 448/448/448 449/449/449
f 446/446/446 450/450/450 448/448/448
f 451/451/451 452/452/452 453/453/453
f 452/452/452 454/454/454 453/453/453
f 455/455/455 456/456/456 457/457/457
f 456/456/456 458/458/458 457/457/457
f 459/459/459 460/460/460 461/461/461
f 460/460/460 462/462/462 461/461/461
f 463/463/463 464/464/464 465/465/465
f 464/464/464 466/466/466 465/465/465
f 467/467/467 468/468/468 469/469/469
f 468/468/468 470/470/470 469/469/469
f 471/471/471 472/472/472 473/473/473
f 472/472/472 474/474/474 473/473/473
f 475/475/475 476/476/476 477/477/477
f 477/477/477 476/476/476 478/478/478
f 476/476/476 479/479/479 478/478/478
f 478/478/478 479/479/479 480/480/480
f 479/479/479 481/481/481 480/480/480
f 480/480/480 481/481/481 482/482/482
f 481/481/481 475/475/475 482/482/482
f 482/482/482 475/475/475 477/477/477
f 483/483/483 485/485/485 484/484/484
f 484/484/484 485/485/485 486/486/486
f 487/487/487 489/489/489 488/488/488
f 488/488/488 489/489/489 490/490/490
f 491/491/491 493/493/493 492/492/492
f 492/492/492 493/493/493 494/494/494
f 495/495/495 497/497/497 496/496/496
f 496/496/496 497/497/497 498/498/498
f 499/499/499 501/501/501 500/500/500
f 500/500/500 501/501/501 502/502/502
f 503/503/503 505/505/505 504/504/504
f 504/504/504 505/505/505 506/506/506
f 507/507/507 509/509/509 508/508/508
f 508/508/508 509/509/509 510/510/510
f 511/511/511 513/513/513 512/512/512
f 512/512/512 513/513/513 514/514/514
f 515/515/515 517/517/517 516/516/516
f 516/516/516 517/517/517 518/518/518
f 519/519/519 521/521/521 520/520/520
f 520/520/520 521/521/521 522/522/522
