o model_10
v -0.10517 1.54231 4.22112
v -0.10508 1.54284 4.22112
v -0.10509 1.54281 4.22093
v -0.10484 1.54328 4.22078
v -0.10485 1.54314 4.22051
v -0.10509 1.54273 4.22079
v -0.10485 1.54289 4.22026
v -0.10509 1.54262 4.22068
v -0.10486 1.54262 4.22012
v -0.10509 1.54248 4.22059
v -0.10486 1.54231 4.22006
v -0.10509 1.54231 4.22057
v -0.10485 1.54198 4.22012
v -0.10509 1.54212 4.22059
v -0.10485 1.5417 4.22026
v -0.10509 1.54198 4.22068
v -0.10485 1.54146 4.22051
v -0.10509 1.54187 4.22079
v -0.10484 1.54132 4.22078
v -0.10509 1.54179 4.22093
v -0.10508 1.54176 4.22112
v -0.10508 1.54179 4.22128
v -0.10483 1.54132 4.22142
v -0.10482 1.54146 4.22169
v -0.10508 1.54187 4.22142
v -0.10482 1.5417 4.22194
v -0.10507 1.54198 4.22153
v -0.10507 1.54212 4.22162
v -0.10481 1.54198 4.22208
v -0.10442 1.54187 4.22243
v -0.10442 1.54146 4.22224
v -0.10443 1.54115 4.22193
v -0.10444 1.54096 4.22152
v -0.10483 1.54126 4.22111
v -0.10445 1.54088 4.22111
v -0.10445 1.54096 4.22066
v -0.10446 1.54115 4.22025
v -0.10447 1.54146 4.21994
v -0.10448 1.54187 4.21975
v -0.10448 1.54231 4.21967
v -0.10448 1.54273 4.21975
v -0.10447 1.54314 4.21994
v -0.10447 1.54344 4.22025
v -0.10446 1.54364 4.22066
v -0.10484 1.54333 4.22111
v -0.10508 1.54281 4.22128
v -0.10508 1.54273 4.22142
v -0.10483 1.54328 4.22142
v -0.10445 1.54372 4.22111
v -0.10444 1.54364 4.22152
v -0.10482 1.54314 4.22169
v -0.10507 1.54262 4.22153
v -0.10507 1.54248 4.22162
v -0.10507 1.54231 4.22164
v -0.10481 1.54231 4.22214
v -0.10442 1.54231 4.22251
v -0.10392 1.54231 4.22275
v -0.10392 1.54179 4.22267
v -0.10392 1.54132 4.22242
v -0.10393 1.54096 4.22206
v -0.10394 1.54071 4.22159
v -0.10395 1.54063 4.22109
v -0.10396 1.54071 4.22057
v -0.10397 1.54096 4.2201
v -0.10398 1.54132 4.21974
v -0.10398 1.54179 4.21949
v -0.10399 1.54231 4.21941
v -0.10398 1.54281 4.21949
v -0.10398 1.54328 4.21974
v -0.10397 1.54364 4.2201
v -0.10396 1.54389 4.22057
v -0.10395 1.54397 4.2211
v -0.10343 1.54397 4.22053
v -0.10344 1.54372 4.22003
v -0.10344 1.54334 4.21965
v -0.10345 1.54284 4.2194
v -0.10345 1.54231 4.21932
v -0.10345 1.54176 4.2194
v -0.10344 1.54126 4.21965
v -0.10343 1.54088 4.22003
v -0.10342 1.54063 4.22053
v -0.10341 1.54055 4.22108
v -0.1034 1.54063 4.22161
v -0.10339 1.54088 4.22211
v -0.10338 1.54126 4.22249
v -0.10338 1.54176 4.22274
v -0.10338 1.54231 4.22282
v -0.10338 1.54284 4.22274
v -0.10392 1.54281 4.22267
v -0.10338 1.54334 4.22249
v -0.10392 1.54328 4.22242
v -0.10339 1.54372 4.22211
v -0.10442 1.54273 4.22243
v -0.10481 1.54262 4.22208
v -0.10482 1.54289 4.22194
v -0.10443 1.54344 4.22193
v -0.10442 1.54314 4.22224
v -0.10393 1.54364 4.22206
v -0.10394 1.54389 4.22159
v -0.10341 1.54405 4.22108
v -0.1034 1.54397 4.22161
v -0.10341 1.54405 4.22108
v -0.10341 1.54231 4.22108
v -0.10343 1.54397 4.22053
v -0.10344 1.54372 4.22003
v -0.10344 1.54334 4.21965
v -0.10345 1.54284 4.2194
v -0.10345 1.54231 4.21932
v -0.10345 1.54176 4.2194
v -0.10344 1.54126 4.21965
v -0.10343 1.54088 4.22003
v -0.1034 1.54397 4.22161
v -0.10339 1.54372 4.22211
v -0.10338 1.54334 4.22249
v -0.10338 1.54284 4.22274
v -0.10338 1.54231 4.22282
v -0.10338 1.54176 4.22274
v -0.10338 1.54126 4.22249
v -0.10339 1.54088 4.22211
v -0.1034 1.54063 4.22161
v -0.10341 1.54055 4.22108
v -0.10342 1.54063 4.22053
v -0.10341 1.54405 4.22108
v -0.10343 1.54397 4.22053
v -0.10344 1.54372 4.22003
v -0.10344 1.54334 4.21965
v -0.10345 1.54284 4.2194
v -0.10345 1.54231 4.21932
v -0.10345 1.54176 4.2194
v -0.10344 1.54126 4.21965
v -0.10343 1.54088 4.22003
v -0.10342 1.54063 4.22053
v -0.10341 1.54055 4.22108
v -0.1034 1.54063 4.22161
v -0.10339 1.54088 4.22211
v -0.10338 1.54126 4.22249
v -0.10338 1.54176 4.22274
v -0.10338 1.54231 4.22282
v -0.10338 1.54284 4.22274
v -0.10338 1.54334 4.22249
v -0.10339 1.54372 4.22211
v -0.1034 1.54397 4.22161
v -0.10506 1.54231 4.2262
v -0.10498 1.54284 4.2262
v -0.10498 1.54281 4.22601
v -0.10474 1.54328 4.22586
v -0.10474 1.54314 4.22559
v -0.10498 1.54273 4.22587
v -0.10475 1.54289 4.22534
v -0.10499 1.54262 4.22576
v -0.10475 1.54262 4.2252
v -0.10499 1.54248 4.22567
v -0.10475 1.54231 4.22514
v -0.10499 1.54231 4.22565
v -0.10475 1.54198 4.2252
v -0.10499 1.54212 4.22567
v -0.10475 1.5417 4.22534
v -0.10499 1.54198 4.22576
v -0.10474 1.54146 4.22559
v -0.10498 1.54187 4.22587
v -0.10473 1.54132 4.22586
v -0.10498 1.54179 4.22601
v -0.10498 1.54176 4.2262
v -0.10497 1.54179 4.22636
v -0.10472 1.54132 4.2265
v -0.10471 1.54146 4.22677
v -0.10497 1.54187 4.2265
v -0.10471 1.5417 4.22702
v -0.10497 1.54198 4.22661
v -0.10497 1.54212 4.2267
v -0.10471 1.54198 4.22716
v -0.10431 1.54187 4.22751
v -0.10432 1.54146 4.22732
v -0.10432 1.54115 4.22701
v -0.10433 1.54096 4.2266
v -0.10473 1.54126 4.22619
v -0.10434 1.54088 4.22619
v -0.10435 1.54096 4.22574
v -0.10436 1.54115 4.22533
v -0.10436 1.54146 4.22503
v -0.10437 1.54187 4.22483
v -0.10437 1.54231 4.22475
v -0.10437 1.54273 4.22483
v -0.10437 1.54314 4.22503
v -0.10436 1.54344 4.22533
v -0.10435 1.54364 4.22574
v -0.10473 1.54333 4.22619
v -0.10497 1.54281 4.22636
v -0.10497 1.54273 4.2265
v -0.10472 1.54328 4.2265
v -0.10434 1.54372 4.22619
v -0.10433 1.54364 4.2266
v -0.10472 1.54314 4.22677
v -0.10497 1.54262 4.22661
v -0.10497 1.54248 4.2267
v -0.10497 1.54231 4.22672
v -0.10471 1.54231 4.22722
v -0.10431 1.54231 4.22759
v -0.10381 1.54231 4.22783
v -0.10381 1.54179 4.22775
v -0.10382 1.54132 4.2275
v -0.10382 1.54096 4.22714
v -0.10383 1.54071 4.22667
v -0.10384 1.54063 4.22617
v -0.10385 1.54071 4.22565
v -0.10386 1.54096 4.22518
v -0.10387 1.54132 4.22482
v -0.10388 1.54179 4.22457
v -0.10388 1.54231 4.22449
v -0.10388 1.54281 4.22457
v -0.10387 1.54328 4.22482
v -0.10387 1.54364 4.22518
v -0.10386 1.54389 4.22565
v -0.10385 1.54397 4.22617
v -0.10332 1.54397 4.22561
v -0.10333 1.54372 4.22511
v -0.10334 1.54334 4.22473
v -0.10334 1.54284 4.22448
v -0.10334 1.54231 4.2244
v -0.10334 1.54176 4.22448
v -0.10333 1.54126 4.22473
v -0.10333 1.54088 4.22511
v -0.10331 1.54063 4.22561
v -0.1033 1.54055 4.22616
v -0.10329 1.54063 4.22669
v -0.10328 1.54088 4.22719
v -0.10327 1.54126 4.22757
v -0.10327 1.54176 4.22782
v -0.10327 1.54231 4.2279
v -0.10327 1.54284 4.22782
v -0.10381 1.54281 4.22775
v -0.10328 1.54334 4.22757
v -0.10382 1.54328 4.2275
v -0.10329 1.54372 4.22719
v -0.10431 1.54273 4.22751
v -0.10471 1.54262 4.22716
v -0.10471 1.54289 4.22702
v -0.10433 1.54344 4.22701
v -0.10432 1.54314 4.22732
v -0.10383 1.54364 4.22714
v -0.10384 1.54389 4.22667
v -0.10331 1.54405 4.22616
v -0.1033 1.54397 4.22669
v -0.10331 1.54405 4.22616
v -0.10331 1.54231 4.22616
v -0.10332 1.54397 4.22561
v -0.10333 1.54372 4.22511
v -0.10334 1.54334 4.22473
v -0.10334 1.54284 4.22448
v -0.10334 1.54231 4.2244
v -0.10334 1.54176 4.22448
v -0.10333 1.54126 4.22473
v -0.10333 1.54088 4.22511
v -0.1033 1.54397 4.22669
v -0.10329 1.54372 4.22719
v -0.10328 1.54334 4.22757
v -0.10327 1.54284 4.22782
v -0.10327 1.54231 4.2279
v -0.10327 1.54176 4.22782
v -0.10327 1.54126 4.22757
v -0.10328 1.54088 4.22719
v -0.10329 1.54063 4.22669
v -0.1033 1.54055 4.22616
v -0.10331 1.54063 4.22561
v -0.10331 1.54405 4.22616
v -0.10332 1.54397 4.22561
v -0.10333 1.54372 4.22511
v -0.10334 1.54334 4.22473
v -0.10334 1.54284 4.22448
v -0.10334 1.54231 4.2244
v -0.10334 1.54176 4.22448
v -0.10333 1.54126 4.22473
v -0.10333 1.54088 4.22511
v -0.10331 1.54063 4.22561
v -0.1033 1.54055 4.22616
v -0.10329 1.54063 4.22669
v -0.10328 1.54088 4.22719
v -0.10327 1.54126 4.22757
v -0.10327 1.54176 4.22782
v -0.10327 1.54231 4.2279
v -0.10327 1.54284 4.22782
v -0.10328 1.54334 4.22757
v -0.10329 1.54372 4.22719
v -0.1033 1.54397 4.22669
vn -58.96 -0.082 1.233
vn -55.846 18.903 1.279
vn -55.972 17.933 -4.823
vn -47.488 33.49 -10.053
vn -47.687 28.422 -19.898
vn -56.076 15.317 -9.933
vn -47.839 20.555 -27.69
vn -56.161 10.935 -14.289
vn -47.929 10.66 -32.664
vn -56.208 5.809 -16.874
vn -47.949 -0.288 -34.331
vn -56.219 -0.3 -17.809
vn -47.899 -10.792 -32.665
vn -56.191 -5.965 -16.874
vn -47.781 -20.686 -27.691
vn -56.13 -11.091 -14.289
vn -47.607 -28.554 -19.899
vn -56.033 -15.473 -9.934
vn -47.394 -33.622 -10.055
vn -55.922 -18.089 -4.824
vn -55.793 -19.059 1.278
vn -55.676 -18.158 6.947
vn -46.937 -33.691 11.816
vn -46.737 -28.685 21.693
vn -55.565 -15.343 12.447
vn -46.584 -20.866 29.535
vn -55.486 -11.271 16.494
vn -55.435 -5.753 19.277
vn -46.492 -11.004 34.571
vn -33.198 -14.919 46.401
vn -33.323 -28.33 39.557
vn -33.531 -38.965 28.9
vn -33.802 -45.779 15.476
vn -47.163 -35.393 0.875
vn -34.11 -48.103 0.602
vn -34.424 -45.71 -14.26
vn -34.714 -38.834 -27.652
vn -34.951 -28.15 -38.26
vn -35.111 -14.707 -45.041
vn -35.179 -0.27 -47.33
vn -35.152 14.612 -45.04
vn -35.029 28.055 -38.258
vn -34.822 38.739 -27.65
vn -34.551 45.615 -14.257
vn -47.262 35.261 0.877
vn -55.726 18.002 6.948
vn -55.607 15.187 12.448
vn -47.031 33.559 11.818
vn -34.244 48.008 0.605
vn -33.93 45.683 15.478
vn -46.817 28.553 21.694
vn -55.517 11.115 16.495
vn -55.451 5.598 19.277
vn -55.425 -0.078 20.145
vn -46.471 -0.066 36.307
vn -33.17 -0.048 48.76
vn -16.701 -0.025 56.558
vn -16.735 -17.539 53.76
vn -16.878 -32.948 45.906
vn -17.122 -45.502 33.379
vn -17.442 -53.526 17.565
vn -17.795 -56.222 0.484
vn -18.166 -53.457 -17.032
vn -18.507 -45.371 -32.814
vn -18.78 -33.129 -45.029
vn -18.97 -17.327 -53.082
vn -19.051 -0.248 -55.81
vn -19.018 17.277 -53.081
vn -18.872 33.079 -45.027
vn -18.634 45.321 -32.811
vn -18.315 53.407 -17.029
vn -17.952 56.172 0.487
vn -7.152 46.275 35.85
vn -9.352 50.812 28.433
vn -14.039 53.095 21.486
vn -25.756 50.776 15.367
vn -56.767 -0.08 15.976
vn -25.614 -50.849 15.364
vn -13.891 -53.135 21.483
vn -9.21 -50.84 28.43
vn -7.023 -46.297 35.847
vn -5.617 -40.696 42.309
vn -4.48 -33.831 48.096
vn -3.881 -26.216 52.683
vn -3.565 -17.959 56.058
vn -3.276 -8.875 58.209
vn -3.274 -0.006 58.882
vn -3.301 8.862 58.209
vn -16.784 17.489 53.761
vn -3.615 17.946 56.059
vn -16.97 32.898 45.907
vn -3.954 26.202 52.684
vn -33.24 14.823 46.402
vn -46.523 10.872 34.571
vn -46.642 20.735 29.536
vn -33.639 38.869 28.902
vn -33.402 28.235 39.559
vn -17.249 45.452 33.382
vn -17.591 53.476 17.568
vn -5.73 40.678 42.311
vn -4.574 33.815 48.098
vn 58.96 0.082 -1.233
vn 58.96 0.082 -1.233
vn 58.96 0.082 -1.233
vn 58.96 0.082 -1.233
vn 58.96 0.082 -1.233
vn 58.96 0.082 -1.233
vn 58.96 0.082 -1.233
vn 58.96 0.082 -1.233
vn 58.96 0.082 -1.233
vn 58.96 0.082 -1.233
vn 58.96 0.082 -1.233
vn 58.96 0.082 -1.233
vn 58.96 0.082 -1.233
vn 58.96 0.082 -1.233
vn 58.96 0.082 -1.233
vn 58.96 0.082 -1.233
vn 58.96 0.082 -1.233
vn 58.96 0.082 -1.233
vn 58.96 0.082 -1.233
vn 58.96 0.082 -1.233
vn 58.96 0.082 -1.233
vn 1.104 0 58.962
vn 1.104 0 58.962
vn 1.104 0 58.962
vn 1.104 0 58.962
vn 1.104 0 58.962
vn 1.104 0 58.962
vn 1.104 0 58.962
vn 1.104 0 58.962
vn 1.104 0 58.962
vn 1.104 0 58.962
vn 1.104 0 58.962
vn 1.104 0 58.962
vn 1.104 0 58.962
vn 1.104 0 58.962
vn 1.104 0 58.962
vn 1.104 0 58.962
vn 1.104 0 58.962
vn 1.104 0 58.962
vn 1.104 0 58.962
vn 1.104 0 58.962
vn -58.96 -0.082 1.233
vn -55.846 18.903 1.279
vn -55.972 17.933 -4.823
vn -47.488 33.49 -10.053
vn -47.687 28.422 -19.898
vn -56.076 15.317 -9.933
vn -47.839 20.555 -27.69
vn -56.161 10.935 -14.289
vn -47.929 10.66 -32.664
vn -56.208 5.809 -16.874
vn -47.949 -0.288 -34.331
vn -56.219 -0.3 -17.809
vn -47.899 -10.792 -32.665
vn -56.191 -5.965 -16.874
vn -47.781 -20.686 -27.691
vn -56.13 -11.091 -14.289
vn -47.607 -28.554 -19.899
vn -56.033 -15.473 -9.934
vn -47.394 -33.622 -10.055
vn -55.922 -18.089 -4.824
vn -55.793 -19.059 1.278
vn -55.676 -18.158 6.947
vn -46.937 -33.691 11.816
vn -46.737 -28.685 21.693
vn -55.565 -15.343 12.447
vn -46.584 -20.866 29.535
vn -55.486 -11.271 16.494
vn -55.435 -5.753 19.277
vn -46.492 -11.004 34.571
vn -33.198 -14.919 46.401
vn -33.323 -28.33 39.557
vn -33.531 -38.965 28.9
vn -33.802 -45.779 15.476
vn -47.163 -35.393 0.875
vn -34.11 -48.103 0.602
vn -34.424 -45.71 -14.26
vn -34.714 -38.834 -27.652
vn -34.951 -28.15 -38.26
vn -35.111 -14.707 -45.041
vn -35.179 -0.27 -47.33
vn -35.152 14.612 -45.04
vn -35.029 28.055 -38.258
vn -34.822 38.739 -27.65
vn -34.551 45.615 -14.257
vn -47.262 35.261 0.877
vn -55.726 18.002 6.948
vn -55.607 15.187 12.448
vn -47.031 33.559 11.818
vn -34.244 48.008 0.605
vn -33.93 45.683 15.478
vn -46.817 28.553 21.694
vn -55.517 11.115 16.495
vn -55.451 5.598 19.277
vn -55.425 -0.078 20.145
vn -46.471 -0.066 36.307
vn -33.17 -0.048 48.76
vn -16.701 -0.025 56.558
vn -16.735 -17.539 53.76
vn -16.878 -32.948 45.906
vn -17.122 -45.502 33.379
vn -17.442 -53.526 17.565
vn -17.795 -56.222 0.484
vn -18.166 -53.457 -17.032
vn -18.507 -45.371 -32.814
vn -18.78 -33.129 -45.029
vn -18.97 -17.327 -53.082
vn -19.051 -0.248 -55.81
vn -19.018 17.277 -53.081
vn -18.872 33.079 -45.027
vn -18.634 45.321 -32.811
vn -18.315 53.407 -17.029
vn -17.952 56.172 0.487
vn -7.152 46.275 35.85
vn -9.352 50.812 28.433
vn -14.039 53.095 21.486
vn -25.756 50.776 15.367
vn -56.767 -0.08 15.976
vn -25.614 -50.849 15.364
vn -13.891 -53.135 21.483
vn -9.21 -50.84 28.43
vn -7.023 -46.297 35.847
vn -5.617 -40.696 42.309
vn -4.48 -33.831 48.096
vn -3.881 -26.216 52.683
vn -3.565 -17.959 56.058
vn -3.276 -8.875 58.209
vn -3.274 -0.006 58.882
vn -3.301 8.862 58.209
vn -16.784 17.489 53.761
vn -3.615 17.946 56.059
vn -16.97 32.898 45.907
vn -3.954 26.202 52.684
vn -33.24 14.823 46.402
vn -46.523 10.872 34.571
vn -46.642 20.735 29.536
vn -33.639 38.869 28.902
vn -33.402 28.235 39.559
vn -17.249 45.452 33.382
vn -17.591 53.476 17.568
vn -5.73 40.678 42.311
vn -4.574 33.815 48.098
vn 58.96 0.082 -1.233
vn 58.96 0.082 -1.233
vn 58.96 0.082 -1.233
vn 58.96 0.082 -1.233
vn 58.96 0.082 -1.233
vn 58.96 0.082 -1.233
vn 58.96 0.082 -1.233
vn 58.96 0.082 -1.233
vn 58.96 0.082 -1.233
vn 58.96 0.082 -1.233
vn 58.96 0.082 -1.233
vn 58.96 0.082 -1.233
vn 58.96 0.082 -1.233
vn 58.96 0.082 -1.233
vn 58.96 0.082 -1.233
vn 58.96 0.082 -1.233
vn 58.96 0.082 -1.233
vn 58.96 0.082 -1.233
vn 58.96 0.082 -1.233
vn 58.96 0.082 -1.233
vn 58.96 0.082 -1.233
vn 1.104 0 58.962
vn 1.104 0 58.962
vn 1.104 0 58.962
vn 1.104 0 58.962
vn 1.104 0 58.962
vn 1.104 0 58.962
vn 1.104 0 58.962
vn 1.104 0 58.962
vn 1.104 0 58.962
vn 1.104 0 58.962
vn 1.104 0 58.962
vn 1.104 0 58.962
vn 1.104 0 58.962
vn 1.104 0 58.962
vn 1.104 0 58.962
vn 1.104 0 58.962
vn 1.104 0 58.962
vn 1.104 0 58.962
vn 1.104 0 58.962
vn 1.104 0 58.962
f 1//1 2//2 3//3
f 2//2 4//4 3//3
f 4//4 5//5 3//3
f 3//3 5//5 6//6
f 5//5 7//7 6//6
f 6//6 7//7 8//8
f 7//7 9//9 8//8
f 8//8 9//9 10//10
f 9//9 11//11 10//10
f 10//10 11//11 12//12
f 11//11 13//13 12//12
f 12//12 13//13 14//14
f 13//13 15//15 14//14
f 14//14 15//15 16//16
f 15//15 17//17 16//16
f 17//17 18//18 16//16
f 18//18 1//1 16//16
f 16//16 1//1 14//14
f 14//14 1//1 12//12
f 12//12 1//1 10//10
f 10//10 1//1 8//8
f 8//8 1//1 6//6
f 1//1 3//3 6//6
f 17//17 19//19 18//18
f 19//19 20//20 18//18
f 18//18 20//20 1//1
f 20//20 21//21 1//1
f 1//1 21//21 22//22
f 21//21 23//23 22//22
f 23//23 24//24 22//22
f 22//22 24//24 25//25
f 24//24 26//26 25//25
f 26//26 27//27 25//25
f 25//25 27//27 1//1
f 1//1 27//27 28//28
f 28//28 27//27 29//29
f 27//27 26//26 29//29
f 29//29 26//26 30//30
f 30//30 26//26 31//31
f 26//26 24//24 31//31
f 31//31 24//24 32//32
f 24//24 23//23 32//32
f 32//32 23//23 33//33
f 23//23 34//34 33//33
f 33//33 34//34 35//35
f 34//34 19//19 35//35
f 35//35 19//19 36//36
f 19//19 17//17 36//36
f 36//36 17//17 37//37
f 17//17 15//15 37//37
f 37//37 15//15 38//38
f 15//15 13//13 38//38
f 38//38 13//13 39//39
f 13//13 11//11 39//39
f 39//39 11//11 40//40
f 11//11 9//9 40//40
f 40//40 9//9 41//41
f 9//9 7//7 41//41
f 41//41 7//7 42//42
f 7//7 5//5 42//42
f 42//42 5//5 43//43
f 5//5 4//4 43//43
f 43//43 4//4 44//44
f 44//44 4//4 45//45
f 4//4 2//2 45//45
f 45//45 2//2 46//46
f 2//2 1//1 46//46
f 1//1 47//47 46//46
f 47//47 48//48 46//46
f 46//46 48//48 45//45
f 48//48 49//49 45//45
f 45//45 49//49 44//44
f 19//19 34//34 20//20
f 20//20 34//34 21//21
f 34//34 23//23 21//21
f 1//1 22//22 25//25
f 49//49 48//48 50//50
f 50//50 48//48 51//51
f 48//48 47//47 51//51
f 51//51 47//47 52//52
f 47//47 1//1 52//52
f 52//52 1//1 53//53
f 53//53 1//1 54//54
f 1//1 28//28 54//54
f 54//54 28//28 55//55
f 28//28 29//29 55//55
f 55//55 29//29 56//56
f 29//29 30//30 56//56
f 56//56 30//30 57//57
f 57//57 30//30 58//58
f 30//30 31//31 58//58
f 58//58 31//31 59//59
f 31//31 32//32 59//59
f 59//59 32//32 60//60
f 32//32 33//33 60//60
f 60//60 33//33 61//61
f 33//33 35//35 61//61
f 61//61 35//35 62//62
f 35//35 36//36 62//62
f 62//62 36//36 63//63
f 36//36 37//37 63//63
f 63//63 37//37 64//64
f 37//37 38//38 64//64
f 64//64 38//38 65//65
f 38//38 39//39 65//65
f 65//65 39//39 66//66
f 39//39 40//40 66//66
f 66//66 40//40 67//67
f 40//40 41//41 67//67
f 67//67 41//41 68//68
f 41//41 42//42 68//68
f 68//68 42//42 69//69
f 42//42 43//43 69//69
f 69//69 43//43 70//70
f 43//43 44//44 70//70
f 70//70 44//44 71//71
f 44//44 49//49 71//71
f 71//71 49//49 72//72
f 49//49 50//50 72//72
f 72//72 73//73 71//71
f 73//73 74//74 71//71
f 71//71 74//74 70//70
f 74//74 75//75 70//70
f 70//70 75//75 69//69
f 75//75 76//76 69//69
f 69//69 76//76 68//68
f 76//76 77//77 68//68
f 68//68 77//77 67//67
f 77//77 78//78 67//67
f 67//67 78//78 66//66
f 78//78 79//79 66//66
f 66//66 79//79 65//65
f 79//79 80//80 65//65
f 65//65 80//80 64//64
f 80//80 81//81 64//64
f 64//64 81//81 63//63
f 81//81 82//82 63//63
f 63//63 82//82 62//62
f 82//82 83//83 62//62
f 62//62 83//83 61//61
f 83//83 84//84 61//61
f 61//61 84//84 60//60
f 84//84 85//85 60//60
f 60//60 85//85 59//59
f 85//85 86//86 59//59
f 59//59 86//86 58//58
f 86//86 87//87 58//58
f 58//58 87//87 57//57
f 87//87 88//88 57//57
f 57//57 88//88 89//89
f 88//88 90//90 89//89
f 89//89 90//90 91//91
f 90//90 92//92 91//91
f 57//57 89//89 56//56
f 89//89 93//93 56//56
f 56//56 93//93 55//55
f 93//93 94//94 55//55
f 55//55 94//94 54//54
f 54//54 94//94 53//53
f 94//94 95//95 53//53
f 53//53 95//95 52//52
f 52//52 95//95 51//51
f 95//95 96//96 51//51
f 51//51 96//96 50//50
f 89//89 91//91 93//93
f 93//93 91//91 97//97
f 91//91 98//98 97//97
f 97//97 98//98 96//96
f 98//98 99//99 96//96
f 96//96 99//99 50//50
f 50//50 99//99 72//72
f 72//72 99//99 100//100
f 100//100 99//99 101//101
f 99//99 98//98 101//101
f 101//101 98//98 92//92
f 98//98 91//91 92//92
f 96//96 95//95 97//97
f 95//95 94//94 97//97
f 97//97 94//94 93//93
f 72//72 100//100 73//73
f 102//102 103//103 104//104
f 104//104 103//103 105//105
f 105//105 103//103 106//106
f 106//106 103//103 107//107
f 107//107 103//103 108//108
f 108//108 103//103 109//109
f 109//109 103//103 110//110
f 103//103 111//111 110//110
f 102//102 112//112 103//103
f 112//112 113//113 103//103
f 113//113 114//114 103//103
f 114//114 115//115 103//103
f 115//115 116//116 103//103
f 116//116 117//117 103//103
f 117//117 118//118 103//103
f 118//118 119//119 103//103
f 119//119 120//120 103//103
f 120//120 121//121 103//103
f 121//121 122//122 103//103
f 103//103 122//122 111//111
f 143//143 144//144 145//145
f 144//144 146//146 145//145
f 146//146 147//147 145//145
f 145//145 147//147 148//148
f 147//147 149//149 148//148
f 148//148 149//149 150//150
f 149//149 151//151 150//150
f 150//150 151//151 152//152
f 151//151 153//153 152//152
f 152//152 153//153 154//154
f 153//153 155//155 154//154
f 154//154 155//155 156//156
f 155//155 157//157 156//156
f 156//156 157//157 158//158
f 157//157 159//159 158//158
f 159//159 160//160 158//158
f 160//160 143//143 158//158
f 158//158 143//143 156//156
f 156//156 143//143 154//154
f 154//154 143//143 152//152
f 152//152 143//143 150//150
f 150//150 143//143 148//148
f 143//143 145//145 148//148
f 159//159 161//161 160//160
f 161//161 162//162 160//160
f 160//160 162//162 143//143
f 162//162 163//163 143//143
f 143//143 163//163 164//164
f 163//163 165//165 164//164
f 165//165 166//166 164//164
f 164//164 166//166 167//167
f 166//166 168//168 167//167
f 168//168 169//169 167//167
f 167//167 169//169 143//143
f 143//143 169//169 170//170
f 170//170 169//169 171//171
f 169//169 168//168 171//171
f 171//171 168//168 172//172
f 172//172 168//168 173//173
f 168//168 166//166 173//173
f 173//173 166//166 174//174
f 166//166 165//165 174//174
f 174//174 165//165 175//175
f 165//165 176//176 175//175
f 175//175 176//176 177//177
f 176//176 161//161 177//177
f 177//177 161//161 178//178
f 161//161 159//159 178//178
f 178//178 159//159 179//179
f 159//159 157//157 179//179
f 179//179 157//157 180//180
f 157//157 155//155 180//180
f 180//180 155//155 181//181
f 155//155 153//153 181//181
f 181//181 153//153 182//182
f 153//153 151//151 182//182
f 182//182 151//151 183//183
f 151//151 149//149 183//183
f 183//183 149//149 184//184
f 149//149 147//147 184//184
f 184//184 147//147 185//185
f 147//147 146//146 185//185
f 185//185 146//146 186//186
f 186//186 146//146 187//187
f 146//146 144//144 187//187
f 187//187 144//144 188//188
f 144//144 143//143 188//188
f 143//143 189//189 188//188
f 189//189 190//190 188//188
f 188//188 190//190 187//187
f 190//190 191//191 187//187
f 187//187 191//191 186//186
f 161//161 176//176 162//162
f 162//162 176//176 163//163
f 176//176 165//165 163//163
f 143//143 164//164 167//167
f 191//191 190//190 192//192
f 192//192 190//190 193//193
f 190//190 189//189 193//193
f 193//193 189//189 194//194
f 189//189 143//143 194//194
f 194//194 143//143 195//195
f 195//195 143//143 196//196
f 143//143 170//170 196//196
f 196//196 170//170 197//197
f 170//170 171//171 197//197
f 197//197 171//171 198//198
f 171//171 172//172 198//198
f 198//198 172//172 199//199
f 199//199 172//172 200//200
f 172//172 173//173 200//200
f 200//200 173//173 201//201
f 173//173 174//174 201//201
f 201//201 174//174 202//202
f 174//174 175//175 202//202
f 202//202 175//175 203//203
f 175//175 177//177 203//203
f 203//203 177//177 204//204
f 177//177 178//178 204//204
f 204//204 178//178 205//205
f 178//178 179//179 205//205
f 205//205 179//179 206//206
f 179//179 180//180 206//206
f 206//206 180//180 207//207
f 180//180 181//181 207//207
f 207//207 181//181 208//208
f 181//181 182//182 208//208
f 208//208 182//182 209//209
f 182//182 183//183 209//209
f 209//209 183//183 210//210
f 183//183 184//184 210//210
f 210//210 184//184 211//211
f 184//184 185//185 211//211
f 211//211 185//185 212//212
f 185//185 186//186 212//212
f 212//212 186//186 213//213
f 186//186 191//191 213//213
f 213//213 191//191 214//214
f 191//191 192//192 214//214
f 214//214 215//215 213//213
f 215//215 216//216 213//213
f 213//213 216//216 212//212
f 216//216 217//217 212//212
f 212//212 217//217 211//211
f 217//217 218//218 211//211
f 211//211 218//218 210//210
f 218//218 219//219 210//210
f 210//210 219//219 209//209
f 219//219 220//220 209//209
f 209//209 220//220 208//208
f 220//220 221//221 208//208
f 208//208 221//221 207//207
f 221//221 222//222 207//207
f 207//207 222//222 206//206
f 222//222 223//223 206//206
f 206//206 223//223 205//205
f 223//223 224//224 205//205
f 205//205 224//224 204//204
f 224//224 225//225 204//204
f 204//204 225//225 203//203
f 225//225 226//226 203//203
f 203//203 226//226 202//202
f 226//226 227//227 202//202
f 202//202 227//227 201//201
f 227//227 228//228 201//201
f 201//201 228//228 200//200
f 228//228 229//229 200//200
f 200//200 229//229 199//199
f 229//229 230//230 199//199
f 199//199 230//230 231//231
f 230//230 232//232 231//231
f 231//231 232//232 233//233
f 232//232 234//234 233//233
f 199//199 231//231 198//198
f 231//231 235//235 198//198
f 198//198 235//235 197//197
f 235//235 236//236 197//197
f 197//197 236//236 196//196
f 196//196 236//236 195//195
f 236//236 237//237 195//195
f 195//195 237//237 194//194
f 194//194 237//237 193//193
f 237//237 238//238 193//193
f 193//193 238//238 192//192
f 231//231 233//233 235//235
f 235//235 233//233 239//239
f 233//233 240//240 239//239
f 239//239 240//240 238//238
f 240//240 241//241 238//238
f 238//238 241//241 192//192
f 192//192 241//241 214//214
f 214//214 241//241 242//242
f 242//242 241//241 243//243
f 241//241 240//240 243//243
f 243//243 240//240 234//234
f 240//240 233//233 234//234
f 238//238 237//237 239//239
f 237//237 236//236 239//239
f 239//239 236//236 235//235
f 214//214 242//242 215//215
f 244//244 245//245 246//246
f 246//246 245//245 247//247
f 247//247 245//245 248//248
f 248//248 245//245 249//249
f 249//249 245//245 250//250
f 250//250 245//245 251//251
f 251//251 245//245 252//252
f 245//245 253//253 252//252
f 244//244 254//254 245//245
f 254//254 255//255 245//245
f 255//255 256//256 245//245
f 256//256 257//257 245//245
f 257//257 258//258 245//245
f 258//258 259//259 245//245
f 259//259 260//260 245//245
f 260//260 261//261 245//245
f 261//261 262//262 245//245
f 262//262 263//263 245//245
f 263//263 264//264 245//245
f 245//245 264//264 253//253
