o model_2
v -0.13408 1.31082 3.83103
v -0.13408 1.31082 3.86855
v -0.12946 1.29808 3.83103
v -0.12946 1.29808 3.86855
v -0.12978 1.29793 3.86855
v -0.1344 1.31067 3.86855
v -0.12978 1.29793 3.83103
v -0.1344 1.31067 3.83103
v -0.12946 1.29808 3.86855
v -0.12978 1.29793 3.86855
v -0.12946 1.29808 3.83103
v -0.12978 1.29793 3.83103
v -0.13408 1.31082 3.86855
v -0.1344 1.31067 3.86855
v -0.12946 1.29808 3.86855
v -0.12978 1.29793 3.86855
v -0.13408 1.31082 3.83103
v -0.1344 1.31067 3.83103
v -0.13408 1.31082 3.86855
v -0.1344 1.31067 3.86855
v -0.12946 1.29808 3.83103
v -0.12978 1.29793 3.83103
v -0.13408 1.31082 3.83103
v -0.1344 1.31067 3.83103
vn 0.939 0.343 0
vn 0.939 0.343 0
vn 0.939 0.343 0
vn 0.939 0.343 0
vn -0.939 -0.343 0
vn -0.939 -0.343 0
vn -0.939 -0.343 0
vn -0.939 -0.343 0
vn 0.341 -0.94 -0.004
vn 0.341 -0.94 -0.004
vn 0.341 -0.94 -0.004
vn 0.341 -0.94 -0.004
vn -0.002 -0.001 1
vn -0.002 -0.001 1
vn -0.002 -0.001 1
vn -0.002 -0.001 1
vn -0.341 0.94 0
vn -0.341 0.94 0
vn -0.341 0.94 0
vn -0.341 0.94 0
vn 0.002 0.001 -1
vn 0.002 0.001 -1
vn 0.002 0.001 -1
vn 0.002 0.001 -1
vt 0.1233 0.5129
vt 0.2119 0.5129
vt 0.1233 0.5129
vt 0.2119 0.5129
vt 0.4548 0.7425
vt 0.4548 0.6939
vt 0.2611 0.7425
vt 0.2611 0.6939
vt 0.2119 0.5705
vt 0.2119 0.5705
vt 0.1233 0.5705
vt 0.1233 0.5705
vt 0.1709 0.4685
vt 0.159 0.4685
vt 0.1709 0.5705
vt 0.159 0.5705
vt 0.1233 0.4685
vt 0.1233 0.4685
vt 0.2119 0.4685
vt 0.2119 0.4685
vt 0.1709 0.5705
vt 0.159 0.5705
vt 0.1709 0.4685
vt 0.159 0.4685
f 1/1/1 2/2/2 3/3/3
f 2/2/2 4/4/4 3/3/3
f 5/5/5 6/6/6 7/7/7
f 6/6/6 8/8/8 7/7/7
f 9/9/9 10/10/10 11/11/11
f 10/10/10 12/12/12 11/11/11
f 13/13/13 14/14/14 15/15/15
f 14/14/14 16/16/16 15/15/15
f 17/17/17 18/18/18 19/19/19
f 18/18/18 20/20/20 19/19/19
f 21/21/21 22/22/22 23/23/23
f 22/22/22 24/24/24 23/23/23
