mtllib model_9.mtl
usemtl material_9
o model_9
v -0.10267225652933121 1.5460103750228882 4.163851261138916 
v -0.10267225652933121 1.536171555519104 4.163851261138916 
v -0.10267225652933121 1.5460103750228882 4.201332092285156 
v -0.1026722639799118 1.536171555519104 4.201332092285156 
vn -4.2895073890686035 0.0000018578905383037636 -6.98850840308296e-7 
vn -4.2895073890686035 0.0000018578905383037636 -6.98850840308296e-7 
vn -4.2895073890686035 0.0000018578905383037636 -6.98850840308296e-7 
vn -4.2895073890686035 0.0000018578905383037636 -6.98850840308296e-7 
s on 
f 1//1 2//2 3//3 
f 2//2 4//4 3//3 

