mtllib model_10.mtl
usemtl material_10
o model_10
v -0.10516561567783356 1.5423110723495483 4.221120357513428 
v -0.10508348047733307 1.5428361892700195 4.221118450164795 
v -0.10508748888969421 1.5428085327148438 4.220925331115723 
v -0.10484243184328079 1.5432785749435425 4.2207818031311035 
v -0.10484801232814789 1.5431404113769531 4.220505714416504 
v -0.10509026050567627 1.542725682258606 4.220787048339844 
v -0.10485287010669708 1.5428917407989502 4.220256805419922 
v -0.10509242117404938 1.5426151752471924 4.220676422119141 
v -0.10485537350177765 1.5426154136657715 4.220118999481201 
v -0.10509395599365234 1.542477011680603 4.220593452453613 
v -0.10485610365867615 1.5423115491867065 4.22006368637085 
v -0.1050943061709404 1.542311191558838 4.220566272735596 
v -0.10485448688268661 1.5419800281524658 4.220118999481201 
v -0.10509345680475235 1.5421178340911865 4.220593452453613 
v -0.10485120862722397 1.541703701019287 4.220256805419922 
v -0.10509153455495834 1.5419796705245972 4.220676422119141 
v -0.10484566539525986 1.5414550304412842 4.220505714416504 
v -0.10508906841278076 1.5418691635131836 4.220787048339844 
v -0.10483969748020172 1.5413169860839844 4.2207818031311035 
v -0.1050860583782196 1.5417863130569458 4.220925331115723 
v -0.10508197546005249 1.54175865650177 4.221118450164795 
v -0.1050785481929779 1.5417863130569458 4.22128438949585 
v -0.10482640564441681 1.5413169860839844 4.22141695022583 
v -0.10482081770896912 1.5414550304412842 4.221693515777588 
v -0.10507577657699585 1.5418691635131836 4.22142219543457 
v -0.10481596738100052 1.541703701019287 4.221941947937012 
v -0.10507362335920334 1.5419796705245972 4.221532821655273 
v -0.10507208108901978 1.5421178340911865 4.221615791320801 
v -0.10481346398591995 1.5419800281524658 4.222080230712891 
v -0.10441908985376358 1.5418699979782104 4.222431182861328 
v -0.10442255437374115 1.541455626487732 4.222237586975098 
v -0.1044284850358963 1.5411516427993774 4.221933841705322 
v -0.10443688184022903 1.540958285331726 4.221519470214844 
v -0.10483268648386002 1.5412616729736328 4.221113204956055 
v -0.1044454351067543 1.5408754348754883 4.221105098724365 
v -0.10445479303598404 1.540958285331726 4.220663070678711 
v -0.10446372628211975 1.541151762008667 4.220248699188232 
v -0.10447050631046295 1.541455626487732 4.219944953918457 
v -0.10447512567043304 1.5418699979782104 4.219751834869385 
v -0.10447748005390167 1.5423121452331543 4.219668865203857 
v -0.10447632521390915 1.5427265167236328 4.219751834869385 
v -0.10447286069393158 1.5431408882141113 4.219944953918457 
v -0.10446693003177643 1.5434448719024658 4.220249176025391 
v -0.1044585332274437 1.5436382293701172 4.220663070678711 
v -0.10483557730913162 1.5433337688446045 4.221113204956055 
v -0.10507997870445251 1.5428085327148438 4.22128438949585 
v -0.10507697612047195 1.542725682258606 4.22142219543457 
v -0.10482914000749588 1.5432785749435425 4.22141695022583 
v -0.10444939881563187 1.5437211990356445 4.221105098724365 
v -0.10444062203168869 1.5436382293701172 4.221519470214844 
v -0.10482317209243774 1.5431404113769531 4.221693515777588 
v -0.10507450997829437 1.5426151752471924 4.221532821655273 
v -0.10507258027791977 1.542477011680603 4.221615791320801 
v -0.1050717756152153 1.542311191558838 4.221643447875977 
v -0.10481277108192444 1.5423115491867065 4.222135543823242 
v -0.10441797226667404 1.5423121452331543 4.2225141525268555 
v -0.10391556471586227 1.542312741279602 4.222752094268799 
v -0.10391657054424286 1.54178786277771 4.2226691246032715 
v -0.10392111539840698 1.5413181781768799 4.222420692443848 
v -0.10392812639474869 1.5409590005874634 4.222061634063721 
v -0.10393759608268738 1.5407103300094604 4.221591949462891 
v -0.10394788533449173 1.5406274795532227 4.221094608306885 
v -0.10395897179841995 1.5407103300094604 4.220570087432861 
v -0.10396914184093475 1.5409590005874634 4.220100402832031 
v -0.10397715866565704 1.5413181781768799 4.219741344451904 
v -0.10398301482200623 1.54178786277771 4.2194929122924805 
v -0.10398547351360321 1.542312741279602 4.219409942626953 
v -0.10398443788290024 1.542810082435608 4.2194929122924805 
v -0.10397989302873611 1.543279767036438 4.219741344451904 
v -0.10397288203239441 1.5436389446258545 4.220100402832031 
v -0.10396340489387512 1.5438876152038574 4.220570087432861 
v -0.1039525493979454 1.5439704656600952 4.221095085144043 
v -0.10342546552419662 1.543971300125122 4.220530986785889 
v -0.10343551635742188 1.5437226295471191 4.220034122467041 
v -0.10344306379556656 1.5433357954025269 4.219647407531738 
v -0.1034475713968277 1.542838454246521 4.219398498535156 
v -0.10344857722520828 1.542313575744629 4.219315528869629 
v -0.10344606637954712 1.5417609214782715 4.219398498535156 
v -0.10344017297029495 1.5412636995315552 4.21964693069458 
v -0.10343154519796371 1.540876865386963 4.220033645629883 
v -0.10342080146074295 1.54062819480896 4.220530986785889 
v -0.10340913385152817 1.5405453443527222 4.221083641052246 
v -0.10339827090501785 1.54062819480896 4.2216081619262695 
v -0.103388212621212 1.540876865386963 4.222105503082275 
v -0.10338066518306732 1.5412636995315552 4.222492218017578 
v -0.10337615758180618 1.5417609214782715 4.222740650177002 
v -0.10337519645690918 1.542313575744629 4.222823619842529 
v -0.10337766259908676 1.542838454246521 4.22274112701416 
v -0.10391799360513687 1.542810082435608 4.2226691246032715 
v -0.10338355600833893 1.5433357954025269 4.222492218017578 
v -0.10392384976148605 1.543279767036438 4.222420692443848 
v -0.10339218378067017 1.5437226295471191 4.222105503082275 
v -0.10442028194665909 1.5427265167236328 4.222431182861328 
v -0.10481435060501099 1.5426154136657715 4.222080230712891 
v -0.10481762886047363 1.5428917407989502 4.221941947937012 
v -0.10443168133497238 1.5434448719024658 4.221933841705322 
v -0.10442490130662918 1.5431408882141113 4.222237586975098 
v -0.10393185913562775 1.5436389446258545 4.222061634063721 
v -0.10394202917814255 1.5438876152038574 4.221591949462891 
v -0.10341402888298035 1.5440541505813599 4.221083641052246 
v -0.10340293496847153 1.543971300125122 4.221608638763428 
v -0.10341402888298035 1.5440541505813599 4.221083641052246 
v -0.10341159999370575 1.542313575744629 4.221083641052246 
v -0.10342546552419662 1.543971300125122 4.220530986785889 
v -0.10343551635742188 1.5437226295471191 4.220034122467041 
v -0.10344306379556656 1.5433357954025269 4.219647407531738 
v -0.1034475713968277 1.542838454246521 4.219398498535156 
v -0.10344857722520828 1.542313575744629 4.219315528869629 
v -0.10344606637954712 1.5417609214782715 4.219398498535156 
v -0.10344017297029495 1.5412636995315552 4.21964693069458 
v -0.10343154519796371 1.540876865386963 4.220033645629883 
v -0.10340293496847153 1.543971300125122 4.221608638763428 
v -0.10339218378067017 1.5437226295471191 4.222105503082275 
v -0.10338355600833893 1.5433357954025269 4.222492218017578 
v -0.10337766259908676 1.542838454246521 4.22274112701416 
v -0.10337519645690918 1.542313575744629 4.222823619842529 
v -0.10337615758180618 1.5417609214782715 4.222740650177002 
v -0.10338066518306732 1.5412636995315552 4.222492218017578 
v -0.103388212621212 1.540876865386963 4.222105503082275 
v -0.10339827090501785 1.54062819480896 4.2216081619262695 
v -0.10340913385152817 1.5405453443527222 4.221083641052246 
v -0.10342080146074295 1.54062819480896 4.220530986785889 
v -0.10341402888298035 1.5440541505813599 4.221083641052246 
v -0.10342546552419662 1.543971300125122 4.220530986785889 
v -0.10343551635742188 1.5437226295471191 4.220034122467041 
v -0.10344306379556656 1.5433357954025269 4.219647407531738 
v -0.1034475713968277 1.542838454246521 4.219398498535156 
v -0.10344857722520828 1.542313575744629 4.219315528869629 
v -0.10344606637954712 1.5417609214782715 4.219398498535156 
v -0.10344017297029495 1.5412636995315552 4.21964693069458 
v -0.10343154519796371 1.540876865386963 4.220033645629883 
v -0.10342080146074295 1.54062819480896 4.220530986785889 
v -0.10340913385152817 1.5405453443527222 4.221083641052246 
v -0.10339827090501785 1.54062819480896 4.2216081619262695 
v -0.103388212621212 1.540876865386963 4.222105503082275 
v -0.10338066518306732 1.5412636995315552 4.222492218017578 
v -0.10337615758180618 1.5417609214782715 4.222740650177002 
v -0.10337519645690918 1.542313575744629 4.222823619842529 
v -0.10337766259908676 1.542838454246521 4.22274112701416 
v -0.10338355600833893 1.5433357954025269 4.222492218017578 
v -0.10339218378067017 1.5437226295471191 4.222105503082275 
v -0.10340293496847153 1.543971300125122 4.221608638763428 
v -0.10505961626768112 1.5423110723495483 4.226200103759766 
v -0.10497748106718063 1.5428361892700195 4.226198673248291 
v -0.10498148947954178 1.5428085327148438 4.2260050773620605 
v -0.10473643243312836 1.5432785749435425 4.2258620262146 
v -0.10474201291799545 1.5431404113769531 4.225585460662842 
v -0.10498426109552383 1.542725682258606 4.225866794586182 
v -0.10474687069654465 1.5428917407989502 4.225337028503418 
v -0.10498641431331635 1.5426151752471924 4.225756645202637 
v -0.10474937409162521 1.5426154136657715 4.225198745727539 
v -0.10498795658349991 1.542477011680603 4.225673675537109 
v -0.10475010424852371 1.5423115491867065 4.2251434326171875 
v -0.10498830676078796 1.542311191558838 4.225646018981934 
v -0.10474848747253418 1.5419800281524658 4.225198745727539 
v -0.10498745739459991 1.5421178340911865 4.225673675537109 
v -0.10474520921707153 1.541703701019287 4.225337028503418 
v -0.10498553514480591 1.5419796705245972 4.225756645202637 
v -0.10473966598510742 1.5414550304412842 4.225585460662842 
v -0.10498306900262833 1.5418691635131836 4.225866794586182 
v -0.10473369061946869 1.5413169860839844 4.2258620262146 
v -0.10498005896806717 1.5417863130569458 4.2260050773620605 
v -0.10497597604990005 1.54175865650177 4.226198673248291 
v -0.10497254878282547 1.5417863130569458 4.2263641357421875 
v -0.10472040623426437 1.5413169860839844 4.226497173309326 
v -0.10471481829881668 1.5414550304412842 4.226773262023926 
v -0.10496977716684341 1.5418691635131836 4.226502418518066 
v -0.10470996797084808 1.541703701019287 4.227022171020508 
v -0.1049676239490509 1.5419796705245972 4.2266130447387695 
v -0.10496608167886734 1.5421178340911865 4.226695537567139 
v -0.10470746457576752 1.5419800281524658 4.2271599769592285 
v -0.10431308299303055 1.5418699979782104 4.227510929107666 
v -0.10431655496358871 1.541455626487732 4.227317810058594 
v -0.10432248562574387 1.5411516427993774 4.227014064788818 
v -0.1043308824300766 1.540958285331726 4.22659969329834 
v -0.10472668707370758 1.5412616729736328 4.226193428039551 
v -0.10433942824602127 1.5408754348754883 4.226185321807861 
v -0.1043487936258316 1.540958285331726 4.225743293762207 
v -0.10435772687196732 1.541151762008667 4.2253289222717285 
v -0.10436450690031052 1.541455626487732 4.225025177001953 
v -0.10436912626028061 1.5418699979782104 4.224831581115723 
v -0.10437148064374924 1.5423121452331543 4.224748611450195 
v -0.10437032580375671 1.5427265167236328 4.224831581115723 
v -0.10436686128377914 1.5431408882141113 4.225025177001953 
v -0.1043609231710434 1.5434448719024658 4.2253289222717285 
v -0.10435252636671066 1.5436382293701172 4.225743293762207 
v -0.10472957789897919 1.5433337688446045 4.226193428039551 
v -0.10497397929430008 1.5428085327148438 4.2263641357421875 
v -0.10497096925973892 1.542725682258606 4.226502418518066 
v -0.10472314059734344 1.5432785749435425 4.226497173309326 
v -0.10434339940547943 1.5437211990356445 4.226185321807861 
v -0.10433462262153625 1.5436382293701172 4.22659969329834 
v -0.10471717268228531 1.5431404113769531 4.226773262023926 
v -0.10496851056814194 1.5426151752471924 4.2266130447387695 
v -0.10496658086776733 1.542477011680603 4.226695537567139 
v -0.10496576875448227 1.542311191558838 4.2267231941223145 
v -0.104706771671772 1.5423115491867065 4.22721529006958 
v -0.1043119728565216 1.5423121452331543 4.227593898773193 
v -0.10380956530570984 1.542312741279602 4.227832317352295 
v -0.10381057113409042 1.54178786277771 4.227749347686768 
v -0.10381511598825455 1.5413181781768799 4.2275004386901855 
v -0.10382211953401566 1.5409590005874634 4.227141380310059 
v -0.10383159667253494 1.5407103300094604 4.226672172546387 
v -0.1038418784737587 1.5406274795532227 4.226174831390381 
v -0.10385297238826752 1.5407103300094604 4.225649833679199 
v -0.10386314243078232 1.5409590005874634 4.225180149078369 
v -0.10387115925550461 1.5413181781768799 4.224821090698242 
v -0.1038770079612732 1.54178786277771 4.224572658538818 
v -0.10387947410345078 1.542312741279602 4.224489688873291 
v -0.1038784384727478 1.542810082435608 4.224572658538818 
v -0.10387389361858368 1.543279767036438 4.2248215675354 
v -0.10386688262224197 1.5436389446258545 4.225180625915527 
v -0.10385740548372269 1.5438876152038574 4.225649833679199 
v -0.10384654253721237 1.5439704656600952 4.226174831390381 
v -0.10331946611404419 1.543971300125122 4.225611209869385 
v -0.10332951694726944 1.5437226295471191 4.225113868713379 
v -0.10333706438541412 1.5433357954025269 4.224727153778076 
v -0.10334157198667526 1.542838454246521 4.224478721618652 
v -0.10334257781505585 1.542313575744629 4.224395751953125 
v -0.10334006696939468 1.5417609214782715 4.224478721618652 
v -0.10333417356014252 1.5412636995315552 4.224727153778076 
v -0.10332554578781128 1.540876865386963 4.225113868713379 
v -0.10331480205059052 1.54062819480896 4.225611209869385 
v -0.10330313444137573 1.5405453443527222 4.226163387298584 
v -0.10329227149486542 1.54062819480896 4.226688385009766 
v -0.10328221321105957 1.540876865386963 4.2271857261657715 
v -0.10327466577291489 1.5412636995315552 4.227572441101074 
v -0.10327015817165375 1.5417609214782715 4.227820873260498 
v -0.10326919704675674 1.542313575744629 4.227903842926025 
v -0.10327166318893433 1.542838454246521 4.227820873260498 
v -0.10381199419498444 1.542810082435608 4.227749347686768 
v -0.10327755659818649 1.5433357954025269 4.227572441101074 
v -0.10381785035133362 1.543279767036438 4.227500915527344 
v -0.10328618437051773 1.5437226295471191 4.2271857261657715 
v -0.10431428253650665 1.5427265167236328 4.227510929107666 
v -0.10470835119485855 1.5426154136657715 4.2271599769592285 
v -0.1047116219997406 1.5428917407989502 4.227022171020508 
v -0.10432568192481995 1.5434448719024658 4.227014064788818 
v -0.10431890189647675 1.5431408882141113 4.227317810058594 
v -0.10382585972547531 1.5436389446258545 4.227141857147217 
v -0.10383602976799011 1.5438876152038574 4.226672172546387 
v -0.10330802947282791 1.5440541505813599 4.226163387298584 
v -0.10329693555831909 1.543971300125122 4.226688385009766 
v -0.10330802947282791 1.5440541505813599 4.226163387298584 
v -0.10330560058355331 1.542313575744629 4.226163387298584 
v -0.10331946611404419 1.543971300125122 4.225611209869385 
v -0.10332951694726944 1.5437226295471191 4.225113868713379 
v -0.10333706438541412 1.5433357954025269 4.224727153778076 
v -0.10334157198667526 1.542838454246521 4.224478721618652 
v -0.10334257781505585 1.542313575744629 4.224395751953125 
v -0.10334006696939468 1.5417609214782715 4.224478721618652 
v -0.10333417356014252 1.5412636995315552 4.224727153778076 
v -0.10332554578781128 1.540876865386963 4.225113868713379 
v -0.10329693555831909 1.543971300125122 4.226688385009766 
v -0.10328618437051773 1.5437226295471191 4.2271857261657715 
v -0.10327755659818649 1.5433357954025269 4.227572441101074 
v -0.10327166318893433 1.542838454246521 4.227820873260498 
v -0.10326919704675674 1.542313575744629 4.227903842926025 
v -0.10327015817165375 1.5417609214782715 4.227820873260498 
v -0.10327466577291489 1.5412636995315552 4.227572441101074 
v -0.10328221321105957 1.540876865386963 4.2271857261657715 
v -0.10329227149486542 1.54062819480896 4.226688385009766 
v -0.10330313444137573 1.5405453443527222 4.226163387298584 
v -0.10331480205059052 1.54062819480896 4.225611209869385 
v -0.10330802947282791 1.5440541505813599 4.226163387298584 
v -0.10331946611404419 1.543971300125122 4.225611209869385 
v -0.10332951694726944 1.5437226295471191 4.225113868713379 
v -0.10333706438541412 1.5433357954025269 4.224727153778076 
v -0.10334157198667526 1.542838454246521 4.224478721618652 
v -0.10334257781505585 1.542313575744629 4.224395751953125 
v -0.10334006696939468 1.5417609214782715 4.224478721618652 
v -0.10333417356014252 1.5412636995315552 4.224727153778076 
v -0.10332554578781128 1.540876865386963 4.225113868713379 
v -0.10331480205059052 1.54062819480896 4.225611209869385 
v -0.10330313444137573 1.5405453443527222 4.226163387298584 
v -0.10329227149486542 1.54062819480896 4.226688385009766 
v -0.10328221321105957 1.540876865386963 4.2271857261657715 
v -0.10327466577291489 1.5412636995315552 4.227572441101074 
v -0.10327015817165375 1.5417609214782715 4.227820873260498 
v -0.10326919704675674 1.542313575744629 4.227903842926025 
v -0.10327166318893433 1.542838454246521 4.227820873260498 
v -0.10327755659818649 1.5433357954025269 4.227572441101074 
v -0.10328618437051773 1.5437226295471191 4.2271857261657715 
v -0.10329693555831909 1.543971300125122 4.226688385009766 
vn -58.95965576171875 -0.08229006826877594 1.233223795890808 
vn -55.84620666503906 18.903295516967773 1.2789689302444458 
vn -55.97247314453125 17.93305206298828 -4.822543144226074 
vn -47.4879150390625 33.49049758911133 -10.052595138549805 
vn -47.68675994873047 28.422372817993164 -19.897533416748047 
vn -56.07571029663086 15.31746768951416 -9.932731628417969 
vn -47.838768005371094 20.55452537536621 -27.68996810913086 
vn -56.160701751708984 10.93519401550293 -14.28867244720459 
vn -47.92899703979492 10.660175323486328 -32.66408920288086 
vn -56.20762252807617 5.808785915374756 -16.87395668029785 
vn -47.948585510253906 -0.28829434514045715 -34.331050872802734 
vn -56.21864318847656 -0.2995840013027191 -17.808523178100586 
vn -47.899070739746094 -10.791947364807129 -32.66471862792969 
vn -56.19119644165039 -5.964601993560791 -16.87430191040039 
vn -47.78123474121094 -20.68630027770996 -27.691179275512695 
vn -56.129974365234375 -11.091011047363281 -14.289319038391113 
vn -47.60727310180664 -28.554149627685547 -19.89920425415039 
vn -56.032752990722656 -15.473285675048828 -9.933635711669922 
vn -47.394287109375 -33.622276306152344 -10.054563522338867 
vn -55.922218322753906 -18.088871002197266 -4.823599815368652 
vn -55.793243408203125 -19.05911636352539 1.2778551578521729 
vn -55.675926208496094 -18.157623291015625 6.947028636932373 
vn -46.93673324584961 -33.69114303588867 11.81609058380127 
vn -46.73714065551758 -28.68511199951172 21.692733764648438 
vn -55.564815521240234 -15.342570304870605 12.446927070617676 
vn -46.58403015136719 -20.866487503051758 29.534536361694336 
vn -55.485843658447266 -11.270814895629883 16.494216918945312 
vn -55.43534851074219 -5.75346040725708 19.276657104492188 
vn -46.492454528808594 -11.003654479980469 34.57083511352539 
vn -33.19816589355469 -14.918893814086914 46.40131378173828 
vn -33.322601318359375 -28.33013343811035 39.557308197021484 
vn -33.530670166015625 -38.96479415893555 28.90001678466797 
vn -33.801944732666016 -45.77884292602539 15.47569465637207 
vn -47.163204193115234 -35.392601013183594 0.8752493262290955 
vn -34.109798431396484 -48.10332489013672 0.6022500991821289 
vn -34.424007415771484 -45.71003341674805 -14.260144233703613 
vn -34.713722229003906 -38.833927154541016 -27.65239906311035 
vn -34.95050048828125 -28.15005874633789 -38.25975799560547 
vn -35.1110954284668 -14.707291603088379 -45.040863037109375 
vn -35.17912673950195 -0.27003300189971924 -47.33000564575195 
vn -35.152000427246094 14.61191177368164 -45.040000915527344 
vn -35.028907775878906 28.054677963256836 -38.25811004638672 
vn -34.82194137573242 38.73854064941406 -27.650123596191406 
vn -34.55141067504883 45.61464309692383 -14.257464408874512 
vn -47.26176834106445 35.26081848144531 0.8773223161697388 
vn -55.72637176513672 18.001800537109375 6.948089599609375 
vn -55.60740661621094 15.186744689941406 12.447822570800781 
vn -47.030555725097656 33.559356689453125 11.818063735961914 
vn -34.24388122558594 48.007930755615234 0.6050699949264526 
vn -33.929542541503906 45.68344497680664 15.478378295898438 
vn -46.81698989868164 28.55332374572754 21.694412231445312 
vn -55.51707458496094 11.114988327026367 16.494873046875 
vn -55.4511833190918 5.597632884979248 19.276988983154297 
vn -55.425106048583984 -0.07791393250226974 20.145002365112305 
vn -46.471412658691406 -0.06589693576097488 36.306678771972656 
vn -33.16958236694336 -0.04770510271191597 48.760128021240234 
vn -16.701011657714844 -0.024958806112408638 56.55838394165039 
vn -16.735107421875 -17.538837432861328 53.75965118408203 
vn -16.877880096435547 -32.9483757019043 45.9055061340332 
vn -17.12236785888672 -45.50210952758789 33.378971099853516 
vn -17.44194221496582 -53.525943756103516 17.564855575561523 
vn -17.79545783996582 -56.22152328491211 0.4835483133792877 
vn -18.16567611694336 -53.457393646240234 -17.031953811645508 
vn -18.50705909729004 -45.37095260620117 -32.81368637084961 
vn -18.77964210510254 -33.1285285949707 -45.028873443603516 
vn -18.970134735107422 -17.327138900756836 -53.081809997558594 
vn -19.05103874206543 -0.247572124004364 -55.81013488769531 
vn -19.01841163635254 17.27725601196289 -53.08079528808594 
vn -18.872007369995117 33.078643798828125 -45.02692794799805 
vn -18.633581161499023 45.32106399536133 -32.81102752685547 
vn -18.314762115478516 53.40749740600586 -17.028818130493164 
vn -17.95225715637207 56.17162322998047 0.4868459403514862 
vn -7.152292728424072 46.27549362182617 35.849639892578125 
vn -9.352115631103516 50.812129974365234 28.433042526245117 
vn -14.039039611816406 53.09456253051758 21.485929489135742 
vn -25.75619888305664 50.77641296386719 15.36704158782959 
vn -56.76726150512695 -0.07966404408216476 15.976273536682129 
vn -25.614421844482422 -50.84897994995117 15.364059448242188 
vn -13.890840530395508 -53.134788513183594 21.482812881469727 
vn -9.210302352905273 -50.83969497680664 28.4300594329834 
vn -7.02314567565918 -46.2973747253418 35.846923828125 
vn -5.616800785064697 -40.696014404296875 42.30909729003906 
vn -4.4798665046691895 -33.830528259277344 48.09574508666992 
vn -3.8811607360839844 -26.21558380126953 52.68258285522461 
vn -3.565232515335083 -17.958951950073242 56.05836486816406 
vn -3.2759947776794434 -8.87480354309082 58.208946228027344 
vn -3.274301052093506 -0.006295534782111645 58.88169860839844 
vn -3.300739288330078 8.862213134765625 58.20946502685547 
vn -16.783973693847656 17.488920211791992 53.760677337646484 
vn -3.6153225898742676 17.945646286010742 56.059417724609375 
vn -16.969741821289062 32.898460388183594 45.90743637084961 
vn -3.954287052154541 26.201560974121094 52.684120178222656 
vn -33.23965835571289 14.823484420776367 46.402183532714844 
vn -46.522972106933594 10.871861457824707 34.571475982666016 
vn -46.642066955566406 20.734695434570312 29.535757064819336 
vn -33.63925552368164 38.86939239501953 28.902299880981445 
vn -33.401512145996094 28.234725952148438 39.55896759033203 
vn -17.249256134033203 45.45220184326172 33.38163757324219 
vn -17.591218948364258 53.47603988647461 17.567995071411133 
vn -5.7303242683410645 40.677703857421875 42.311485290527344 
vn -4.574237823486328 33.8150749206543 48.09772872924805 
vn 58.95965576171875 0.08229006826877594 -1.233223795890808 
vn 58.95965576171875 0.08229006826877594 -1.233223795890808 
vn 58.95965576171875 0.08229006826877594 -1.233223795890808 
vn 58.95965576171875 0.08229006826877594 -1.233223795890808 
vn 58.95965576171875 0.08229006826877594 -1.233223795890808 
vn 58.95965576171875 0.08229006826877594 -1.233223795890808 
vn 58.95965576171875 0.08229006826877594 -1.233223795890808 
vn 58.95965576171875 0.08229006826877594 -1.233223795890808 
vn 58.95965576171875 0.08229006826877594 -1.233223795890808 
vn 58.95965576171875 0.08229006826877594 -1.233223795890808 
vn 58.95965576171875 0.08229006826877594 -1.233223795890808 
vn 58.95965576171875 0.08229006826877594 -1.233223795890808 
vn 58.95965576171875 0.08229006826877594 -1.233223795890808 
vn 58.95965576171875 0.08229006826877594 -1.233223795890808 
vn 58.95965576171875 0.08229006826877594 -1.233223795890808 
vn 58.95965576171875 0.08229006826877594 -1.233223795890808 
vn 58.95965576171875 0.08229006826877594 -1.233223795890808 
vn 58.95965576171875 0.08229006826877594 -1.233223795890808 
vn 58.95965576171875 0.08229006826877594 -1.233223795890808 
vn 58.95965576171875 0.08229006826877594 -1.233223795890808 
vn 58.95965576171875 0.08229006826877594 -1.233223795890808 
vn 1.1044108867645264 -0.00018921376613434404 58.96232604980469 
vn 1.1044108867645264 -0.00018921376613434404 58.96232604980469 
vn 1.1044108867645264 -0.00018921376613434404 58.96232604980469 
vn 1.1044108867645264 -0.00018921376613434404 58.96232604980469 
vn 1.1044108867645264 -0.00018921376613434404 58.96232604980469 
vn 1.1044108867645264 -0.00018921376613434404 58.96232604980469 
vn 1.1044108867645264 -0.00018921376613434404 58.96232604980469 
vn 1.1044108867645264 -0.00018921376613434404 58.96232604980469 
vn 1.1044108867645264 -0.00018921376613434404 58.96232604980469 
vn 1.1044108867645264 -0.00018921376613434404 58.96232604980469 
vn 1.1044108867645264 -0.00018921376613434404 58.96232604980469 
vn 1.1044108867645264 -0.00018921376613434404 58.96232604980469 
vn 1.1044108867645264 -0.00018921376613434404 58.96232604980469 
vn 1.1044108867645264 -0.00018921376613434404 58.96232604980469 
vn 1.1044108867645264 -0.00018921376613434404 58.96232604980469 
vn 1.1044108867645264 -0.00018921376613434404 58.96232604980469 
vn 1.1044108867645264 -0.00018921376613434404 58.96232604980469 
vn 1.1044108867645264 -0.00018921376613434404 58.96232604980469 
vn 1.1044108867645264 -0.00018921376613434404 58.96232604980469 
vn 1.1044108867645264 -0.00018921376613434404 58.96232604980469 
vn -58.95965576171875 -0.08229006826877594 1.233223795890808 
vn -55.84620666503906 18.903295516967773 1.2789689302444458 
vn -55.97247314453125 17.93305206298828 -4.822543144226074 
vn -47.4879150390625 33.49049758911133 -10.052595138549805 
vn -47.68675994873047 28.422372817993164 -19.897533416748047 
vn -56.07571029663086 15.31746768951416 -9.932731628417969 
vn -47.838768005371094 20.55452537536621 -27.68996810913086 
vn -56.160701751708984 10.93519401550293 -14.28867244720459 
vn -47.92899703979492 10.660175323486328 -32.66408920288086 
vn -56.20762252807617 5.808785915374756 -16.87395668029785 
vn -47.948585510253906 -0.28829434514045715 -34.331050872802734 
vn -56.21864318847656 -0.2995840013027191 -17.808523178100586 
vn -47.899070739746094 -10.791947364807129 -32.66471862792969 
vn -56.19119644165039 -5.964601993560791 -16.87430191040039 
vn -47.78123474121094 -20.68630027770996 -27.691179275512695 
vn -56.129974365234375 -11.091011047363281 -14.289319038391113 
vn -47.60727310180664 -28.554149627685547 -19.89920425415039 
vn -56.032752990722656 -15.473285675048828 -9.933635711669922 
vn -47.394287109375 -33.622276306152344 -10.054563522338867 
vn -55.922218322753906 -18.088871002197266 -4.823599815368652 
vn -55.793243408203125 -19.05911636352539 1.2778551578521729 
vn -55.675926208496094 -18.157623291015625 6.947028636932373 
vn -46.93673324584961 -33.69114303588867 11.81609058380127 
vn -46.73714065551758 -28.68511199951172 21.692733764648438 
vn -55.564815521240234 -15.342570304870605 12.446927070617676 
vn -46.58403015136719 -20.866487503051758 29.534536361694336 
vn -55.485843658447266 -11.270814895629883 16.494216918945312 
vn -55.43534851074219 -5.75346040725708 19.276657104492188 
vn -46.492454528808594 -11.003654479980469 34.57083511352539 
vn -33.19816589355469 -14.918893814086914 46.40131378173828 
vn -33.322601318359375 -28.33013343811035 39.557308197021484 
vn -33.530670166015625 -38.96479415893555 28.90001678466797 
vn -33.801944732666016 -45.77884292602539 15.47569465637207 
vn -47.163204193115234 -35.392601013183594 0.8752493262290955 
vn -34.109798431396484 -48.10332489013672 0.6022500991821289 
vn -34.424007415771484 -45.71003341674805 -14.260144233703613 
vn -34.713722229003906 -38.833927154541016 -27.65239906311035 
vn -34.95050048828125 -28.15005874633789 -38.25975799560547 
vn -35.1110954284668 -14.707291603088379 -45.040863037109375 
vn -35.17912673950195 -0.27003300189971924 -47.33000564575195 
vn -35.152000427246094 14.61191177368164 -45.040000915527344 
vn -35.028907775878906 28.054677963256836 -38.25811004638672 
vn -34.82194137573242 38.73854064941406 -27.650123596191406 
vn -34.55141067504883 45.61464309692383 -14.257464408874512 
vn -47.26176834106445 35.26081848144531 0.8773223161697388 
vn -55.72637176513672 18.001800537109375 6.948089599609375 
vn -55.60740661621094 15.186744689941406 12.447822570800781 
vn -47.030555725097656 33.559356689453125 11.818063735961914 
vn -34.24388122558594 48.007930755615234 0.6050699949264526 
vn -33.929542541503906 45.68344497680664 15.478378295898438 
vn -46.81698989868164 28.55332374572754 21.694412231445312 
vn -55.51707458496094 11.114988327026367 16.494873046875 
vn -55.4511833190918 5.597632884979248 19.276988983154297 
vn -55.425106048583984 -0.07791393250226974 20.145002365112305 
vn -46.471412658691406 -0.06589693576097488 36.306678771972656 
vn -33.16958236694336 -0.04770510271191597 48.760128021240234 
vn -16.701011657714844 -0.024958806112408638 56.55838394165039 
vn -16.735107421875 -17.538837432861328 53.75965118408203 
vn -16.877880096435547 -32.9483757019043 45.9055061340332 
vn -17.12236785888672 -45.50210952758789 33.378971099853516 
vn -17.44194221496582 -53.525943756103516 17.564855575561523 
vn -17.79545783996582 -56.22152328491211 0.4835483133792877 
vn -18.16567611694336 -53.457393646240234 -17.031953811645508 
vn -18.50705909729004 -45.37095260620117 -32.81368637084961 
vn -18.77964210510254 -33.1285285949707 -45.028873443603516 
vn -18.970134735107422 -17.327138900756836 -53.081809997558594 
vn -19.05103874206543 -0.247572124004364 -55.81013488769531 
vn -19.01841163635254 17.27725601196289 -53.08079528808594 
vn -18.872007369995117 33.078643798828125 -45.02692794799805 
vn -18.633581161499023 45.32106399536133 -32.81102752685547 
vn -18.314762115478516 53.40749740600586 -17.028818130493164 
vn -17.95225715637207 56.17162322998047 0.4868459403514862 
vn -7.152292728424072 46.27549362182617 35.849639892578125 
vn -9.352115631103516 50.812129974365234 28.433042526245117 
vn -14.039039611816406 53.09456253051758 21.485929489135742 
vn -25.75619888305664 50.77641296386719 15.36704158782959 
vn -56.76726150512695 -0.07966404408216476 15.976273536682129 
vn -25.614421844482422 -50.84897994995117 15.364059448242188 
vn -13.890840530395508 -53.134788513183594 21.482812881469727 
vn -9.210302352905273 -50.83969497680664 28.4300594329834 
vn -7.02314567565918 -46.2973747253418 35.846923828125 
vn -5.616800785064697 -40.696014404296875 42.30909729003906 
vn -4.4798665046691895 -33.830528259277344 48.09574508666992 
vn -3.8811607360839844 -26.21558380126953 52.68258285522461 
vn -3.565232515335083 -17.958951950073242 56.05836486816406 
vn -3.2759947776794434 -8.87480354309082 58.208946228027344 
vn -3.274301052093506 -0.006295534782111645 58.88169860839844 
vn -3.300739288330078 8.862213134765625 58.20946502685547 
vn -16.783973693847656 17.488920211791992 53.760677337646484 
vn -3.6153225898742676 17.945646286010742 56.059417724609375 
vn -16.969741821289062 32.898460388183594 45.90743637084961 
vn -3.954287052154541 26.201560974121094 52.684120178222656 
vn -33.23965835571289 14.823484420776367 46.402183532714844 
vn -46.522972106933594 10.871861457824707 34.571475982666016 
vn -46.642066955566406 20.734695434570312 29.535757064819336 
vn -33.63925552368164 38.86939239501953 28.902299880981445 
vn -33.401512145996094 28.234725952148438 39.55896759033203 
vn -17.249256134033203 45.45220184326172 33.38163757324219 
vn -17.591218948364258 53.47603988647461 17.567995071411133 
vn -5.7303242683410645 40.677703857421875 42.311485290527344 
vn -4.574237823486328 33.8150749206543 48.09772872924805 
vn 58.95965576171875 0.08229006826877594 -1.233223795890808 
vn 58.95965576171875 0.08229006826877594 -1.233223795890808 
vn 58.95965576171875 0.08229006826877594 -1.233223795890808 
vn 58.95965576171875 0.08229006826877594 -1.233223795890808 
vn 58.95965576171875 0.08229006826877594 -1.233223795890808 
vn 58.95965576171875 0.08229006826877594 -1.233223795890808 
vn 58.95965576171875 0.08229006826877594 -1.233223795890808 
vn 58.95965576171875 0.08229006826877594 -1.233223795890808 
vn 58.95965576171875 0.08229006826877594 -1.233223795890808 
vn 58.95965576171875 0.08229006826877594 -1.233223795890808 
vn 58.95965576171875 0.08229006826877594 -1.233223795890808 
vn 58.95965576171875 0.08229006826877594 -1.233223795890808 
vn 58.95965576171875 0.08229006826877594 -1.233223795890808 
vn 58.95965576171875 0.08229006826877594 -1.233223795890808 
vn 58.95965576171875 0.08229006826877594 -1.233223795890808 
vn 58.95965576171875 0.08229006826877594 -1.233223795890808 
vn 58.95965576171875 0.08229006826877594 -1.233223795890808 
vn 58.95965576171875 0.08229006826877594 -1.233223795890808 
vn 58.95965576171875 0.08229006826877594 -1.233223795890808 
vn 58.95965576171875 0.08229006826877594 -1.233223795890808 
vn 58.95965576171875 0.08229006826877594 -1.233223795890808 
vn 1.1044108867645264 -0.00018921376613434404 58.96232604980469 
vn 1.1044108867645264 -0.00018921376613434404 58.96232604980469 
vn 1.1044108867645264 -0.00018921376613434404 58.96232604980469 
vn 1.1044108867645264 -0.00018921376613434404 58.96232604980469 
vn 1.1044108867645264 -0.00018921376613434404 58.96232604980469 
vn 1.1044108867645264 -0.00018921376613434404 58.96232604980469 
vn 1.1044108867645264 -0.00018921376613434404 58.96232604980469 
vn 1.1044108867645264 -0.00018921376613434404 58.96232604980469 
vn 1.1044108867645264 -0.00018921376613434404 58.96232604980469 
vn 1.1044108867645264 -0.00018921376613434404 58.96232604980469 
vn 1.1044108867645264 -0.00018921376613434404 58.96232604980469 
vn 1.1044108867645264 -0.00018921376613434404 58.96232604980469 
vn 1.1044108867645264 -0.00018921376613434404 58.96232604980469 
vn 1.1044108867645264 -0.00018921376613434404 58.96232604980469 
vn 1.1044108867645264 -0.00018921376613434404 58.96232604980469 
vn 1.1044108867645264 -0.00018921376613434404 58.96232604980469 
vn 1.1044108867645264 -0.00018921376613434404 58.96232604980469 
vn 1.1044108867645264 -0.00018921376613434404 58.96232604980469 
vn 1.1044108867645264 -0.00018921376613434404 58.96232604980469 
vn 1.1044108867645264 -0.00018921376613434404 58.96232604980469 
s on 
f 1//1 2//2 3//3 
f 2//2 4//4 3//3 
f 3//3 4//4 3//3 
f 4//4 5//5 3//3 
f 3//3 5//5 6//6 
f 5//5 7//7 6//6 
f 6//6 7//7 8//8 
f 7//7 9//9 8//8 
f 8//8 9//9 10//10 
f 9//9 11//11 10//10 
f 10//10 11//11 12//12 
f 11//11 13//13 12//12 
f 12//12 13//13 14//14 
f 13//13 15//15 14//14 
f 14//14 15//15 16//16 
f 15//15 17//17 16//16 
f 16//16 17//17 16//16 
f 17//17 18//18 16//16 
f 16//16 18//18 16//16 
f 18//18 1//1 16//16 
f 16//16 1//1 14//14 
f 1//1 1//1 14//14 
f 14//14 1//1 12//12 
f 1//1 1//1 12//12 
f 12//12 1//1 10//10 
f 1//1 1//1 10//10 
f 10//10 1//1 8//8 
f 1//1 1//1 8//8 
f 8//8 1//1 6//6 
f 1//1 3//3 6//6 
f 6//6 3//3 3//3 
f 3//3 17//17 3//3 
f 3//3 17//17 17//17 
f 17//17 19//19 17//17 
f 17//17 19//19 18//18 
f 19//19 20//20 18//18 
f 18//18 20//20 1//1 
f 20//20 21//21 1//1 
f 1//1 21//21 22//22 
f 21//21 23//23 22//22 
f 22//22 23//23 22//22 
f 23//23 24//24 22//22 
f 22//22 24//24 25//25 
f 24//24 26//26 25//25 
f 25//25 26//26 25//25 
f 26//26 27//27 25//25 
f 25//25 27//27 1//1 
f 27//27 27//27 1//1 
f 1//1 27//27 28//28 
f 27//27 27//27 28//28 
f 28//28 27//27 29//29 
f 27//27 26//26 29//29 
f 29//29 26//26 30//30 
f 26//26 26//26 30//30 
f 30//30 26//26 31//31 
f 26//26 24//24 31//31 
f 31//31 24//24 32//32 
f 24//24 23//23 32//32 
f 32//32 23//23 33//33 
f 23//23 34//34 33//33 
f 33//33 34//34 35//35 
f 34//34 19//19 35//35 
f 35//35 19//19 36//36 
f 19//19 17//17 36//36 
f 36//36 17//17 37//37 
f 17//17 15//15 37//37 
f 37//37 15//15 38//38 
f 15//15 13//13 38//38 
f 38//38 13//13 39//39 
f 13//13 11//11 39//39 
f 39//39 11//11 40//40 
f 11//11 9//9 40//40 
f 40//40 9//9 41//41 
f 9//9 7//7 41//41 
f 41//41 7//7 42//42 
f 7//7 5//5 42//42 
f 42//42 5//5 43//43 
f 5//5 4//4 43//43 
f 43//43 4//4 44//44 
f 4//4 4//4 44//44 
f 44//44 4//4 45//45 
f 4//4 2//2 45//45 
f 45//45 2//2 46//46 
f 2//2 1//1 46//46 
f 46//46 1//1 46//46 
f 1//1 47//47 46//46 
f 46//46 47//47 46//46 
f 47//47 48//48 46//46 
f 46//46 48//48 45//45 
f 48//48 49//49 45//45 
f 45//45 49//49 44//44 
f 49//49 44//44 44//44 
f 44//44 44//44 19//19 
f 44//44 19//19 19//19 
f 19//19 19//19 20//20 
f 19//19 34//34 20//20 
f 20//20 34//34 21//21 
f 34//34 23//23 21//21 
f 21//21 23//23 23//23 
f 23//23 1//1 23//23 
f 23//23 1//1 1//1 
f 1//1 22//22 1//1 
f 1//1 22//22 25//25 
f 22//22 25//25 25//25 
f 25//25 25//25 49//49 
f 25//25 49//49 49//49 
f 49//49 49//49 50//50 
f 49//49 48//48 50//50 
f 50//50 48//48 51//51 
f 48//48 47//47 51//51 
f 51//51 47//47 52//52 
f 47//47 1//1 52//52 
f 52//52 1//1 53//53 
f 1//1 1//1 53//53 
f 53//53 1//1 54//54 
f 1//1 28//28 54//54 
f 54//54 28//28 55//55 
f 28//28 29//29 55//55 
f 55//55 29//29 56//56 
f 29//29 30//30 56//56 
f 56//56 30//30 57//57 
f 30//30 30//30 57//57 
f 57//57 30//30 58//58 
f 30//30 31//31 58//58 
f 58//58 31//31 59//59 
f 31//31 32//32 59//59 
f 59//59 32//32 60//60 
f 32//32 33//33 60//60 
f 60//60 33//33 61//61 
f 33//33 35//35 61//61 
f 61//61 35//35 62//62 
f 35//35 36//36 62//62 
f 62//62 36//36 63//63 
f 36//36 37//37 63//63 
f 63//63 37//37 64//64 
f 37//37 38//38 64//64 
f 64//64 38//38 65//65 
f 38//38 39//39 65//65 
f 65//65 39//39 66//66 
f 39//39 40//40 66//66 
f 66//66 40//40 67//67 
f 40//40 41//41 67//67 
f 67//67 41//41 68//68 
f 41//41 42//42 68//68 
f 68//68 42//42 69//69 
f 42//42 43//43 69//69 
f 69//69 43//43 70//70 
f 43//43 44//44 70//70 
f 70//70 44//44 71//71 
f 44//44 49//49 71//71 
f 71//71 49//49 72//72 
f 49//49 50//50 72//72 
f 72//72 50//50 50//50 
f 50//50 72//72 50//50 
f 50//50 72//72 72//72 
f 72//72 73//73 72//72 
f 72//72 73//73 71//71 
f 73//73 74//74 71//71 
f 71//71 74//74 70//70 
f 74//74 75//75 70//70 
f 70//70 75//75 69//69 
f 75//75 76//76 69//69 
f 69//69 76//76 68//68 
f 76//76 77//77 68//68 
f 68//68 77//77 67//67 
f 77//77 78//78 67//67 
f 67//67 78//78 66//66 
f 78//78 79//79 66//66 
f 66//66 79//79 65//65 
f 79//79 80//80 65//65 
f 65//65 80//80 64//64 
f 80//80 81//81 64//64 
f 64//64 81//81 63//63 
f 81//81 82//82 63//63 
f 63//63 82//82 62//62 
f 82//82 83//83 62//62 
f 62//62 83//83 61//61 
f 83//83 84//84 61//61 
f 61//61 84//84 60//60 
f 84//84 85//85 60//60 
f 60//60 85//85 59//59 
f 85//85 86//86 59//59 
f 59//59 86//86 58//58 
f 86//86 87//87 58//58 
f 58//58 87//87 57//57 
f 87//87 88//88 57//57 
f 57//57 88//88 89//89 
f 88//88 90//90 89//89 
f 89//89 90//90 91//91 
f 90//90 92//92 91//91 
f 91//91 92//92 92//92 
f 92//92 57//57 92//92 
f 92//92 57//57 57//57 
f 57//57 89//89 57//57 
f 57//57 89//89 56//56 
f 89//89 93//93 56//56 
f 56//56 93//93 55//55 
f 93//93 94//94 55//55 
f 55//55 94//94 54//54 
f 94//94 94//94 54//54 
f 54//54 94//94 53//53 
f 94//94 95//95 53//53 
f 53//53 95//95 52//52 
f 95//95 95//95 52//52 
f 52//52 95//95 51//51 
f 95//95 96//96 51//51 
f 51//51 96//96 50//50 
f 96//96 50//50 50//50 
f 50//50 50//50 89//89 
f 50//50 89//89 89//89 
f 89//89 89//89 93//93 
f 89//89 91//91 93//93 
f 93//93 91//91 97//97 
f 91//91 98//98 97//97 
f 97//97 98//98 96//96 
f 98//98 99//99 96//96 
f 96//96 99//99 50//50 
f 99//99 99//99 50//50 
f 50//50 99//99 72//72 
f 99//99 99//99 72//72 
f 72//72 99//99 100//100 
f 99//99 99//99 100//100 
f 100//100 99//99 101//101 
f 99//99 98//98 101//101 
f 101//101 98//98 92//92 
f 98//98 91//91 92//92 
f 92//92 91//91 91//91 
f 91//91 96//96 91//91 
f 91//91 96//96 96//96 
f 96//96 95//95 96//96 
f 96//96 95//95 97//97 
f 95//95 94//94 97//97 
f 97//97 94//94 93//93 
f 94//94 93//93 93//93 
f 93//93 93//93 72//72 
f 93//93 72//72 72//72 
f 72//72 72//72 73//73 
f 72//72 100//100 73//73 
f 73//73 100//100 100//100 
f 100//100 102//102 100//100 
f 100//100 102//102 102//102 
f 102//102 103//103 102//102 
f 102//102 103//103 104//104 
f 103//103 103//103 104//104 
f 104//104 103//103 105//105 
f 103//103 103//103 105//105 
f 105//105 103//103 106//106 
f 103//103 103//103 106//106 
f 106//106 103//103 107//107 
f 103//103 103//103 107//107 
f 107//107 103//103 108//108 
f 103//103 103//103 108//108 
f 108//108 103//103 109//109 
f 103//103 103//103 109//109 
f 109//109 103//103 110//110 
f 103//103 111//111 110//110 
f 110//110 111//111 111//111 
f 111//111 102//102 111//111 
f 111//111 102//102 102//102 
f 102//102 112//112 102//102 
f 102//102 112//112 103//103 
f 112//112 113//113 103//103 
f 103//103 113//113 103//103 
f 113//113 114//114 103//103 
f 103//103 114//114 103//103 
f 114//114 115//115 103//103 
f 103//103 115//115 103//103 
f 115//115 116//116 103//103 
f 103//103 116//116 103//103 
f 116//116 117//117 103//103 
f 103//103 117//117 103//103 
f 117//117 118//118 103//103 
f 103//103 118//118 103//103 
f 118//118 119//119 103//103 
f 103//103 119//119 103//103 
f 119//119 120//120 103//103 
f 103//103 120//120 103//103 
f 120//120 121//121 103//103 
f 103//103 121//121 103//103 
f 121//121 122//122 103//103 
f 103//103 122//122 111//111 
f 122//122 111//111 111//111 
f 111//111 111//111 143//143 
f 111//111 143//143 143//143 
f 143//143 143//143 143//143 
f 143//143 144//144 143//143 
f 143//143 144//144 145//145 
f 144//144 146//146 145//145 
f 145//145 146//146 145//145 
f 146//146 147//147 145//145 
f 145//145 147//147 148//148 
f 147//147 149//149 148//148 
f 148//148 149//149 150//150 
f 149//149 151//151 150//150 
f 150//150 151//151 152//152 
f 151//151 153//153 152//152 
f 152//152 153//153 154//154 
f 153//153 155//155 154//154 
f 154//154 155//155 156//156 
f 155//155 157//157 156//156 
f 156//156 157//157 158//158 
f 157//157 159//159 158//158 
f 158//158 159//159 158//158 
f 159//159 160//160 158//158 
f 158//158 160//160 158//158 
f 160//160 143//143 158//158 
f 158//158 143//143 156//156 
f 143//143 143//143 156//156 
f 156//156 143//143 154//154 
f 143//143 143//143 154//154 
f 154//154 143//143 152//152 
f 143//143 143//143 152//152 
f 152//152 143//143 150//150 
f 143//143 143//143 150//150 
f 150//150 143//143 148//148 
f 143//143 145//145 148//148 
f 148//148 145//145 145//145 
f 145//145 159//159 145//145 
f 145//145 159//159 159//159 
f 159//159 161//161 159//159 
f 159//159 161//161 160//160 
f 161//161 162//162 160//160 
f 160//160 162//162 143//143 
f 162//162 163//163 143//143 
f 143//143 163//163 164//164 
f 163//163 165//165 164//164 
f 164//164 165//165 164//164 
f 165//165 166//166 164//164 
f 164//164 166//166 167//167 
f 166//166 168//168 167//167 
f 167//167 168//168 167//167 
f 168//168 169//169 167//167 
f 167//167 169//169 143//143 
f 169//169 169//169 143//143 
f 143//143 169//169 170//170 
f 169//169 169//169 170//170 
f 170//170 169//169 171//171 
f 169//169 168//168 171//171 
f 171//171 168//168 172//172 
f 168//168 168//168 172//172 
f 172//172 168//168 173//173 
f 168//168 166//166 173//173 
f 173//173 166//166 174//174 
f 166//166 165//165 174//174 
f 174//174 165//165 175//175 
f 165//165 176//176 175//175 
f 175//175 176//176 177//177 
f 176//176 161//161 177//177 
f 177//177 161//161 178//178 
f 161//161 159//159 178//178 
f 178//178 159//159 179//179 
f 159//159 157//157 179//179 
f 179//179 157//157 180//180 
f 157//157 155//155 180//180 
f 180//180 155//155 181//181 
f 155//155 153//153 181//181 
f 181//181 153//153 182//182 
f 153//153 151//151 182//182 
f 182//182 151//151 183//183 
f 151//151 149//149 183//183 
f 183//183 149//149 184//184 
f 149//149 147//147 184//184 
f 184//184 147//147 185//185 
f 147//147 146//146 185//185 
f 185//185 146//146 186//186 
f 146//146 146//146 186//186 
f 186//186 146//146 187//187 
f 146//146 144//144 187//187 
f 187//187 144//144 188//188 
f 144//144 143//143 188//188 
f 188//188 143//143 188//188 
f 143//143 189//189 188//188 
f 188//188 189//189 188//188 
f 189//189 190//190 188//188 
f 188//188 190//190 187//187 
f 190//190 191//191 187//187 
f 187//187 191//191 186//186 
f 191//191 186//186 186//186 
f 186//186 186//186 161//161 
f 186//186 161//161 161//161 
f 161//161 161//161 162//162 
f 161//161 176//176 162//162 
f 162//162 176//176 163//163 
f 176//176 165//165 163//163 
f 163//163 165//165 165//165 
f 165//165 143//143 165//165 
f 165//165 143//143 143//143 
f 143//143 164//164 143//143 
f 143//143 164//164 167//167 
f 164//164 167//167 167//167 
f 167//167 167//167 191//191 
f 167//167 191//191 191//191 
f 191//191 191//191 192//192 
f 191//191 190//190 192//192 
f 192//192 190//190 193//193 
f 190//190 189//189 193//193 
f 193//193 189//189 194//194 
f 189//189 143//143 194//194 
f 194//194 143//143 195//195 
f 143//143 143//143 195//195 
f 195//195 143//143 196//196 
f 143//143 170//170 196//196 
f 196//196 170//170 197//197 
f 170//170 171//171 197//197 
f 197//197 171//171 198//198 
f 171//171 172//172 198//198 
f 198//198 172//172 199//199 
f 172//172 172//172 199//199 
f 199//199 172//172 200//200 
f 172//172 173//173 200//200 
f 200//200 173//173 201//201 
f 173//173 174//174 201//201 
f 201//201 174//174 202//202 
f 174//174 175//175 202//202 
f 202//202 175//175 203//203 
f 175//175 177//177 203//203 
f 203//203 177//177 204//204 
f 177//177 178//178 204//204 
f 204//204 178//178 205//205 
f 178//178 179//179 205//205 
f 205//205 179//179 206//206 
f 179//179 180//180 206//206 
f 206//206 180//180 207//207 
f 180//180 181//181 207//207 
f 207//207 181//181 208//208 
f 181//181 182//182 208//208 
f 208//208 182//182 209//209 
f 182//182 183//183 209//209 
f 209//209 183//183 210//210 
f 183//183 184//184 210//210 
f 210//210 184//184 211//211 
f 184//184 185//185 211//211 
f 211//211 185//185 212//212 
f 185//185 186//186 212//212 
f 212//212 186//186 213//213 
f 186//186 191//191 213//213 
f 213//213 191//191 214//214 
f 191//191 192//192 214//214 
f 214//214 192//192 192//192 
f 192//192 214//214 192//192 
f 192//192 214//214 214//214 
f 214//214 215//215 214//214 
f 214//214 215//215 213//213 
f 215//215 216//216 213//213 
f 213//213 216//216 212//212 
f 216//216 217//217 212//212 
f 212//212 217//217 211//211 
f 217//217 218//218 211//211 
f 211//211 218//218 210//210 
f 218//218 219//219 210//210 
f 210//210 219//219 209//209 
f 219//219 220//220 209//209 
f 209//209 220//220 208//208 
f 220//220 221//221 208//208 
f 208//208 221//221 207//207 
f 221//221 222//222 207//207 
f 207//207 222//222 206//206 
f 222//222 223//223 206//206 
f 206//206 223//223 205//205 
f 223//223 224//224 205//205 
f 205//205 224//224 204//204 
f 224//224 225//225 204//204 
f 204//204 225//225 203//203 
f 225//225 226//226 203//203 
f 203//203 226//226 202//202 
f 226//226 227//227 202//202 
f 202//202 227//227 201//201 
f 227//227 228//228 201//201 
f 201//201 228//228 200//200 
f 228//228 229//229 200//200 
f 200//200 229//229 199//199 
f 229//229 230//230 199//199 
f 199//199 230//230 231//231 
f 230//230 232//232 231//231 
f 231//231 232//232 233//233 
f 232//232 234//234 233//233 
f 233//233 234//234 234//234 
f 234//234 199//199 234//234 
f 234//234 199//199 199//199 
f 199//199 231//231 199//199 
f 199//199 231//231 198//198 
f 231//231 235//235 198//198 
f 198//198 235//235 197//197 
f 235//235 236//236 197//197 
f 197//197 236//236 196//196 
f 236//236 236//236 196//196 
f 196//196 236//236 195//195 
f 236//236 237//237 195//195 
f 195//195 237//237 194//194 
f 237//237 237//237 194//194 
f 194//194 237//237 193//193 
f 237//237 238//238 193//193 
f 193//193 238//238 192//192 
f 238//238 192//192 192//192 
f 192//192 192//192 231//231 
f 192//192 231//231 231//231 
f 231//231 231//231 235//235 
f 231//231 233//233 235//235 
f 235//235 233//233 239//239 
f 233//233 240//240 239//239 
f 239//239 240//240 238//238 
f 240//240 241//241 238//238 
f 238//238 241//241 192//192 
f 241//241 241//241 192//192 
f 192//192 241//241 214//214 
f 241//241 241//241 214//214 
f 214//214 241//241 242//242 
f 241//241 241//241 242//242 
f 242//242 241//241 243//243 
f 241//241 240//240 243//243 
f 243//243 240//240 234//234 
f 240//240 233//233 234//234 
f 234//234 233//233 233//233 
f 233//233 238//238 233//233 
f 233//233 238//238 238//238 
f 238//238 237//237 238//238 
f 238//238 237//237 239//239 
f 237//237 236//236 239//239 
f 239//239 236//236 235//235 
f 236//236 235//235 235//235 
f 235//235 235//235 214//214 
f 235//235 214//214 214//214 
f 214//214 214//214 215//215 
f 214//214 242//242 215//215 
f 215//215 242//242 242//242 
f 242//242 244//244 242//242 
f 242//242 244//244 244//244 
f 244//244 245//245 244//244 
f 244//244 245//245 246//246 
f 245//245 245//245 246//246 
f 246//246 245//245 247//247 
f 245//245 245//245 247//247 
f 247//247 245//245 248//248 
f 245//245 245//245 248//248 
f 248//248 245//245 249//249 
f 245//245 245//245 249//249 
f 249//249 245//245 250//250 
f 245//245 245//245 250//250 
f 250//250 245//245 251//251 
f 245//245 245//245 251//251 
f 251//251 245//245 252//252 
f 245//245 253//253 252//252 
f 252//252 253//253 253//253 
f 253//253 244//244 253//253 
f 253//253 244//244 244//244 
f 244//244 254//254 244//244 
f 244//244 254//254 245//245 
f 254//254 255//255 245//245 
f 245//245 255//255 245//245 
f 255//255 256//256 245//245 
f 245//245 256//256 245//245 
f 256//256 257//257 245//245 
f 245//245 257//257 245//245 
f 257//257 258//258 245//245 
f 245//245 258//258 245//245 
f 258//258 259//259 245//245 
f 245//245 259//259 245//245 
f 259//259 260//260 245//245 
f 245//245 260//260 245//245 
f 260//260 261//261 245//245 
f 245//245 261//261 245//245 
f 261//261 262//262 245//245 
f 245//245 262//262 245//245 
f 262//262 263//263 245//245 
f 245//245 263//263 245//245 
f 263//263 264//264 245//245 
f 245//245 264//264 253//253 

