mtllib model_5.mtl
usemtl material_5
o model_5
v -0.08670836687088013 1.4334882497787476 3.5510220527648926 
v -0.08349194377660751 1.4334882497787476 3.5504283905029297 
v -0.08349194377660751 1.4549353122711182 3.5504283905029297 
v -0.08071412891149521 1.4549353122711182 3.548795223236084 
v -0.08685456961393356 1.4549353122711182 3.5510220527648926 
v -0.09007098525762558 1.4334882497787476 3.5504283905029297 
v -0.09007099270820618 1.4549353122711182 3.5504283905029297 
v -0.09284880757331848 1.4334882497787476 3.548795223236084 
v -0.09284880757331848 1.4549353122711182 3.548795223236084 
v -0.0948956236243248 1.4334882497787476 3.546271562576294 
v -0.0948956236243248 1.4549353122711182 3.546271562576294 
v -0.0960652306675911 1.4334882497787476 3.543302297592163 
v -0.0960652306675911 1.4549353122711182 3.543302297592163 
v -0.0960652306675911 1.4334882497787476 3.5398879051208496 
v -0.0960652306675911 1.4549353122711182 3.5398879051208496 
v -0.0948956161737442 1.4334882497787476 3.536918878555298 
v -0.0948956236243248 1.4549353122711182 3.536918878555298 
v -0.09284880757331848 1.4334882497787476 3.5343949794769287 
v -0.09284880757331848 1.4549353122711182 3.5343949794769287 
v -0.09007098525762558 1.4334882497787476 3.532762050628662 
v -0.09007098525762558 1.4549353122711182 3.532762050628662 
v -0.08670836687088013 1.4334882497787476 3.53216814994812 
v -0.08670836687088013 1.4549353122711182 3.53216814994812 
v -0.08349194377660751 1.4334882497787476 3.532762050628662 
v -0.08349194377660751 1.4549353122711182 3.532762050628662 
v -0.08071412146091461 1.4334882497787476 3.5343949794769287 
v -0.08071412146091461 1.4549353122711182 3.5343949794769287 
v -0.0786673054099083 1.4334882497787476 3.536918878555298 
v -0.07866731286048889 1.4549353122711182 3.536918878555298 
v -0.077497698366642 1.4334882497787476 3.5398879051208496 
v -0.077497698366642 1.4549353122711182 3.5398879051208496 
v -0.077497698366642 1.4334882497787476 3.543302297592163 
v -0.0774977058172226 1.4549353122711182 3.543302297592163 
v -0.07866731286048889 1.4334882497787476 3.546271562576294 
v -0.07866731286048889 1.4549353122711182 3.546271562576294 
v -0.08071412146091461 1.4334882497787476 3.548795223236084 
v -0.09007098525762558 1.4334882497787476 3.5504283905029297 
v -0.08670836687088013 1.4334882497787476 3.5510220527648926 
v -0.09284880757331848 1.4334882497787476 3.548795223236084 
v -0.0948956236243248 1.4334882497787476 3.546271562576294 
v -0.0960652306675911 1.4334882497787476 3.543302297592163 
v -0.0960652306675911 1.4334882497787476 3.5398879051208496 
v -0.0948956161737442 1.4334882497787476 3.536918878555298 
v -0.09284880757331848 1.4334882497787476 3.5343949794769287 
v -0.09007098525762558 1.4334882497787476 3.532762050628662 
v -0.08670836687088013 1.4334882497787476 3.53216814994812 
v -0.08349194377660751 1.4334882497787476 3.532762050628662 
v -0.08071412146091461 1.4334882497787476 3.5343949794769287 
v -0.0786673054099083 1.4334882497787476 3.536918878555298 
v -0.077497698366642 1.4334882497787476 3.5398879051208496 
v -0.077497698366642 1.4334882497787476 3.543302297592163 
v -0.07866731286048889 1.4334882497787476 3.546271562576294 
v -0.08071412146091461 1.4334882497787476 3.548795223236084 
v -0.08349194377660751 1.4334882497787476 3.5504283905029297 
vn 0.002184574957937002 9.549604162994996e-11 0.7320358753204346 
vn 0.2612800598144531 1.1420921985916266e-8 0.7066088914871216 
vn 0.2612800598144531 1.1420921985916266e-8 0.7066088914871216 
vn 0.5287246108055115 2.3111297764444316e-8 0.6213487386703491 
vn 0.002184574957937002 9.549604162994996e-11 0.7320358753204346 
vn -0.2612802982330322 -1.1420921985916266e-8 0.706608772277832 
vn -0.2612802982330322 -1.1420921985916266e-8 0.706608772277832 
vn -0.5287248492240906 -2.3111297764444316e-8 0.6213485598564148 
vn -0.5287248492240906 -2.3111297764444316e-8 0.6213485598564148 
vn -0.7927989363670349 -3.465434872396145e-8 0.44616463780403137 
vn -0.7927989363670349 -3.465434872396145e-8 0.44616463780403137 
vn -0.9733054637908936 -4.254454566421373e-8 0.1680123209953308 
vn -0.9733054637908936 -4.254454566421373e-8 0.1680123209953308 
vn -0.9733054637908936 -4.254459184949155e-8 -0.16801263391971588 
vn -0.9733054637908936 -4.254459184949155e-8 -0.16801263391971588 
vn -0.7927988171577454 -3.4654476621653885e-8 -0.4461648762226105 
vn -0.7927988171577454 -3.4654476621653885e-8 -0.4461648762226105 
vn -0.5287246108055115 -0.0037716696970164776 -0.621342658996582 
vn -0.5287246108055115 -0.0037716696970164776 -0.621342658996582 
vn -0.2612800598144531 -1.1421121826060698e-8 -0.7066088914871216 
vn -0.2612800598144531 -1.1421121826060698e-8 -0.7066088914871216 
vn 0.0021848133765161037 9.52892209582501e-11 -0.7320358753204346 
vn 0.0021848133765161037 9.52892209582501e-11 -0.7320358753204346 
vn 0.2612802982330322 0.003776419209316373 -0.7066034078598022 
vn 0.2612802982330322 0.003776419209316373 -0.7066034078598022 
vn 0.5287248492240906 2.3111121905117216e-8 -0.6213485598564148 
vn 0.5287248492240906 2.3111121905117216e-8 -0.6213485598564148 
vn 0.7927989363670349 0.0037766345776617527 -0.4461560845375061 
vn 0.7927989363670349 0.0037766345776617527 -0.4461560845375061 
vn 0.9733054637908936 0.003774939337745309 -0.1679895967245102 
vn 0.9733054637908936 0.003774939337745309 -0.1679895967245102 
vn 0.9733054637908936 4.254454566421373e-8 0.16801263391971588 
vn 0.9733054637908936 4.254454566421373e-8 0.16801263391971588 
vn 0.7927988171577454 3.465434872396145e-8 0.4461648762226105 
vn 0.7927988171577454 3.465434872396145e-8 0.4461648762226105 
vn 0.5287246108055115 2.3111297764444316e-8 0.6213487386703491 
vn -0.002184650395065546 -0.999997615814209 -3.556982763885941e-10 
vn -0.002184650395065546 -0.999997615814209 -3.556982763885941e-10 
vn -0.002184650395065546 -0.999997615814209 -3.556982763885941e-10 
vn -0.002184650395065546 -0.999997615814209 -3.556982763885941e-10 
vn -0.002184650395065546 -0.999997615814209 -3.556982763885941e-10 
vn -0.002184650395065546 -0.999997615814209 -3.556982763885941e-10 
vn -0.002184650395065546 -0.999997615814209 -3.556982763885941e-10 
vn -0.002184650395065546 -0.999997615814209 -3.556982763885941e-10 
vn -0.002184650395065546 -0.999997615814209 -3.556982763885941e-10 
vn -0.002184650395065546 -0.999997615814209 -3.556982763885941e-10 
vn -0.002184650395065546 -0.999997615814209 -3.556982763885941e-10 
vn -0.002184650395065546 -0.999997615814209 -3.556982763885941e-10 
vn -0.002184650395065546 -0.999997615814209 -3.556982763885941e-10 
vn -0.002184650395065546 -0.999997615814209 -3.556982763885941e-10 
vn -0.002184650395065546 -0.999997615814209 -3.556982763885941e-10 
vn -0.002184650395065546 -0.999997615814209 -3.556982763885941e-10 
vn -0.002184650395065546 -0.999997615814209 -3.556982763885941e-10 
vn -0.002184650395065546 -0.999997615814209 -3.556982763885941e-10 
s on 
f 1//1 2//2 3//3 
f 2//2 4//4 3//3 
f 3//3 4//4 4//4 
f 4//4 3//3 4//4 
f 4//4 3//3 3//3 
f 3//3 5//5 3//3 
f 3//3 5//5 1//1 
f 5//5 5//5 1//1 
f 1//1 5//5 6//6 
f 5//5 7//7 6//6 
f 6//6 7//7 8//8 
f 7//7 9//9 8//8 
f 8//8 9//9 10//10 
f 9//9 11//11 10//10 
f 10//10 11//11 12//12 
f 11//11 13//13 12//12 
f 12//12 13//13 14//14 
f 13//13 15//15 14//14 
f 14//14 15//15 16//16 
f 15//15 17//17 16//16 
f 16//16 17//17 18//18 
f 17//17 19//19 18//18 
f 18//18 19//19 20//20 
f 19//19 21//21 20//20 
f 20//20 21//21 22//22 
f 21//21 23//23 22//22 
f 22//22 23//23 24//24 
f 23//23 25//25 24//24 
f 24//24 25//25 26//26 
f 25//25 27//27 26//26 
f 26//26 27//27 28//28 
f 27//27 29//29 28//28 
f 28//28 29//29 30//30 
f 29//29 31//31 30//30 
f 30//30 31//31 32//32 
f 31//31 33//33 32//32 
f 32//32 33//33 34//34 
f 33//33 35//35 34//34 
f 34//34 35//35 36//36 
f 35//35 4//4 36//36 
f 36//36 4//4 2//2 
f 4//4 2//2 2//2 
f 2//2 2//2 37//37 
f 2//2 37//37 37//37 
f 37//37 37//37 38//38 
f 37//37 39//39 38//38 
f 38//38 39//39 38//38 
f 39//39 40//40 38//38 
f 38//38 40//40 38//38 
f 40//40 41//41 38//38 
f 38//38 41//41 38//38 
f 41//41 42//42 38//38 
f 38//38 42//42 38//38 
f 42//42 43//43 38//38 
f 38//38 43//43 38//38 
f 43//43 44//44 38//38 
f 38//38 44//44 38//38 
f 44//44 45//45 38//38 
f 38//38 45//45 38//38 
f 45//45 46//46 38//38 
f 38//38 46//46 38//38 
f 46//46 47//47 38//38 
f 38//38 47//47 38//38 
f 47//47 48//48 38//38 
f 38//38 48//48 38//38 
f 48//48 49//49 38//38 
f 38//38 49//49 38//38 
f 49//49 50//50 38//38 
f 38//38 50//50 38//38 
f 50//50 51//51 38//38 
f 38//38 51//51 38//38 
f 51//51 52//52 38//38 
f 38//38 52//52 38//38 
f 52//52 53//53 38//38 
f 38//38 53//53 54//54 

