mtllib model_6.mtl
usemtl material_6
o model_6
v -0.13581129908561707 1.51356041431427 3.528137683868408 
v -0.13581129908561707 1.51829993724823 3.5291388034820557 
v -0.13852113485336304 1.51829993724823 3.5291388034820557 
v -0.13852114975452423 1.5229780673980713 3.529036521911621 
v -0.13852113485336304 1.51356041431427 3.528137683868408 
v -0.13581129908561707 1.509168267250061 3.526094913482666 
v -0.13852113485336304 1.5091681480407715 3.526094913482666 
v -0.13581129908561707 1.505470633506775 3.523193836212158 
v -0.13852113485336304 1.505470633506775 3.523193836212158 
v -0.13581129908561707 1.5025696754455566 3.5195984840393066 
v -0.13852113485336304 1.5025696754455566 3.5195984840393066 
v -0.13581129908561707 1.5005064010620117 3.5154922008514404 
v -0.13852113485336304 1.5005064010620117 3.5154922008514404 
v -0.13581129908561707 1.4994032382965088 3.510998010635376 
v -0.13852113485336304 1.4994032382965088 3.510998010635376 
v -0.13581129908561707 1.4993010759353638 3.506319761276245 
v -0.13852113485336304 1.4993010759353638 3.506319761276245 
v -0.13581129908561707 1.5003020763397217 3.501580238342285 
v -0.13852113485336304 1.5003020763397217 3.501580238342285 
v -0.13581129908561707 1.5023449659347534 3.497188091278076 
v -0.13852113485336304 1.5023449659347534 3.497188091278076 
v -0.13581129908561707 1.5052459239959717 3.49349045753479 
v -0.13852113485336304 1.5052459239959717 3.49349045753479 
v -0.13581129908561707 1.5088413953781128 3.4905896186828613 
v -0.13852113485336304 1.5088413953781128 3.4905896186828613 
v -0.13581129908561707 1.5129475593566895 3.4885263442993164 
v -0.13852113485336304 1.5129475593566895 3.4885263442993164 
v -0.13581129908561707 1.5174418687820435 3.4874231815338135 
v -0.13852113485336304 1.5174418687820435 3.4874231815338135 
v -0.13581129908561707 1.5221201181411743 3.487321138381958 
v -0.13852113485336304 1.5221201181411743 3.487321138381958 
v -0.13581129908561707 1.5268595218658447 3.4883220195770264 
v -0.13852113485336304 1.5268595218658447 3.4883220195770264 
v -0.13581129908561707 1.5312517881393433 3.4903650283813477 
v -0.13852113485336304 1.5312517881393433 3.4903650283813477 
v -0.13581129908561707 1.5349493026733398 3.4932658672332764 
v -0.13852113485336304 1.5349493026733398 3.4932658672332764 
v -0.13581129908561707 1.537850260734558 3.496861219406128 
v -0.13852113485336304 1.537850260734558 3.496861219406128 
v -0.13581129908561707 1.539913535118103 3.500967502593994 
v -0.13852113485336304 1.539913535118103 3.500967502593994 
v -0.13581129908561707 1.541016697883606 3.5054616928100586 
v -0.13852113485336304 1.541016697883606 3.5054616928100586 
v -0.13581129908561707 1.541118860244751 3.5101399421691895 
v -0.13852113485336304 1.541118860244751 3.5101399421691895 
v -0.13581129908561707 1.540117859840393 3.5148794651031494 
v -0.13852113485336304 1.540117859840393 3.5148794651031494 
v -0.13581129908561707 1.5380749702453613 3.5192716121673584 
v -0.13852113485336304 1.5380749702453613 3.5192716121673584 
v -0.13581129908561707 1.535174012184143 3.5229692459106445 
v -0.13852113485336304 1.535174012184143 3.5229692459106445 
v -0.13581131398677826 1.5315786600112915 3.5258700847625732 
v -0.13852114975452423 1.5315786600112915 3.5258700847625732 
v -0.13581131398677826 1.5274723768234253 3.527933359146118 
v -0.13852114975452423 1.5274723768234253 3.527933359146118 
v -0.13581131398677826 1.5229780673980713 3.529036521911621 
v -0.13581129908561707 1.5052459239959717 3.49349045753479 
v -0.13581129908561707 1.5023449659347534 3.497188091278076 
v -0.13581129908561707 1.5088413953781128 3.4905896186828613 
v -0.13581129908561707 1.5129475593566895 3.4885263442993164 
v -0.13581129908561707 1.5174418687820435 3.4874231815338135 
v -0.13581129908561707 1.5221201181411743 3.487321138381958 
v -0.13581129908561707 1.5268595218658447 3.4883220195770264 
v -0.13581129908561707 1.5312517881393433 3.4903650283813477 
v -0.13581129908561707 1.5349493026733398 3.4932658672332764 
v -0.13581129908561707 1.537850260734558 3.496861219406128 
v -0.13581129908561707 1.539913535118103 3.500967502593994 
v -0.13581129908561707 1.541016697883606 3.5054616928100586 
v -0.13581129908561707 1.541118860244751 3.5101399421691895 
v -0.13581129908561707 1.540117859840393 3.5148794651031494 
v -0.13581129908561707 1.5380749702453613 3.5192716121673584 
v -0.13581129908561707 1.535174012184143 3.5229692459106445 
v -0.13581131398677826 1.5315786600112915 3.5258700847625732 
v -0.13581131398677826 1.5274723768234253 3.527933359146118 
v -0.13581131398677826 1.5229780673980713 3.529036521911621 
v -0.13581129908561707 1.51829993724823 3.5291388034820557 
v -0.13581129908561707 1.51356041431427 3.528137683868408 
v -0.13581129908561707 1.509168267250061 3.526094913482666 
v -0.13581129908561707 1.505470633506775 3.523193836212158 
v -0.13581129908561707 1.5025696754455566 3.5195984840393066 
v -0.13581129908561707 1.5005064010620117 3.5154922008514404 
v -0.13581129908561707 1.4994032382965088 3.510998010635376 
v -0.13581129908561707 1.4993010759353638 3.506319761276245 
v -0.13581129908561707 1.5003020763397217 3.501580238342285 
v -0.13852113485336304 1.5003020763397217 3.501580238342285 
v -0.13852113485336304 1.5023449659347534 3.497188091278076 
v -0.13852113485336304 1.4993010759353638 3.506319761276245 
v -0.13852113485336304 1.4994032382965088 3.510998010635376 
v -0.13852113485336304 1.5005064010620117 3.5154922008514404 
v -0.13852113485336304 1.5025696754455566 3.5195984840393066 
v -0.13852113485336304 1.505470633506775 3.523193836212158 
v -0.13852113485336304 1.5091681480407715 3.526094913482666 
v -0.13852113485336304 1.51356041431427 3.528137683868408 
v -0.13852113485336304 1.51829993724823 3.5291388034820557 
v -0.13852114975452423 1.5229780673980713 3.529036521911621 
v -0.13852114975452423 1.5274723768234253 3.527933359146118 
v -0.13852114975452423 1.5315786600112915 3.5258700847625732 
v -0.13852113485336304 1.535174012184143 3.5229692459106445 
v -0.13852113485336304 1.5380749702453613 3.5192716121673584 
v -0.13852113485336304 1.540117859840393 3.5148794651031494 
v -0.13852113485336304 1.541118860244751 3.5101399421691895 
v -0.13852113485336304 1.541016697883606 3.5054616928100586 
v -0.13852113485336304 1.539913535118103 3.500967502593994 
v -0.13852113485336304 1.537850260734558 3.496861219406128 
v -0.13852113485336304 1.5349493026733398 3.4932658672332764 
v -0.13852113485336304 1.5312517881393433 3.4903650283813477 
v -0.13852113485336304 1.5268595218658447 3.4883220195770264 
v -0.13852113485336304 1.5221201181411743 3.487321138381958 
v -0.13852113485336304 1.5174418687820435 3.4874231815338135 
v -0.13852113485336304 1.5129475593566895 3.4885263442993164 
v -0.13852113485336304 1.5088413953781128 3.4905896186828613 
v -0.13852113485336304 1.5052459239959717 3.49349045753479 
v -0.13798759877681732 1.5052663087844849 3.4984138011932373 
v -0.14462880790233612 1.5038567781448364 3.4988224506378174 
v -0.13798759877681732 1.5038567781448364 3.4988224506378174 
v -0.14462880790233612 1.5025696754455566 3.4997622966766357 
v -0.14462880790233612 1.5052663087844849 3.4984138011932373 
v -0.13798759877681732 1.506696343421936 3.4985978603363037 
v -0.14462880790233612 1.506696343421936 3.4985978603363037 
v -0.13798759877681732 1.5368083715438843 3.508669137954712 
v -0.14462880790233612 1.5368083715438843 3.508669137954712 
v -0.13798759877681732 1.5380340814590454 3.5093841552734375 
v -0.14462880790233612 1.5380340814590454 3.5093841552734375 
v -0.13798759877681732 1.5389329195022583 3.5105485916137695 
v -0.14462880790233612 1.5389329195022583 3.5105485916137695 
v -0.13798759877681732 1.5394028425216675 3.512080669403076 
v -0.14462880790233612 1.5394028425216675 3.512080669403076 
v -0.13798759877681732 1.5393619537353516 3.51373553276062 
v -0.14462880790233612 1.5393619537353516 3.51373553276062 
v -0.13798759877681732 1.5388308763504028 3.515328884124756 
v -0.14462880790233612 1.5388308763504028 3.515328884124756 
v -0.13798759877681732 1.537850260734558 3.516697645187378 
v -0.14462880790233612 1.537850260734558 3.516697645187378 
v -0.13798759877681732 1.5365632772445679 3.517637252807617 
v -0.14462880790233612 1.5365632772445679 3.517637252807617 
v -0.13798759877681732 1.5351536273956299 3.5180459022521973 
v -0.14462880790233612 1.5351536273956299 3.5180459022521973 
v -0.13798759877681732 1.5337235927581787 3.51786208152771 
v -0.14462880790233612 1.5337235927581787 3.51786208152771 
v -0.13798759877681732 1.5036115646362305 3.5077905654907227 
v -0.14462880790233612 1.5036115646362305 3.5077905654907227 
v -0.13798759877681732 1.5023858547210693 3.507075786590576 
v -0.14462880790233612 1.5023858547210693 3.507075786590576 
v -0.13798759877681732 1.5014870166778564 3.505911350250244 
v -0.14462880790233612 1.5014870166778564 3.505911350250244 
v -0.13798759877681732 1.5010170936584473 3.5043790340423584 
v -0.14462880790233612 1.5010170936584473 3.5043790340423584 
v -0.13798759877681732 1.5010579824447632 3.5027244091033936 
v -0.14462880790233612 1.5010579824447632 3.5027244091033936 
v -0.13798759877681732 1.5015891790390015 3.5011308193206787 
v -0.14462880790233612 1.5015891790390015 3.5011308193206787 
v -0.13798759877681732 1.5025696754455566 3.4997622966766357 
v -0.14539168775081635 1.5374212265014648 3.5161051750183105 
v -0.14539168775081635 1.5363589525222778 3.5168814659118652 
v -0.14539168775081635 1.5382179021835327 3.514981508255005 
v -0.14539168775081635 1.538646936416626 3.513674259185791 
v -0.14539168775081635 1.538687825202942 3.512284994125366 
v -0.14539168775081635 1.5383200645446777 3.5110185146331787 
v -0.14539168775081635 1.5375642776489258 3.5100581645965576 
v -0.14539168775081635 1.536481499671936 3.5094454288482666 
v -0.14539168775081635 1.5064716339111328 3.4994149208068848 
v -0.14539168775081635 1.5052459239959717 3.499251365661621 
v -0.14539168775081635 1.504060983657837 3.4995782375335693 
v -0.14539168775081635 1.50299870967865 3.500354528427124 
v -0.14539168775081635 1.502202033996582 3.5014781951904297 
v -0.14539168775081635 1.5017729997634888 3.5027856826782227 
v -0.14539168775081635 1.5017321109771729 3.5041747093200684 
v -0.14539168775081635 1.502099871635437 3.505441427230835 
v -0.14539168775081635 1.502855658531189 3.506401538848877 
v -0.14539168775081635 1.5039384365081787 3.507014274597168 
v -0.14539168775081635 1.533948302268982 3.51704478263855 
v -0.14539168775081635 1.535174012184143 3.5172083377838135 
v -0.14462880790233612 1.5052663087844849 3.4984138011932373 
v -0.14539168775081635 1.504060983657837 3.4995782375335693 
v -0.14462880790233612 1.5038567781448364 3.4988224506378174 
v -0.14539168775081635 1.50299870967865 3.500354528427124 
v -0.14539168775081635 1.5052459239959717 3.499251365661621 
v -0.14462880790233612 1.506696343421936 3.4985978603363037 
v -0.14539168775081635 1.5064716339111328 3.4994149208068848 
v -0.14462880790233612 1.5368083715438843 3.508669137954712 
v -0.14539168775081635 1.536481499671936 3.5094454288482666 
v -0.14462880790233612 1.5380340814590454 3.5093841552734375 
v -0.14539168775081635 1.5375642776489258 3.5100581645965576 
v -0.14462880790233612 1.5389329195022583 3.5105485916137695 
v -0.14539168775081635 1.5383200645446777 3.5110185146331787 
v -0.14462880790233612 1.5394028425216675 3.512080669403076 
v -0.14539168775081635 1.538687825202942 3.512284994125366 
v -0.14462880790233612 1.5393619537353516 3.51373553276062 
v -0.14539168775081635 1.538646936416626 3.513674259185791 
v -0.14462880790233612 1.5388308763504028 3.515328884124756 
v -0.14539168775081635 1.5382179021835327 3.514981508255005 
v -0.14462880790233612 1.537850260734558 3.516697645187378 
v -0.14539168775081635 1.5374212265014648 3.5161051750183105 
v -0.14462880790233612 1.5365632772445679 3.517637252807617 
v -0.14539168775081635 1.5363589525222778 3.5168814659118652 
v -0.14462880790233612 1.5351536273956299 3.5180459022521973 
v -0.14539168775081635 1.535174012184143 3.5172083377838135 
v -0.14462880790233612 1.5337235927581787 3.51786208152771 
v -0.14539168775081635 1.533948302268982 3.51704478263855 
v -0.14462880790233612 1.5036115646362305 3.5077905654907227 
v -0.14539168775081635 1.5039384365081787 3.507014274597168 
v -0.14462880790233612 1.5023858547210693 3.507075786590576 
v -0.14539168775081635 1.502855658531189 3.506401538848877 
v -0.14462880790233612 1.5014870166778564 3.505911350250244 
v -0.14539168775081635 1.502099871635437 3.505441427230835 
v -0.14462880790233612 1.5010170936584473 3.5043790340423584 
v -0.14539168775081635 1.5017321109771729 3.5041747093200684 
v -0.14462880790233612 1.5010579824447632 3.5027244091033936 
v -0.14539168775081635 1.5017729997634888 3.5027856826782227 
v -0.14462880790233612 1.5015891790390015 3.5011308193206787 
v -0.14539168775081635 1.502202033996582 3.5014781951904297 
v -0.14462880790233612 1.5025696754455566 3.4997622966766357 
vn 0.0021845889277756214 -0.23931509256362915 0.7107642889022827 
vn -0.0021848101168870926 -0.06791467219591141 0.7303457260131836 
vn -0.0021848101168870926 -0.06791467219591141 0.7303457260131836 
vn -0.002184817101806402 0.0980169028043747 0.7285109162330627 
vn 0.0021845889277756214 -0.23931509256362915 0.7107642889022827 
vn 0.002184603363275528 -0.4104118347167969 0.6675434112548828 
vn 0.002184603363275528 -0.4104118347167969 0.6675434112548828 
vn 0.0021846231538802385 -0.5865612626075745 0.5928786396980286 
vn 0.0021846231538802385 -0.5865612626075745 0.5928786396980286 
vn 0.0021846487652510405 -0.7534953951835632 0.48127779364585876 
vn 0.0021846487652510405 -0.7534953951835632 0.48127779364585876 
vn 0.0021846801973879337 -0.8957543969154358 0.32542288303375244 
vn 0.0021846801973879337 -0.8957543969154358 0.32542288303375244 
vn 0.002184715587645769 -0.9836175441741943 0.1319531500339508 
vn 0.002184715587645769 -0.9836175441741943 0.1319531500339508 
vn 0.0021847528405487537 -0.991767942905426 -0.09372255951166153 
vn 0.0021847528405487537 -0.991767942905426 -0.09372255951166153 
vn 0.002184782875701785 -0.9118976593017578 -0.30043691396713257 
vn 0.002184782875701785 -0.9118976593017578 -0.30043691396713257 
vn 0.0021848040632903576 -0.7681957483291626 -0.4686587452888489 
vn 0.0021848040632903576 -0.7681957483291626 -0.4686587452888489 
vn 0.002184815937653184 -0.5987265110015869 -0.5863259434700012 
vn 0.002184815937653184 -0.5987265110015869 -0.5863259434700012 
vn 0.002184820594266057 -0.4309644401073456 -0.6605660915374756 
vn 0.002184820594266057 -0.4309644401073456 -0.6605660915374756 
vn 0.002184820594266057 -0.2612491250038147 -0.7066131830215454 
vn 0.002184820594266057 -0.2612491250038147 -0.7066131830215454 
vn 0.002184817101806402 -0.0980169028043747 -0.7285109162330627 
vn 0.002184817101806402 -0.0980169028043747 -0.7285109162330627 
vn 0.0021848101168870926 0.06791467219591141 -0.7303457260131836 
vn 0.0021848101168870926 0.06791467219591141 -0.7303457260131836 
vn 0.0021847994066774845 0.23931509256362915 -0.7107642889022827 
vn 0.0021847994066774845 0.23931509256362915 -0.7107642889022827 
vn -0.002184603363275528 0.4104118347167969 -0.6675434112548828 
vn -0.002184603363275528 0.4104118347167969 -0.6675434112548828 
vn -0.0021846231538802385 0.5865612626075745 -0.5928786396980286 
vn -0.0021846231538802385 0.5865612626075745 -0.5928786396980286 
vn -0.0021846487652510405 0.7534953951835632 -0.48127779364585876 
vn -0.0021846487652510405 0.7534953951835632 -0.48127779364585876 
vn -0.0021846801973879337 0.8957543969154358 -0.32542288303375244 
vn -0.0021846801973879337 0.8957543969154358 -0.32542288303375244 
vn -0.002184715587645769 0.9836175441741943 -0.1319531500339508 
vn -0.002184715587645769 0.9836175441741943 -0.1319531500339508 
vn -0.0021847528405487537 0.991767942905426 0.09372255951166153 
vn -0.0021847528405487537 0.991767942905426 0.09372255951166153 
vn -0.002184782875701785 0.9118976593017578 0.30043691396713257 
vn -0.002184782875701785 0.9118976593017578 0.30043691396713257 
vn -0.0021848040632903576 0.7681957483291626 0.4686587452888489 
vn -0.0021848040632903576 0.7681957483291626 0.4686587452888489 
vn -0.002184815937653184 0.5987265110015869 0.5863259434700012 
vn -0.002184815937653184 0.5987265110015869 0.5863259434700012 
vn -0.002184820594266057 0.4309644401073456 0.6605660915374756 
vn -0.002184820594266057 0.4309644401073456 0.6605660915374756 
vn -0.002184820594266057 0.2612491250038147 0.7066131830215454 
vn -0.002184820594266057 0.2612491250038147 0.7066131830215454 
vn -0.002184817101806402 0.0980169028043747 0.7285109162330627 
vn 1 4.3711398944878965e-8 1.6292098337089556e-7 
vn 1 4.3711398944878965e-8 1.6292098337089556e-7 
vn 1 4.3711398944878965e-8 1.6292098337089556e-7 
vn 1 4.3711398944878965e-8 1.6292098337089556e-7 
vn 1 4.3711398944878965e-8 1.6292098337089556e-7 
vn 1 4.3711398944878965e-8 1.6292098337089556e-7 
vn 1 4.3711398944878965e-8 1.6292098337089556e-7 
vn 1 4.3711398944878965e-8 1.6292098337089556e-7 
vn 1 4.3711398944878965e-8 1.6292098337089556e-7 
vn 1 4.3711398944878965e-8 1.6292098337089556e-7 
vn 1 4.3711398944878965e-8 1.6292098337089556e-7 
vn 1 4.3711398944878965e-8 1.6292098337089556e-7 
vn 1 4.3711398944878965e-8 1.6292098337089556e-7 
vn 1 4.3711398944878965e-8 1.6292098337089556e-7 
vn 1 4.3711398944878965e-8 1.6292098337089556e-7 
vn 1 4.3711398944878965e-8 1.6292098337089556e-7 
vn 1 4.3711398944878965e-8 1.6292098337089556e-7 
vn 1 4.3711398944878965e-8 1.6292098337089556e-7 
vn 1 4.3711398944878965e-8 1.6292098337089556e-7 
vn 1 4.3711398944878965e-8 1.6292098337089556e-7 
vn 1 4.3711398944878965e-8 1.6292098337089556e-7 
vn 1 4.3711398944878965e-8 1.6292098337089556e-7 
vn 1 4.3711398944878965e-8 1.6292098337089556e-7 
vn 1 4.3711398944878965e-8 1.6292098337089556e-7 
vn 1 4.3711398944878965e-8 1.6292098337089556e-7 
vn 1 4.3711398944878965e-8 1.6292098337089556e-7 
vn 1 4.3711398944878965e-8 1.6292098337089556e-7 
vn 1 4.3711398944878965e-8 1.6292098337089556e-7 
vn -1 -4.3711398944878965e-8 -1.629208270514937e-7 
vn -1 -4.3711398944878965e-8 -1.629208270514937e-7 
vn -1 -4.3711398944878965e-8 -1.629208270514937e-7 
vn -1 -4.3711398944878965e-8 -1.629208270514937e-7 
vn -1 -4.3711398944878965e-8 -1.629208270514937e-7 
vn -1 -4.3711398944878965e-8 -1.629208270514937e-7 
vn -1 -4.3711398944878965e-8 -1.629208270514937e-7 
vn -1 -4.3711398944878965e-8 -1.629208270514937e-7 
vn -1 -4.3711398944878965e-8 -1.629208270514937e-7 
vn -1 -4.3711398944878965e-8 -1.629208270514937e-7 
vn -1 -4.3711398944878965e-8 -1.629208270514937e-7 
vn -1 -4.3711398944878965e-8 -1.629208270514937e-7 
vn -1 -4.3711398944878965e-8 -1.629208270514937e-7 
vn -1 -4.3711398944878965e-8 -1.629208270514937e-7 
vn -1 -4.3711398944878965e-8 -1.629208270514937e-7 
vn -1 -4.3711398944878965e-8 -1.629208270514937e-7 
vn -1 -4.3711398944878965e-8 -1.629208270514937e-7 
vn -1 -4.3711398944878965e-8 -1.629208270514937e-7 
vn -1 -4.3711398944878965e-8 -1.629208270514937e-7 
vn -1 -4.3711398944878965e-8 -1.629208270514937e-7 
vn -1 -4.3711398944878965e-8 -1.629208270514937e-7 
vn -1 -4.3711398944878965e-8 -1.629208270514937e-7 
vn -1 -4.3711398944878965e-8 -1.629208270514937e-7 
vn -1 -4.3711398944878965e-8 -1.629208270514937e-7 
vn -1 -4.3711398944878965e-8 -1.629208270514937e-7 
vn -1 -4.3711398944878965e-8 -1.629208270514937e-7 
vn -1 -4.3711398944878965e-8 -1.629208270514937e-7 
vn -1 -4.3711398944878965e-8 -1.629208270514937e-7 
vn 0.0021848154719918966 -0.05283859372138977 -0.7310132384300232 
vn 0.002184821292757988 -0.34044185280799866 -0.6883079409599304 
vn 0.002184821292757988 -0.34044185280799866 -0.6883079409599304 
vn 0.002184815937653184 -0.5987265110015869 -0.5863259434700012 
vn 0.0021848154719918966 -0.05283859372138977 -0.7310132384300232 
vn 0.002184804528951645 0.16537824273109436 -0.7219558358192444 
vn 0.002184804528951645 0.16537824273109436 -0.7219558358192444 
vn -0.002184594515711069 0.3118877410888672 -0.6955209970474243 
vn -0.002184594515711069 0.3118877410888672 -0.6955209970474243 
vn -0.0021846184972673655 0.5492739677429199 -0.61171954870224 
vn -0.0021846184972673655 0.5492739677429199 -0.61171954870224 
vn -0.0021846634335815907 0.8272483348846436 -0.4112823009490967 
vn -0.0021846634335815907 0.8272483348846436 -0.4112823009490967 
vn -0.002184715587645769 0.9836175441741943 -0.1319531500339508 
vn -0.002184715587645769 0.9836175441741943 -0.1319531500339508 
vn -0.0021847642492502928 0.9727190732955933 0.1698150783777237 
vn -0.0021847642492502928 0.9727190732955933 0.1698150783777237 
vn -0.0021847973112016916 0.8272483348846436 0.4112823009490967 
vn -0.0021847973112016916 0.8272483348846436 0.4112823009490967 
vn -0.002184815937653184 0.5987265110015869 0.5863259434700012 
vn -0.002184815937653184 0.5987265110015869 0.5863259434700012 
vn -0.002184821292757988 0.34044185280799866 0.6883079409599304 
vn -0.002184821292757988 0.34044185280799866 0.6883079409599304 
vn -0.0021848154719918966 0.05283859372138977 0.7310132384300232 
vn -0.0021848154719918966 0.05283859372138977 0.7310132384300232 
vn -0.002184804528951645 -0.16537824273109436 0.7219558358192444 
vn -0.002184804528951645 -0.16537824273109436 0.7219558358192444 
vn 0.002184594515711069 -0.3118877410888672 0.6955209970474243 
vn 0.002184594515711069 -0.3118877410888672 0.6955209970474243 
vn 0.0021846184972673655 -0.5492739677429199 0.61171954870224 
vn 0.0021846184972673655 -0.5492739677429199 0.61171954870224 
vn 0.0021846634335815907 -0.8272483348846436 0.4112823009490967 
vn 0.0021846634335815907 -0.8272483348846436 0.4112823009490967 
vn 0.002184715587645769 -0.9836175441741943 0.1319531500339508 
vn 0.002184715587645769 -0.9836175441741943 0.1319531500339508 
vn 0.0021847642492502928 -0.9727190732955933 -0.1698150783777237 
vn 0.0021847642492502928 -0.9727190732955933 -0.1698150783777237 
vn 0.0021847973112016916 -0.8272483348846436 -0.4112823009490967 
vn 0.0021847973112016916 -0.8272483348846436 -0.4112823009490967 
vn 0.002184815937653184 -0.5987265110015869 -0.5863259434700012 
vn -1 -4.3711398944878965e-8 -1.629208270514937e-7 
vn -1 -4.3711398944878965e-8 -1.629208270514937e-7 
vn -1 -4.3711398944878965e-8 -1.629208270514937e-7 
vn -1 -4.3711398944878965e-8 -1.629208270514937e-7 
vn -1 -4.3711398944878965e-8 -1.629208270514937e-7 
vn -1 -4.3711398944878965e-8 -1.629208270514937e-7 
vn -1 -4.3711398944878965e-8 -1.629208270514937e-7 
vn -1 -4.3711398944878965e-8 -1.629208270514937e-7 
vn -1 -4.3711398944878965e-8 -1.629208270514937e-7 
vn -1 -4.3711398944878965e-8 -1.629208270514937e-7 
vn -1 -4.3711398944878965e-8 -1.629208270514937e-7 
vn -1 -4.3711398944878965e-8 -1.629208270514937e-7 
vn -1 -4.3711398944878965e-8 -1.629208270514937e-7 
vn -1 -4.3711398944878965e-8 -1.629208270514937e-7 
vn -1 -4.3711398944878965e-8 -1.629208270514937e-7 
vn -1 -4.3711398944878965e-8 -1.629208270514937e-7 
vn -1 -4.3711398944878965e-8 -1.629208270514937e-7 
vn -1 -4.3711398944878965e-8 -1.629208270514937e-7 
vn -1 -4.3711398944878965e-8 -1.629208270514937e-7 
vn -1 -4.3711398944878965e-8 -1.629208270514937e-7 
vn -0.6181068420410156 -0.04145476967096329 -0.5746498107910156 
vn -0.6146661639213562 -0.2697811722755432 -0.5425992608070374 
vn -0.6146661639213562 -0.2697811722755432 -0.5425992608070374 
vn -0.6249526143074036 -0.4649454653263092 -0.4590640366077423 
vn -0.6181068420410156 -0.04898298159241676 -0.5743322372436523 
vn -0.6249526739120483 0.13514772057533264 -0.5628457069396973 
vn -0.6249526739120483 0.12770923972129822 -0.5637757182121277 
vn -0.6385006308555603 0.2410523146390915 -0.5350443124771118 
vn -0.6351317763328552 0.23725198209285736 -0.5380945801734924 
vn -0.6617377996444702 0.41594287753105164 -0.45662644505500793 
vn -0.6584556102752686 0.40371933579444885 -0.4649718403816223 
vn -0.681163489818573 0.6074325442314148 -0.2991895377635956 
vn -0.681163489818573 0.5988845825195312 -0.30828574299812317 
vn -0.6875353455543518 0.713847815990448 -0.09743638336658478 
vn -0.6875353455543518 0.7151916027069092 -0.09200417995452881 
vn -0.6715084314346313 0.7237148284912109 0.11646842956542969 
vn -0.6715084314346313 0.7185172438621521 0.1325967162847519 
vn -0.6485339403152466 0.6326407790184021 0.3098597824573517 
vn -0.6452018618583679 0.6244582533836365 0.3222349286079407 
vn -0.6249528527259827 0.4769814908504486 0.4523983299732208 
vn -0.6249528527259827 0.46494540572166443 0.4590638279914856 
vn -0.6146664023399353 0.26623374223709106 0.5435371994972229 
vn -0.6146664023399353 0.26623374223709106 0.5435371994972229 
vn -0.6181070804595947 0.03768914192914963 0.574788510799408 
vn -0.6181070804595947 0.04521934315562248 0.5744974613189697 
vn -0.6249527931213379 -0.13514778017997742 0.5628455281257629 
vn -0.6249527931213379 -0.127709299325943 0.5637755393981934 
vn -0.6385007500648499 -0.24463164806365967 0.5341728329658508 
vn -0.6351318955421448 -0.23725204169750214 0.5380944013595581 
vn -0.6617379188537598 -0.41907310485839844 0.4550899565219879 
vn -0.6584557294845581 -0.4005317986011505 0.46644657850265503 
vn -0.681163489818573 -0.6074325442314148 0.2991892993450165 
vn -0.681163489818573 -0.5988845825195312 0.30828550457954407 
vn -0.6875353455543518 -0.7145294547080994 0.09472133219242096 
vn -0.6875353455543518 -0.7145294547080994 0.09472133219242096 
vn -0.6715083122253418 -0.7228953242301941 -0.11916465312242508 
vn -0.6715083122253418 -0.7194302082061768 -0.12991708517074585 
vn -0.648533821105957 -0.6326407790184021 -0.3098599910736084 
vn -0.6452017426490784 -0.622279703617096 -0.324485719203949 
vn -0.6249526143074036 -0.4769815504550934 -0.45239853858947754 
s on 
f 1//1 2//2 3//3 
f 2//2 4//4 3//3 
f 3//3 4//4 4//4 
f 4//4 3//3 4//4 
f 4//4 3//3 3//3 
f 3//3 5//5 3//3 
f 3//3 5//5 1//1 
f 5//5 5//5 1//1 
f 1//1 5//5 6//6 
f 5//5 7//7 6//6 
f 6//6 7//7 8//8 
f 7//7 9//9 8//8 
f 8//8 9//9 10//10 
f 9//9 11//11 10//10 
f 10//10 11//11 12//12 
f 11//11 13//13 12//12 
f 12//12 13//13 14//14 
f 13//13 15//15 14//14 
f 14//14 15//15 16//16 
f 15//15 17//17 16//16 
f 16//16 17//17 18//18 
f 17//17 19//19 18//18 
f 18//18 19//19 20//20 
f 19//19 21//21 20//20 
f 20//20 21//21 22//22 
f 21//21 23//23 22//22 
f 22//22 23//23 24//24 
f 23//23 25//25 24//24 
f 24//24 25//25 26//26 
f 25//25 27//27 26//26 
f 26//26 27//27 28//28 
f 27//27 29//29 28//28 
f 28//28 29//29 30//30 
f 29//29 31//31 30//30 
f 30//30 31//31 32//32 
f 31//31 33//33 32//32 
f 32//32 33//33 34//34 
f 33//33 35//35 34//34 
f 34//34 35//35 36//36 
f 35//35 37//37 36//36 
f 36//36 37//37 38//38 
f 37//37 39//39 38//38 
f 38//38 39//39 40//40 
f 39//39 41//41 40//40 
f 40//40 41//41 42//42 
f 41//41 43//43 42//42 
f 42//42 43//43 44//44 
f 43//43 45//45 44//44 
f 44//44 45//45 46//46 
f 45//45 47//47 46//46 
f 46//46 47//47 48//48 
f 47//47 49//49 48//48 
f 48//48 49//49 50//50 
f 49//49 51//51 50//50 
f 50//50 51//51 52//52 
f 51//51 53//53 52//52 
f 52//52 53//53 54//54 
f 53//53 55//55 54//54 
f 54//54 55//55 56//56 
f 55//55 4//4 56//56 
f 56//56 4//4 2//2 
f 4//4 2//2 2//2 
f 2//2 2//2 57//57 
f 2//2 57//57 57//57 
f 57//57 57//57 58//58 
f 57//57 59//59 58//58 
f 58//58 59//59 58//58 
f 59//59 60//60 58//58 
f 58//58 60//60 58//58 
f 60//60 61//61 58//58 
f 58//58 61//61 58//58 
f 61//61 62//62 58//58 
f 58//58 62//62 58//58 
f 62//62 63//63 58//58 
f 58//58 63//63 58//58 
f 63//63 64//64 58//58 
f 58//58 64//64 58//58 
f 64//64 65//65 58//58 
f 58//58 65//65 58//58 
f 65//65 66//66 58//58 
f 58//58 66//66 58//58 
f 66//66 67//67 58//58 
f 58//58 67//67 58//58 
f 67//67 68//68 58//58 
f 58//58 68//68 58//58 
f 68//68 69//69 58//58 
f 58//58 69//69 58//58 
f 69//69 70//70 58//58 
f 58//58 70//70 58//58 
f 70//70 71//71 58//58 
f 58//58 71//71 58//58 
f 71//71 72//72 58//58 
f 58//58 72//72 58//58 
f 72//72 73//73 58//58 
f 58//58 73//73 58//58 
f 73//73 74//74 58//58 
f 58//58 74//74 58//58 
f 74//74 75//75 58//58 
f 58//58 75//75 58//58 
f 75//75 76//76 58//58 
f 58//58 76//76 58//58 
f 76//76 77//77 58//58 
f 58//58 77//77 58//58 
f 77//77 78//78 58//58 
f 58//58 78//78 58//58 
f 78//78 79//79 58//58 
f 58//58 79//79 58//58 
f 79//79 80//80 58//58 
f 58//58 80//80 58//58 
f 80//80 81//81 58//58 
f 58//58 81//81 58//58 
f 81//81 82//82 58//58 
f 58//58 82//82 58//58 
f 82//82 83//83 58//58 
f 58//58 83//83 84//84 
f 83//83 84//84 84//84 
f 84//84 84//84 85//85 
f 84//84 85//85 85//85 
f 85//85 85//85 86//86 
f 85//85 87//87 86//86 
f 86//86 87//87 86//86 
f 87//87 88//88 86//86 
f 86//86 88//88 86//86 
f 88//88 89//89 86//86 
f 86//86 89//89 86//86 
f 89//89 90//90 86//86 
f 86//86 90//90 86//86 
f 90//90 91//91 86//86 
f 86//86 91//91 86//86 
f 91//91 92//92 86//86 
f 86//86 92//92 86//86 
f 92//92 93//93 86//86 
f 86//86 93//93 86//86 
f 93//93 94//94 86//86 
f 86//86 94//94 86//86 
f 94//94 95//95 86//86 
f 86//86 95//95 86//86 
f 95//95 96//96 86//86 
f 86//86 96//96 86//86 
f 96//96 97//97 86//86 
f 86//86 97//97 86//86 
f 97//97 98//98 86//86 
f 86//86 98//98 86//86 
f 98//98 99//99 86//86 
f 86//86 99//99 86//86 
f 99//99 100//100 86//86 
f 86//86 100//100 86//86 
f 100//100 101//101 86//86 
f 86//86 101//101 86//86 
f 101//101 102//102 86//86 
f 86//86 102//102 86//86 
f 102//102 103//103 86//86 
f 86//86 103//103 86//86 
f 103//103 104//104 86//86 
f 86//86 104//104 86//86 
f 104//104 105//105 86//86 
f 86//86 105//105 86//86 
f 105//105 106//106 86//86 
f 86//86 106//106 86//86 
f 106//106 107//107 86//86 
f 86//86 107//107 86//86 
f 107//107 108//108 86//86 
f 86//86 108//108 86//86 
f 108//108 109//109 86//86 
f 86//86 109//109 86//86 
f 109//109 110//110 86//86 
f 86//86 110//110 86//86 
f 110//110 111//111 86//86 
f 86//86 111//111 112//112 
f 111//111 112//112 112//112 
f 112//112 112//112 113//113 
f 112//112 113//113 113//113 
f 113//113 113//113 114//114 
f 113//113 115//115 114//114 
f 114//114 115//115 116//116 
f 115//115 116//116 116//116 
f 116//116 116//116 114//114 
f 116//116 114//114 114//114 
f 114//114 114//114 113//113 
f 114//114 117//117 113//113 
f 113//113 117//117 118//118 
f 117//117 119//119 118//118 
f 118//118 119//119 120//120 
f 119//119 121//121 120//120 
f 120//120 121//121 122//122 
f 121//121 123//123 122//122 
f 122//122 123//123 124//124 
f 123//123 125//125 124//124 
f 124//124 125//125 126//126 
f 125//125 127//127 126//126 
f 126//126 127//127 128//128 
f 127//127 129//129 128//128 
f 128//128 129//129 130//130 
f 129//129 131//131 130//130 
f 130//130 131//131 132//132 
f 131//131 133//133 132//132 
f 132//132 133//133 134//134 
f 133//133 135//135 134//134 
f 134//134 135//135 136//136 
f 135//135 137//137 136//136 
f 136//136 137//137 138//138 
f 137//137 139//139 138//138 
f 138//138 139//139 140//140 
f 139//139 141//141 140//140 
f 140//140 141//141 142//142 
f 141//141 143//143 142//142 
f 142//142 143//143 144//144 
f 143//143 145//145 144//144 
f 144//144 145//145 146//146 
f 145//145 147//147 146//146 
f 146//146 147//147 148//148 
f 147//147 149//149 148//148 
f 148//148 149//149 150//150 
f 149//149 151//151 150//150 
f 150//150 151//151 152//152 
f 151//151 116//116 152//152 
f 152//152 116//116 115//115 
f 116//116 115//115 115//115 
f 115//115 115//115 153//153 
f 115//115 153//153 153//153 
f 153//153 153//153 154//154 
f 153//153 155//155 154//154 
f 154//154 155//155 154//154 
f 155//155 156//156 154//154 
f 154//154 156//156 154//154 
f 156//156 157//157 154//154 
f 154//154 157//157 154//154 
f 157//157 158//158 154//154 
f 154//154 158//158 154//154 
f 158//158 159//159 154//154 
f 154//154 159//159 154//154 
f 159//159 160//160 154//154 
f 154//154 160//160 154//154 
f 160//160 161//161 154//154 
f 154//154 161//161 154//154 
f 161//161 162//162 154//154 
f 154//154 162//162 154//154 
f 162//162 163//163 154//154 
f 154//154 163//163 154//154 
f 163//163 164//164 154//154 
f 154//154 164//164 154//154 
f 164//164 165//165 154//154 
f 154//154 165//165 154//154 
f 165//165 166//166 154//154 
f 154//154 166//166 154//154 
f 166//166 167//167 154//154 
f 154//154 167//167 154//154 
f 167//167 168//168 154//154 
f 154//154 168//168 154//154 
f 168//168 169//169 154//154 
f 154//154 169//169 154//154 
f 169//169 170//170 154//154 
f 154//154 170//170 154//154 
f 170//170 171//171 154//154 
f 154//154 171//171 172//172 
f 171//171 172//172 172//172 
f 172//172 172//172 173//173 
f 172//172 173//173 173//173 
f 173//173 173//173 174//174 
f 173//173 175//175 174//174 
f 174//174 175//175 176//176 
f 175//175 176//176 176//176 
f 176//176 176//176 174//174 
f 176//176 174//174 174//174 
f 174//174 174//174 173//173 
f 174//174 177//177 173//173 
f 173//173 177//177 178//178 
f 177//177 179//179 178//178 
f 178//178 179//179 180//180 
f 179//179 181//181 180//180 
f 180//180 181//181 182//182 
f 181//181 183//183 182//182 
f 182//182 183//183 184//184 
f 183//183 185//185 184//184 
f 184//184 185//185 186//186 
f 185//185 187//187 186//186 
f 186//186 187//187 188//188 
f 187//187 189//189 188//188 
f 188//188 189//189 190//190 
f 189//189 191//191 190//190 
f 190//190 191//191 192//192 
f 191//191 193//193 192//192 
f 192//192 193//193 194//194 
f 193//193 195//195 194//194 
f 194//194 195//195 196//196 
f 195//195 197//197 196//196 
f 196//196 197//197 198//198 
f 197//197 199//199 198//198 
f 198//198 199//199 200//200 
f 199//199 201//201 200//200 
f 200//200 201//201 202//202 
f 201//201 203//203 202//202 
f 202//202 203//203 204//204 
f 203//203 205//205 204//204 
f 204//204 205//205 206//206 
f 205//205 207//207 206//206 
f 206//206 207//207 208//208 
f 207//207 209//209 208//208 
f 208//208 209//209 210//210 
f 209//209 211//211 210//210 
f 210//210 211//211 212//212 
f 211//211 176//176 212//212 
f 212//212 176//176 175//175 

