mtllib model_7.mtl
usemtl material_7
o model_7
v -0.1370542049407959 1.544745922088623 3.4838573932647705 
v -0.1370541900396347 1.4957159757614136 3.4838573932647705 
v -0.1370542049407959 1.544745922088623 3.5326013565063477 
v -0.1370542049407959 1.4957159757614136 3.5326013565063477 
vn -1 -4.3711398944878965e-8 -1.629208270514937e-7 
vn -1 -4.3711398944878965e-8 -1.629208270514937e-7 
vn -1 -4.3711398944878965e-8 -1.629208270514937e-7 
vn -1 -4.3711398944878965e-8 -1.629208270514937e-7 
s on 
f 1//1 2//2 3//3 
f 2//2 4//4 3//3 

