mtllib model_3.mtl
usemtl material_3
o model_3
v -0.13407763838768005 1.3108181953430176 3.7870805263519287 
v -0.13407763838768005 1.3108181953430176 3.824598789215088 
v -0.12945599853992462 1.2980800867080688 3.7870805263519287 
v -0.12945601344108582 1.2980800867080688 3.824598789215088 
v -0.1297798752784729 1.2979286909103394 3.824598789215088 
v -0.13440151512622833 1.310666799545288 3.824598789215088 
v -0.1297798752784729 1.2979286909103394 3.7870805263519287 
v -0.13440150022506714 1.310666799545288 3.7870805263519287 
v -0.12945601344108582 1.2980800867080688 3.824598789215088 
v -0.1297798752784729 1.2979286909103394 3.824598789215088 
v -0.12945599853992462 1.2980800867080688 3.7870805263519287 
v -0.1297798752784729 1.2979286909103394 3.7870805263519287 
v -0.13407763838768005 1.3108181953430176 3.824598789215088 
v -0.13440151512622833 1.310666799545288 3.824598789215088 
v -0.12945601344108582 1.2980800867080688 3.824598789215088 
v -0.1297798752784729 1.2979286909103394 3.824598789215088 
v -0.13407763838768005 1.3108181953430176 3.7870805263519287 
v -0.13440150022506714 1.310666799545288 3.7870805263519287 
v -0.13407763838768005 1.3108181953430176 3.824598789215088 
v -0.13440151512622833 1.310666799545288 3.824598789215088 
v -0.12945599853992462 1.2980800867080688 3.7870805263519287 
v -0.1297798752784729 1.2979286909103394 3.7870805263519287 
v -0.13407763838768005 1.3108181953430176 3.7870805263519287 
v -0.13440150022506714 1.310666799545288 3.7870805263519287 
vn 0.939393937587738 0.3428388237953186 2.0185393623251002e-7 
vn 0.939393937587738 0.3428388237953186 2.0185393623251002e-7 
vn 0.939393937587738 0.3428388237953186 2.0185393623251002e-7 
vn 0.939393937587738 0.3428388237953186 2.0185393623251002e-7 
vn -0.939393937587738 -0.3428388237953186 -2.018539220216553e-7 
vn -0.939393937587738 -0.3428388237953186 -2.018539220216553e-7 
vn -0.939393937587738 -0.3428388237953186 -2.018539220216553e-7 
vn -0.939393937587738 -0.3428388237953186 -2.018539220216553e-7 
vn 0.34078270196914673 -0.9401342272758484 -0.003774167038500309 
vn 0.34078270196914673 -0.9401342272758484 -0.003774167038500309 
vn 0.34078270196914673 -0.9401342272758484 -0.003774167038500309 
vn 0.34078270196914673 -0.9401342272758484 -0.003774167038500309 
vn -0.0019793622195720673 -0.0009250918519683182 0.999997615814209 
vn -0.0019793622195720673 -0.0009250918519683182 0.999997615814209 
vn -0.0019793622195720673 -0.0009250918519683182 0.999997615814209 
vn -0.0019793622195720673 -0.0009250918519683182 0.999997615814209 
vn -0.3407857120037079 0.9401406645774841 -2.48790655632547e-7 
vn -0.3407857120037079 0.9401406645774841 -2.48790655632547e-7 
vn -0.3407857120037079 0.9401406645774841 -2.48790655632547e-7 
vn -0.3407857120037079 0.9401406645774841 -2.48790655632547e-7 
vn 0.0019793622195720673 0.0009250918519683182 -0.999997615814209 
vn 0.0019793622195720673 0.0009250918519683182 -0.999997615814209 
vn 0.0019793622195720673 0.0009250918519683182 -0.999997615814209 
vn 0.0019793622195720673 0.0009250918519683182 -0.999997615814209 
vt 0.12332862615585327 0.5129435062408447 
vt 0.21194089949131012 0.5129435062408447 
vt 0.12332862615585327 0.5129435062408447 
vt 0.21194089949131012 0.5129435062408447 
vt 0.27605950832366943 0.742523729801178 
vt 0.27605950832366943 0.6939303278923035 
vt 0.08247429877519608 0.742523729801178 
vt 0.08247429877519608 0.6939303278923035 
vt 0.21194089949131012 0.5705059170722961 
vt 0.21194089949131012 0.5705059170722961 
vt 0.12332862615585327 0.5705059170722961 
vt 0.12332862615585327 0.5705059170722961 
vt 0.17099200189113617 0.4684999883174896 
vt 0.15888702869415283 0.4684999883174896 
vt 0.17099200189113617 0.5705059170722961 
vt 0.15888702869415283 0.5705059170722961 
vt 0.12332862615585327 0.4684999883174896 
vt 0.12332862615585327 0.4684999883174896 
vt 0.21194089949131012 0.4684999883174896 
vt 0.21194089949131012 0.4684999883174896 
vt 0.17099200189113617 0.5705059170722961 
vt 0.15888702869415283 0.5705059170722961 
vt 0.17099200189113617 0.4684999883174896 
vt 0.15888702869415283 0.4684999883174896 
s on 
f 1/1/1 2/2/2 3/3/3 
f 2/2/2 4/4/4 3/3/3 
f 3/3/3 4/4/4 4/4/4 
f 4/4/4 5/5/5 4/4/4 
f 4/4/4 5/5/5 5/5/5 
f 5/5/5 6/6/6 5/5/5 
f 5/5/5 6/6/6 7/7/7 
f 6/6/6 8/8/8 7/7/7 
f 7/7/7 8/8/8 8/8/8 
f 8/8/8 9/9/9 8/8/8 
f 8/8/8 9/9/9 9/9/9 
f 9/9/9 10/10/10 9/9/9 
f 9/9/9 10/10/10 11/11/11 
f 10/10/10 12/12/12 11/11/11 
f 11/11/11 12/12/12 12/12/12 
f 12/12/12 13/13/13 12/12/12 
f 12/12/12 13/13/13 13/13/13 
f 13/13/13 14/14/14 13/13/13 
f 13/13/13 14/14/14 15/15/15 
f 14/14/14 16/16/16 15/15/15 
f 15/15/15 16/16/16 16/16/16 
f 16/16/16 17/17/17 16/16/16 
f 16/16/16 17/17/17 17/17/17 
f 17/17/17 18/18/18 17/17/17 
f 17/17/17 18/18/18 19/19/19 
f 18/18/18 20/20/20 19/19/19 
f 19/19/19 20/20/20 20/20/20 
f 20/20/20 21/21/21 20/20/20 
f 20/20/20 21/21/21 21/21/21 
f 21/21/21 22/22/22 21/21/21 
f 21/21/21 22/22/22 23/23/23 
f 22/22/22 24/24/24 23/23/23 

